<svg width="108" height="108" viewBox="0 0 108 108" fill="none" xmlns="http://www.w3.org/2000/svg">
<circle cx="54" cy="54" r="54" fill="white"/>
<g clip-path="url(#clip0_944_5999)">
<path d="M43.5526 18.129L40.2764 15.1066L42.0619 14.6316L43.7902 16.2697H43.8884L44.4865 13.9681L46.2884 13.4849L45.0188 17.7194L45.8379 20.881L44.3553 21.2824L43.5526 18.129Z" fill="#00BF37"/>
<path d="M55.7571 14.3775L55.6752 15.7126L58.4599 15.8846L58.3699 17.3343L55.585 17.1623L55.5032 18.4974L58.6075 18.6858L58.5173 20.1437L53.8896 19.8571L54.3156 12.8376L58.9432 13.1161L58.8612 14.5659L55.7571 14.3775Z" fill="#00BF37"/>
<path d="M69.1569 15.77L70.795 16.458L70.4838 23.9689L68.9275 23.3054L69.0423 21.6673L66.6669 20.6599L65.5612 21.9048L64.0049 21.2414L69.1569 15.77ZM69.1569 20.1684L69.2552 18.6122L69.378 17.7276H69.2878L68.7309 18.432L67.6907 19.5951L69.1569 20.1684Z" fill="#00BF37"/>
<path d="M79.9766 22.0439L81.9343 23.8377C82.1924 24.0723 82.4085 24.3493 82.5732 24.6568C82.7087 24.9277 82.7893 25.2228 82.8105 25.525C82.8206 25.8047 82.7733 26.0834 82.6714 26.3441C82.5577 26.646 82.3883 26.9239 82.1719 27.1631C82.0278 27.3273 81.8522 27.4609 81.6557 27.5563C81.4711 27.6533 81.272 27.7197 81.066 27.7528C80.8571 27.7857 80.6443 27.7857 80.4353 27.7528C80.2231 27.7309 80.0142 27.6842 79.8128 27.6136L79.7554 27.6791L79.3377 30.8571L79.2723 30.9308L77.9781 29.7514L78.3795 26.6799L78.0601 26.385L76.3482 28.2525L75.2178 27.2205L79.9766 22.0439ZM79.8456 26.1393C79.9288 26.224 80.0284 26.2909 80.1382 26.3359C80.248 26.381 80.3658 26.4032 80.4845 26.4014C80.5953 26.3967 80.7039 26.3696 80.8039 26.3218C80.9038 26.2739 80.993 26.2063 81.066 26.1229C81.1429 26.0454 81.2036 25.9533 81.2444 25.852C81.2852 25.7508 81.3053 25.6424 81.3036 25.5332C81.2986 25.4116 81.2667 25.2927 81.21 25.185C81.1533 25.0773 81.0733 24.9836 80.9758 24.9107L80.1568 24.149L79.0266 25.3858L79.8456 26.1393Z" fill="#00BF37"/>
<path d="M83.6868 37.5983C83.3766 37.0758 83.2498 36.4646 83.3265 35.8619C83.4095 35.2398 83.6977 34.6633 84.1456 34.2237L85.3414 35.2148C85.1114 35.4274 84.9347 35.6912 84.8254 35.9847C84.7761 36.1367 84.7606 36.2976 84.7804 36.4562C84.8003 36.6147 84.8548 36.7669 84.94 36.9021C84.994 37.0046 85.063 37.0984 85.1448 37.1805C85.2129 37.2595 85.2966 37.3236 85.3905 37.3689C85.4752 37.4179 85.5712 37.4433 85.6689 37.4426C85.7725 37.4493 85.8756 37.4235 85.9639 37.3689C86.0586 37.3212 86.1402 37.2509 86.2014 37.1642C86.2691 37.0723 86.314 36.9656 86.3324 36.8529C86.3501 36.6978 86.3501 36.5412 86.3324 36.386C86.3196 36.1637 86.2952 35.9423 86.2588 35.7226L86.185 35.2639C86.1638 35.057 86.1638 34.8484 86.185 34.6414C86.1871 34.4162 86.2229 34.1926 86.2914 33.978C86.3602 33.7573 86.4655 33.5497 86.6028 33.3637C86.7479 33.1663 86.9353 33.004 87.1515 32.8886C87.3923 32.7582 87.6569 32.6774 87.9295 32.6511C88.2065 32.621 88.4867 32.6546 88.7486 32.7494C89.0187 32.8479 89.2687 32.9951 89.4859 33.1835C89.7255 33.403 89.9275 33.6604 90.0838 33.9452C90.2458 34.2215 90.3593 34.5235 90.4195 34.838C90.4604 35.0903 90.4604 35.3475 90.4195 35.5997C90.3832 35.8187 90.3083 36.0295 90.1984 36.2222C90.1011 36.3925 89.9858 36.5518 89.8544 36.6973L88.716 35.8127C88.8638 35.6633 88.961 35.4714 88.9944 35.2639C89.0249 35.0475 88.9786 34.8272 88.8634 34.6414C88.7699 34.4423 88.6148 34.2787 88.4211 34.1746C88.3483 34.1344 88.2666 34.1134 88.1835 34.1134C88.1004 34.1134 88.0187 34.1344 87.9459 34.1746C87.8666 34.2202 87.7984 34.2828 87.746 34.3578C87.6936 34.4328 87.6585 34.5185 87.643 34.6087C87.606 34.9204 87.6227 35.2362 87.6922 35.5424L87.774 35.9929C87.8955 36.534 87.8813 37.0967 87.733 37.631C87.6528 37.869 87.526 38.0885 87.36 38.277C87.1941 38.4654 86.9924 38.6189 86.7665 38.7286C86.4816 38.8995 86.1569 38.9927 85.8247 38.9989C85.5431 38.995 85.265 38.9366 85.0056 38.8269C84.737 38.7047 84.4905 38.5386 84.2765 38.3354C84.0422 38.1225 83.8431 37.8737 83.6868 37.5983Z" fill="#00BF37"/>
<path d="M87.8726 55.6667C87.8935 55.1624 88.0131 54.6671 88.2247 54.2088C88.4196 53.7788 88.698 53.3918 89.0438 53.0703C89.3919 52.7547 89.798 52.5099 90.2396 52.3495C90.7073 52.1856 91.2028 52.116 91.6976 52.1447C92.1932 52.1648 92.6802 52.2816 93.1309 52.4888C93.5551 52.6855 93.9365 52.9638 94.2531 53.3078C94.5725 53.6593 94.8176 54.0716 94.9738 54.52C95.1495 54.9934 95.2222 55.4989 95.1868 56.0026C95.1699 56.5074 95.0501 57.0036 94.8347 57.4605C94.6355 57.888 94.3576 58.2742 94.0156 58.599C93.6659 58.9165 93.2566 59.1615 92.8116 59.3198C92.3442 59.4849 91.8484 59.5546 91.3536 59.5245C90.8604 59.5056 90.376 59.3887 89.9284 59.1805C89.5046 58.9792 89.1214 58.7015 88.798 58.3615C88.4787 58.01 88.2336 57.5977 88.0773 57.1492C87.9084 56.6743 87.8387 56.1697 87.8726 55.6667ZM89.3223 55.7323C89.3085 56.0241 89.3501 56.316 89.4451 56.5923C89.5319 56.8569 89.6743 57.0999 89.8629 57.3049C90.0523 57.5133 90.2805 57.6829 90.5345 57.8045C90.8192 57.9291 91.1248 57.9986 91.4354 58.0093C91.7463 58.0289 92.0581 57.9871 92.3529 57.8864C92.6223 57.7955 92.8703 57.6506 93.0817 57.4605C93.2883 57.2731 93.453 57.0442 93.5651 56.7889C93.6792 56.5298 93.7458 56.2524 93.7616 55.9698C93.7787 55.6757 93.7397 55.3811 93.6468 55.1016C93.5582 54.8403 93.4161 54.6003 93.2293 54.3972C93.0373 54.1881 92.8063 54.0184 92.5494 53.8975C92.2647 53.7729 91.9589 53.7035 91.6484 53.6928C91.3375 53.6732 91.0259 53.7149 90.7311 53.8156C90.4641 53.9065 90.2186 54.0515 90.0102 54.2416C89.8059 54.4277 89.6416 54.6534 89.5271 54.905C89.4046 55.1673 89.335 55.4512 89.3223 55.7405V55.7323Z" fill="#00BF37"/>
<path d="M92.7628 67.871L90.9773 72.1548L89.6339 71.5896L90.8297 68.7229L89.5275 68.1823L88.4463 70.7541L87.1111 70.1972L88.1841 67.6171L85.6777 66.5769L86.2676 65.1599L92.7628 67.871Z" fill="#00BF37"/>
<path d="M78.4857 85.2271L77.6667 84.1623L75.4386 85.8496L74.5624 84.6947L76.782 83.0074L75.963 81.9426L73.5058 83.8183L72.6211 82.6552L76.3233 79.854L80.5742 85.4646L76.8802 88.2658L75.9957 87.1109L78.4857 85.2271Z" fill="#00BF37"/>
<path d="M66.6993 89.5926L69.7134 92.1317L67.8787 92.7214L66.1014 91.0833H66.003L65.5199 93.4504L63.6934 94.0401L64.6435 90.2233L61.3672 87.4139L63.2183 86.8078L65.2414 88.6343H65.3397L65.9049 85.9723L67.756 85.3662L66.6993 89.5926Z" fill="#00BF37"/>
<path d="M55.5765 88.1102L55.4373 95.146L52.9228 95.0968C52.5836 95.0953 52.2477 95.0314 51.9317 94.9085C51.6291 94.8038 51.3506 94.6395 51.1126 94.4252C50.8954 94.2211 50.7251 93.9724 50.6131 93.6962C50.4879 93.3985 50.4291 93.0771 50.441 92.7543C50.4438 92.4349 50.5135 92.1196 50.6457 91.8288C50.7727 91.5574 50.954 91.3149 51.1782 91.1162C51.4199 90.915 51.698 90.7621 51.9973 90.6657C52.3189 90.5573 52.6573 90.5073 52.9965 90.5182H53.9794L54.0286 88.061L55.5765 88.1102ZM52.9391 91.968C52.6795 91.9474 52.4218 92.0264 52.2185 92.1891C52.1376 92.2662 52.0734 92.359 52.0297 92.4619C51.986 92.5647 51.9638 92.6754 51.9645 92.7871C51.9595 92.8984 51.9773 93.0096 52.0167 93.1138C52.0561 93.218 52.1164 93.3131 52.1939 93.3932C52.2904 93.4794 52.4031 93.5455 52.5254 93.5877C52.6478 93.6299 52.7772 93.6473 52.9064 93.6389H53.9384V92.0008L52.9391 91.968Z" fill="#00BF37"/>
<path d="M41.4725 91.6402L41.9148 90.3788L39.2775 89.4533L39.7608 88.0772L42.3981 89.011L42.8405 87.7496L39.9082 86.7176L40.3915 85.3416L44.8062 86.865L42.4635 93.5076L38.0898 91.9678L38.573 90.5918L41.4725 91.6402Z" fill="#00BF37"/>
<path d="M30.6356 87.9218L28.5469 86.2837C28.2684 86.0741 28.0299 85.816 27.8426 85.5219C27.6866 85.2726 27.5833 84.9938 27.5395 84.7029C27.4986 84.4143 27.5239 84.1202 27.6133 83.8429C27.7038 83.546 27.8482 83.2684 28.0392 83.0238C28.1733 82.8516 28.337 82.7046 28.5225 82.5897C28.705 82.4831 28.9004 82.4005 29.104 82.344C29.3074 82.293 29.517 82.271 29.7265 82.2784C29.9392 82.2815 30.1508 82.309 30.3572 82.3603L30.4062 82.2948L30.5782 79.0923L30.6356 79.0186L32.0198 80.0915L31.856 83.1876L32.2001 83.4497L33.7563 81.4512L34.9685 82.3931L30.6356 87.9218ZM30.4472 83.8265C30.3562 83.7494 30.2505 83.6915 30.1365 83.6563C30.0225 83.6211 29.9024 83.6093 29.7837 83.6217C29.6748 83.6329 29.5696 83.6671 29.475 83.7222C29.3804 83.7773 29.2985 83.8519 29.235 83.9411C29.1634 84.0239 29.1092 84.1202 29.0754 84.2243C29.0417 84.3284 29.0291 84.4382 29.0385 84.5473C29.0563 84.6676 29.099 84.7829 29.1638 84.8859C29.2287 84.9888 29.3143 85.0771 29.4152 85.1452L30.2999 85.8332L31.3237 84.5145L30.4472 83.8265Z" fill="#00BF37"/>
<path d="M21.1432 78.7237L20.2422 77.4869L25.9757 73.3506L26.8767 74.5956L21.1432 78.7237Z" fill="#00BF37"/>
<path d="M16.958 68.2558L18.2194 67.7972L17.2612 65.1761L18.629 64.6765L19.5872 67.2975L20.8404 66.8388L19.7756 63.923L21.1353 63.4233L22.7735 67.7808L16.1635 70.1888L14.5664 65.8314L15.9342 65.3318L16.958 68.2558Z" fill="#00BF37"/>
<path d="M12.9443 57.4933V55.7241L17.2444 53.1195V53.0212L15.8928 53.1359L12.9033 53.185V51.6779L19.939 51.5632V53.2014L15.3851 55.9698V56.0681L16.7447 55.9534L20.021 55.8961V57.4114L12.9443 57.4933Z" fill="#00BF37"/>
<path d="M21.8725 39.1953C22.1563 39.6526 22.3299 40.1696 22.3796 40.7055C22.4294 41.2414 22.354 41.7815 22.1593 42.2832C21.9991 42.7591 21.7425 43.1969 21.4056 43.5692C21.083 43.9101 20.6998 44.1878 20.2754 44.3882C19.8472 44.5857 19.3861 44.7023 18.9156 44.7322C18.4202 44.7617 17.9241 44.6892 17.4578 44.5193C16.9891 44.3581 16.5574 44.1047 16.1882 43.7739C15.8469 43.4517 15.5691 43.0683 15.3692 42.6436C15.1621 42.216 15.0449 41.7504 15.025 41.2758C14.9949 40.7743 15.0703 40.2721 15.2462 39.8015C15.4157 39.3079 15.6959 38.8596 16.0652 38.4909C16.3999 38.1383 16.8045 37.8594 17.253 37.6719L17.8755 39.0233C17.6146 39.1329 17.3737 39.2851 17.1629 39.4738C16.9251 39.698 16.75 39.9803 16.6549 40.2929C16.5562 40.5713 16.5117 40.866 16.524 41.1611C16.5285 41.4453 16.5956 41.7249 16.7205 41.9802C16.8423 42.2363 17.0152 42.4649 17.2285 42.6518C17.4695 42.8559 17.7476 43.0116 18.0475 43.1105C18.3393 43.2138 18.6471 43.2637 18.9566 43.2579C19.2406 43.2452 19.5191 43.1756 19.7756 43.0532C20.0243 42.9305 20.2468 42.7608 20.4309 42.5535C20.6201 42.3277 20.7672 42.0697 20.8651 41.7918C20.987 41.4765 21.0236 41.1347 20.9715 40.8007C20.9181 40.4702 20.7953 40.1547 20.6111 39.8752L21.8725 39.1953Z" fill="#00BF37"/>
<path d="M22.6338 29.7269L23.674 30.546L25.4187 28.3672L26.5571 29.2846L24.8126 31.4552L25.8529 32.2742L27.7939 29.817L28.9326 30.7262L26.0248 34.3465L20.5371 29.9399L23.4446 26.3196L24.5751 27.2288L22.6338 29.7269Z" fill="#00BF37"/>
<path d="M43.6425 100.232C37.5721 98.9255 31.8208 96.4284 26.7214 92.8852C21.6221 89.342 17.2757 84.8231 13.9335 79.5898C10.5914 74.3564 8.31984 68.5125 7.25019 62.3958C6.18054 56.2791 6.33397 50.0111 7.70172 43.9541C13.5335 18.3582 38.8264 2.12433 64.2748 7.62847C70.348 8.93513 76.1018 11.4331 81.2035 14.9777C86.3051 18.5224 90.6531 23.0435 93.9962 28.2794C97.3393 33.5153 99.611 39.3622 100.68 45.4817C101.749 51.6012 101.594 57.872 100.224 63.9312C97.4649 76.209 89.9784 86.9048 79.387 93.7C68.7955 100.495 55.9528 102.842 43.6425 100.232ZM64.0536 8.77516C52.0216 6.23136 39.4718 8.53083 29.1233 15.1753C18.7747 21.8199 11.4609 32.2743 8.76654 44.2736C7.41971 50.194 7.2605 56.3227 8.29802 62.3051C9.33554 68.2875 11.5492 74.0047 14.811 79.1259C18.0727 84.2471 22.3177 88.6705 27.3004 92.1401C32.283 95.6098 37.9044 98.0568 43.8391 99.3395C55.8917 101.881 68.4602 99.5771 78.8284 92.927C89.1967 86.277 96.5319 75.8143 99.249 63.8001C100.575 57.8748 100.714 51.7458 99.6603 45.7662C98.6063 39.7867 96.3792 34.0748 93.1075 28.9599C89.8359 23.8449 85.5844 19.4281 80.598 15.9638C75.6115 12.4995 69.9887 10.0564 64.0536 8.77516Z" fill="#00BF37"/>
<path d="M43.0612 102.878C36.6572 101.493 30.5914 98.8527 25.2149 95.1083C19.8384 91.3639 15.2579 86.5903 11.7387 81.0638C8.21938 75.5374 5.83108 69.3677 4.71219 62.9121C3.5933 56.4564 3.76592 49.843 5.22011 43.4545C8.11251 30.4862 16.0085 19.1844 27.1904 12.0075C38.3722 4.83055 51.9356 2.35894 64.9303 5.13028C71.3351 6.4991 77.4039 9.12749 82.7838 12.8626C88.1638 16.5978 92.7476 21.3651 96.2686 26.8876C99.7897 32.41 102.178 38.5773 103.294 45.0309C104.41 51.4845 104.233 58.0957 102.771 64.48C99.8797 77.4531 91.9875 88.7619 80.8081 95.9511C69.6287 103.14 56.0648 105.629 43.0612 102.878ZM64.7173 5.55622C51.8473 2.82567 38.4198 5.28159 27.3495 12.3908C16.2793 19.5001 8.45992 30.6888 5.58885 43.5282C4.14906 49.8548 3.97808 56.4041 5.08613 62.7971C6.19418 69.1901 8.5591 75.2999 12.044 80.773C15.5289 86.246 20.0646 90.9736 25.3887 94.6821C30.7127 98.3906 36.7195 101.006 43.0612 102.378C55.929 105.102 69.3515 102.653 80.429 95.5619C91.5065 88.4706 99.3494 77.3059 102.263 64.48C103.703 58.1437 103.872 51.5849 102.76 45.183C101.648 38.7811 99.2774 32.6632 95.7857 27.1834C92.294 21.7036 87.7503 16.9706 82.4175 13.2583C77.0846 9.54607 71.0685 6.92821 64.7173 5.55622Z" fill="#00BF37"/>
<path d="M48.017 80.5666C44.5308 79.8163 41.2282 78.3823 38.2999 76.3474C35.3716 74.3124 32.8758 71.717 30.9571 68.7113C29.0384 65.7056 27.7347 62.3493 27.1215 58.8365C26.5083 55.3237 26.5977 51.7242 27.3847 48.2462C30.7429 33.5848 45.2485 24.1492 59.9016 27.3681C63.384 28.1253 66.6823 29.5638 69.6067 31.6006C72.531 33.6374 75.0237 36.2324 76.9413 39.2363C78.8589 42.2402 80.1635 45.5936 80.7801 49.1036C81.3967 52.6137 81.3131 56.211 80.5341 59.6885C78.9323 66.7361 74.6271 72.8729 68.5454 76.7778C62.4638 80.6826 55.0918 82.0432 48.017 80.5666ZM59.6151 28.2937C52.8238 26.8423 45.7341 28.1324 39.8895 31.8831C34.0448 35.6338 29.9184 41.5414 28.4085 48.3199C27.6442 51.6561 27.5503 55.1109 28.1322 58.4837C28.714 61.8566 29.9602 65.0802 31.7982 67.9674C33.6361 70.8547 36.0293 73.3481 38.8388 75.3028C41.6484 77.2576 44.8184 78.6347 48.1645 79.3543C54.9556 80.8035 62.0441 79.5125 67.8881 75.7621C73.7322 72.0118 77.8591 66.1055 79.3709 59.3281C80.1444 55.9915 80.245 52.5341 79.6671 49.158C79.0891 45.782 77.8442 42.555 76.0048 39.6656C74.1655 36.7762 71.7687 34.2824 68.9546 32.3298C66.1405 30.3773 62.9655 29.0051 59.6151 28.2937Z" fill="#00BF37"/>
<path d="M47.3616 83.7198C43.4733 82.8755 39.7911 81.2681 36.5284 78.9906C33.2657 76.7132 30.4872 73.811 28.3541 70.4521C26.221 67.0933 24.7756 63.3445 24.1016 59.4231C23.4276 55.5016 23.5385 51.4854 24.4277 47.6071C26.2139 39.7358 31.0204 32.8811 37.8118 28.5195C44.6032 24.1579 52.8359 22.6383 60.7369 24.2882C64.6252 25.1325 68.3074 26.7399 71.5701 29.0174C74.8328 31.2948 77.6113 34.197 79.7444 37.5559C81.8775 40.9147 83.3229 44.6635 83.9969 48.5849C84.6709 52.5064 84.56 56.5226 83.6708 60.4009C81.8674 68.2624 77.0573 75.1051 70.2707 79.4636C63.4841 83.8222 55.2608 85.35 47.3616 83.7198ZM60.3355 24.9353C52.6366 23.3214 44.6119 24.8017 37.9955 29.0563C31.3791 33.3109 26.7025 39.998 24.9764 47.6726C24.1249 51.4606 24.0311 55.3796 24.7005 59.204C25.3698 63.0284 26.7891 66.6826 28.8766 69.9562C30.9641 73.2298 33.6786 76.0581 36.8637 78.2783C40.0488 80.4985 43.6415 82.0667 47.4352 82.8925C55.1335 84.4864 63.1499 82.9967 69.7616 78.7436C76.3734 74.4904 81.0528 67.8133 82.7943 60.147C83.6609 56.361 83.7669 52.4405 83.1059 48.6133C82.4448 44.786 81.03 41.1282 78.9435 37.8523C76.8571 34.5763 74.1406 31.7475 70.9518 29.5301C67.7631 27.3127 64.1657 25.7509 60.3683 24.9353H60.3355Z" fill="#00BF37"/>
<path d="M60.9248 24.6161L60.1959 24.4768L59.4668 27.9087L60.1959 28.048L60.9248 24.6161Z" fill="#00BF37"/>
<path d="M48.7461 79.5672L48.017 79.428L47.2881 82.8599L48.017 82.9991L48.7461 79.5672Z" fill="#00BF37"/>
<path d="M44.372 99.4459L43.6431 99.3066L42.9141 102.739L43.6431 102.878L44.372 99.4459Z" fill="#00BF37"/>
<path d="M43.1677 99.0938L42.3486 102.526L43.0775 102.665L43.8966 99.233L43.1677 99.0938Z" fill="#00BF37"/>
<path d="M42.5532 99.02L41.6768 102.452L42.4058 102.591L43.2821 99.1593L42.5532 99.02Z" fill="#00BF37"/>
<path d="M41.8897 98.8071L41.0215 102.165L41.7506 102.313L42.6188 98.9464L41.8897 98.8071Z" fill="#00BF37"/>
<path d="M41.3819 98.7334L40.4316 102.092L41.1607 102.313L42.1108 98.9464L41.3819 98.7334Z" fill="#00BF37"/>
<path d="M40.8008 98.5205L39.8506 101.879L40.5797 102.092L41.5297 98.7334L40.8008 98.5205Z" fill="#00BF37"/>
<path d="M40.2191 98.373L39.1953 101.739L39.9244 101.952L40.9482 98.5942L40.2191 98.373Z" fill="#00BF37"/>
<path d="M39.6375 98.1602L38.54 101.527L39.2689 101.739L40.3665 98.3731L39.6375 98.1602Z" fill="#00BF37"/>
<path d="M39.0728 98.0208L37.9834 101.379L38.7125 101.592L39.8017 98.2337L39.0728 98.0208Z" fill="#00BF37"/>
<path d="M38.5406 97.8079L37.3691 101.084L38.0326 101.297L39.1956 98.0208L38.5406 97.8079Z" fill="#00BF37"/>
<path d="M38.0325 97.5867L36.8613 100.863L37.5166 101.076L38.6878 97.7996L38.0325 97.5867Z" fill="#00BF37"/>
<path d="M37.3768 97.3738L36.1318 100.65L36.7871 100.937L38.0321 97.6605L37.3768 97.3738Z" fill="#00BF37"/>
<path d="M36.8608 97.1609L35.624 100.437L36.2793 100.716L37.5161 97.4394L36.8608 97.1609Z" fill="#00BF37"/>
<path d="M36.2793 97.0215L34.9688 100.298L35.624 100.584L36.9344 97.3082L36.2793 97.0215Z" fill="#00BF37"/>
<path d="M73.0971 7.62842L71.7129 10.8473L72.368 11.134L73.7524 7.91507L73.0971 7.62842Z" fill="#00BF37"/>
<path d="M35.6977 96.7349L34.3135 99.9456L34.9688 100.232L36.3529 97.0134L35.6977 96.7349Z" fill="#00BF37"/>
<path d="M73.6863 7.91504L72.2939 11.134L72.9574 11.4207L74.3416 8.20172L73.6863 7.91504Z" fill="#00BF37"/>
<path d="M35.1902 96.5137L33.7979 99.7326L34.4613 100.019L35.8455 96.8004L35.1902 96.5137Z" fill="#00BF37"/>
<path d="M74.1941 8.23462L72.7363 11.4536L73.3914 11.7402L74.8494 8.5213L74.1941 8.23462Z" fill="#00BF37"/>
<path d="M34.6005 96.3008L33.1426 99.5197L33.7979 99.8064L35.2558 96.5875L34.6005 96.3008Z" fill="#00BF37"/>
<path d="M74.8496 8.41479L73.3916 11.6337L74.0469 11.9204L75.5049 8.70147L74.8496 8.41479Z" fill="#00BF37"/>
<path d="M34.0927 96.0142L32.6348 99.2331L33.2901 99.5198L34.748 96.3008L34.0927 96.0142Z" fill="#00BF37"/>
<path d="M75.431 8.70142L73.8994 11.8466L74.5547 12.1333L76.0863 8.98809L75.431 8.70142Z" fill="#00BF37"/>
<path d="M33.511 95.7275L31.9795 98.881L32.6346 99.1594L34.1663 96.0142L33.511 95.7275Z" fill="#00BF37"/>
<path d="M76.0122 8.98804L74.4805 12.1333L75.144 12.4199L76.6755 9.27469L76.0122 8.98804Z" fill="#00BF37"/>
<path d="M33.0034 95.5144L31.4717 98.6596L32.127 98.9463L33.6585 95.8011L33.0034 95.5144Z" fill="#00BF37"/>
<path d="M76.602 9.20117L74.9639 12.3464L75.6192 12.7068L77.2573 9.56156L76.602 9.20117Z" fill="#00BF37"/>
<path d="M32.52 95.2278L30.8818 98.373L31.5371 98.7334L33.1753 95.5882L32.52 95.2278Z" fill="#00BF37"/>
<path d="M77.184 9.56152L75.5049 12.633L76.1602 12.9934L77.7983 9.92192L77.184 9.56152Z" fill="#00BF37"/>
<path d="M31.9799 94.9412L30.3008 98.0209L30.9561 98.3731L32.5942 95.3016L31.9799 94.9412Z" fill="#00BF37"/>
<path d="M77.7651 9.8728L76.127 12.9443L76.7822 13.3047L78.4614 10.225L77.7651 9.8728Z" fill="#00BF37"/>
<path d="M31.4711 94.6545L29.833 97.7342L30.4883 98.0864L32.1674 95.0149L31.4711 94.6545Z" fill="#00BF37"/>
<path d="M78.2734 10.1348L76.5205 13.2063L77.184 13.5667L78.9285 10.487L78.2734 10.1348Z" fill="#00BF37"/>
<path d="M30.8822 94.3677L29.1377 97.4474L29.7928 97.8077L31.5375 94.7281L30.8822 94.3677Z" fill="#00BF37"/>
<path d="M78.8551 10.4871L77.1104 13.5668L77.7656 13.919L79.5104 10.8475L78.8551 10.4871Z" fill="#00BF37"/>
<path d="M30.3738 94.1548L28.6211 97.2345L29.2764 97.5867L31.0291 94.5152L30.3738 94.1548Z" fill="#00BF37"/>
<path d="M79.4365 10.8474L77.6182 13.8534L78.2735 14.2056L80.1 11.2078L79.4365 10.8474Z" fill="#00BF37"/>
<path d="M29.8665 93.8027L28.04 96.8005L28.6953 97.1609L30.5218 94.1549L29.8665 93.8027Z" fill="#00BF37"/>
<path d="M79.9521 11.134L78.1338 14.14L78.7891 14.4922L80.6074 11.4944L79.9521 11.134Z" fill="#00BF37"/>
<path d="M29.4238 93.5159L27.6055 96.5137L28.2608 96.8741L30.0791 93.8681L29.4238 93.5159Z" fill="#00BF37"/>
<path d="M80.4605 11.4207L78.5684 14.4266L79.1499 14.7788L81.042 11.781L80.4605 11.4207Z" fill="#00BF37"/>
<path d="M28.9165 93.1555L27.0244 96.1615L27.6059 96.5137L29.498 93.5159L28.9165 93.1555Z" fill="#00BF37"/>
<path d="M81.0415 11.7812L79.1494 14.7135L79.7309 15.1394L81.6312 12.2072L81.0415 11.7812Z" fill="#00BF37"/>
<path d="M28.4247 92.8689L26.5244 95.8012L27.1059 96.2271L29.0062 93.303L28.4247 92.8689Z" fill="#00BF37"/>
<path d="M81.5577 12.1333L79.5918 15.0656L80.1733 15.4997L82.1392 12.5674L81.5577 12.1333Z" fill="#00BF37"/>
<path d="M27.8926 92.5166L25.9268 95.4407L26.5083 95.8748L28.4823 92.9425L27.8926 92.5166Z" fill="#00BF37"/>
<path d="M82.0653 12.4937L80.0996 15.4259L80.6811 15.8518L82.6468 12.9196L82.0653 12.4937Z" fill="#00BF37"/>
<path d="M27.3846 92.23L25.4189 95.1623L26.0005 95.5882L27.9661 92.6559L27.3846 92.23Z" fill="#00BF37"/>
<path d="M82.6469 12.8542L80.6074 15.7128L81.1889 16.1387L83.2284 13.2802L82.6469 12.8542Z" fill="#00BF37"/>
<path d="M26.8768 91.7795L24.8291 94.6381L25.4188 95.0722L27.4583 92.2136L26.8768 91.7795Z" fill="#00BF37"/>
<path d="M83.1629 13.2063L81.1152 16.0648L81.6967 16.4989L83.7444 13.6404L83.1629 13.2063Z" fill="#00BF37"/>
<path d="M26.434 91.4436L24.3945 94.3021L24.976 94.7281L27.0155 91.8695L26.434 91.4436Z" fill="#00BF37"/>
<path d="M83.7441 13.5667L81.6309 16.3515L82.2124 16.7856L84.3256 13.9926L83.7441 13.5667Z" fill="#00BF37"/>
<path d="M25.9678 91.157L23.8545 93.9418L24.436 94.3677L26.5493 91.5829L25.9678 91.157Z" fill="#00BF37"/>
<path d="M84.1787 13.968L82.0654 16.761L82.6469 17.1869L84.7602 14.4021L84.1787 13.968Z" fill="#00BF37"/>
<path d="M25.4183 90.7966L23.2969 93.5815L23.8866 94.0156L25.9998 91.2226L25.4183 90.7966Z" fill="#00BF37"/>
<path d="M84.7601 14.353L82.5732 17.1379L83.1629 17.572L85.3498 14.7789L84.7601 14.353Z" fill="#00BF37"/>
<path d="M24.9759 90.3706L22.7891 93.1554L23.3706 93.5814L25.5574 90.7965L24.9759 90.3706Z" fill="#00BF37"/>
<path d="M85.2757 14.7871L83.0889 17.5064L83.6704 17.9323L85.8574 15.2212L85.2757 14.7871Z" fill="#00BF37"/>
<path d="M24.5423 90.0103L22.3555 92.7296L22.937 93.1555L25.1238 90.4362L24.5423 90.0103Z" fill="#00BF37"/>
<path d="M85.7099 15.1394L83.4492 17.8587L84.0307 18.2846L86.2914 15.5653L85.7099 15.1394Z" fill="#00BF37"/>
<path d="M24.0341 89.6499L21.7734 92.3692L22.3551 92.7951L24.6158 90.084L24.0341 89.6499Z" fill="#00BF37"/>
<path d="M86.2265 15.4998L83.9658 18.1454L84.5473 18.645L86.808 15.9994L86.2265 15.4998Z" fill="#00BF37"/>
<path d="M23.5927 89.3223L21.332 91.9679L21.9135 92.4675L24.1742 89.8219L23.5927 89.3223Z" fill="#00BF37"/>
<path d="M86.6606 15.9993L84.3262 18.6448L84.9077 19.1445L87.2421 16.4989L86.6606 15.9993Z" fill="#00BF37"/>
<path d="M23.1577 88.9373L20.8232 91.5829L21.4047 92.0825L23.7392 89.4369L23.1577 88.9373Z" fill="#00BF37"/>
<path d="M87.2417 16.4253L84.9072 19.0709L85.4151 19.5705L87.7494 16.9249L87.2417 16.4253Z" fill="#00BF37"/>
<path d="M22.6909 88.5032L20.3564 91.1488L20.8726 91.6484L23.1988 89.0028L22.6909 88.5032Z" fill="#00BF37"/>
<path d="M87.6764 16.8511L85.2764 19.4312L85.7843 19.9308L88.1923 17.3589L87.6764 16.8511Z" fill="#00BF37"/>
<path d="M22.2078 88.0774L19.7998 90.6575L20.3159 91.1571L22.7157 88.577L22.2078 88.0774Z" fill="#00BF37"/>
<path d="M88.118 17.2852L85.71 19.857L86.2179 20.3567L88.6259 17.7848L88.118 17.2852Z" fill="#00BF37"/>
<path d="M21.8719 87.6841L19.4639 90.256L19.9716 90.7556L22.3798 88.1837L21.8719 87.6841Z" fill="#00BF37"/>
<path d="M88.6261 17.7112L86.1689 20.2175L86.6769 20.7171L89.1341 18.2108L88.6261 17.7112Z" fill="#00BF37"/>
<path d="M21.4054 87.291L18.9482 89.7974L19.4644 90.297L21.9216 87.7907L21.4054 87.291Z" fill="#00BF37"/>
<path d="M89.0353 18.1453L86.5781 20.6025L87.086 21.1021L89.5432 18.6039L89.0353 18.1453Z" fill="#00BF37"/>
<path d="M20.9709 86.7915L18.5137 89.2978L19.0216 89.7975L21.4788 87.2911L20.9709 86.7915Z" fill="#00BF37"/>
<path d="M89.5763 18.5713L87.1191 21.0285L87.6271 21.5281L90.0843 19.0709L89.5763 18.5713Z" fill="#00BF37"/>
<path d="M20.5285 86.4309L18.0713 88.8881L18.579 89.3877L21.0362 86.9305L20.5285 86.4309Z" fill="#00BF37"/>
<path d="M90.0101 19.0708L87.4629 21.528L87.9706 22.0276L90.518 19.5704L90.0101 19.0708Z" fill="#00BF37"/>
<path d="M20.1687 86.0461L17.6133 88.5033L18.1292 89.003L20.6766 86.5458L20.1687 86.0461Z" fill="#00BF37"/>
<path d="M90.3786 19.4968L87.8232 21.954L88.331 22.4536L90.8865 19.9964L90.3786 19.4968Z" fill="#00BF37"/>
<path d="M19.7259 85.5791L17.1787 88.0363L17.6864 88.5441L20.242 86.0869L19.7259 85.5791Z" fill="#00BF37"/>
<path d="M90.8134 19.9309L88.1924 22.2898L88.7003 22.8632L91.3213 20.5043L90.8134 19.9309Z" fill="#00BF37"/>
<path d="M19.2921 85.145L16.6709 87.5039L17.1788 88.0773L19.7998 85.7184L19.2921 85.145Z" fill="#00BF37"/>
<path d="M91.2552 20.4304L88.626 22.7893L89.1419 23.3627L91.7631 21.0038L91.2552 20.4304Z" fill="#00BF37"/>
<path d="M18.9319 84.6455L16.3027 87.0044L16.8107 87.5778L19.4152 85.227L18.9319 84.6455Z" fill="#00BF37"/>
<path d="M91.6893 20.9302L89.0684 23.2154L89.5761 23.7887L92.1973 21.5035L91.6893 20.9302Z" fill="#00BF37"/>
<path d="M18.5956 84.2195L15.9746 86.5047L16.4823 87.078L19.1035 84.7928L18.5956 84.2195Z" fill="#00BF37"/>
<path d="M92.0584 21.4297L89.3555 23.7231L89.7978 24.2883L92.4926 22.003L92.0584 21.4297Z" fill="#00BF37"/>
<path d="M18.1948 83.72L15.5 86.0052L15.9341 86.5785L18.6371 84.2851L18.1948 83.72Z" fill="#00BF37"/>
<path d="M92.5662 21.9294L89.8633 24.1491L90.3056 24.7225L93.0004 22.5028L92.5662 21.9294Z" fill="#00BF37"/>
<path d="M17.7768 83.2859L15.082 85.5056L15.5162 86.0789L18.2191 83.8592L17.7768 83.2859Z" fill="#00BF37"/>
<path d="M92.9348 22.3635L90.1582 24.575L90.6003 25.1484L93.3689 22.9369L92.9348 22.3635Z" fill="#00BF37"/>
<path d="M17.4738 82.8599L14.6973 85.0714L15.1396 85.6447L17.9079 83.4332L17.4738 82.8599Z" fill="#00BF37"/>
<path d="M93.2947 22.863L90.5264 25.009L90.9605 25.5823L93.7289 23.4364L93.2947 22.863Z" fill="#00BF37"/>
<path d="M17.0312 82.3604L14.2627 84.5063L14.6968 85.0797L17.4654 82.9337L17.0312 82.3604Z" fill="#00BF37"/>
<path d="M93.7293 23.4365L90.9609 25.5825L91.3949 26.1476L94.1716 24.0099L93.7293 23.4365Z" fill="#00BF37"/>
<path d="M16.6711 81.9507L13.8945 84.0966L14.3369 84.67L17.1052 82.524L16.6711 81.9507Z" fill="#00BF37"/>
<path d="M94.1716 23.936L91.3213 26.0083L91.7636 26.5816L94.6058 24.5094L94.1716 23.936Z" fill="#00BF37"/>
<path d="M16.3763 81.4265L13.5342 83.4988L13.9683 84.0721L16.8105 81.9999L16.3763 81.4265Z" fill="#00BF37"/>
<path d="M94.4576 24.4358L91.6152 26.508L92.0576 27.0814L94.8997 25.0091L94.4576 24.4358Z" fill="#00BF37"/>
<path d="M16.0072 80.853L13.165 82.9335L13.6072 83.4986L16.4493 81.4264L16.0072 80.853Z" fill="#00BF37"/>
<path d="M94.9001 24.9353L91.9844 26.9338L92.4183 27.5072L95.3342 25.5086L94.9001 24.9353Z" fill="#00BF37"/>
<path d="M15.6472 80.501L12.7314 82.4995L13.1656 83.0728L16.0813 81.0743L15.6472 80.501Z" fill="#00BF37"/>
<path d="M95.2607 25.5088L92.3447 27.5073L92.7871 28.0807L95.7028 26.0821L95.2607 25.5088Z" fill="#00BF37"/>
<path d="M15.3193 79.9275L12.4033 81.926L12.8456 82.4994L15.7616 80.5008L15.3193 79.9275Z" fill="#00BF37"/>
<path d="M95.6288 26.0083L92.7129 27.9413L93.0732 28.5146L95.9892 26.5816L95.6288 26.0083Z" fill="#00BF37"/>
<path d="M14.9921 79.428L12.0762 81.361L12.4365 81.9261L15.3524 80.0013L14.9921 79.428Z" fill="#00BF37"/>
<path d="M95.9895 26.5818L93 28.5066L93.3685 29.1537L96.3581 27.2207L95.9895 26.5818Z" fill="#00BF37"/>
<path d="M14.6965 78.9282L11.707 80.853L12.0756 81.5001L15.0651 79.5671L14.6965 78.9282Z" fill="#00BF37"/>
<path d="M96.2846 27.0732L93.2949 28.9325L93.6553 29.5714L96.645 27.7121L96.2846 27.0732Z" fill="#00BF37"/>
<path d="M14.3364 78.4204L11.3467 80.2879L11.7072 80.9268L14.6967 79.0675L14.3364 78.4204Z" fill="#00BF37"/>
<path d="M96.645 27.6548L93.6553 29.5141L94.024 30.153L97.0135 28.2937L96.645 27.6548Z" fill="#00BF37"/>
<path d="M14.0413 77.9209L11.0518 79.7802L11.4203 80.4273L14.4098 78.568L14.0413 77.9209Z" fill="#00BF37"/>
<path d="M97.0135 28.1543L93.9502 29.9399L94.3187 30.5869L97.3085 28.7932L97.0135 28.1543Z" fill="#00BF37"/>
<path d="M13.7547 77.4211L10.6914 79.2149L11.0517 79.8538L14.1151 78.0682L13.7547 77.4211Z" fill="#00BF37"/>
<path d="M97.2264 28.7112L94.1631 30.423L94.5234 31.0701L97.5867 29.3501L97.2264 28.7112Z" fill="#00BF37"/>
<path d="M13.3865 76.9216L10.3232 78.6417L10.692 79.2806L13.7553 77.5687L13.3865 76.9216Z" fill="#00BF37"/>
<path d="M97.5946 29.301L94.5312 31.0129L94.8998 31.6599L97.9631 29.9399L97.5946 29.301Z" fill="#00BF37"/>
<path d="M13.1651 76.3484L10.1016 78.0684L10.4703 78.7155L13.5336 76.9955L13.1651 76.3484Z" fill="#00BF37"/>
<path d="M97.8895 29.8662L94.8262 31.5043L95.1865 32.1514L98.2498 30.5133L97.8895 29.8662Z" fill="#00BF37"/>
<path d="M12.8627 75.9224L9.80762 77.5605L10.168 78.1994L13.2313 76.5612L12.8627 75.9224Z" fill="#00BF37"/>
<path d="M98.2504 30.4395L95.1133 32.0776L95.482 32.7247L98.6189 31.0865L98.2504 30.4395Z" fill="#00BF37"/>
<path d="M12.6576 75.2754L9.52051 76.9135L9.88925 77.5606L13.0179 75.9225L12.6576 75.2754Z" fill="#00BF37"/>
<path d="M98.4711 31.0129L95.334 32.5856L95.6289 33.2326L98.7578 31.66L98.4711 31.0129Z" fill="#00BF37"/>
<path d="M12.3631 74.8494L9.23438 76.422L9.52093 77.0691L12.658 75.4964L12.3631 74.8494Z" fill="#00BF37"/>
<path d="M98.8642 31.5862L95.7354 33.1588L96.0221 33.8058L99.1592 32.2251L98.8642 31.5862Z" fill="#00BF37"/>
<path d="M12.0433 74.2761L8.90625 75.8487L9.193 76.4958L12.3301 74.9232L12.0433 74.2761Z" fill="#00BF37"/>
<path d="M99.1269 32.1597L95.916 33.6586L96.211 34.3056L99.4217 32.7985L99.1269 32.1597Z" fill="#00BF37"/>
<path d="M11.8552 73.7026L8.64453 75.2097L8.93928 75.8486L12.15 74.3497L11.8552 73.7026Z" fill="#00BF37"/>
<path d="M99.3476 32.7329L96.1367 34.2318L96.4317 34.8789L99.6342 33.3718L99.3476 32.7329Z" fill="#00BF37"/>
<path d="M11.5599 73.1294L8.35742 74.6365L8.64418 75.2753L11.8549 73.7764L11.5599 73.1294Z" fill="#00BF37"/>
<path d="M99.6341 33.2981L96.4316 34.7315L96.7182 35.3785L99.9291 33.9452L99.6341 33.2981Z" fill="#00BF37"/>
<path d="M11.4206 72.6296L8.20996 74.063L8.49651 74.7101L11.7074 73.2767L11.4206 72.6296Z" fill="#00BF37"/>
<path d="M99.8552 33.8713L96.6445 35.231L96.9393 35.8781L100.15 34.5184L99.8552 33.8713Z" fill="#00BF37"/>
<path d="M11.1257 72.0645L7.91504 73.4159L8.20999 74.063L11.4207 72.7033L11.1257 72.0645Z" fill="#00BF37"/>
<path d="M100.15 34.4448L96.874 35.8045L97.1688 36.4516L100.445 35.0919L100.15 34.4448Z" fill="#00BF37"/>
<path d="M10.9052 71.5566L7.62891 72.9163L7.91546 73.5634L11.1917 72.2037L10.9052 71.5566Z" fill="#00BF37"/>
<path d="M100.363 35.0918L97.0869 36.3777L97.3817 37.0248L100.658 35.7307L100.363 35.0918Z" fill="#00BF37"/>
<path d="M10.6923 70.9915L7.41602 72.2774L7.71077 72.9163L10.987 71.6303L10.6923 70.9915Z" fill="#00BF37"/>
<path d="M100.585 35.665L97.3086 36.951L97.6033 37.6636L100.88 36.3776L100.585 35.665Z" fill="#00BF37"/>
<path d="M10.4706 70.4182L7.19434 71.7041L7.48909 72.4167L10.7654 71.1308L10.4706 70.4182Z" fill="#00BF37"/>
<path d="M100.88 36.304L97.6035 37.5244L97.8247 38.237L101.101 37.0247L100.88 36.304Z" fill="#00BF37"/>
<path d="M10.3231 69.9187L7.04688 71.1309L7.25984 71.8435L10.5361 70.6313L10.3231 69.9187Z" fill="#00BF37"/>
<path d="M101.018 36.9019L97.7422 38.0485L97.9634 38.7611L101.24 37.6144L101.018 36.9019Z" fill="#00BF37"/>
<path d="M10.0282 69.2715L6.75195 70.4182L6.97312 71.1308L10.2494 69.9841L10.0282 69.2715Z" fill="#00BF37"/>
<path d="M101.24 37.4507L97.8896 38.5974L98.1026 39.31L101.461 38.1633L101.24 37.4507Z" fill="#00BF37"/>
<path d="M9.88951 68.6982L6.53125 69.8449L6.75241 70.5575L10.1023 69.4108L9.88951 68.6982Z" fill="#00BF37"/>
<path d="M101.461 38.0896L98.1025 39.1626L98.3237 39.8834L101.682 38.8104L101.461 38.0896Z" fill="#00BF37"/>
<path d="M9.66842 68.1985L6.31836 69.2715L6.53133 69.9841L9.88958 68.9111L9.66842 68.1985Z" fill="#00BF37"/>
<path d="M101.608 38.7366L98.25 39.8095L98.4712 40.5222L101.821 39.4492L101.608 38.7366Z" fill="#00BF37"/>
<path d="M9.52076 67.5596L6.1709 68.6325L6.38386 69.3451L9.74192 68.2722L9.52076 67.5596Z" fill="#00BF37"/>
<path d="M101.822 39.3101L98.4717 40.3093L98.6928 41.0219L102.043 40.0226L101.822 39.3101Z" fill="#00BF37"/>
<path d="M9.3735 67.0518L6.02344 68.0592L6.2446 68.7718L9.59466 67.7725L9.3735 67.0518Z" fill="#00BF37"/>
<path d="M101.969 39.949L98.6191 40.8827L98.8321 41.5953L102.19 40.6698L101.969 39.949Z" fill="#00BF37"/>
<path d="M9.16002 66.3884L5.80176 67.314L6.02292 68.0348L9.37298 67.101L9.16002 66.3884Z" fill="#00BF37"/>
<path d="M102.19 40.5222L98.832 41.4559L99.0532 42.1685L102.411 41.243L102.19 40.5222Z" fill="#00BF37"/>
<path d="M9.01256 65.8396L5.6543 66.7652L5.87546 67.4859L9.22552 66.5522L9.01256 65.8396Z" fill="#00BF37"/>
<path d="M102.337 41.1692L98.9053 42.0292L99.0526 42.7418L102.484 41.8818L102.337 41.1692Z" fill="#00BF37"/>
<path d="M8.86525 65.2664L5.44141 66.1264L5.58078 66.839L9.01263 65.9789L8.86525 65.2664Z" fill="#00BF37"/>
<path d="M102.551 41.8164L99.127 42.6355L99.2743 43.3563L102.698 42.4962L102.551 41.8164Z" fill="#00BF37"/>
<path d="M8.71759 64.7502L5.29395 65.6103L5.44132 66.3229L8.86517 65.4628L8.71759 64.7502Z" fill="#00BF37"/>
<path d="M102.698 42.3816L99.2744 43.2007L99.4218 43.9214L102.846 43.1024L102.698 42.3816Z" fill="#00BF37"/>
<path d="M8.64455 64.1196L5.2207 64.9387L5.36828 65.6595L8.79193 64.8404L8.64455 64.1196Z" fill="#00BF37"/>
<path d="M102.771 43.1023L99.3477 43.8149L99.4868 44.5275L102.919 43.8149L102.771 43.1023Z" fill="#00BF37"/>
<path d="M8.49689 63.5544L5.07324 64.267L5.22062 64.9796L8.64447 64.267L8.49689 63.5544Z" fill="#00BF37"/>
<path d="M102.96 43.7412L99.5283 44.4538L99.6757 45.1746L103.108 44.4538L102.96 43.7412Z" fill="#00BF37"/>
<path d="M8.43107 62.981L4.99902 63.6935L5.1466 64.4061L8.57845 63.6935L8.43107 62.981Z" fill="#00BF37"/>
<path d="M103.067 44.3145L99.6348 44.9615L99.7823 45.6741L103.214 45.0271L103.067 44.3145Z" fill="#00BF37"/>
<path d="M8.284 62.4077L4.86035 63.0466L4.99953 63.7673L8.43158 63.1203L8.284 62.4077Z" fill="#00BF37"/>
<path d="M103.14 44.8879L99.708 45.5268L99.8554 46.2476L103.279 45.6005L103.14 44.8879Z" fill="#00BF37"/>
<path d="M8.20998 61.7607L4.78613 62.4078L4.92551 63.1204L8.35736 62.4815L8.20998 61.7607Z" fill="#00BF37"/>
<path d="M103.279 45.5269L99.8555 46.1002L100.003 46.821L103.427 46.2476L103.279 45.5269Z" fill="#00BF37"/>
<path d="M8.06232 61.1873L4.63867 61.7606L4.78605 62.4814L8.2099 61.908L8.06232 61.1873Z" fill="#00BF37"/>
<path d="M103.353 46.1738L99.8555 46.6734L99.9293 47.386L103.427 46.8864L103.353 46.1738Z" fill="#00BF37"/>
<path d="M7.98865 60.655L4.49121 61.1546L4.565 61.8673L8.06224 61.3676L7.98865 60.655Z" fill="#00BF37"/>
<path d="M103.427 46.8208L99.9297 47.3204L100.003 48.033L103.501 47.5334L103.427 46.8208Z" fill="#00BF37"/>
<path d="M7.94763 59.9751L4.4502 60.4747L4.52398 61.1955L8.02142 60.6877L7.94763 59.9751Z" fill="#00BF37"/>
<path d="M103.5 47.4597L100.003 47.8938L100.077 48.6064L103.574 48.1723L103.5 47.4597Z" fill="#00BF37"/>
<path d="M7.84119 59.4019L4.34375 59.836L4.41734 60.5485L7.91477 60.1226L7.84119 59.4019Z" fill="#00BF37"/>
<path d="M103.648 48.1067L100.15 48.4589L100.224 49.1797L103.721 48.8193L103.648 48.1067Z" fill="#00BF37"/>
<path d="M7.77614 58.8284L4.27051 59.1888L4.3443 59.9013L7.84973 59.5492L7.77614 58.8284Z" fill="#00BF37"/>
<path d="M103.648 48.7456L100.15 49.106L100.224 49.8186L103.721 49.4664L103.648 48.7456Z" fill="#00BF37"/>
<path d="M7.77614 58.2632L4.27051 58.6154L4.3443 59.3362L7.84973 58.9758L7.77614 58.2632Z" fill="#00BF37"/>
<path d="M103.721 49.4666L100.216 49.7532L100.29 50.4658L103.795 50.1791L103.721 49.4666Z" fill="#00BF37"/>
<path d="M7.70192 57.6162L4.19629 57.9029L4.27008 58.6155L7.76751 58.3288L7.70192 57.6162Z" fill="#00BF37"/>
<path d="M103.779 50.0071L100.273 50.2856L100.347 51.0063L103.853 50.7197L103.779 50.0071Z" fill="#00BF37"/>
<path d="M7.70192 57.0427L4.19629 57.3294L4.27008 58.042L7.76751 57.7553L7.70192 57.0427Z" fill="#00BF37"/>
<path d="M103.779 50.6787L100.273 50.8917L100.347 51.6124L103.853 51.3913L103.779 50.6787Z" fill="#00BF37"/>
<path d="M7.6283 56.3958L4.13086 56.6169L4.20445 57.3295L7.70188 57.1165L7.6283 56.3958Z" fill="#00BF37"/>
<path d="M103.869 51.3257L100.363 51.4649V52.1775L103.869 52.0383V51.3257Z" fill="#00BF37"/>
<path d="M7.6283 55.8306L4.13086 55.9698V56.6824L7.6283 56.5432V55.8306Z" fill="#00BF37"/>
<path d="M103.869 51.9646L100.363 52.112V52.8246L103.869 52.6772V51.9646Z" fill="#00BF37"/>
<path d="M7.55505 55.2573L4.05762 55.3966V56.1173L7.55505 55.9699V55.2573Z" fill="#00BF37"/>
<path d="M103.934 52.6116L100.437 52.6853V53.3979L103.934 53.3242V52.6116Z" fill="#00BF37"/>
<path d="M7.55505 54.6838L4.05762 54.7576V55.4702L7.55505 55.3964V54.6838Z" fill="#00BF37"/>
<path d="M103.934 53.2832H100.437V54.004H103.934V53.2832Z" fill="#00BF37"/>
<path d="M7.55505 54.0369H4.05762V54.7576H7.55505V54.0369Z" fill="#00BF37"/>
<path d="M103.869 53.8977H100.363V54.6103H103.869V53.8977Z" fill="#00BF37"/>
<path d="M7.55505 53.4717H4.05762V54.1843H7.55505V53.4717Z" fill="#00BF37"/>
<path d="M103.869 54.5365L100.363 54.4709V55.1835L103.869 55.2572V54.5365Z" fill="#00BF37"/>
<path d="M7.55505 52.8984L4.05762 52.8247V53.5373L7.55505 53.611V52.8984Z" fill="#00BF37"/>
<path d="M103.934 55.1836L100.437 55.1099V55.8306L103.934 55.8962V55.1836Z" fill="#00BF37"/>
<path d="M7.6283 52.2512L4.13086 52.1775V52.8983L7.6283 52.9638V52.2512Z" fill="#00BF37"/>
<path d="M103.869 55.8305L100.364 55.6831L100.29 56.3957L103.796 56.5431L103.869 55.8305Z" fill="#00BF37"/>
<path d="M7.62884 51.6451L4.12321 51.5059L4.05762 52.2185L7.55505 52.3659L7.62884 51.6451Z" fill="#00BF37"/>
<path d="M103.779 56.4696L100.273 56.2566L100.199 56.9692L103.705 57.1903L103.779 56.4696Z" fill="#00BF37"/>
<path d="M7.70188 51.1046L4.20445 50.8916L4.13086 51.6124L7.6283 51.8254L7.70188 51.1046Z" fill="#00BF37"/>
<path d="M103.779 57.1165L100.273 56.9036L100.199 57.6161L103.705 57.8291L103.779 57.1165Z" fill="#00BF37"/>
<path d="M7.76751 50.4657L4.27008 50.2527L4.19629 50.9653L7.70192 51.1782L7.76751 50.4657Z" fill="#00BF37"/>
<path d="M103.721 57.7554L100.224 57.4688L100.15 58.1895L103.648 58.4762L103.721 57.7554Z" fill="#00BF37"/>
<path d="M7.76751 49.8924L4.27008 49.6057L4.19629 50.3183L7.70192 50.605L7.76751 49.8924Z" fill="#00BF37"/>
<path d="M103.721 58.4024L100.224 58.042L100.15 58.7628L103.648 59.115L103.721 58.4024Z" fill="#00BF37"/>
<path d="M7.84973 49.2453L4.3443 48.8931L4.27051 49.6057L7.77614 49.966L7.84973 49.2453Z" fill="#00BF37"/>
<path d="M103.647 59.0169L100.15 58.6565L100.076 59.3773L103.574 59.7295L103.647 59.0169Z" fill="#00BF37"/>
<path d="M7.94818 48.6802L4.45074 48.3198L4.37695 49.0324L7.87439 49.3928L7.94818 48.6802Z" fill="#00BF37"/>
<path d="M103.501 59.6884L100.003 59.2625L99.9297 59.9751L103.427 60.401L103.501 59.6884Z" fill="#00BF37"/>
<path d="M7.98919 48.0331L4.49176 47.6072L4.41797 48.3198L7.9154 48.7457L7.98919 48.0331Z" fill="#00BF37"/>
<path d="M103.427 60.2618L99.9293 59.7622L99.8555 60.4748L103.353 60.9744L103.427 60.2618Z" fill="#00BF37"/>
<path d="M8.06224 47.4598L4.565 46.9602L4.49121 47.6728L7.98865 48.1724L8.06224 47.4598Z" fill="#00BF37"/>
<path d="M103.353 60.9743L99.9296 60.4746L99.7822 61.1872L103.214 61.695L103.353 60.9743Z" fill="#00BF37"/>
<path d="M8.2099 46.8864L4.78605 46.3867L4.63867 47.1075L8.06232 47.6071L8.2099 46.8864Z" fill="#00BF37"/>
<path d="M103.279 61.5477L99.8554 60.9744L99.708 61.6951L103.14 62.2603L103.279 61.5477Z" fill="#00BF37"/>
<path d="M8.28391 46.313L4.85207 45.7478L4.71289 46.4604L8.13654 47.0337L8.28391 46.313Z" fill="#00BF37"/>
<path d="M103.14 62.1947L99.7079 61.6213L99.5605 62.3339L102.992 62.9073L103.14 62.1947Z" fill="#00BF37"/>
<path d="M8.35736 45.7479L4.92551 45.1746L4.78613 45.8871L8.20998 46.4605L8.35736 45.7479Z" fill="#00BF37"/>
<path d="M103.067 62.8337L99.6347 62.1948L99.4873 62.9074L102.919 63.5545L103.067 62.8337Z" fill="#00BF37"/>
<path d="M8.43158 45.0926L4.99953 44.4456L4.86035 45.1663L8.284 45.8052L8.43158 45.0926Z" fill="#00BF37"/>
<path d="M102.96 63.4807L99.528 62.7681L99.3887 63.4807L102.813 64.1933L102.96 63.4807Z" fill="#00BF37"/>
<path d="M8.57845 44.5275L5.1466 43.8149L4.99902 44.5275L8.43107 45.2483L8.57845 44.5275Z" fill="#00BF37"/>
<path d="M99.3478 63.3333L99.2002 64.054L102.624 64.7666L102.771 64.054L99.3478 63.3333Z" fill="#00BF37"/>
<path d="M5.29386 43.2415L5.14648 43.954L8.57013 44.6748L8.71751 43.954L5.29386 43.2415Z" fill="#00BF37"/>
<path d="M99.2001 63.9312L99.0527 64.6519L102.485 65.471L102.624 64.7502L99.2001 63.9312Z" fill="#00BF37"/>
<path d="M5.49113 42.6355L5.34375 43.3563L8.7674 44.1753L8.91477 43.4628L5.49113 42.6355Z" fill="#00BF37"/>
<path d="M99.1271 64.5537L98.9795 65.2663L102.403 66.0854L102.551 65.3728L99.1271 64.5537Z" fill="#00BF37"/>
<path d="M5.58078 41.9556L5.44141 42.6682L8.86525 43.4872L9.01263 42.7746L5.58078 41.9556Z" fill="#00BF37"/>
<path d="M98.9053 65.127L98.6924 65.8395L102.042 66.6996L102.263 65.9788L98.9053 65.127Z" fill="#00BF37"/>
<path d="M5.80163 41.3823L5.58887 42.0949L8.93873 42.9549L9.15989 42.2423L5.80163 41.3823Z" fill="#00BF37"/>
<path d="M98.8643 65.6921L98.6514 66.4129L102.001 67.3385L102.223 66.6259L98.8643 65.6921Z" fill="#00BF37"/>
<path d="M5.94968 40.7434L5.72852 41.456L9.08657 42.3815L9.30774 41.669L5.94968 40.7434Z" fill="#00BF37"/>
<path d="M98.6186 66.2656L98.3975 66.9864L101.748 67.9119L101.969 67.1993L98.6186 66.2656Z" fill="#00BF37"/>
<path d="M6.17038 40.1782L5.94922 40.8908L9.30728 41.8164L9.52024 41.1038L6.17038 40.1782Z" fill="#00BF37"/>
<path d="M98.4712 66.9126L98.25 67.6252L101.608 68.6244L101.821 67.9118L98.4712 66.9126Z" fill="#00BF37"/>
<path d="M6.31003 39.4492L6.08887 40.17L9.43893 41.1693L9.66009 40.4567L6.31003 39.4492Z" fill="#00BF37"/>
<path d="M98.2505 67.4124L98.0293 68.1249L101.388 69.1979L101.609 68.4853L98.2505 67.4124Z" fill="#00BF37"/>
<path d="M6.53133 38.876L6.31836 39.5968L9.66842 40.6697L9.88958 39.949L6.53133 38.876Z" fill="#00BF37"/>
<path d="M98.0454 68.0266L97.8242 68.7392L101.174 69.8122L101.395 69.0996L98.0454 68.0266Z" fill="#00BF37"/>
<path d="M6.6782 38.3108L6.45703 39.0234L9.81529 40.0964L10.0365 39.3838L6.6782 38.3108Z" fill="#00BF37"/>
<path d="M97.8901 68.5588L97.6689 69.2714L100.945 70.4181L101.166 69.6974L97.8901 68.5588Z" fill="#00BF37"/>
<path d="M6.97312 37.6636L6.75195 38.3762L10.0282 39.5229L10.2494 38.8103L6.97312 37.6636Z" fill="#00BF37"/>
<path d="M97.6684 69.124L97.4473 69.8448L100.724 70.9915L100.945 70.2707L97.6684 69.124Z" fill="#00BF37"/>
<path d="M7.12898 37.0903L6.91602 37.8111L10.1923 38.9496L10.4135 38.237L7.12898 37.0903Z" fill="#00BF37"/>
<path d="M97.5211 69.6646L97.2344 70.3853L100.511 71.5975L100.806 70.885L97.5211 69.6646Z" fill="#00BF37"/>
<path d="M7.40726 36.4514L7.1123 37.164L10.3886 38.3762L10.6835 37.6636L7.40726 36.4514Z" fill="#00BF37"/>
<path d="M97.2262 70.2708L96.9395 70.9915L100.216 72.2775L100.511 71.5567L97.2262 70.2708Z" fill="#00BF37"/>
<path d="M7.62894 35.8782L7.33398 36.5908L10.6103 37.8767L10.897 37.1641L7.62894 35.8782Z" fill="#00BF37"/>
<path d="M97.0869 70.8442L96.792 71.4913L100.003 72.7772L100.289 72.1302L97.0869 70.8442Z" fill="#00BF37"/>
<path d="M7.84944 35.2639L7.55469 35.911L10.831 37.1969L11.1257 36.5499L7.84944 35.2639Z" fill="#00BF37"/>
<path d="M96.8662 71.4175L96.5713 72.0564L99.7822 73.416L100.077 72.7771L96.8662 71.4175Z" fill="#00BF37"/>
<path d="M8.13655 34.6577L7.8418 35.3048L11.0525 36.6644L11.3472 36.0174L8.13655 34.6577Z" fill="#00BF37"/>
<path d="M96.5707 71.917L96.2842 72.5641L99.4949 73.9237L99.7816 73.2766L96.5707 71.917Z" fill="#00BF37"/>
<path d="M8.35745 34.0845L8.0625 34.7315L11.2734 36.0912L11.5599 35.4441L8.35745 34.0845Z" fill="#00BF37"/>
<path d="M96.3582 72.4905L96.0635 73.1294L99.2742 74.5627L99.5609 73.9238L96.3582 72.4905Z" fill="#00BF37"/>
<path d="M8.64418 33.4456L8.35742 34.0926L11.5599 35.5178L11.8549 34.8789L8.64418 33.4456Z" fill="#00BF37"/>
<path d="M96.1365 73.0637L95.8418 73.7026L99.0525 75.136L99.3474 74.4889L96.1365 73.0637Z" fill="#00BF37"/>
<path d="M8.93928 32.8721L8.64453 33.5191L11.8552 34.9443L12.15 34.3054L8.93928 32.8721Z" fill="#00BF37"/>
<path d="M95.8424 73.5635L95.5557 74.2023L98.6928 75.7094L98.9793 75.0624L95.8424 73.5635Z" fill="#00BF37"/>
<path d="M9.15999 32.2988L8.86523 32.9459L12.0431 34.4448L12.3381 33.8059L9.15999 32.2988Z" fill="#00BF37"/>
<path d="M95.5879 74.1367L95.293 74.7756L98.4301 76.3482L98.725 75.7093L95.5879 74.1367Z" fill="#00BF37"/>
<path d="M9.44691 31.7253L9.16016 32.3724L12.2891 33.945L12.5838 33.3061L9.44691 31.7253Z" fill="#00BF37"/>
<path d="M95.334 74.7102L94.9736 75.3491L98.1025 76.9217L98.4711 76.2828L95.334 74.7102Z" fill="#00BF37"/>
<path d="M9.74159 31.1685L9.37305 31.8073L12.5101 33.38L12.8787 32.7411L9.74159 31.1685Z" fill="#00BF37"/>
<path d="M95.0475 75.2097L94.6787 75.8486L97.742 77.4867L98.1026 76.8397L95.0475 75.2097Z" fill="#00BF37"/>
<path d="M10.1016 30.5869L9.74121 31.2258L12.8045 32.8639L13.1651 32.225L10.1016 30.5869Z" fill="#00BF37"/>
<path d="M62.8258 25.0747L61.7363 28.4411L62.4654 28.654L63.5546 25.2958L62.8258 25.0747Z" fill="#00BF37"/>
<path d="M45.8297 78.781L44.7402 82.1474L45.4693 82.3603L46.5585 78.994L45.8297 78.781Z" fill="#00BF37"/>
<path d="M65.2826 25.9346L63.8984 29.1535L64.5537 29.4402L65.9379 26.2212L65.2826 25.9346Z" fill="#00BF37"/>
<path d="M43.6432 77.9209L42.2588 81.1399L42.9141 81.4265L44.2983 78.2076L43.6432 77.9209Z" fill="#00BF37"/>
<path d="M67.7397 27.0732L66.1016 30.2185L66.7569 30.5789L68.395 27.4336L67.7397 27.0732Z" fill="#00BF37"/>
<path d="M41.4555 76.9216L39.8174 80.0013L40.4727 80.3535L42.1108 77.282L41.4555 76.9216Z" fill="#00BF37"/>
<path d="M70.0337 28.3672L68.1416 31.2995L68.7231 31.6599L70.6152 28.7276L70.0337 28.3672Z" fill="#00BF37"/>
<path d="M39.4167 75.7832L37.5166 78.7073L38.0981 79.0677L39.9982 76.1354L39.4167 75.7832Z" fill="#00BF37"/>
<path d="M72.2935 29.8662L70.1064 32.6592L70.6964 33.0851L72.8832 30.3003L72.2935 29.8662Z" fill="#00BF37"/>
<path d="M37.5902 74.3499L35.4033 77.1347L35.9848 77.5688L38.1717 74.7758L37.5902 74.3499Z" fill="#00BF37"/>
<path d="M74.2928 31.5125L71.8848 34.0843L72.3925 34.5921L74.8007 32.0121L74.2928 31.5125Z" fill="#00BF37"/>
<path d="M35.7961 72.8508L33.3389 75.3981L33.8468 75.8977L36.2548 73.3259L35.7961 72.8508Z" fill="#00BF37"/>
<path d="M76.16 33.4456L73.5391 35.8045L74.0468 36.3778L76.6678 34.0189L76.16 33.4456Z" fill="#00BF37"/>
<path d="M34.1585 71.1309L31.5293 73.4898L32.0452 74.0631L34.6664 71.7042L34.1585 71.1309Z" fill="#00BF37"/>
<path d="M77.8392 35.4441L74.9971 37.5245L75.431 38.0897L78.2733 36.0174L77.8392 35.4441Z" fill="#00BF37"/>
<path d="M32.6341 69.2715L29.792 71.3437L30.2261 71.9171L33.0683 69.8448L32.6341 69.2715Z" fill="#00BF37"/>
<path d="M79.3704 37.6636L76.3809 39.5229L76.7412 40.1699L79.7307 38.3106L79.3704 37.6636Z" fill="#00BF37"/>
<path d="M31.3901 67.3386L28.4004 69.1979L28.7689 69.845L31.7586 67.9857L31.3901 67.3386Z" fill="#00BF37"/>
<path d="M80.681 39.949L77.5439 41.5298L77.8389 42.1686L80.9758 40.596L80.681 39.949Z" fill="#00BF37"/>
<path d="M30.3002 65.2664L27.1631 66.839L27.458 67.486L30.5949 65.9134L30.3002 65.2664Z" fill="#00BF37"/>
<path d="M81.7782 42.3816L78.502 43.6675L78.7969 44.3146L82.0732 43.0287L81.7782 42.3816Z" fill="#00BF37"/>
<path d="M29.3505 63.1121L26.0742 64.398L26.361 65.045L29.6372 63.7591L29.3505 63.1121Z" fill="#00BF37"/>
<path d="M82.6467 44.8879L79.2969 45.8872L79.5098 46.5998L82.8679 45.6005L82.6467 44.8879Z" fill="#00BF37"/>
<path d="M28.6215 60.9006L25.2715 61.9081L25.4926 62.6207L28.8427 61.6214L28.6215 60.9006Z" fill="#00BF37"/>
<path d="M83.3026 47.4597L79.8789 48.1723L80.0263 48.8931L83.4499 48.1723L83.3026 47.4597Z" fill="#00BF37"/>
<path d="M28.1133 58.6155L24.6895 59.3363L24.837 60.0488L28.2607 59.3363L28.1133 58.6155Z" fill="#00BF37"/>
<path d="M83.7445 50.1052L80.2471 50.4656L80.3127 51.1782L83.8181 50.826L83.7445 50.1052Z" fill="#00BF37"/>
<path d="M27.8187 56.1829L24.3213 56.5433L24.3951 57.2558L27.8925 56.9036L27.8187 56.1829Z" fill="#00BF37"/>
<path d="M83.8914 52.751L80.3857 52.8247V53.5373L83.8914 53.4718V52.751Z" fill="#00BF37"/>
<path d="M27.6795 53.8977L24.1738 53.9714V54.684L27.6795 54.6103V53.8977Z" fill="#00BF37"/>
<path d="M83.8181 55.3965L80.3127 55.1836L80.2471 55.8962L83.7445 56.1173L83.8181 55.3965Z" fill="#00BF37"/>
<path d="M27.8183 51.4649L24.3209 51.252L24.2471 51.9646L27.7445 52.1775L27.8183 51.4649Z" fill="#00BF37"/>
<path d="M83.5972 58.0421L80.0997 57.4688L79.9521 58.1895L83.376 58.7629L83.5972 58.0421Z" fill="#00BF37"/>
<path d="M28.1132 49.1879L24.6894 48.6145L24.542 49.3271L27.9656 49.9004L28.1132 49.1879Z" fill="#00BF37"/>
<path d="M79.6577 59.8359L79.4365 60.5485L82.7946 61.4086L83.0157 60.6878L79.6577 59.8359Z" fill="#00BF37"/>
<path d="M25.271 46.0347L25.0498 46.7473L28.4081 47.6073L28.621 46.8865L25.271 46.0347Z" fill="#00BF37"/>
<path d="M78.9282 62.0474L78.707 62.7681L81.9833 63.9066L82.2045 63.1941L78.9282 62.0474Z" fill="#00BF37"/>
<path d="M26.0735 43.4546L25.8525 44.1754L29.1288 45.3139L29.3418 44.6013L26.0735 43.4546Z" fill="#00BF37"/>
<path d="M78.0606 64.2671L77.7656 64.906L80.9763 66.3393L81.2631 65.6923L78.0606 64.2671Z" fill="#00BF37"/>
<path d="M27.0895 40.9973L26.8027 41.6362L30.0052 43.0696L30.3002 42.4225L27.0895 40.9973Z" fill="#00BF37"/>
<path d="M77.0363 66.3394L76.6758 66.9864L79.7309 68.6983L80.0996 68.0594L77.0363 66.3394Z" fill="#00BF37"/>
<path d="M28.4248 38.5974L28.0645 39.2363L31.1278 40.9563L31.4881 40.3093L28.4248 38.5974Z" fill="#00BF37"/>
<path d="M75.7255 68.3459L75.2832 68.9111L78.1253 70.9178L78.5677 70.3444L75.7255 68.3459Z" fill="#00BF37"/>
<path d="M29.8662 36.3777L29.4238 36.951L32.266 38.9496L32.7083 38.3762L29.8662 36.3777Z" fill="#00BF37"/>
<path d="M74.3417 70.2708L73.8994 70.8441L76.6024 73.0638L77.0365 72.4904L74.3417 70.2708Z" fill="#00BF37"/>
<path d="M31.4634 34.3054L31.0293 34.8788L33.7241 37.0903L34.1664 36.5169L31.4634 34.3054Z" fill="#00BF37"/>
<path d="M72.8099 71.9907L72.2939 72.4904L74.7511 74.9885L75.2589 74.4889L72.8099 71.9907Z" fill="#00BF37"/>
<path d="M33.339 32.2988L32.8311 32.7984L35.2883 35.3048L35.8044 34.8052L33.339 32.2988Z" fill="#00BF37"/>
<path d="M71.0571 73.6372L70.4756 74.1368L72.7362 76.8479L73.3177 76.3483L71.0571 73.6372Z" fill="#00BF37"/>
<path d="M35.4028 30.5869L34.8213 31.0865L37.0819 33.8058L37.6634 33.298L35.4028 30.5869Z" fill="#00BF37"/>
<path d="M69.1649 75.0623L68.5752 75.4964L70.5491 78.3549L71.1306 77.9208L69.1649 75.0623Z" fill="#00BF37"/>
<path d="M37.434 28.9407L36.8525 29.3666L38.8264 32.2333L39.4079 31.7992L37.434 28.9407Z" fill="#00BF37"/>
<path d="M67.1914 76.4219L66.5361 76.7823L68.1743 79.8538L68.8296 79.4934L67.1914 76.4219Z" fill="#00BF37"/>
<path d="M39.7774 27.5073L39.1221 27.8677L40.8012 30.9392L41.4563 30.587L39.7774 27.5073Z" fill="#00BF37"/>
<path d="M65.0781 77.4211L64.4229 77.7078L65.8808 80.9268L66.5361 80.6401L65.0781 77.4211Z" fill="#00BF37"/>
<path d="M42.2586 26.3687L41.6035 26.6471L43.0615 29.8661L43.7166 29.5794L42.2586 26.3687Z" fill="#00BF37"/>
<path d="M62.8906 78.4204L62.2354 78.6415L63.3984 81.9178L64.0537 81.7049L62.8906 78.4204Z" fill="#00BF37"/>
<path d="M44.667 25.3613L44.0117 25.5825L45.1747 28.8587L45.83 28.6458L44.667 25.3613Z" fill="#00BF37"/>
<path d="M60.6304 79.0676L59.9014 79.2806L60.7204 82.6469L61.4495 82.4258L60.6304 79.0676Z" fill="#00BF37"/>
<path d="M47.2142 24.616L46.4854 24.8289L47.3044 28.1953L48.0333 27.9742L47.2142 24.616Z" fill="#00BF37"/>
<path d="M58.2963 79.5671L57.5674 79.7146L58.0751 83.1465L58.8042 82.999L58.2963 79.5671Z" fill="#00BF37"/>
<path d="M49.9086 24.1492L49.1797 24.2884L49.6956 27.7203L50.4247 27.5811L49.9086 24.1492Z" fill="#00BF37"/>
<path d="M56.0355 79.9275L55.3066 80.0012L55.5278 83.4986L56.2567 83.4331L56.0355 79.9275Z" fill="#00BF37"/>
<path d="M52.6119 23.8623L51.8828 23.936L52.104 27.4417L52.8331 27.3679L52.6119 23.8623Z" fill="#00BF37"/>
<path d="M53.6269 80.0012H52.8978L52.8242 83.4987H53.5531L53.6269 80.0012Z" fill="#00BF37"/>
<path d="M55.2329 23.8623H54.5041L54.4385 27.3679H55.1674L55.2329 23.8623Z" fill="#00BF37"/>
<path d="M51.3011 79.854L50.5722 79.7803L50.1299 83.2859L50.8588 83.3596L51.3011 79.854Z" fill="#00BF37"/>
<path d="M57.8616 23.936L57.1328 23.8623L56.6904 27.3679L57.4193 27.4417L57.8616 23.936Z" fill="#00BF37"/>
<path d="M35.1244 23.1989C34.9855 23.3548 34.8115 23.4756 34.6167 23.5511C34.4363 23.6486 34.2259 23.6749 34.027 23.6248C33.8157 23.6161 33.6123 23.5416 33.4453 23.4118C33.2872 23.2763 33.1637 23.105 33.085 22.9122C32.9915 22.7364 32.9655 22.5326 33.0114 22.3388C33.0183 22.1282 33.0963 21.9262 33.2325 21.7655C33.3702 21.6061 33.5443 21.4824 33.7403 21.4051C33.9194 21.3124 34.1265 21.2891 34.3218 21.3396C34.5343 21.3417 34.7396 21.4169 34.9033 21.5525C35.0658 21.6858 35.1927 21.8575 35.272 22.0522C35.3655 22.228 35.3915 22.4318 35.3456 22.6255C35.3263 22.8334 35.2497 23.0318 35.1244 23.1989Z" fill="#00BF37"/>
<path d="M84.7356 78.2404C84.5952 78.3984 84.418 78.5194 84.2197 78.5926C84.0416 78.688 83.8343 78.7143 83.638 78.6663C83.4265 78.6587 83.2229 78.5841 83.0565 78.4533C82.8958 78.3183 82.7695 78.147 82.6879 77.9537C82.5973 77.7768 82.5739 77.5731 82.6223 77.3803C82.6263 77.1706 82.7014 76.9685 82.8353 76.807C82.9753 76.6465 83.1525 76.5227 83.3514 76.4466C83.5306 76.3539 83.7376 76.3306 83.9329 76.3811C84.1449 76.3864 84.3492 76.4612 84.5144 76.594C84.677 76.7254 84.8014 76.8979 84.8748 77.0937C84.9682 77.2695 84.9945 77.4733 84.9486 77.667C84.9278 77.8732 84.8544 78.0706 84.7356 78.2404Z" fill="#00BF37"/>
<path d="M46.9261 63.2386C45.5966 63.2386 44.4176 63.0114 43.3892 62.5568C42.3665 62.0966 41.5597 61.4631 40.9688 60.6562C40.3778 59.8494 40.0767 58.9205 40.0653 57.8693H44.3097C44.3267 58.25 44.4489 58.5881 44.6761 58.8835C44.9034 59.1733 45.2131 59.4006 45.6051 59.5653C45.9972 59.7301 46.4432 59.8125 46.9432 59.8125C47.4432 59.8125 47.8835 59.7244 48.2642 59.5483C48.6506 59.3665 48.9517 59.1193 49.1676 58.8068C49.3835 58.4886 49.4886 58.125 49.483 57.7159C49.4886 57.3068 49.3722 56.9432 49.1335 56.625C48.8949 56.3068 48.5568 56.0597 48.1193 55.8835C47.6875 55.7074 47.1761 55.6193 46.5852 55.6193H44.8892V52.6193H46.5852C47.1023 52.6193 47.5568 52.5341 47.9489 52.3636C48.3466 52.1932 48.6563 51.9545 48.8778 51.6477C49.0994 51.3352 49.2074 50.9773 49.2017 50.5739C49.2074 50.1818 49.1136 49.8381 48.9205 49.5426C48.733 49.2415 48.4688 49.0085 48.1278 48.8438C47.7926 48.679 47.4034 48.5966 46.9602 48.5966C46.4943 48.5966 46.071 48.679 45.6903 48.8438C45.3153 49.0085 45.017 49.2415 44.7955 49.5426C44.5739 49.8437 44.4574 50.1932 44.446 50.5909H40.4148C40.4261 49.5511 40.7159 48.6364 41.2841 47.8466C41.8523 47.0511 42.625 46.429 43.6023 45.9801C44.5852 45.5312 45.7045 45.3068 46.9602 45.3068C48.2102 45.3068 49.3097 45.5256 50.2585 45.9631C51.2074 46.4006 51.946 46.9972 52.4744 47.7528C53.0028 48.5028 53.267 49.3523 53.267 50.3011C53.2727 51.2841 52.9517 52.0937 52.304 52.7301C51.6619 53.3665 50.8352 53.7585 49.8239 53.9062V54.0426C51.1761 54.2017 52.196 54.6392 52.8835 55.3551C53.5767 56.071 53.9205 56.9659 53.9148 58.0398C53.9148 59.0511 53.6165 59.9489 53.0199 60.733C52.429 61.5114 51.6051 62.125 50.5483 62.5739C49.4972 63.017 48.2898 63.2386 46.9261 63.2386ZM56.7962 63L63.836 49.0568V48.946H55.603V45.5455H68.1996V48.9716L61.1343 63H56.7962Z" fill="#00BF37"/>
</g>
<defs>
<clipPath id="clip0_944_5999">
<rect width="100" height="100" fill="white" transform="translate(4 4)"/>
</clipPath>
</defs>
</svg>
