<svg width="32" height="32" viewBox="0 0 32 32" fill="none" xmlns="http://www.w3.org/2000/svg">
<rect width="32" height="32" rx="16" fill="#0068E5"/>
<path d="M12.4133 15.1933C13.3733 17.08 14.92 18.62 16.8067 19.5867L18.2733 18.12C18.4533 17.94 18.72 17.88 18.9533 17.96C19.7 18.2067 20.5067 18.34 21.3333 18.34C21.7 18.34 22 18.64 22 19.0067V21.3333C22 21.7 21.7 22 21.3333 22C15.0733 22 10 16.9267 10 10.6667C10 10.3 10.3 10 10.6667 10H13C13.3667 10 13.6667 10.3 13.6667 10.6667C13.6667 11.5 13.8 12.3 14.0467 13.0467C14.12 13.28 14.0667 13.54 13.88 13.7267L12.4133 15.1933Z" fill="white"/>
</svg>
