<svg width="83" height="64" viewBox="0 0 83 64" fill="none" xmlns="http://www.w3.org/2000/svg">
<g clip-path="url(#clip0_996_5431)">
<path d="M82.2483 63.0213C81.6441 63.851 80.8144 63.9999 79.8272 63.9999C54.2729 63.9786 28.7186 63.973 3.16425 63.9829C2.89831 63.9829 2.63237 63.9829 2.36856 63.9829C1.44734 63.9446 0.783551 63.317 0.753765 62.4575C0.72398 61.5979 1.39202 60.8682 2.33451 60.8086C2.91532 60.7746 3.5004 60.7831 4.08334 60.7725C5.80663 60.7725 7.52991 60.8001 9.2532 60.798C14.7975 60.798 20.3411 60.7895 25.884 60.7725C27.586 60.7725 29.2753 60.7725 30.9709 60.8129C31.5262 60.8257 31.4687 60.5214 31.4666 60.1746C31.4666 56.4089 31.4666 52.6439 31.4666 48.8796V39.0143C31.4666 37.2719 31.9517 36.7783 33.6707 36.7783C37.6215 36.7783 41.5702 36.7634 45.521 36.7932C46.138 36.7932 46.3039 36.6464 46.2997 36.0188C46.2741 30 46.2848 23.9834 46.2848 17.9647C46.2848 16.2797 46.7911 15.7669 48.4527 15.7648L62.6837 15.7329C63.99 16.0563 64.2921 16.452 64.2921 17.8604V59.7576C64.3017 59.9426 64.3017 60.1279 64.2921 60.3129C64.2474 60.698 64.4112 60.8108 64.7878 60.8086C69.0258 60.7874 73.2638 60.7831 77.504 60.7725C78.355 60.7831 79.1911 60.8405 80.0293 60.7895C81.0144 60.7299 81.7696 61.0256 82.2526 61.9107L82.2483 63.0213ZM61.1051 39.776C61.1051 33.0913 61.1051 26.4067 61.12 19.722C61.12 19.1114 60.9838 18.9221 60.3434 18.9284C56.9479 18.9625 53.5531 18.9625 50.159 18.9284C49.5994 18.9284 49.4548 19.071 49.4548 19.6305C49.4718 33.0793 49.4718 46.528 49.4548 59.9768C49.4548 60.5278 49.5888 60.6852 50.1526 60.681C53.5467 60.654 56.9415 60.654 60.337 60.681C60.954 60.681 61.1242 60.5321 61.12 59.9023C61.0966 53.1985 61.1051 46.4862 61.1051 39.776ZM34.6494 50.2902C34.6494 53.5261 34.6643 56.7621 34.6366 59.9981C34.6366 60.564 34.7919 60.6937 35.3387 60.6895C38.7612 60.664 42.1829 60.664 45.604 60.6895C46.172 60.6895 46.2975 60.5342 46.2954 59.9853C46.2756 53.5389 46.2756 47.0925 46.2954 40.6461C46.2954 40.0845 46.1465 39.9462 45.5912 39.9504C42.1702 39.976 38.7484 39.976 35.3259 39.9504C34.7536 39.9504 34.6324 40.1206 34.6366 40.661C34.6621 43.8651 34.6494 47.0755 34.6494 50.2902Z" fill="white"/>
<path d="M77.4997 60.7682C73.2596 60.7789 69.0216 60.7831 64.7836 60.8044C64.407 60.8044 64.2432 60.6938 64.2878 60.3087C64.2974 60.1237 64.2974 59.9384 64.2878 59.7534V17.8562C64.2878 16.4478 63.9857 16.0521 62.6794 15.7287C62.6794 10.795 62.6901 5.86126 62.6624 0.927547C62.6624 0.289291 62.8581 0.129729 63.4751 0.131857C67.7982 0.157387 72.1214 0.144621 76.453 0.144621C77.4933 0.144621 77.4955 0.14463 77.4955 1.16371V59.7343C77.4891 60.0768 77.4955 60.4236 77.4997 60.7682Z" fill="#00BF37"/>
<path d="M28.486 24.8303C28.2543 24.839 28.0235 24.7964 27.8102 24.7055C27.5969 24.6147 27.4063 24.4778 27.252 24.3048C25.3947 22.4475 23.5289 20.6008 21.6886 18.7286C20.8567 17.8776 20.9014 17.0542 21.7885 16.1628C24.5203 13.4183 27.2478 10.6695 30.0071 7.95268C30.4646 7.50165 30.4475 7.25273 29.9859 6.86339C29.5242 6.47406 29.1349 5.99962 28.6817 5.58688C28.4338 5.38233 28.2526 5.10846 28.1613 4.80032C28.0699 4.49219 28.0726 4.16381 28.169 3.85721C28.369 3.18066 28.903 2.84876 29.5753 2.72324L37.3833 1.26164C39.4916 0.863789 41.6 0.472327 43.7041 0.0659712C45.2912 -0.240391 46.1784 0.631891 45.8806 2.19349C44.9969 6.85134 44.1218 11.5092 43.2552 16.167C43.1212 16.8883 42.8765 17.518 42.134 17.7648C41.3915 18.0116 40.732 17.735 40.2192 17.1265C40.1844 17.0863 40.1467 17.0487 40.1065 17.0138C39.5597 16.5287 39.1065 15.5543 38.5172 15.6096C37.9279 15.6649 37.4301 16.5245 36.9067 17.0478C34.5607 19.3895 32.2205 21.7362 29.8859 24.0878C29.4816 24.4984 29.0774 24.8728 28.486 24.8303ZM40.6128 12.8843C41.1702 9.95255 41.7042 7.09104 42.2659 4.23591C42.3787 3.66148 42.2 3.56148 41.6745 3.66786C40.249 3.95933 38.8151 4.21463 37.3854 4.48908C35.9557 4.76353 34.5069 5.04649 32.9942 5.34008C33.076 5.45584 33.1663 5.56536 33.2644 5.66773C34.7026 6.85914 34.6813 7.83567 33.2495 9.21643C30.6326 11.7375 28.1115 14.3565 25.5202 16.9053C25.0671 17.3521 24.9585 17.6159 25.4968 18.0669C26.1032 18.5775 26.635 19.1775 27.1988 19.7434C28.4583 21.0199 28.4583 21.0199 29.7306 19.7434C32.224 17.2471 34.7182 14.7515 37.2131 12.2566C38.1172 11.3546 38.9151 11.3673 39.8363 12.246C40.0618 12.4545 40.2277 12.7396 40.6192 12.8843H40.6128Z" fill="white"/>
<path d="M10.8488 51.9922C7.97667 50.4583 6.09594 48.1627 5.48534 44.9225C4.5386 39.8803 7.87242 34.8125 12.8423 33.7402C15.3163 33.1945 17.9056 33.6425 20.0525 34.9875C22.1994 36.3325 23.732 38.4671 24.3203 40.9313C24.8132 42.9823 24.6249 45.1381 23.7839 47.0726C22.9429 49.0072 21.4949 50.6153 19.6589 51.6539C19.4759 51.7582 19.2951 51.8667 19.1142 51.9731C17.8187 52.5696 16.4099 52.8801 14.9836 52.8834C13.5573 52.8867 12.1471 52.5827 10.8488 51.9922ZM14.9379 49.6902C16.6526 49.6891 18.2971 49.0089 19.5115 47.7985C20.726 46.588 21.4116 44.9458 21.4183 43.2311C21.4263 41.5149 20.7531 39.8657 19.5466 38.6452C18.3401 37.4248 16.6987 36.7327 14.9826 36.7209C14.1329 36.7175 13.2909 36.8825 12.5053 37.2063C11.7197 37.5301 11.006 38.0063 10.4055 38.6074C9.80493 39.2086 9.32942 39.9227 9.0064 40.7087C8.68337 41.4946 8.51922 42.3367 8.52344 43.1864C8.51389 44.0361 8.67257 44.8792 8.99033 45.6672C9.3081 46.4552 9.77867 47.1726 10.3749 47.778C10.9712 48.3833 11.6813 48.8647 12.4645 49.1943C13.2476 49.524 14.0882 49.6954 14.9379 49.6988V49.6902Z" fill="white"/>
<path d="M10.8489 51.9923C12.1472 52.5828 13.5574 52.8867 14.9837 52.8834C16.4099 52.8801 17.8187 52.5697 19.1143 51.9731C20.2568 52.722 21.4992 53.3199 22.497 54.2836C24.3416 56.0707 25.4202 58.2536 25.884 60.7619C20.3397 60.7704 14.7961 60.7789 9.25324 60.7875C7.52995 60.7875 5.80666 60.7704 4.08337 60.7619C4.63227 57.1451 6.55768 54.49 9.683 52.6539C10.0681 52.4369 10.5212 52.3306 10.8489 51.9923Z" fill="#00BF37"/>
</g>
<defs>
<clipPath id="clip0_996_5431">
<rect width="81.4967" height="64" fill="white" transform="translate(0.751648)"/>
</clipPath>
</defs>
</svg>
