<svg width="24" height="24" viewBox="0 0 24 24" fill="none" xmlns="http://www.w3.org/2000/svg">
<path d="M4.76174 2.39371C1.59969 4.92335 0.74593 8.46485 0.492966 9.57157C0.113519 11.1526 -0.92996 15.7376 1.97913 19.6901C5.67874 24.7178 12.3507 23.9905 12.6353 23.9273C17.5364 23.3265 20.2874 19.785 21.1096 18.6151C21.489 18.0775 25.3783 12.3226 22.5957 6.536C20.4772 2.14074 16.0503 0.8443 15.1017 0.559715C14.0898 0.27513 11.3072 -0.547004 8.0819 0.559715C6.87658 0.97248 5.75288 1.59319 4.76174 2.39371Z" fill="#00BF37"/>
<path d="M4.38271 9.3185L4.22461 8.97068L5.04674 9.09716L9.09417 12.8284C9.19656 12.9185 9.32368 12.9757 9.45901 12.9926C9.59435 13.0096 9.73165 12.9854 9.85306 12.9232L19.1495 7.51613C19.2889 7.43168 19.4554 7.40428 19.6145 7.43962C19.7735 7.47497 19.9128 7.57034 20.0033 7.70586C20.0978 7.83397 20.1406 7.99304 20.123 8.15131C20.1054 8.30958 20.0288 8.45539 19.9084 8.55961L9.18904 18.2987C9.11133 18.3674 9.01863 18.4169 8.91835 18.4433C8.81808 18.4697 8.71302 18.4722 8.61159 18.4507C8.51016 18.4292 8.41518 18.3842 8.33425 18.3194C8.25332 18.2546 8.1887 18.1717 8.14556 18.0774L4.38271 9.3185Z" fill="white"/>
</svg>
