<svg width="64" height="64" viewBox="0 0 64 64" fill="none" xmlns="http://www.w3.org/2000/svg">
<g clip-path="url(#clip0_996_28161)">
<path d="M14.9928 0H48.9855C49.0766 0.0833466 49.1961 0.128754 49.3195 0.126943C50.7694 0.364013 52.1039 1.06292 53.1245 2.11964C54.6061 3.63629 55.2458 5.49869 55.2275 7.61332C55.2091 9.67449 55.2275 11.7357 55.2392 13.7935L55.2241 16.2906C55.2241 17.5567 55.2241 18.8234 55.2241 20.0906L55.2342 22.5961C55.2342 27.7607 55.2286 32.9248 55.2174 38.0883C55.2174 39.2091 55.2174 40.3282 55.1239 41.4523C54.8583 44.6092 51.7398 47.6142 48.5378 47.6192C37.5015 47.637 26.4646 47.637 15.4271 47.6192C14.3806 47.6024 13.3575 47.3078 12.4623 46.7656C9.92671 45.2958 8.75748 43.0308 8.74913 40.1478C8.73075 34.3017 8.73577 28.4456 8.73075 22.5944L8.74078 20.0889V16.289C8.74078 15.4571 8.73521 14.6248 8.72408 13.7918C8.72408 11.6204 8.7057 9.46237 8.74913 7.29763C8.80258 4.67189 9.87827 2.58398 12.1031 1.10742C13.0018 0.522809 14.0156 0.31235 14.9928 0ZM15.0513 23.8071C15.0513 29.1376 15.0513 34.4687 15.0513 39.8004C15.0513 40.9229 15.4705 41.3855 16.4994 41.3855C26.8287 41.3855 37.1574 41.3855 47.4855 41.3855C48.3591 41.3855 48.9036 40.9061 48.9137 40.1629C48.9237 39.4196 48.3608 38.9001 47.4571 38.8901C46.5201 38.88 45.578 38.8366 44.646 38.9051C43.9779 38.9535 43.8793 38.708 43.881 38.1067C43.901 31.3608 43.9049 24.6138 43.8927 17.8657C43.8927 16.7383 43.4768 16.3207 42.3476 16.3157C40.8699 16.309 39.3912 16.309 37.9113 16.3157C36.8105 16.3157 36.3796 16.7717 36.3762 17.8891C36.3762 18.8913 36.3612 19.8935 36.3762 20.8874C36.3846 21.2465 36.2677 21.3534 35.9135 21.345C34.9364 21.325 33.9576 21.3367 32.9788 21.345C31.7662 21.345 31.3586 21.7509 31.3569 22.9469C31.3569 23.9257 31.3385 24.9045 31.3569 25.8833C31.3669 26.2624 31.2667 26.3844 30.8725 26.3727C29.8319 26.3443 28.7913 26.3577 27.749 26.3727C26.7936 26.3727 26.346 26.832 26.3393 27.7991C26.3393 28.8197 26.3209 29.8403 26.3393 30.8592C26.3493 31.2534 26.2591 31.4037 25.8382 31.3887C24.836 31.3569 23.8338 31.3753 22.8316 31.3803C21.7526 31.3803 21.3183 31.8146 21.315 32.8953C21.315 34.7076 21.2949 36.5199 21.3266 38.3305C21.335 38.8182 21.1797 38.9285 20.7253 38.9101C19.8908 38.8647 19.0544 38.8647 18.2198 38.9101C17.6302 38.9502 17.51 38.7431 17.51 38.1885C17.5267 28.1666 17.53 18.1503 17.52 8.13947C17.5293 7.84848 17.5125 7.55723 17.4699 7.26923C17.4158 6.99087 17.2669 6.73986 17.0485 6.55895C16.8302 6.37804 16.5558 6.27842 16.2723 6.27706C15.9889 6.2783 15.7146 6.37714 15.4955 6.55694C15.2765 6.73673 15.1261 6.98651 15.0696 7.26422C15.0286 7.53108 15.0119 7.80111 15.0195 8.07099C15.0384 13.3136 15.049 18.5589 15.0513 23.8071ZM21.345 21.2264C21.345 21.8394 21.5855 22.2286 22.0582 22.4508C22.6128 22.7097 23.1005 22.5426 23.5415 22.1418C28.0369 18.0539 32.5323 13.9672 37.0277 9.88162C37.7259 9.24689 37.8144 8.48523 37.2815 7.92233C36.7487 7.35943 36.0589 7.39284 35.3557 8.02923C33.9081 9.33988 32.4604 10.655 31.0128 11.9745C27.9962 14.7172 24.9785 17.4599 21.9597 20.2025C21.6273 20.5032 21.3266 20.8122 21.345 21.2264Z" fill="#E2ECF8"/>
<path d="M8.7341 13.7968C8.74078 14.6286 8.74635 15.461 8.7508 16.2939C8.52197 16.3073 8.29314 16.3123 8.06597 16.3373C7.27469 16.4223 6.53736 16.779 5.97966 17.3468C5.42197 17.9145 5.07844 18.6581 5.00762 19.4508C4.96753 19.8851 5.00762 20.1289 5.57052 20.1039C6.62783 20.0538 7.68848 20.0922 8.74412 20.0939L8.7341 22.5993C7.73191 22.5993 6.72972 22.6344 5.73755 22.5843C5.15294 22.5543 4.98089 22.6896 4.98256 23.3126C5.00594 32.4548 5.00594 41.5959 4.98256 50.7359C4.98256 51.3422 5.12955 51.4825 5.73087 51.4809C11.6638 51.4558 17.5985 51.4642 23.5331 51.4658C24.6489 51.4658 25.0815 51.9035 25.0899 53.0159C25.0899 53.5771 25.1099 54.14 25.0899 54.7012C25.0732 55.0821 25.1483 55.2424 25.591 55.2408C29.8592 55.2218 34.128 55.2218 38.3973 55.2408C38.7648 55.2408 38.9251 55.1706 38.8984 54.7664C38.8633 54.2653 38.8901 53.7642 38.8901 53.2631C38.8901 51.8099 39.2358 51.4658 40.6974 51.4658C46.5902 51.4658 52.4831 51.4658 58.376 51.4658C58.7201 51.4658 58.9957 51.5226 58.994 50.9848C58.9773 41.6778 58.9773 32.3702 58.994 23.062C58.994 22.6561 58.8621 22.581 58.493 22.5877C57.4106 22.6094 56.3215 22.5877 55.2442 22.5977L55.2342 20.0922C56.2931 20.0922 57.3555 20.0521 58.4078 20.1022C58.9657 20.1273 59.0158 19.8851 58.969 19.4491C58.802 17.8673 57.5709 16.2354 55.2291 16.2922L55.2442 13.7951C56.0357 13.7822 56.8235 13.9066 57.5726 14.1626C59.9912 15.0612 61.4761 17.256 61.4761 19.9786C61.4761 30.2411 61.4717 40.5041 61.4628 50.7676C61.4628 51.3573 61.6298 51.5393 62.186 51.4575C62.5294 51.3887 62.8856 51.4266 63.2068 51.566C63.5281 51.7054 63.799 51.9397 63.9833 52.2375V54.2419C63.7361 54.5459 63.7728 54.9317 63.6876 55.2825C63.1032 57.765 61.6954 59.9765 59.6936 61.5567C57.6918 63.1369 55.2139 63.9928 52.6635 63.9849C44.4567 63.9994 36.2504 63.9994 28.0447 63.9849C22.3572 63.9849 16.6715 64.0216 10.9857 63.9699C5.20471 63.9147 0.295641 59.1075 0.0133564 53.3366C-0.0584674 51.8617 0.322365 51.4224 1.77721 51.4708C2.38354 51.4909 2.52218 51.3272 2.52051 50.7259C2.50047 40.5403 2.4949 30.3552 2.50381 20.1707C2.4929 19.5465 2.55455 18.9232 2.68754 18.3133C3.19532 16.1385 5.2448 13.7416 8.7341 13.7968ZM31.9883 61.4861C38.8812 61.4861 45.7735 61.4861 52.6652 61.4861C54.6701 61.4891 56.616 60.8081 58.1815 59.5557C59.747 58.3033 60.8385 56.5543 61.2757 54.5977C61.4026 54.0398 61.2857 53.9479 60.7479 53.9496C54.5232 53.9685 48.2973 53.9685 42.0704 53.9496C41.5526 53.9496 41.302 54.0264 41.3738 54.6177C41.407 55.0959 41.4109 55.5756 41.3855 56.0542C41.3855 57.3337 40.9897 57.7245 39.7052 57.7245H25.8415C25.2168 57.7245 24.5921 57.7379 23.9674 57.7245C23.0939 57.7028 22.6195 57.2234 22.6011 56.3682C22.5894 55.7853 22.5644 55.199 22.6011 54.6194C22.6395 54.1183 22.5076 53.9513 21.968 53.9513C15.701 53.9713 9.43341 53.9713 3.16525 53.9513C2.67919 53.9513 2.57897 54.0431 2.68587 54.5359C3.1109 56.506 4.19878 58.2708 5.76794 59.5357C7.33709 60.8005 9.29259 61.489 11.3081 61.4861C18.202 61.4972 25.0954 61.4972 31.9883 61.4861Z" fill="#0068E5"/>
<path d="M15.0513 23.8072C15.0513 18.559 15.0513 13.3109 15.0513 8.06272C15.0436 7.79284 15.0604 7.52282 15.1014 7.25596C15.1578 6.97825 15.3082 6.72847 15.5273 6.54867C15.7463 6.36887 16.0206 6.27003 16.304 6.2688C16.5876 6.27016 16.8619 6.36978 17.0803 6.55069C17.2986 6.73159 17.4475 6.9826 17.5016 7.26097C17.5443 7.54897 17.5611 7.84021 17.5517 8.13121C17.5517 18.1531 17.5484 28.1695 17.5417 38.1803C17.5417 38.7365 17.662 38.9419 18.2516 38.9018C19.0861 38.8564 19.9225 38.8564 20.7571 38.9018C21.2114 38.9202 21.3668 38.81 21.3584 38.3222C21.3267 36.5116 21.3417 34.6993 21.3467 32.887C21.3467 31.8063 21.7843 31.3837 22.8634 31.372C23.8655 31.372 24.8677 31.3487 25.8699 31.3804C26.2975 31.3954 26.3877 31.2451 26.371 30.8509C26.346 29.832 26.3577 28.8114 26.371 27.7909C26.371 26.8238 26.8254 26.3711 27.7808 26.3644C28.8231 26.3561 29.8637 26.3427 30.9043 26.3644C31.2985 26.3761 31.4054 26.2542 31.3887 25.875C31.362 24.8962 31.3787 23.9174 31.3887 22.9386C31.3887 21.7426 31.7979 21.3401 33.0105 21.3368C33.9894 21.3368 34.9682 21.3217 35.9453 21.3368C36.2994 21.3451 36.4163 21.2382 36.408 20.8791C36.3863 19.8769 36.398 18.8747 36.408 17.8809C36.408 16.7634 36.8423 16.3141 37.943 16.3074C39.4207 16.2996 40.8995 16.2996 42.3794 16.3074C43.5085 16.3074 43.9244 16.73 43.9244 17.8575C43.9244 24.6034 43.9205 31.3503 43.9127 38.0984C43.9127 38.6997 44.0079 38.9453 44.6777 38.8968C45.6098 38.8284 46.5518 38.8718 47.4889 38.8818C48.3925 38.8918 48.9554 39.3913 48.9454 40.1546C48.9354 40.9179 48.3909 41.3773 47.5173 41.3773C37.1903 41.3773 26.8615 41.3773 16.5312 41.3773C15.5023 41.3773 15.083 40.9146 15.083 39.7921C15.0596 34.466 15.049 29.1377 15.0513 23.8072ZM38.8784 28.8048C38.8784 31.9667 38.8901 35.1286 38.865 38.2905C38.865 38.8 39.0187 38.9386 39.4947 38.8952C39.9089 38.8501 40.3267 38.8501 40.7408 38.8952C41.3237 38.972 41.4089 38.7281 41.4089 38.2037C41.3906 31.9834 41.3972 25.7648 41.3972 19.5445C41.3972 19.4192 41.3872 19.294 41.3972 19.1704C41.4223 18.8981 41.2987 18.8046 41.0348 18.8112C40.5341 18.843 40.0318 18.8402 39.5315 18.8029C38.9502 18.7394 38.8634 18.9783 38.8634 19.5044C38.8901 22.6062 38.8784 25.7063 38.8784 28.8048ZM33.8674 31.3687C33.8674 33.6804 33.8774 35.9922 33.8574 38.3039C33.8574 38.7465 33.9276 38.9503 34.4236 38.8985C34.8803 38.8551 35.34 38.8551 35.7967 38.8985C36.251 38.9369 36.393 38.8117 36.3913 38.3273C36.3712 33.6838 36.3712 29.0403 36.3913 24.3968C36.3913 23.9775 36.3144 23.7921 35.8534 23.8322C35.376 23.8715 34.8961 23.8715 34.4186 23.8322C33.9894 23.8005 33.8541 23.9274 33.8591 24.3751C33.8774 26.7052 33.8658 29.0369 33.8658 31.3687H33.8674ZM28.8565 33.8642C28.8565 35.3675 28.8748 36.8574 28.8464 38.354C28.8364 38.8 28.9717 38.9302 29.4027 38.8968C29.8796 38.8584 30.3589 38.8584 30.8358 38.8968C31.2901 38.9369 31.3803 38.7666 31.377 38.3406C31.3569 35.8468 31.377 33.3514 31.3653 30.8559C31.3653 30.2162 31.5858 29.3526 31.2617 28.9918C30.8909 28.5776 30.0123 28.9183 29.3576 28.8532C28.9366 28.8114 28.8414 28.9768 28.8481 29.3727C28.8682 30.8693 28.8548 32.3659 28.8548 33.8642H28.8565ZM26.351 36.3897C26.351 35.6815 26.341 34.9749 26.351 34.2667C26.351 33.9861 26.2942 33.8508 25.9768 33.8625C25.3939 33.8825 24.8076 33.8792 24.228 33.8625C23.9457 33.8541 23.8221 33.9226 23.8255 34.2383C23.8399 35.6536 23.8399 37.069 23.8255 38.4843C23.8255 38.8284 23.9524 38.9052 24.2631 38.8935C24.8039 38.8651 25.3458 38.8651 25.8866 38.8935C26.3025 38.9219 26.3677 38.7415 26.3543 38.3924C26.3376 37.7226 26.3543 37.0561 26.3543 36.3897H26.351Z" fill="#0068E5"/>
<path d="M21.345 21.2264C21.3266 20.8122 21.6273 20.5032 21.958 20.2025C24.978 17.4609 27.9957 14.7183 31.0112 11.9745C32.4588 10.6583 33.9064 9.3432 35.354 8.02921C36.0572 7.39282 36.7487 7.36108 37.2799 7.92231C37.811 8.48354 37.7242 9.24687 37.026 9.8816C32.5328 13.9705 28.0374 18.0573 23.5398 22.1417C23.0988 22.5426 22.6111 22.7097 22.0566 22.4508C21.5855 22.2303 21.3367 21.8394 21.345 21.2264Z" fill="#0068E5"/>
<path d="M38.8784 28.8047C38.8784 25.7062 38.8901 22.6061 38.865 19.5077C38.865 18.9815 38.9552 18.7427 39.5331 18.8062C40.0335 18.8435 40.5357 18.8463 41.0364 18.8145C41.3003 18.8145 41.4239 18.9014 41.3989 19.1736C41.3889 19.2972 41.3989 19.4225 41.3989 19.5478C41.3989 25.7681 41.3989 31.9867 41.4106 38.2069C41.4106 38.7281 41.3271 38.9753 40.7425 38.8984C40.3283 38.8533 39.9105 38.8533 39.4964 38.8984C39.0204 38.9419 38.8634 38.8032 38.8667 38.2938C38.8901 35.1335 38.8784 31.9599 38.8784 28.8047Z" fill="#E2ECF8"/>
<path d="M33.8657 31.3687C33.8657 29.0302 33.8774 26.7052 33.8541 24.3734C33.8541 23.9257 33.9843 23.7988 34.4136 23.8305C34.8911 23.8698 35.371 23.8698 35.8484 23.8305C36.3094 23.7904 36.3879 23.9759 36.3863 24.3951C36.3718 29.0386 36.3718 33.6821 36.3863 38.3256C36.3863 38.81 36.2459 38.9352 35.7916 38.8968C35.335 38.8534 34.8753 38.8534 34.4186 38.8968C33.9175 38.9486 33.8474 38.7448 33.8524 38.3022C33.8758 35.9921 33.8657 33.6804 33.8657 31.3687Z" fill="#E2ECF8"/>
<path d="M28.8548 33.8641C28.8548 32.3608 28.8682 30.8692 28.8464 29.3726C28.8464 28.9767 28.935 28.8113 29.3559 28.8531C30.0107 28.9183 30.8892 28.5775 31.2601 28.9917C31.5841 29.3542 31.3619 30.2161 31.3636 30.8558C31.3636 33.3513 31.3553 35.8467 31.3753 38.3405C31.3753 38.7665 31.2885 38.9368 30.8341 38.8967C30.3572 38.8583 29.8779 38.8583 29.401 38.8967C28.97 38.9302 28.8348 38.7999 28.8448 38.3539C28.8815 36.8573 28.8548 35.3607 28.8548 33.8641Z" fill="#E2ECF8"/>
<path d="M26.3543 36.3895C26.3543 37.0576 26.3376 37.7258 26.3543 38.3939C26.3677 38.7513 26.3025 38.9317 25.8866 38.895C25.3458 38.8666 24.8039 38.8666 24.2631 38.895C23.9524 38.9067 23.8221 38.8298 23.8254 38.4858C23.8433 37.0693 23.8433 35.654 23.8254 34.2398C23.8254 33.9241 23.9457 33.8556 24.228 33.864C24.8109 33.8807 25.3972 33.884 25.9768 33.864C26.2942 33.8523 26.3576 33.9876 26.351 34.2682C26.3443 34.9747 26.3543 35.6813 26.3543 36.3895Z" fill="#E2ECF8"/>
</g>
<defs>
<clipPath id="clip0_996_28161">
<rect width="63.9833" height="64" fill="white"/>
</clipPath>
</defs>
</svg>
