<svg width="64" height="65" viewBox="0 0 64 65" fill="none" xmlns="http://www.w3.org/2000/svg">
<g clip-path="url(#clip0_996_17162)">
<path d="M0 63.1379V62.2624C0.486203 61.6292 1.12947 61.4521 1.91141 61.4989C2.80194 61.554 3.70082 61.4989 4.59637 61.5189C4.91215 61.5189 5.03246 61.4471 5.02076 61.1079C4.9957 60.3794 4.99737 59.651 5.02076 58.9225C5.02818 58.146 5.2813 57.3918 5.74385 56.7681C6.20639 56.1444 6.8546 55.6831 7.59547 55.4506C8.09671 55.3002 8.15853 55.068 8.15853 54.6152C8.14628 46.7635 8.14349 38.9108 8.15017 31.0569V30.3618C7.77758 30.6091 7.48184 30.7879 7.20115 30.9934C6.73332 31.3276 6.24378 31.5097 5.69742 31.2106C5.15107 30.9115 5.00906 30.4287 5.01407 29.8422C5.02577 27.9275 5.02911 26.0111 5.01407 24.0963C4.99904 23.8057 5.06379 23.5164 5.20132 23.2599C5.33886 23.0034 5.54393 22.7894 5.79434 22.6411C7.48687 21.5066 9.16101 20.3437 10.8535 19.2076C10.9965 19.1312 11.1147 19.0157 11.1943 18.8745C11.2739 18.7334 11.3116 18.5724 11.303 18.4106C11.2846 14.7248 11.2896 11.039 11.2879 7.35325C12.1116 7.5337 12.9487 7.48858 13.7824 7.5103V17.2009C14.9837 16.3806 16.0497 15.6287 17.1424 14.917C17.2932 14.8346 17.4165 14.7098 17.497 14.5581C17.5775 14.4063 17.6116 14.2342 17.5952 14.0632C17.5785 11.8811 17.5952 9.69905 17.5952 7.51531C18.4306 7.48357 19.266 7.55876 20.088 7.36327V12.7767C20.4072 12.7433 20.5642 12.5628 20.7447 12.4425C24.1976 10.0911 27.6456 7.73698 31.0886 5.38003C31.8171 4.87879 32.188 4.89049 32.9098 5.37168C33.1854 5.55547 33.4661 5.7309 33.7452 5.91135L32.5071 8.12349C32.1629 7.77763 31.8622 7.8595 31.4812 8.12349C29.2089 9.70239 26.9199 11.2562 24.6309 12.8168C19.0616 16.6195 13.4956 20.4222 7.93296 24.225C7.75251 24.347 7.50859 24.4171 7.51026 24.7112C7.51026 25.6803 7.51026 26.6493 7.51026 27.6384C7.84442 27.6017 8.01149 27.4062 8.21366 27.2725C15.7746 22.1109 23.3355 16.9492 30.8964 11.7875C31.0769 11.6639 31.2306 11.4534 31.4946 11.5035C31.4211 12.506 31.3459 13.5085 31.3709 14.511C24.5853 19.1413 17.7974 23.7683 11.0072 28.392C10.6731 28.6225 10.6397 28.8932 10.6413 29.2274C10.6413 37.6627 10.6413 46.098 10.6413 54.5333C10.6413 54.6386 10.6497 54.7438 10.6413 54.8457C10.6113 55.1331 10.7115 55.2551 11.0223 55.2501C12.3589 55.2284 13.6855 55.2284 15.0188 55.22C16.7448 55.2284 18.4707 55.2451 20.1983 55.2434C23.0888 55.2434 25.9798 55.235 28.8714 55.2183C28.9327 55.2302 28.9946 55.238 29.0569 55.2417C36.9932 55.2417 44.9306 55.2462 52.8691 55.2551C53.3303 55.2551 53.3553 55.0596 53.3553 54.6987C53.3487 46.1765 53.3487 37.6554 53.3553 29.1355C53.3695 28.9842 53.34 28.8321 53.2704 28.6971C53.2009 28.5621 53.0941 28.4498 52.9627 28.3736C51.9936 27.7303 51.048 27.052 50.0939 26.387L52.697 25.1372L56.4847 27.7721C56.4847 27.2608 56.4396 26.9066 56.4847 26.5658C56.7086 25.1406 56.3611 24.0195 54.9175 23.4364C54.8992 23.4364 54.8891 23.408 54.8741 23.3913L56.5867 21.5216C57.1631 21.9293 57.7345 22.3437 58.3159 22.743C58.5222 22.8673 58.6925 23.0435 58.8097 23.2539C58.9269 23.4643 58.9871 23.7018 58.9843 23.9426C58.9843 25.9843 59.0026 28.0244 58.9843 30.0661C58.9692 31.1755 57.9383 31.7118 56.9977 31.1337C56.6334 30.9099 56.2876 30.6592 55.9016 30.3986C55.8822 30.484 55.8677 30.5705 55.8582 30.6576C55.8582 38.7197 55.8549 46.7808 55.8482 54.8407C55.8482 55.215 55.9969 55.3086 56.321 55.4155C57.7379 55.885 58.6267 56.8557 58.9124 58.3377C59.0795 59.2249 58.9859 60.1255 58.9793 61.011C58.9793 61.432 59.1079 61.5273 59.5039 61.5122C60.5648 61.4872 61.6275 61.4922 62.6901 61.5122C63.452 61.5223 63.9866 62.0402 64 62.7336C64.0134 63.452 63.4654 63.9783 62.6734 64.0067C62.5498 64.0067 62.4245 64.0067 62.2991 64.0067C42.0969 64.0067 21.8953 64.0106 1.69419 64.0184C0.928967 64.0268 0.362564 63.8196 0 63.1379ZM32.0008 61.5122H54.5566C55.1765 61.5122 56.0169 61.7228 56.3611 61.407C56.7554 61.0427 56.4747 60.1923 56.4814 59.5541C56.4964 58.0955 56.1473 57.7479 54.6836 57.7479H13.8743C12.2303 57.7479 10.5845 57.7479 8.93878 57.7479C7.99478 57.7479 7.52697 58.2274 7.51026 59.1731C7.51026 59.7362 7.55703 60.3042 7.49521 60.8606C7.43005 61.4471 7.66229 61.5289 8.18692 61.5289C16.1266 61.5089 24.0645 61.5033 32.0008 61.5122Z" fill="#0068E5"/>
<path d="M32.5071 8.12677L33.7452 5.91464C33.8287 5.82274 33.9223 5.74755 33.9958 5.64062C35.7458 3.28998 38.1863 1.54461 40.9764 0.648271C41.9639 0.314111 42.9981 0.235583 44.0023 0H46.6287C46.6955 0.0466909 46.7694 0.0822402 46.8476 0.105261C50.495 0.549694 53.5626 2.11022 55.9 4.96061C59.1547 8.93377 59.8949 13.3865 58.2558 18.2435C57.8615 19.413 57.1498 20.4255 56.6001 21.5182L54.8875 23.3879L52.7038 25.1339L50.1007 26.3836C48.201 26.945 46.2896 27.3193 44.2796 27.1538C39.8871 26.793 36.4035 24.8582 33.8187 21.2943C32.3484 19.2693 31.6467 16.9686 31.376 14.5092C31.351 13.5068 31.4261 12.5043 31.4997 11.5018C31.7568 10.3548 32.0935 9.22707 32.5071 8.12677ZM43.9655 17.363C43.5896 17.363 43.2153 17.363 42.8394 17.363C42.004 17.3797 41.4877 17.8475 41.4793 18.5826C41.471 19.3178 41.9806 19.8257 42.7959 19.8608C43.1685 19.8775 43.6531 19.7488 43.8853 19.936C44.171 20.1649 43.9622 20.6761 43.9889 21.0638C44.039 21.7839 44.5319 22.3035 45.2052 22.3202C45.5324 22.3271 45.8492 22.2055 46.0878 21.9816C46.3264 21.7577 46.4678 21.4492 46.4817 21.1223C46.5059 20.7685 46.5059 20.4134 46.4817 20.0596C46.4634 19.9407 46.4866 19.8191 46.5475 19.7153C46.6083 19.6115 46.7031 19.5319 46.8159 19.4899C48.4716 18.6378 49.272 17.0455 48.9177 15.373C48.5468 13.6187 47.2068 12.4926 45.3422 12.3656C44.4617 12.3054 43.9404 11.8159 43.9705 11.0741C43.9972 10.3723 44.5369 9.91954 45.394 9.90451C46.1643 9.89114 46.9362 9.91453 47.7064 9.90451C48.4499 9.8878 48.9578 9.40326 48.9879 8.72659C49.0012 8.40012 48.8864 8.08139 48.6678 7.83849C48.4493 7.5956 48.1444 7.44781 47.8184 7.42671C47.4073 7.38327 46.871 7.55369 46.602 7.34985C46.2762 7.1009 46.5369 6.53283 46.475 6.10677C46.3748 5.39501 45.8401 4.93721 45.1484 4.96896C44.4801 5.00572 44.0206 5.49359 43.9789 6.197C43.9588 6.48793 43.9588 6.7799 43.9789 7.07083C44.0156 7.44509 43.9237 7.67398 43.5361 7.82937C42.9961 8.05973 42.5326 8.43866 42.1995 8.92208C41.3641 10.0816 41.197 11.3498 41.7801 12.6413C42.4167 14.0581 43.5929 14.7615 45.1334 14.8701C46.0139 14.9336 46.5218 15.4248 46.4867 16.1733C46.4533 16.8784 45.902 17.3513 45.0766 17.3713C44.7207 17.3696 44.3397 17.363 43.9655 17.363Z" fill="#E2ECF8"/>
<path d="M19.5016 0C20.5676 0.319123 21.4765 0.870491 22.0479 1.85292C22.3117 2.29477 22.4817 2.78623 22.5471 3.29667C22.6126 3.8071 22.5722 4.32555 22.4285 4.81968C22.2847 5.31381 22.0407 5.77303 21.7116 6.16867C21.3825 6.56432 20.9754 6.88791 20.5158 7.11928C20.3704 7.19613 20.2301 7.28636 20.088 7.3699C19.266 7.56538 18.4273 7.4902 17.5952 7.52195H13.7758C12.9404 7.50023 12.105 7.54534 11.2813 7.36489C10.3473 6.86365 9.52692 6.27386 9.0992 5.24632C8.89167 4.75882 8.78901 4.23311 8.79789 3.70336C8.80678 3.1736 8.92699 2.65165 9.15074 2.17138C9.37448 1.69111 9.69676 1.26327 10.0966 0.915667C10.4965 0.568061 10.965 0.308454 11.4717 0.153711C11.6087 0.111941 11.7658 0.12531 11.8694 0H19.5016Z" fill="#E2ECF8"/>
<path d="M15.0257 55.22C15.0257 50.3262 15.0074 45.4324 15.0257 40.5387C15.0358 37.9372 16.6264 36.3901 19.2161 36.3867C21.1108 36.3867 23.0055 36.3867 24.8968 36.3867C27.2359 36.3867 28.8683 38.0107 28.87 40.3499C28.8767 45.3054 28.8767 50.2622 28.87 55.22C25.9739 55.23 23.0829 55.2384 20.1969 55.245C18.4776 55.245 16.7517 55.2283 15.0257 55.22ZM18.8469 48.9077C18.8385 49.0732 18.8637 49.2386 18.9209 49.3942C18.9781 49.5497 19.0662 49.692 19.1798 49.8127C19.2934 49.9333 19.4302 50.0297 19.582 50.0961C19.7338 50.1626 19.8975 50.1976 20.0632 50.1992C20.3877 50.2008 20.7002 50.0769 20.9354 49.8533C21.1705 49.6296 21.31 49.3237 21.3247 48.9996C21.3307 48.834 21.3034 48.6689 21.2444 48.5141C21.1854 48.3593 21.0959 48.2179 20.9812 48.0984C20.8665 47.9789 20.7289 47.8836 20.5767 47.8183C20.4244 47.7529 20.2606 47.7189 20.0949 47.7181C19.9346 47.7132 19.7749 47.7402 19.6251 47.7975C19.4753 47.8548 19.3384 47.9413 19.2223 48.052C19.1061 48.1627 19.0132 48.2953 18.9487 48.4422C18.8843 48.5891 18.8497 48.7473 18.8469 48.9077Z" fill="#E2ECF8"/>
<path d="M43.9653 17.3629C44.3396 17.3629 44.7155 17.3629 45.0898 17.3629C45.9152 17.3429 46.4665 16.8617 46.4999 16.165C46.535 15.4164 46.0271 14.9252 45.1466 14.8617C43.6061 14.7531 42.4299 14.0497 41.7933 12.6329C41.2119 11.3397 41.3789 10.0716 42.2143 8.9187C42.5475 8.43529 43.011 8.05637 43.551 7.826C43.9386 7.67062 44.0305 7.44171 43.9937 7.06745C43.9737 6.77652 43.9737 6.48456 43.9937 6.19363C44.0272 5.49022 44.495 5.00235 45.1633 4.9656C45.855 4.92717 46.3897 5.39165 46.4899 6.10341C46.5517 6.52946 46.2911 7.09754 46.6169 7.34649C46.8859 7.55032 47.4222 7.3799 47.8332 7.42334C48.1593 7.44444 48.4642 7.59223 48.6827 7.83512C48.9013 8.07802 49.0161 8.39676 49.0028 8.72322C48.9727 9.40324 48.4648 9.89278 47.7213 9.90114C46.9511 9.91951 46.1792 9.90114 45.4089 9.90114C44.5518 9.91784 44.0121 10.3706 43.9854 11.0707C43.9553 11.8125 44.4766 12.3021 45.3571 12.3622C47.2217 12.4909 48.5617 13.617 48.9326 15.3697C49.2868 17.0405 48.4865 18.6344 46.8308 19.4865C46.718 19.5285 46.6232 19.6082 46.5623 19.7119C46.5015 19.8157 46.4783 19.9373 46.4966 20.0563C46.5208 20.4101 46.5208 20.7651 46.4966 21.1189C46.4827 21.4458 46.3413 21.7543 46.1027 21.9782C45.8641 22.2021 45.5473 22.3237 45.2201 22.3168C44.5518 22.3001 44.0506 21.7805 44.0038 21.0604C43.977 20.6728 44.1859 20.1615 43.9002 19.9326C43.6679 19.7455 43.1834 19.8741 42.8108 19.8574C42.0022 19.8223 41.4859 19.3178 41.4942 18.5793C41.5026 17.8408 42.0205 17.3763 42.8543 17.3596C43.2168 17.3562 43.5894 17.3629 43.9653 17.3629Z" fill="#0068E5"/>
<path d="M32.6306 43.8819C32.6306 41.486 32.6306 39.0912 32.6306 36.6975C32.6306 35.5898 33.0767 35.1436 34.1861 35.142C39.0169 35.142 43.8472 35.142 48.6769 35.142C49.7312 35.142 50.1974 35.6031 50.199 36.6708C50.199 41.5016 50.199 46.3324 50.199 51.1633C50.199 52.261 49.7379 52.7155 48.6402 52.7171C43.8316 52.7171 39.0225 52.7171 34.2128 52.7171C33.07 52.7171 32.6306 52.271 32.6289 51.1265C32.6289 48.7117 32.6295 46.2968 32.6306 43.8819ZM35.7082 50.1808C38.3013 50.1925 40.896 50.2109 43.4891 50.2159C44.7121 50.2159 45.9368 50.1925 47.1649 50.1792C47.5776 50.3112 47.7146 50.1591 47.7129 49.7314C47.7006 45.8629 47.7006 41.9945 47.7129 38.126C47.7129 37.6833 47.5642 37.568 47.1699 37.6649H35.628C35.2638 37.5747 35.1268 37.6649 35.1268 38.0893C35.1435 41.9655 35.1435 45.8412 35.1268 49.7164C35.1201 50.1992 35.2905 50.3078 35.7082 50.1875V50.1808Z" fill="#0068E5"/>
<path d="M18.8468 48.9077C18.8496 48.7473 18.8842 48.5891 18.9486 48.4422C19.0131 48.2953 19.1061 48.1627 19.2222 48.052C19.3383 47.9414 19.4752 47.8549 19.625 47.7975C19.7748 47.7402 19.9345 47.7132 20.0949 47.7181C20.2605 47.7189 20.4243 47.753 20.5766 47.8183C20.7288 47.8836 20.8664 47.9789 20.9811 48.0984C21.0958 48.218 21.1853 48.3593 21.2443 48.5141C21.3033 48.669 21.3306 48.834 21.3246 48.9996C21.3099 49.3238 21.1704 49.6297 20.9353 49.8533C20.7001 50.0769 20.3876 50.2009 20.0631 50.1992C19.8974 50.1976 19.7338 50.1626 19.5819 50.0961C19.4301 50.0297 19.2933 49.9333 19.1797 49.8127C19.0661 49.692 18.9781 49.5497 18.9208 49.3942C18.8636 49.2387 18.8384 49.0732 18.8468 48.9077Z" fill="#0068E5"/>
<path d="M47.1598 50.1875C46.2543 49.4925 45.3587 48.7841 44.4398 48.1074C44.2585 47.9906 44.1116 47.8277 44.0141 47.6354C43.9166 47.4431 43.8721 47.2283 43.8851 47.013C43.9101 44.9312 43.9051 42.8511 43.8851 40.7709C43.8729 40.5877 43.91 40.4047 43.9926 40.2407C44.0752 40.0767 44.2002 39.9379 44.3546 39.8386C45.3002 39.1285 46.2944 38.4769 47.1699 37.6666C47.5642 37.5697 47.7145 37.6849 47.7129 38.1277C47.6962 41.9962 47.6962 45.8646 47.7129 49.7331C47.7095 50.1591 47.5725 50.3112 47.1598 50.1875Z" fill="#E2ECF8"/>
<path d="M35.6265 37.6665C36.5488 38.3682 37.4644 39.0867 38.4017 39.7667C38.5652 39.8719 38.6972 40.0194 38.7836 40.1936C38.8701 40.3677 38.9079 40.562 38.8929 40.7558C38.8745 42.8928 38.8779 45.0314 38.8929 47.17C38.9047 47.3425 38.8707 47.5151 38.7945 47.6703C38.7182 47.8255 38.6023 47.9578 38.4585 48.0539C37.5396 48.7573 36.5471 49.3704 35.71 50.1808C35.2923 50.3078 35.1219 50.1992 35.1236 49.718C35.1403 45.8417 35.1403 41.966 35.1236 38.0909C35.1203 37.6749 35.2623 37.5763 35.6265 37.6665Z" fill="#E2ECF8"/>
</g>
<defs>
<clipPath id="clip0_996_17162">
<rect width="64" height="64.0251" fill="white"/>
</clipPath>
</defs>
</svg>
