<svg width="64" height="65" viewBox="0 0 64 65" fill="none" xmlns="http://www.w3.org/2000/svg">
<g clip-path="url(#clip0_996_5485)">
<path d="M45.3707 2.79624e-05C45.3707 1.00232 45.3907 2.00462 45.3606 3.00692C45.3489 3.38779 45.5143 3.53815 45.8367 3.60162C48.0301 4.02927 50.013 4.95639 51.9023 6.12574C52.1863 6.29279 52.3466 6.23433 52.5454 6.03053C53.1 5.46423 53.678 4.92132 54.2159 4.34166C54.5333 4.00756 54.7588 3.93405 55.1247 4.30991C56.6381 5.86347 58.175 7.39364 59.7169 8.91713C60.0259 9.22116 60.051 9.43499 59.7169 9.73568C59.1255 10.2936 58.5692 10.8883 57.9862 11.4546C57.7607 11.6751 57.7106 11.8439 57.896 12.1496C59.052 14.0422 59.9741 16.0385 60.4018 18.2318C60.406 18.2984 60.4241 18.3633 60.4551 18.4225C60.486 18.4816 60.529 18.5335 60.5813 18.5749C60.6336 18.6163 60.694 18.6463 60.7586 18.6629C60.8232 18.6795 60.8906 18.6823 60.9564 18.6712C61.81 18.6461 62.6653 18.6712 63.5189 18.6578C63.8731 18.6578 63.9883 18.7814 63.9867 19.1305C63.9755 21.4058 63.9755 23.681 63.9867 25.9562C63.9867 26.3087 63.8647 26.434 63.5139 26.4256C62.6786 26.4089 61.8434 26.439 61.0082 26.4122C60.6573 26.4022 60.4686 26.5074 60.3884 26.8549C59.9094 29.014 59.0514 31.071 57.8543 32.9305C57.6655 33.2195 57.7574 33.4183 57.9812 33.6355C58.5509 34.1867 59.0904 34.7681 59.6684 35.306C60.0025 35.6133 60.0343 35.8338 59.6918 36.1713C58.1449 37.6914 56.6131 39.226 55.0963 40.7752C54.8106 41.0658 54.6235 41.0875 54.3412 40.7868C53.7749 40.1804 53.1719 39.6175 52.5989 39.0078C52.3583 38.7505 52.1913 38.7154 51.8722 38.9226C50.0544 40.0997 48.0437 40.9479 45.932 41.4283C45.4676 41.5369 45.3222 41.729 45.3423 42.1867C45.374 42.9785 45.3422 43.7737 45.3556 44.5655C45.364 44.928 45.2704 45.09 44.8712 45.0884C42.6438 45.0739 40.4165 45.0739 38.1892 45.0884C37.8367 45.0884 37.7131 44.9648 37.7198 44.6139C37.7365 43.8205 37.7031 43.027 37.7332 42.2352C37.7515 41.7658 37.6313 41.5369 37.1234 41.4266C35.0489 40.9683 33.0703 40.1515 31.2767 39.0128C30.8892 38.7706 30.6536 38.8207 30.3629 39.1264C29.8334 39.686 29.2654 40.2105 28.7375 40.7735C28.4719 41.0575 28.2932 41.1076 27.9891 40.7952C26.43 39.1993 24.8547 37.6196 23.2633 36.056C22.9944 35.7887 22.9743 35.6183 23.2633 35.351C23.8547 34.7948 24.411 34.1984 24.994 33.6321C25.2646 33.3715 25.2863 33.1493 25.0792 32.8169C23.9071 30.9658 23.0718 28.9219 22.6118 26.7797C22.5417 26.4456 22.3228 26.4206 22.0572 26.4223C21.2454 26.4223 20.4319 26.4055 19.62 26.4223C19.1723 26.4356 18.9852 26.292 18.9885 25.8175C19.0052 23.6058 19.0052 21.3935 18.9885 19.1807C18.9885 18.763 19.1272 18.6377 19.5298 18.6511C20.365 18.6745 21.2003 18.6511 22.0355 18.6628C22.3696 18.6628 22.5367 18.5592 22.6118 18.2368C23.0935 16.0152 23.9791 13.9009 25.2245 11.9992C25.4182 11.7085 25.2445 11.5899 25.0858 11.4296C24.4828 10.8232 23.8897 10.2068 23.2683 9.62042C22.9827 9.3498 23.0111 9.1794 23.2683 8.91546C24.8275 7.37526 26.3738 5.82561 27.9073 4.26648C28.2264 3.9424 28.4385 3.98584 28.7259 4.28987C29.2537 4.85282 29.8267 5.37235 30.3496 5.93865C30.6453 6.26105 30.8891 6.28946 31.2583 6.0489C33.0274 4.90945 34.9834 4.09064 37.0366 3.63003C37.5377 3.51477 37.7766 3.32099 37.7449 2.75135C37.6931 1.83592 37.7348 0.913806 37.7365 -0.0032959L45.3707 2.79624e-05ZM35.0887 33.2746C35.8989 33.8793 36.8294 34.2368 37.7749 34.5442C39.7024 35.1547 41.7507 35.2809 43.7386 34.9117C45.242 34.6511 46.7355 34.2302 47.975 33.2412C48.9773 32.8169 49.7356 32.0719 50.494 31.3135C50.8014 31.1782 50.9184 30.8624 51.1122 30.6252C53.9403 27.1823 54.7973 23.275 53.5711 19.0086C52.482 15.2199 50.0631 12.4937 46.4214 10.9334C44.2853 9.98074 41.9159 9.6786 39.6091 10.0648C36.5421 10.5876 33.9461 11.9908 31.9248 14.408C30.2723 16.3288 29.2577 18.7159 29.0215 21.2387C28.7776 23.8614 29.2186 26.3922 30.5818 28.6875C31.1263 29.6029 31.6091 30.5952 32.573 31.1932C33.1927 32.1437 34.1132 32.7417 35.0887 33.2746Z" fill="#E2ECF8"/>
<path d="M-3.05176e-05 43.3326C0.174132 42.9875 0.368275 42.6528 0.581339 42.3303C1.21112 41.4833 2.09481 41.1158 3.12717 41.1075C4.7108 41.0958 6.3011 41.0841 7.87638 41.1075C9.75735 41.1359 10.9668 42.3219 10.9935 44.1912C10.9935 44.6673 11.209 44.6773 11.5565 44.6707C14.8674 44.6072 18.1783 44.5905 21.4876 44.4802C25.2445 44.3566 28.6707 45.5427 31.9532 47.153C34.0948 48.2038 35.356 49.9929 35.3193 52.4986C35.3193 52.821 35.4512 52.8193 35.6951 52.7943C39.3168 52.4112 42.9395 52.0336 46.5633 51.6617C48.6515 51.4495 50.5492 51.8839 52.0543 53.4458C53.0566 54.4831 53.541 55.7227 53.1067 57.1643C52.6724 58.6059 51.5815 59.3359 50.1983 59.6032C47.1547 60.1845 44.0994 60.7007 41.0474 61.2353C36.6039 62.0137 32.1604 62.7955 27.7118 63.5539C26.5842 63.746 25.4433 63.8546 24.309 64.0016C24.1971 64.0167 24.0518 63.9549 23.9983 64.1236H20.6239C20.2347 63.8429 19.7603 63.7694 19.326 63.6007C16.7183 62.58 14.1023 61.5744 11.493 60.5554C11.1589 60.4268 11.0319 60.3883 10.9685 60.8494C10.768 62.2844 9.56692 63.31 8.05012 63.3451C6.36459 63.3819 4.67905 63.3685 2.99352 63.3451C2.55463 63.342 2.12146 63.2451 1.72303 63.061C1.32461 62.8769 0.970097 62.6098 0.683217 62.2777C0.370834 61.9336 0.268919 61.4775 -3.05176e-05 61.1083V43.3326ZM17.617 47.1747C15.5974 47.1747 13.5778 47.1864 11.5582 47.1647C11.1322 47.1647 10.9952 47.2616 10.9985 47.711C11.0186 50.8615 11.0186 54.0121 10.9985 57.1626C10.9985 57.5619 11.1188 57.7339 11.488 57.8743C14.4949 59.0219 17.5018 60.1912 20.492 61.3572C20.9387 61.5308 21.4142 61.6181 21.8935 61.6145C24.025 61.6145 26.1232 61.2804 28.2147 60.9246C33.6237 59.988 39.0316 59.0458 44.4385 58.0981C46.2192 57.7857 48.0067 57.4934 49.7741 57.1142C50.8582 56.8803 51.0587 56.1119 50.347 55.2666C50.0906 54.9628 49.7722 54.7173 49.4132 54.5466C48.5629 54.1307 47.6675 54.0572 46.7404 54.1557C43.2842 54.5232 39.8246 54.8624 36.3717 55.2449C35.341 55.3585 34.2551 55.2666 33.2929 55.6608C32.1786 56.1416 30.9431 56.267 29.7548 56.02C28.5354 55.7661 27.336 55.422 26.1299 55.1062C24.3625 54.6418 22.5968 54.1674 20.8311 53.6947C20.2698 53.546 19.8405 53.2486 19.7453 52.6289C19.6984 52.3912 19.7249 52.1449 19.8212 51.9226C19.9176 51.7003 20.0793 51.5126 20.2848 51.3844C20.6807 51.1154 21.1117 51.1672 21.5477 51.2841C24.1754 51.9891 26.8064 52.6857 29.4341 53.394C30.1124 53.6006 30.8249 53.671 31.5306 53.6011C32.4727 53.4808 32.9639 52.8193 32.7901 51.8822C32.5329 50.494 31.5941 49.6654 30.3779 49.1442C29.08 48.5896 27.7519 48.1002 26.4239 47.6224C25.5001 47.2883 24.5279 47.1697 23.5506 47.0845C21.5694 46.9108 19.5932 47.0578 17.617 47.1747ZM8.50616 52.2898V44.4685C8.50616 43.7268 8.4126 43.6199 7.70431 43.6166C6.22592 43.6166 4.7492 43.6166 3.27081 43.6166C2.73625 43.6166 2.48903 43.7937 2.4907 44.385C2.50741 49.6192 2.50741 54.8534 2.4907 60.0877C2.4907 60.6757 2.73793 60.8594 3.27583 60.8544C4.75422 60.8427 6.23094 60.8394 7.70933 60.8544C8.28398 60.8544 8.52283 60.6606 8.51782 60.0492C8.49109 57.4633 8.50616 54.8774 8.50616 52.2898Z" fill="#0068E5"/>
<path d="M32.5696 31.1848C32.7367 28.4001 33.906 26.1466 36.1495 24.4794C36.5003 24.2188 36.3032 24.0417 36.1896 23.8112C34.4506 20.3265 36.3182 16.1787 40.0802 15.27C42.5091 14.6819 44.6022 15.3819 46.1641 17.318C47.726 19.2541 47.9465 21.4408 46.8824 23.706C46.6786 24.1369 46.687 24.3224 47.0879 24.6314C49.2595 26.3136 50.3286 28.5855 50.494 31.3134C49.7356 32.0634 48.9806 32.8168 47.9749 33.2412C47.9749 32.6381 47.9967 32.0317 47.9749 31.4287C47.8897 29.3188 47.0027 27.6366 45.2838 26.3938C45.1647 26.2852 45.0125 26.2201 44.8518 26.2089C44.6911 26.1977 44.5313 26.241 44.3984 26.332C42.479 27.3577 40.5396 27.351 38.6235 26.3186C38.3245 26.1516 38.1123 26.1516 37.8367 26.342C36.5434 27.2091 35.622 28.5292 35.2541 30.0422C34.9885 31.1096 35.1038 32.1988 35.087 33.2796C34.1131 32.7417 33.1927 32.1436 32.5696 31.1848ZM41.5302 24.5629C41.9883 24.5632 42.4419 24.4727 42.8649 24.2968C43.2879 24.1209 43.6719 23.863 43.9947 23.5379C44.3176 23.2129 44.5729 22.8272 44.7459 22.4031C44.919 21.9789 45.0064 21.5247 45.0031 21.0666C45.0009 20.1412 44.6321 19.2543 43.9774 18.6003C43.3227 17.9462 42.4355 17.5782 41.5101 17.5769C40.5849 17.5878 39.7011 17.9616 39.0488 18.6177C38.3964 19.2738 38.0277 20.1598 38.0221 21.085C38.0274 22.011 38.3997 22.8971 39.0573 23.549C39.7149 24.201 40.6042 24.5656 41.5302 24.5629Z" fill="#0068E5"/>
</g>
<defs>
<clipPath id="clip0_996_5485">
<rect width="64" height="64.1219" fill="white"/>
</clipPath>
</defs>
</svg>
