<svg width="65" height="64" viewBox="0 0 65 64" fill="none" xmlns="http://www.w3.org/2000/svg">
<g clip-path="url(#clip0_996_28174)">
<path d="M60.9916 0C61.1403 0.20546 61.3925 0.167048 61.5929 0.247227C63.0629 0.826859 63.9883 2.19158 63.99 3.85865C63.99 9.50128 63.99 15.1434 63.99 20.7849C63.99 27.1157 63.9449 33.4449 64.015 39.7741C64.0401 42.0208 62.4248 43.9351 59.839 43.9284C41.2886 43.8816 22.7387 43.8732 4.18941 43.9033C2.01788 43.9033 0.908724 43.1483 0.11528 41.1204C0.0969055 41.072 0.0367553 41.0386 -0.00500488 40.9985V2.87477C0.207137 2.76286 0.183766 2.53067 0.260605 2.35194C0.653076 1.40776 1.40308 0.657154 2.34694 0.263927C2.52568 0.187088 2.75953 0.212142 2.86978 0H60.9916ZM31.9984 41.4077H59.6787C61.182 41.4077 61.4927 41.0837 61.4927 39.5703V4.32469C61.4927 2.85473 61.1587 2.50896 59.7037 2.50896H4.28127C2.85975 2.50896 2.50061 2.86308 2.50061 4.26789V39.6371C2.50061 41.0653 2.83469 41.4111 4.25621 41.4111L31.9984 41.4077Z" fill="#0068E5"/>
<path d="M51.4001 63.9967H45.4635C44.3928 63.9967 43.9601 63.549 43.9117 62.4933C43.8048 60.0312 44.4128 57.8363 46.2352 56.0756C46.6286 55.6736 47.0789 55.3314 47.5716 55.06C47.9441 54.8679 47.939 54.726 47.7386 54.3802C47.3819 53.8092 47.1619 53.1635 47.0958 52.4935C47.0297 51.8235 47.1193 51.1473 47.3577 50.5177C47.596 49.888 47.9766 49.322 48.4698 48.8637C48.963 48.4054 49.5554 48.0672 50.2008 47.8756C51.0447 47.6257 51.9442 47.6354 52.7825 47.9036C53.6208 48.1717 54.3591 48.6857 54.9013 49.379C55.4513 50.0666 55.7768 50.9065 55.8339 51.7851C55.891 52.6637 55.6768 53.5387 55.2204 54.2916C54.9681 54.7042 54.9898 54.8529 55.4041 55.1152C57.6775 56.5584 58.8485 58.6581 58.9788 61.3424C58.9972 61.7166 58.9788 62.0908 58.9788 62.4666C58.9788 63.534 58.5161 63.995 57.4604 63.9967C55.4408 64 53.4213 63.9967 51.4001 63.9967ZM51.4269 61.4911H55.6029C56.5316 61.4911 56.5316 61.4911 56.3696 60.5507C55.947 58.0901 53.7153 56.3746 51.0961 56.4849C48.7175 56.5901 46.6612 58.598 46.4457 60.995C46.4073 61.4226 46.5242 61.5128 46.9301 61.5078C48.4318 61.4827 49.9302 61.4961 51.4269 61.4961V61.4911ZM51.5321 50.2008C51.0398 50.1771 50.558 50.3488 50.1917 50.6785C49.8254 51.0083 49.6041 51.4694 49.576 51.9614C49.5616 52.2106 49.5964 52.4601 49.6786 52.6958C49.7607 52.9314 49.8885 53.1486 50.0547 53.3348C50.2209 53.521 50.4222 53.6726 50.647 53.7809C50.8719 53.8892 51.1159 53.9521 51.365 53.9659C52.3673 54.0227 53.3011 53.1574 53.3412 52.1285C53.3474 51.6361 53.1622 51.1605 52.8248 50.8019C52.4874 50.4433 52.0239 50.2296 51.5321 50.2058V50.2008Z" fill="#0068E5"/>
<path d="M16.0125 54.7995C18.1106 55.9905 19.4569 57.7193 19.9296 60.088C20.0871 60.9696 20.1309 61.8678 20.0599 62.7606C20.0115 63.5324 19.5287 63.9884 18.7604 63.99C14.62 64.0001 10.4785 64.0001 6.33586 63.99C5.55077 63.99 5.05967 63.4889 5.01456 62.7105C4.82581 59.4248 5.87316 56.7388 8.79971 54.9882C9.22567 54.7327 8.9133 54.5506 8.79971 54.3568C7.22786 51.7009 8.74292 48.2565 11.7396 47.7704C13.5771 47.4697 15.1356 48.0744 16.1796 49.6496C17.2019 51.1931 17.1818 52.8134 16.2481 54.417C16.1762 54.5439 16.0977 54.6642 16.0125 54.7995ZM12.4947 61.4961C13.998 61.4961 15.4914 61.4811 16.9881 61.5062C17.4341 61.5062 17.5911 61.4477 17.5376 60.9382C17.3995 59.6962 16.8023 58.5505 15.8632 57.726C14.9241 56.9015 13.7107 56.4577 12.4612 56.4816C9.8838 56.5133 7.69056 58.5746 7.52185 61.1019C7.49679 61.4661 7.64379 61.5028 7.93945 61.5012C9.45785 61.4911 10.9763 61.4961 12.4947 61.4961ZM14.4223 52.0483C14.4131 51.5563 14.2106 51.0878 13.8586 50.7439C13.5067 50.4001 13.0335 50.2086 12.5414 50.2109C12.0377 50.214 11.5557 50.4167 11.2013 50.7746C10.8468 51.1325 10.6487 51.6164 10.6505 52.1201C10.6707 52.6126 10.8776 53.079 11.229 53.4246C11.5805 53.7702 12.0503 53.9691 12.5431 53.981C13.0484 53.9735 13.5302 53.7658 13.8825 53.4034C14.2349 53.0411 14.429 52.5537 14.4223 52.0483Z" fill="#0068E5"/>
<path d="M31.9632 63.9967C29.9587 63.9967 27.9676 63.9967 25.9715 63.9967C24.9325 63.9967 24.5232 63.5507 24.4681 62.52C24.3629 60.3485 24.8022 58.344 26.2421 56.6469C26.7543 56.0151 27.3804 55.4847 28.0879 55.0834C28.4921 54.8662 28.4721 54.7176 28.2549 54.3551C27.3279 52.7799 27.3362 51.1813 28.3518 49.6512C29.3674 48.1211 30.8574 47.488 32.6665 47.7637C34.4204 48.0326 35.5964 49.0833 36.1576 50.7704C36.3661 51.3729 36.4318 52.0156 36.3495 52.6478C36.2672 53.2801 36.0391 53.8845 35.6832 54.4135C35.4711 54.7476 35.5162 54.8478 35.8352 55.0533C38.2339 56.5567 39.4717 58.7432 39.4984 61.5913C39.4984 61.9454 39.4984 62.2996 39.4984 62.652C39.4767 63.5206 38.9973 63.9883 38.1321 64C36.0825 64.0034 34.0228 63.9967 31.9632 63.9967ZM31.99 61.4911H35.9171C37.1565 61.4911 37.1565 61.4911 36.8692 60.2834C36.3046 57.9047 34.1214 56.3412 31.5673 56.4882C29.3123 56.6168 27.3145 58.5261 27.0055 60.8179C26.9353 61.3407 27.0372 61.5295 27.6252 61.5078C29.0784 61.4627 30.535 61.4961 31.99 61.4961V61.4911ZM31.99 50.1991C31.497 50.1991 31.0239 50.393 30.6729 50.7391C30.3218 51.0851 30.1211 51.5554 30.1141 52.0482C30.1136 52.5514 30.3108 53.0346 30.6633 53.3936C31.0158 53.7527 31.4953 53.9588 31.9983 53.9675C32.5019 53.9575 32.9813 53.7493 33.3324 53.3881C33.6836 53.0269 33.8782 52.5419 33.8742 52.0382C33.865 51.5463 33.6621 51.0778 33.3097 50.7344C32.9573 50.3911 32.4837 50.2005 31.9916 50.2041L31.99 50.1991Z" fill="#0068E5"/>
<path d="M53.6234 7.66548C53.3361 7.51848 53.1474 7.43997 52.977 7.3314C52.7144 7.17561 52.5193 6.92758 52.4298 6.63573C52.3402 6.34387 52.3626 6.0291 52.4926 5.75286C52.6106 5.47114 52.8329 5.24591 53.113 5.1242C53.3932 5.0025 53.7095 4.99373 53.9959 5.09973C55.2343 5.58081 56.4592 6.09307 57.6708 6.63651C57.8063 6.6947 57.929 6.77904 58.0318 6.88472C58.1346 6.99039 58.2156 7.11532 58.2701 7.25233C58.3245 7.38935 58.3514 7.53576 58.3492 7.68319C58.347 7.83061 58.3157 7.97615 58.2571 8.11147C57.7811 9.3292 57.2816 10.5402 56.7538 11.7329C56.6879 11.8814 56.5927 12.0151 56.474 12.126C56.3553 12.2369 56.2154 12.3227 56.0628 12.3784C55.9101 12.434 55.7479 12.4584 55.5856 12.4499C55.4234 12.4415 55.2645 12.4004 55.1184 12.3293C54.835 12.1926 54.6131 11.9547 54.4962 11.6626C54.3794 11.3705 54.3761 11.0452 54.487 10.7507C54.5672 10.5152 54.6674 10.288 54.7577 10.0558C54.5772 9.88879 54.4403 10.0475 54.3 10.0993L7.94281 27.1658C7.74737 27.2376 7.55527 27.3178 7.35649 27.378C6.62151 27.6018 5.98006 27.3045 5.73618 26.6346C5.4923 25.9648 5.80301 25.2983 6.52129 25.031C7.70561 24.58 8.89995 24.1608 10.0893 23.7214C24.4102 18.4429 38.7295 13.1628 53.0472 7.88096C53.1992 7.83251 53.3545 7.7657 53.6234 7.66548Z" fill="#0068E5"/>
<path d="M47.0069 28.8929C47.0069 32.0149 46.9969 35.1369 47.017 38.2572C47.017 38.7584 46.875 38.8937 46.3839 38.8887C44.3026 38.8636 42.2229 38.8669 40.1416 38.8887C39.6789 38.8887 39.4901 38.8035 39.4901 38.279C39.5102 32.0149 39.5102 25.7515 39.4901 19.4885C39.4901 18.9874 39.6288 18.8488 40.1232 18.8555C42.2029 18.8805 44.2842 18.8838 46.3638 18.8555C46.9034 18.8555 47.0186 19.0325 47.0153 19.5336C46.9969 22.6506 47.0069 25.7726 47.0069 28.8929Z" fill="#E2ECF8"/>
<path d="M58.354 26.9404V37.2485C58.354 38.4862 57.9464 38.8871 56.6986 38.8888C55.2203 38.8888 53.742 38.8888 52.2637 38.8888C51.2932 38.8888 50.8388 38.4445 50.8388 37.4806C50.8322 30.4828 50.8322 23.486 50.8388 16.4903C50.8388 15.5315 51.2865 15.0721 52.2554 15.0604C53.7955 15.0404 55.3361 15.0404 56.8774 15.0604C57.8963 15.0705 58.3507 15.5465 58.3524 16.5738C58.3557 20.0282 58.3562 23.4838 58.354 26.9404ZM53.3428 26.9404C53.3428 29.4594 53.3428 31.98 53.3428 34.5006C53.3428 35.117 53.0705 35.9372 53.4614 36.2896C53.7955 36.5937 54.6123 36.3347 55.2053 36.4049C55.7983 36.4751 55.8735 36.2228 55.8735 35.71C55.8484 33.2044 55.8618 30.7122 55.8618 28.2116C55.8618 24.9008 55.8501 21.5884 55.8735 18.2777C55.8735 17.7381 55.7866 17.4675 55.1752 17.5477C54.7612 17.5944 54.3432 17.5944 53.9291 17.5477C53.4664 17.5042 53.3278 17.6479 53.3328 18.129C53.3478 21.0622 53.3311 23.9988 53.3311 26.9354L53.3428 26.9404Z" fill="#0068E5"/>
<path d="M24.4898 32.6131C24.4898 34.489 24.4782 36.3632 24.4982 38.2374C24.4982 38.6984 24.4163 38.9056 23.8868 38.8905C21.7838 38.8588 19.6807 38.8655 17.5777 38.8905C17.1116 38.8905 16.973 38.7602 16.9763 38.2925C16.9931 34.523 16.9931 30.7529 16.9763 26.9822C16.9763 26.5379 17.0649 26.3558 17.5576 26.3625C19.6824 26.3875 21.8072 26.3842 23.9303 26.3625C24.3662 26.3625 24.5032 26.4911 24.4982 26.9288C24.4782 28.823 24.4898 30.7172 24.4898 32.6131Z" fill="#E2ECF8"/>
<path d="M35.7517 30.7489C35.7517 32.955 35.7517 35.1621 35.7517 37.3704C35.7517 38.4512 35.3208 38.8838 34.2484 38.8871C32.7495 38.8871 31.2505 38.8871 29.7516 38.8871C28.7009 38.8871 28.2483 38.4478 28.2483 37.4222C28.2483 32.9678 28.2483 28.5133 28.2483 24.0589C28.2483 23.0567 28.6926 22.614 29.6965 22.609C31.2389 22.6023 32.7801 22.6023 34.3202 22.609C35.3224 22.609 35.7551 23.0617 35.7568 24.0706C35.7551 26.2923 35.7517 28.5206 35.7517 30.7489ZM30.7405 30.6854C30.7405 32.4343 30.7405 34.1933 30.7405 35.9338C30.7405 36.2679 30.8057 36.4183 31.1782 36.3966C31.7188 36.3606 32.2612 36.3606 32.8018 36.3966C33.2211 36.4283 33.2662 36.2512 33.2645 35.8954C33.2522 32.46 33.2522 29.0234 33.2645 25.5857C33.2645 25.2232 33.206 25.0595 32.7951 25.0846C32.2754 25.1263 31.7531 25.1263 31.2333 25.0846C30.7906 25.0478 30.7322 25.2416 30.7322 25.6174C30.7505 27.3112 30.7405 28.9983 30.7405 30.6854Z" fill="#0068E5"/>
<path d="M5.63931 34.499C5.63931 33.5402 5.63931 32.5831 5.63931 31.6259C5.63931 30.5886 6.10034 30.1226 7.11929 30.1226C8.63936 30.1226 10.1594 30.1226 11.6795 30.1226C12.6918 30.1226 13.1495 30.5569 13.1545 31.5474C13.1645 33.5252 13.1645 35.5029 13.1545 37.4807C13.1545 38.4445 12.6968 38.8805 11.7229 38.8855C10.1828 38.8944 8.6427 38.8944 7.10259 38.8855C6.11872 38.8855 5.64933 38.4128 5.64098 37.4323C5.63263 36.4517 5.63931 35.4779 5.63931 34.499ZM10.6505 34.5408C10.6505 34.023 10.6405 33.5035 10.6505 32.9856C10.6505 32.7334 10.6021 32.6098 10.3165 32.6181C9.69506 32.6365 9.07199 32.6315 8.4506 32.6181C8.21006 32.6181 8.12655 32.6983 8.12822 32.9405C8.13824 33.9779 8.14158 35.0152 8.12822 36.0525C8.12822 36.3432 8.25517 36.3866 8.50239 36.3866C9.10374 36.3766 9.70509 36.3716 10.3064 36.3866C10.5821 36.3866 10.6656 36.293 10.6555 36.0274C10.6455 35.538 10.6572 35.0386 10.6572 34.5408H10.6505Z" fill="#0068E5"/>
<path d="M16.2748 7.5102H7.78242C6.86203 7.5102 6.29242 7.04917 6.27906 6.29916C6.26569 5.54914 6.86705 5.01294 7.79413 5.01294C13.4735 5.01294 19.1568 5.01294 24.844 5.01294C25.6942 5.01294 26.192 5.37208 26.329 6.05527C26.376 6.3344 26.3272 6.62125 26.1904 6.86908C26.0536 7.1169 25.8369 7.31109 25.5756 7.42C25.3402 7.50359 25.0893 7.53438 24.8406 7.5102H16.2748Z" fill="#0068E5"/>
<path d="M13.1895 12.5247C11.2953 12.5247 9.40104 12.5381 7.51014 12.5247C7.19252 12.5293 6.8857 12.4096 6.65508 12.1912C6.42446 11.9727 6.28833 11.6728 6.27573 11.3554C6.26368 11.0399 6.37043 10.7314 6.57486 10.4907C6.7793 10.2501 7.06655 10.0949 7.37987 10.0559C7.58661 10.0316 7.7949 10.0232 8.00293 10.0308H17.87C18.1406 10.0308 18.4112 10.0308 18.6818 10.0308C19.5321 10.0609 20.085 10.5754 20.0699 11.3137C20.0549 12.052 19.5137 12.5197 18.6885 12.5247C16.8511 12.5347 15.0253 12.5247 13.1929 12.5247H13.1895Z" fill="#0068E5"/>
</g>
<defs>
<clipPath id="clip0_996_28174">
<rect width="64.0167" height="64" fill="white"/>
</clipPath>
</defs>
</svg>
