<svg width="70" height="64" viewBox="0 0 70 64" fill="none" xmlns="http://www.w3.org/2000/svg">
<g clip-path="url(#clip0_996_11298)">
<path d="M69.7369 63.0499C69.3037 63.7943 68.6448 64 67.8058 63.9981C45.8433 63.9836 23.8808 63.9799 1.91833 63.9872C1.73632 63.9872 1.55431 63.9872 1.3723 63.9872C0.55326 63.9181 -0.0146019 63.332 0.00359903 62.5821C0.0218 61.8322 0.596943 61.2789 1.44147 61.2734C3.26156 61.2625 5.07074 61.2734 6.8872 61.2734C7.13473 61.2734 7.38408 61.2589 7.63343 61.2498H17.7113C18.7324 61.2589 19.7534 61.2352 20.7709 61.288C21.3679 61.3208 21.5644 61.177 21.5626 60.529C21.5335 54.7466 21.5444 48.9641 21.5462 43.1799C21.5462 41.6292 21.9248 41.2506 23.4683 41.2506C26.5321 41.2506 29.5941 41.2506 32.6543 41.2506C33.8191 41.2506 34.3051 41.7365 34.3051 42.9032C34.3051 48.8003 34.316 54.6974 34.2942 60.5927C34.2942 61.1661 34.4453 61.3208 35.0058 61.2898C36.0469 61.2352 37.0899 61.2589 38.1328 61.2498H48.2106C49.3446 61.2498 50.4785 61.2498 51.6124 61.2807C51.94 61.2807 52.0692 61.1843 52.0328 60.8566C52.0246 60.6984 52.0246 60.5399 52.0328 60.3816V24.0871C52.0328 22.5382 52.3969 22.1705 53.964 22.1705H62.8133C64.4168 22.1705 64.7862 22.5345 64.7862 24.1198C64.7862 36.2138 64.7808 48.3077 64.7699 60.4016C64.7699 61.1206 64.9519 61.339 65.6581 61.2753C66.3643 61.2116 67.0686 61.308 67.7676 61.2498C68.5957 61.1824 69.2509 61.4136 69.7333 62.0961L69.7369 63.0499ZM54.7612 43.0288C54.7612 48.8531 54.7739 54.6774 54.7448 60.5163C54.7448 61.1624 54.9268 61.288 55.5329 61.2771C57.4822 61.2407 59.4352 61.248 61.3845 61.2771C61.8923 61.2771 62.0798 61.1861 62.0779 60.6219C62.0597 48.9174 62.0597 37.213 62.0779 25.5086C62.0779 24.9626 61.8959 24.8843 61.4154 24.8916C59.4424 24.9152 57.4695 24.9225 55.4965 24.8916C54.925 24.8806 54.7411 24.9899 54.7448 25.6196C54.7739 31.413 54.7612 37.2282 54.7612 43.027V43.0288ZM31.5877 52.699C31.5877 49.9998 31.5768 47.3006 31.5877 44.6032C31.5877 44.1282 31.5204 43.9352 30.9743 43.9443C28.934 43.9807 26.8937 43.9753 24.8515 43.9443C24.3656 43.9443 24.2564 44.0881 24.2582 44.5541C24.2727 49.9282 24.2727 55.3023 24.2582 60.6765C24.2582 61.1752 24.4202 61.2716 24.877 61.2662C26.9173 61.2425 28.9595 61.2389 30.9998 61.2662C31.4931 61.2662 31.5932 61.1133 31.5895 60.6528C31.5768 58.0064 31.5877 55.3527 31.5877 52.699Z" fill="#0068E5"/>
<path d="M34.4798 8.8002C34.514 9.37336 34.3278 9.93792 33.9592 10.3782C33.8445 10.4806 33.7723 10.6224 33.7572 10.7754C33.742 10.9285 33.7849 11.0816 33.8773 11.2045C34.3672 12.0741 34.7527 12.9984 35.0258 13.9583C35.0461 14.0982 35.1166 14.2259 35.2241 14.3177C35.3316 14.4094 35.4687 14.459 35.6101 14.4571C36.9678 14.6263 37.8779 15.6765 37.8979 17.0616C37.9173 18.3539 37.9173 19.6468 37.8979 20.9402C37.8743 22.3235 36.9733 23.3591 35.5973 23.5302C35.2169 23.5794 35.1113 23.7468 35.024 24.0453C34.7462 25.0022 34.3629 25.9252 33.881 26.7973C33.7976 26.9116 33.7576 27.0519 33.7683 27.193C33.779 27.3341 33.8396 27.4667 33.9392 27.5672C34.791 28.712 34.6891 30.0462 33.6826 31.0836C32.8126 31.9791 31.9298 32.8613 31.0343 33.73C29.9951 34.7402 28.6846 34.8348 27.5216 33.9721C27.2631 33.781 27.0884 33.741 26.8044 33.8993C25.8928 34.4069 24.9261 34.8087 23.9232 35.0969C23.6193 35.1843 23.5592 35.3372 23.5028 35.6084C23.1952 37.1737 22.2415 37.9599 20.6616 37.9745C19.4822 37.9745 18.2955 37.9891 17.1233 37.9745C15.6527 37.9545 14.6426 37.0808 14.4332 35.6211C14.4276 35.4875 14.3757 35.3599 14.2864 35.2603C14.197 35.1607 14.0759 35.0952 13.9436 35.0751C12.9652 34.7896 12.021 34.3978 11.128 33.9066C10.8513 33.7519 10.6729 33.7755 10.4108 33.9685C9.21139 34.8476 7.92094 34.742 6.84527 33.6936C5.97041 32.8358 5.10525 31.9682 4.24981 31.0909C3.21781 30.0334 3.125 28.7139 4.01684 27.5253C4.19885 27.2851 4.22433 27.1267 4.08236 26.8737C3.57542 25.9634 3.17306 24.9987 2.88293 23.998C2.79374 23.6922 2.66452 23.5848 2.3369 23.5375C0.900843 23.3355 0.0199099 22.2889 0.00898936 20.8201C-0.000717809 19.5946 -0.000717809 18.3697 0.00898936 17.1453C0.02173 15.6893 0.919036 14.6518 2.36237 14.4498C2.66269 14.4079 2.7901 14.3151 2.87018 14.0348C3.15732 13.0336 3.55727 12.0682 4.06234 11.1572C4.13969 11.0514 4.17636 10.9212 4.16567 10.7906C4.15498 10.6599 4.09763 10.5374 4.0041 10.4456C3.13227 9.30073 3.21782 7.96478 4.21705 6.93096C5.1004 6.01728 5.99892 5.11876 6.91261 4.2354C7.93004 3.25437 9.24961 3.15973 10.3708 3.99151C10.6456 4.19536 10.8367 4.25178 11.1443 4.07705C12.0342 3.58068 12.9784 3.18859 13.9582 2.90855C14.0877 2.88592 14.2054 2.81918 14.2913 2.71966C14.3773 2.62013 14.4261 2.49396 14.4296 2.36252C14.6225 0.977432 15.609 0.0746634 17.0032 0.0346213C18.2955 -0.00178062 19.5896 0.00185957 20.8818 0.0346213C22.2578 0.0692031 23.2352 0.917371 23.47 2.27334C23.5374 2.66284 23.6757 2.85031 24.0615 2.95406C24.9993 3.21866 25.9019 3.59509 26.7498 4.07523C26.8653 4.15844 27.0066 4.19806 27.1485 4.18706C27.2904 4.17607 27.4239 4.11517 27.5252 4.01517C28.6464 3.167 29.9769 3.25619 30.9834 4.22994C31.9134 5.12907 32.8198 6.05003 33.7281 6.97282C33.9716 7.20987 34.164 7.49433 34.2933 7.80863C34.4225 8.12293 34.486 8.4604 34.4798 8.8002ZM8.78732 6.23569C8.67447 6.33761 8.57072 6.41769 8.47608 6.51962C7.86452 7.12753 7.27663 7.76092 6.63959 8.33971C6.25919 8.68553 6.2137 8.89849 6.62322 9.28071C7.53327 10.138 7.55693 10.5548 6.89441 11.6468C6.17229 12.8258 5.63231 14.107 5.29273 15.4472C4.90869 16.9633 4.7467 17.0962 3.15957 17.1344C2.78099 17.1435 2.71548 17.2727 2.72276 17.6058C2.76554 18.4443 2.76554 19.2845 2.72276 20.123C2.67179 20.7509 2.89384 20.8711 3.46899 20.8511C4.4573 20.8055 4.97604 21.1514 5.15805 21.9631C5.53196 23.6222 6.18495 25.2058 7.08916 26.6462C7.52417 27.347 7.43499 27.8821 6.8653 28.4918C6.74574 28.6287 6.61615 28.7564 6.47761 28.874C6.22462 29.0797 6.23372 29.238 6.47761 29.4692C7.10373 30.0607 7.73166 30.6559 8.29771 31.302C8.66173 31.7207 8.88378 31.7407 9.27692 31.313C10.0887 30.4338 10.551 30.4029 11.5975 31.0472C12.7749 31.7729 14.054 32.3188 15.3924 32.6671C16.9231 33.0602 17.076 33.2131 17.1161 34.7693C17.127 35.177 17.2744 35.2607 17.6384 35.2498C18.4314 35.2061 19.2262 35.2061 20.0191 35.2498C20.6944 35.3062 20.8618 35.0769 20.8309 34.4271C20.7799 33.386 21.1057 33.0184 22.1268 32.7654C23.6711 32.3969 25.146 31.7823 26.495 30.9453C27.3195 30.4266 27.8455 30.5067 28.5554 31.2001C28.6588 31.2887 28.755 31.3855 28.8429 31.4895C29.0413 31.757 29.207 31.7443 29.4308 31.5004C30.0078 30.8907 30.5829 30.2755 31.2127 29.7222C31.6659 29.3254 31.7059 29.0742 31.2327 28.6429C30.41 27.8948 30.3791 27.3688 30.9652 26.4296C31.715 25.2141 32.2788 23.8933 32.6378 22.511C33.0364 21.0003 33.1729 20.8729 34.7127 20.8492C35.1223 20.8492 35.1951 20.7018 35.1841 20.3378C35.1605 19.5224 35.1423 18.6997 35.1841 17.8898C35.2169 17.3237 35.1022 17.0998 34.4561 17.1344C33.3477 17.1945 32.9345 16.8341 32.6906 15.7712C32.3743 14.4019 31.8534 13.0882 31.1454 11.8743C30.3136 10.4328 30.3118 10.3163 31.4329 9.12235C31.6805 8.85844 31.655 8.71466 31.4111 8.4835C30.7886 7.88833 30.1589 7.29498 29.591 6.65067C29.227 6.23751 29.0104 6.28665 28.6555 6.66159C27.8219 7.54069 27.3577 7.57164 26.3348 6.94917C25.1381 6.21258 23.8374 5.66037 22.4762 5.31108C20.971 4.91976 20.8491 4.78507 20.8163 3.24163C20.8072 2.86669 20.7199 2.72108 20.3213 2.73383C19.4604 2.76113 18.594 2.77751 17.7349 2.73383C17.198 2.70288 17.0997 2.89763 17.1088 3.38542C17.1306 4.62308 16.8212 5.00166 15.6272 5.27831C14.2129 5.61112 12.861 6.16847 11.623 6.92914C10.5146 7.60076 10.1287 7.55161 9.18592 6.62518C9.06761 6.49232 8.93473 6.37219 8.78913 6.23569H8.78732Z" fill="#0068E5"/>
<path d="M48.216 61.2371H38.1382C38.1382 52.1439 38.1382 43.0513 38.1382 33.9593C38.1382 33.0821 38.1382 33.0821 39.0191 33.0821C41.8312 33.0821 44.6432 33.0984 47.4553 33.0675C48.0541 33.0675 48.2161 33.2204 48.2142 33.8247C48.2033 42.9603 48.2039 52.0978 48.216 61.2371Z" fill="#E2ECF8"/>
<path d="M17.7168 61.2352H7.63892C7.63892 58.4505 7.66258 55.6639 7.63892 52.8792C7.63892 52.2658 7.82092 52.1238 8.40699 52.1311C11.2585 52.1602 14.11 52.1602 16.9614 52.1311C17.5457 52.1311 17.735 52.2603 17.7277 52.8774C17.6931 55.6639 17.715 58.4487 17.7168 61.2352Z" fill="#E2ECF8"/>
<path d="M18.9763 9.52814C20.2212 9.52451 21.4545 9.76746 22.6049 10.2429C23.7554 10.7184 24.8003 11.4171 25.6794 12.2985C26.5585 13.1799 27.2543 14.2267 27.7267 15.3785C28.1991 16.5303 28.4387 17.7642 28.4317 19.009C28.4318 20.2598 28.1839 21.4981 27.7025 22.6525C27.2211 23.8069 26.5156 24.8544 25.6269 25.7345C24.7382 26.6145 23.6838 27.3097 22.5248 27.7799C21.3658 28.25 20.1251 28.4858 18.8744 28.4735C13.6726 28.4335 9.47907 24.0743 9.49909 18.9125C9.51912 13.7508 13.9128 9.43349 18.9763 9.52814ZM17.5858 16.9487C17.5858 17.6075 17.5694 18.2646 17.5858 18.9216C17.6131 19.7698 18.0936 20.2922 18.9254 20.3395C19.6043 20.3777 20.2868 20.3613 20.9657 20.3395C21.2299 20.3421 21.4884 20.2633 21.7063 20.1138C21.9241 19.9644 22.0907 19.7515 22.1833 19.5041C22.5583 18.6232 21.974 17.6931 20.9384 17.6476C20.3705 17.6221 20.2686 17.4164 20.2977 16.9195C20.3323 16.3098 20.3159 15.6946 20.2977 15.0831C20.2813 14.2058 19.7226 13.6143 18.9363 13.6179C18.15 13.6215 17.5985 14.2367 17.5785 15.1031C17.5749 15.7237 17.5858 16.3371 17.5858 16.9487Z" fill="#E2ECF8"/>
<path d="M17.5858 16.9487C17.5858 16.3371 17.5749 15.7237 17.5858 15.1122C17.6059 14.2458 18.1774 13.6325 18.9436 13.627C19.7099 13.6215 20.2887 14.2149 20.3051 15.0922C20.3178 15.7037 20.3342 16.3189 20.3051 16.9286C20.2759 17.4201 20.3779 17.6257 20.9457 17.6567C21.9814 17.7022 22.5656 18.6323 22.1907 19.5132C22.098 19.7606 21.9315 19.9735 21.7136 20.1229C21.4958 20.2724 21.2372 20.3512 20.973 20.3486C20.2941 20.3668 19.6116 20.3832 18.9327 20.3486C18.1009 20.3013 17.6204 19.7789 17.5931 18.9307C17.5695 18.2646 17.5858 17.6075 17.5858 16.9487Z" fill="#0068E5"/>
</g>
<defs>
<clipPath id="clip0_996_11298">
<rect width="69.7351" height="64" fill="white"/>
</clipPath>
</defs>
</svg>
