<svg width="64" height="59" viewBox="0 0 64 59" fill="none" xmlns="http://www.w3.org/2000/svg">
<g clip-path="url(#clip0_996_5473)">
<path d="M63.9983 58.1082C63.6241 58.7764 63.0645 59.0036 62.3011 58.9919C59.8872 58.9568 57.4717 58.9819 55.0562 58.9785C53.9069 58.9785 53.4859 58.5509 53.4859 57.3865C53.4859 46.7288 53.4859 36.0705 53.4859 25.4116C53.4859 24.2422 53.8918 23.853 55.0745 23.853C57.5101 23.853 59.9457 23.8731 62.3813 23.8397C63.133 23.8296 63.6659 24.0668 63.9983 24.7367V58.1082ZM55.98 41.4233C55.98 46.2343 55.99 51.047 55.9666 55.858C55.9666 56.3959 56.1169 56.5045 56.6214 56.4912C58.058 56.4566 59.4952 56.4566 60.933 56.4912C61.4174 56.5028 61.5076 56.3558 61.5043 55.9031C61.4826 52.9664 61.4926 50.028 61.4926 47.0913C61.4926 40.3842 61.4926 33.6772 61.5076 26.9702C61.5076 26.4323 61.3589 26.3254 60.8545 26.3387C59.4178 26.3732 57.9807 26.3732 56.5429 26.3387C56.0635 26.3254 55.9683 26.4673 55.9699 26.9234C55.9983 31.7578 55.985 36.5905 55.985 41.4233H55.98Z" fill="#E2ECF8"/>
<path d="M50.6243 43.3059C50.6243 48.3057 50.6143 53.3055 50.6377 58.3036C50.6377 58.8599 50.489 59.0002 49.9411 58.9952C46.8986 58.9684 43.8572 58.9684 40.8169 58.9952C40.289 58.9952 40.1052 58.8933 40.1069 58.3169C40.1258 48.294 40.1258 38.2749 40.1069 28.2597C40.1069 27.7352 40.2573 27.5915 40.7751 27.6016C43.8371 27.6249 46.9008 27.63 49.9628 27.6016C50.5425 27.6016 50.6394 27.792 50.631 28.3149C50.616 33.308 50.6243 38.3078 50.6243 43.3059Z" fill="#0068E5"/>
<path d="M26.317 26.4189C18.6327 22.7438 16.3992 14.0389 19.6617 7.61247C21.2067 4.55252 23.8317 2.17437 27.0289 0.938203C30.2261 -0.297967 33.7681 -0.30428 36.9697 0.920472C43.2942 3.35438 47.7996 10.7446 44.8578 18.9117L54.3629 15.0696C54.1825 14.814 53.8885 14.7939 53.6613 14.6569C53.0549 14.2944 52.8261 13.668 53.0883 13.06C53.1454 12.9135 53.231 12.7798 53.3402 12.6667C53.4494 12.5535 53.58 12.4633 53.7244 12.4011C53.8689 12.3389 54.0242 12.3061 54.1814 12.3045C54.3386 12.3029 54.4946 12.3325 54.6402 12.3918C55.8652 12.8951 57.0791 13.4369 58.2819 14.0171C58.8816 14.3078 59.0604 14.9677 58.7831 15.6359C58.312 16.7495 57.8236 17.8509 57.318 18.9401C56.9839 19.6835 56.2923 19.9558 55.6292 19.6551C54.9927 19.3661 54.7538 18.7112 55.0144 17.9746C55.0612 17.8426 55.1815 17.7273 55.0896 17.5102C54.9225 17.572 54.7338 17.6288 54.555 17.7006C50.7686 19.2352 46.976 20.7687 43.1773 22.3011C42.8718 22.427 42.6001 22.6227 42.3838 22.8724C39.2583 26.3153 35.3811 27.899 30.7304 27.5248C30.4437 27.508 30.1572 27.5607 29.8952 27.6785C21.8701 30.9292 13.8439 34.1783 5.81666 37.4258C5.51808 37.5762 5.18476 37.6443 4.85111 37.6229C4.58169 37.583 4.33232 37.4572 4.14003 37.2643C3.94774 37.0714 3.82278 36.8217 3.78368 36.5521C3.70517 36.0009 4.00752 35.4747 4.6089 35.2258C6.24097 34.5576 7.87973 33.8977 9.51681 33.2345L26.317 26.4189ZM43.2875 13.7966C43.2871 10.8065 42.1018 7.93842 39.9913 5.82033C37.8807 3.70225 35.0168 2.5068 32.0267 2.49575C30.541 2.49377 29.0694 2.78478 27.6963 3.35213C26.3231 3.91948 25.0753 4.75204 24.0243 5.80215C22.9733 6.85227 22.1396 8.09932 21.571 9.47197C21.0025 10.8446 20.7101 12.3159 20.7108 13.8017C20.7112 15.2873 21.0045 16.7582 21.5738 18.1304C22.1432 19.5026 22.9774 20.7492 24.0288 21.7987C25.0803 22.8483 26.3282 23.6803 27.7014 24.2472C29.0746 24.8141 30.5461 25.1047 32.0317 25.1026C35.0217 25.0897 37.8848 23.8929 39.9943 21.7739C42.1039 19.655 43.288 16.7866 43.2875 13.7966Z" fill="#E2ECF8"/>
<path d="M13.374 48.3173C13.374 44.9864 13.3907 41.6537 13.3606 38.3228C13.3606 37.7298 13.541 37.6028 14.0973 37.6078C17.1376 37.6334 20.1779 37.6334 23.2182 37.6078C23.7194 37.6078 23.8864 37.7281 23.8864 38.261C23.8686 44.9641 23.8686 51.6684 23.8864 58.3737C23.8864 58.8882 23.7194 58.9918 23.2449 58.9901C20.1629 58.9718 17.0808 58.9668 13.9987 58.9901C13.4475 58.9901 13.3589 58.7964 13.3606 58.3069C13.384 54.9793 13.374 51.6483 13.374 48.3173Z" fill="#0068E5"/>
<path d="M26.7429 45.8033C26.7429 41.9311 26.7429 38.0595 26.7429 34.1884C26.7429 33.0725 27.1806 32.6231 28.2798 32.6215C30.7577 32.6215 33.2351 32.6215 35.7118 32.6215C36.811 32.6215 37.2537 33.0725 37.2537 34.185C37.2537 41.9283 37.2537 49.6716 37.2537 57.4149C37.2537 58.5292 36.8143 58.9769 35.7152 58.9785C33.2384 58.9785 30.7616 58.9785 28.2848 58.9785C27.1823 58.9785 26.7429 58.5308 26.7429 57.4183C26.7407 53.5461 26.7407 49.6744 26.7429 45.8033ZM29.2487 45.7315C29.2487 49.1443 29.2487 52.5571 29.2487 55.97C29.2487 56.3692 29.3389 56.4978 29.7498 56.4895C31.2533 56.4628 32.7467 56.4661 34.2435 56.4895C34.6327 56.4895 34.7713 56.4143 34.7697 55.9883C34.7563 49.205 34.7563 42.4211 34.7697 35.6367C34.7697 35.2408 34.6828 35.1055 34.2685 35.1138C32.8119 35.1406 31.3535 35.1489 29.8985 35.1138C29.3974 35.1005 29.2303 35.2141 29.2437 35.7486C29.257 39.0729 29.2437 42.4022 29.2437 45.7315H29.2487Z" fill="#E2ECF8"/>
<path d="M10.5141 50.8515C10.5141 53.0377 10.5141 55.2243 10.5141 57.4116C10.5141 58.5341 10.0814 58.9768 8.98226 58.9785C6.50325 58.9785 4.02479 58.9785 1.54689 58.9785C0.44436 58.9785 0.00334896 58.5275 0.00167847 57.4149C0.00167847 53.0215 0.00167847 48.6275 0.00167847 44.233C0.00167847 43.1171 0.434332 42.6694 1.54187 42.6661C4.02088 42.6572 6.49934 42.6572 8.97724 42.6661C10.0948 42.6661 10.5141 43.1038 10.5141 44.228C10.5163 46.4364 10.5163 48.6443 10.5141 50.8515ZM2.49572 50.7964C2.49572 52.5237 2.50909 54.251 2.4857 55.9749C2.4857 56.3875 2.59929 56.4911 3.00355 56.4861C4.50032 56.4616 5.9982 56.4616 7.49719 56.4861C7.89978 56.4861 8.02005 56.3926 8.01838 55.9766C8.00056 52.5421 8.00056 49.1081 8.01838 45.6747C8.01838 45.2621 7.90646 45.1468 7.49719 45.1535C5.99931 45.1769 4.50087 45.1769 3.00188 45.1535C2.59094 45.1535 2.48069 45.2654 2.4857 45.6747C2.5141 47.3886 2.50073 49.0892 2.50073 50.7964H2.49572Z" fill="#E2ECF8"/>
<path d="M30.692 17.5736C31.128 17.5736 31.5673 17.6003 32.0017 17.5736C32.74 17.5168 33.2362 17.0106 33.2512 16.3441C33.2662 15.6776 32.8185 15.1347 32.0618 15.0762C30.9827 14.9943 30.0305 14.6736 29.2721 13.8718C28.8716 13.4537 28.5742 12.948 28.4035 12.3948C28.2327 11.8416 28.1934 11.2562 28.2886 10.6852C28.3838 10.1141 28.6109 9.57315 28.9519 9.10527C29.2928 8.63739 29.7382 8.2555 30.2527 7.98996C30.6603 7.78115 30.7922 7.55729 30.7538 7.13967C30.7279 6.82838 30.7279 6.51549 30.7538 6.2042C30.7752 5.88985 30.9128 5.59469 31.1397 5.37611C31.3666 5.15752 31.6667 5.03112 31.9816 5.02148C32.2969 5.02421 32.6001 5.14372 32.8324 5.35692C33.0647 5.57012 33.2098 5.86187 33.2395 6.17579C33.288 6.60678 33.0574 7.16305 33.333 7.43869C33.6087 7.71432 34.1683 7.47878 34.5926 7.53725C35.3076 7.63414 35.782 8.17538 35.7469 8.85026C35.7118 9.52514 35.214 9.99956 34.459 10.0196C33.7323 10.0396 33.0023 10.0196 32.274 10.0196C31.3485 10.028 30.7805 10.479 30.7455 11.224C30.7104 11.9691 31.1982 12.5153 32.147 12.5471C34.8348 12.6389 36.7175 15.6308 35.2391 18.1967C34.8881 18.8434 34.3339 19.3564 33.6621 19.6567C33.308 19.8087 33.2128 20.0158 33.2412 20.3666C33.2604 20.6782 33.2604 20.9906 33.2412 21.3021C33.2061 22.0455 32.6615 22.5917 31.9783 22.5817C31.295 22.5717 30.7989 22.0371 30.7438 21.3322C30.712 20.9246 30.9342 20.3834 30.6402 20.1428C30.398 19.9457 29.8818 20.1027 29.4893 20.071C28.7242 20.0075 28.223 19.4779 28.2414 18.7797C28.2598 18.0814 28.7743 17.6103 29.5627 17.5819C29.9369 17.5719 30.3111 17.5819 30.687 17.5819L30.692 17.5736Z" fill="#0068E5"/>
</g>
<defs>
<clipPath id="clip0_996_5473">
<rect width="64" height="58.9952" fill="white"/>
</clipPath>
</defs>
</svg>
