<svg width="64" height="56" viewBox="0 0 64 56" fill="none" xmlns="http://www.w3.org/2000/svg">
<g clip-path="url(#clip0_996_5459)">
<path d="M0 43.4312C0.17566 43.1261 0.443248 42.8842 0.764549 42.7402C1.08585 42.5962 1.44443 42.5574 1.78909 42.6294C2.42388 42.7313 2.51241 42.4623 2.51241 41.8843C2.49459 29.6585 2.4907 17.4327 2.50073 5.20694C2.50073 2.63772 4.02088 0.674889 6.42806 0.116944C6.89806 0.023062 7.37732 -0.0161786 7.85632 7.50132e-06C23.9566 7.50132e-06 40.0557 7.50132e-06 56.1537 7.50132e-06C59.4195 7.50132e-06 61.4993 2.08311 61.4993 5.34559C61.4993 17.5302 61.4943 29.7142 61.4842 41.8977C61.4842 42.4974 61.6179 42.6594 62.2243 42.6394C63.6425 42.5909 64 42.9735 64 44.3851C64 46.2594 64 48.1336 64 50.0079C63.9866 52.8478 62.0689 54.8858 59.2341 55.0979C58.9852 55.1163 58.7329 55.1263 58.4857 55.1263C40.8252 55.1263 23.1642 55.1263 5.5026 55.1263C3.35434 55.1263 1.66046 54.3729 0.567952 52.4535C0.332412 52.0443 0.305683 51.5481 0.00332386 51.1706L0 43.4312ZM55.2332 42.5843C56.2355 42.5976 57.2378 42.5843 58.2251 42.6361C58.8215 42.6711 59.0169 42.5442 59.0152 41.8827C58.9907 29.7215 58.9846 17.5597 58.9969 5.39738C58.9969 3.43454 58.0614 2.50575 56.0819 2.50575H7.91646C5.93358 2.50575 4.99978 3.4312 4.99978 5.3957V41.8793C4.99978 42.0046 5.0098 42.1299 4.99978 42.2535C4.97639 42.5057 5.04488 42.6377 5.33388 42.631C6.47817 42.606 7.62079 42.5976 8.76508 42.5843C8.95051 42.596 9.13593 42.6177 9.32302 42.6177H54.6753C54.8607 42.6177 55.0461 42.596 55.2332 42.5843ZM31.985 52.6273H58.3537C58.6043 52.6273 58.8549 52.6273 59.1021 52.6056C60.5838 52.4803 61.4876 51.5047 61.4959 50.0163C61.4959 48.6014 61.4725 47.1765 61.5093 45.7682C61.5227 45.2571 61.4024 45.1134 60.8711 45.1167C56.3608 45.1401 51.8321 45.1268 47.3134 45.1351C46.6452 45.1351 45.8601 44.8879 45.3589 45.2387C44.8929 45.5728 44.7008 46.3128 44.4352 46.8958C43.4011 49.161 41.6304 50.1616 39.1647 50.1399C34.895 50.1048 30.6252 50.1399 26.3554 50.1282C25.5201 50.1282 24.6849 50.1449 23.8496 50.0814C22.0772 49.9478 20.7609 49.0558 19.8856 47.5239C19.5247 46.8925 19.2057 46.2376 18.9016 45.5778C18.8541 45.4333 18.7586 45.3093 18.6311 45.2263C18.5035 45.1434 18.3514 45.1065 18.2 45.1217C13.1184 45.1351 8.03618 45.1351 2.95342 45.1217C2.61932 45.1217 2.47734 45.1719 2.48235 45.5527C2.50574 47.1146 2.48235 48.6766 2.50073 50.2301C2.51009 50.8121 2.73115 51.3707 3.12255 51.8014C3.51395 52.2322 4.04888 52.5056 4.62726 52.5705C4.95997 52.6083 5.29474 52.625 5.62956 52.6206C14.4097 52.6262 23.1948 52.6284 31.985 52.6273ZM42.5091 45.1702H21.5794C22.0973 47.0194 23.3118 47.6759 25.1844 47.6525C29.8267 47.574 34.4723 47.6275 39.1163 47.6241C39.4086 47.6241 39.6993 47.6124 39.99 47.5857C40.3763 47.559 40.7499 47.4369 41.0773 47.2301C41.4048 47.0234 41.6757 46.7386 41.8659 46.4013C42.0831 46.0288 42.2652 45.6296 42.5024 45.1702H42.5091Z" fill="#0068E5"/>
<path d="M55.2333 42.5842C55.0462 42.5959 54.8607 42.6177 54.6753 42.6177H9.32305C9.13596 42.6177 8.95054 42.5959 8.76344 42.5842C8.76344 30.648 8.75844 18.7129 8.74841 6.77886C8.74841 6.30945 8.88205 6.1825 9.34812 6.1825C24.4483 6.19475 39.5484 6.19475 54.6486 6.1825C55.1147 6.1825 55.25 6.30945 55.25 6.77886C55.2355 18.7151 55.2299 30.6502 55.2333 42.5842ZM32.0034 27.6183C26.5464 27.6183 21.0895 27.6183 15.6325 27.6183C15.3413 27.6097 15.05 27.6282 14.7622 27.6734C14.4948 27.7295 14.2544 27.8747 14.0805 28.0854C13.9066 28.2961 13.8094 28.5596 13.805 28.8327C13.7939 29.1058 13.8756 29.3745 14.0366 29.5953C14.1977 29.8161 14.4287 29.976 14.692 30.0489C14.9556 30.108 15.2255 30.1338 15.4955 30.1257C26.4907 30.1257 37.4865 30.1257 48.4828 30.1257C48.732 30.1318 48.9812 30.1116 49.2262 30.0656C49.5034 30.0053 49.7509 29.8502 49.926 29.627C50.101 29.4037 50.1927 29.1264 50.185 28.8428C50.1826 28.5597 50.0809 28.2865 49.8978 28.0707C49.7146 27.8549 49.4616 27.7102 49.1827 27.6617C48.9149 27.6243 48.6445 27.6087 48.3742 27.6149L32.0034 27.6183ZM43.939 16.4995C43.772 16.2623 43.6484 16.0952 43.5348 15.9232C42.3788 14.1925 41.2278 12.4585 40.0668 10.7312C39.6308 10.0814 39.0913 9.86593 38.4765 10.0631C37.9269 10.2418 37.6246 10.7179 37.6246 11.4395C37.6246 14.6469 37.6246 17.8548 37.6246 21.0633C37.6246 21.947 38.1474 22.5433 38.8875 22.5333C39.6275 22.5233 40.1203 21.9336 40.122 21.0299C40.122 19.3427 40.122 17.6555 40.122 15.9683C40.122 15.8296 40.0201 15.6459 40.2255 15.5306L42.4907 18.9083C42.596 19.0637 42.6945 19.2241 42.8031 19.3744C43.4245 20.238 44.4218 20.2464 45.0299 19.3744C45.9119 18.1015 46.7705 16.8102 47.7394 15.3786V16.1537C47.7394 17.8409 47.7294 19.5281 47.7394 21.2153C47.7332 21.3823 47.76 21.5489 47.8183 21.7056C47.8765 21.8622 47.9652 22.0058 48.0791 22.1281C48.193 22.2504 48.33 22.349 48.4821 22.4182C48.6342 22.4875 48.7985 22.526 48.9656 22.5316C49.1331 22.5332 49.2992 22.5012 49.454 22.4373C49.6088 22.3734 49.7493 22.2791 49.8669 22.1599C49.9846 22.0407 50.0771 21.899 50.1389 21.7433C50.2007 21.5877 50.2306 21.4212 50.2268 21.2537C50.2402 17.9216 50.2402 14.589 50.2268 11.2558C50.2396 10.9911 50.1621 10.7299 50.007 10.515C49.8519 10.3001 49.6284 10.1443 49.3732 10.0731C49.1182 9.97148 48.8363 9.95964 48.5737 10.0395C48.3111 10.1193 48.0835 10.2861 47.9282 10.5124C47.8012 10.6795 47.691 10.8465 47.5757 11.0286C46.3897 12.8311 45.1886 14.6302 43.939 16.4995ZM31.9967 35.1656H15.5674C15.3586 35.1656 15.1497 35.1656 14.9426 35.1756C14.66 35.1947 14.3932 35.3132 14.1896 35.5101C13.986 35.707 13.8586 35.9696 13.83 36.2514C13.7899 36.5322 13.8496 36.8182 13.9985 37.0596C14.1474 37.301 14.3763 37.4826 14.6452 37.5728C14.9452 37.6612 15.2591 37.6929 15.5707 37.6663H48.4293C48.7411 37.6923 49.0549 37.66 49.3548 37.5711C49.6237 37.4808 49.8523 37.2988 50.0004 37.0569C50.1485 36.8149 50.2068 36.5286 50.165 36.2481C50.1363 35.9661 50.0087 35.7035 49.8047 35.5069C49.6007 35.3102 49.3335 35.1922 49.0508 35.1739C48.8436 35.1572 48.6348 35.1656 48.426 35.1656H31.9967ZM32.5095 17.3614C32.6766 17.2863 32.7885 17.2362 32.9004 17.1827C34.5074 16.4226 35.4062 14.7371 35.0721 13.09C34.9201 12.2311 34.4718 11.4527 33.8052 10.8902C33.1386 10.3277 32.2959 10.0167 31.4237 10.0113C30.5718 9.98788 29.7165 9.98955 28.8645 10.0113C28.1211 10.033 27.6333 10.4957 27.63 11.2274C27.615 14.5784 27.63 17.9311 27.63 21.2821C27.6238 21.5243 27.6917 21.7627 27.8245 21.9654C27.9573 22.168 28.1488 22.3254 28.3734 22.4164C29.1953 22.7956 30.0906 22.2092 30.119 21.257C30.1458 20.3399 30.119 19.4195 30.119 18.3387L30.7555 19.1856C31.4538 20.1178 32.147 21.0549 32.852 21.982C33.1644 22.3913 33.5786 22.6101 34.1032 22.5032C34.3312 22.4648 34.5436 22.3622 34.7155 22.2075C34.8873 22.0528 35.0116 21.8523 35.0737 21.6296C35.2241 21.1451 35.0403 20.7392 34.7496 20.355C34.013 19.3794 33.2813 18.3938 32.5095 17.3614ZM20.0794 9.99289C18.6948 9.99837 17.3506 10.4593 16.2541 11.3047C15.1576 12.15 14.3697 13.3327 14.0121 14.6703C13.6592 16.0315 13.7715 17.4716 14.3312 18.7617C14.8908 20.0518 15.8658 21.1177 17.1009 21.7899C19.3394 23.0027 22.2243 22.7037 24.1069 21.0649C24.6348 20.6056 24.7751 20.0626 24.5179 19.5097C24.4006 19.2511 24.1974 19.0411 23.9428 18.9154C23.6882 18.7896 23.398 18.7558 23.1213 18.8198C22.824 18.8816 22.6068 19.0787 22.3713 19.2508C21.3322 20.0125 20.1863 20.2648 18.9535 19.8522C17.45 19.351 16.5479 18.3086 16.3592 16.7333C16.1637 15.1063 16.7968 13.8133 18.2201 13.0115C19.6434 12.2096 21.0934 12.3433 22.4297 13.3289C23.1731 13.8785 23.8881 13.8651 24.3609 13.2821C24.8336 12.6991 24.6949 11.934 23.9532 11.3477C22.8524 10.4709 21.4867 9.99329 20.0794 9.99289Z" fill="#E2ECF8"/>
<path d="M32.0033 27.6183H48.3742C48.6445 27.612 48.9149 27.6277 49.1827 27.665C49.4616 27.7135 49.7146 27.8583 49.8977 28.0741C50.0809 28.2899 50.1825 28.5631 50.185 28.8461C50.1926 29.1297 50.101 29.4071 49.9259 29.6303C49.7509 29.8536 49.5034 30.0087 49.2261 30.0689C48.9811 30.1149 48.732 30.1351 48.4828 30.129C37.4876 30.129 26.4918 30.129 15.4955 30.129C15.2255 30.1372 14.9555 30.1114 14.692 30.0522C14.4286 29.9793 14.1976 29.8195 14.0366 29.5987C13.8756 29.3779 13.7939 29.1091 13.8049 28.8361C13.8094 28.5629 13.9065 28.2994 14.0805 28.0887C14.2544 27.8781 14.4948 27.7328 14.7622 27.6767C15.0499 27.6315 15.3413 27.6131 15.6325 27.6216C21.0905 27.6183 26.5475 27.6172 32.0033 27.6183Z" fill="#0068E5"/>
<path d="M43.939 16.4995C45.1885 14.6302 46.3896 12.8244 47.5924 11.0336C47.7076 10.8666 47.8179 10.6828 47.9449 10.5174C48.1001 10.2911 48.3277 10.1243 48.5903 10.0445C48.8529 9.96465 49.1349 9.9765 49.3898 10.0781C49.6451 10.1493 49.8685 10.3052 50.0236 10.52C50.1787 10.7349 50.2562 10.9961 50.2434 11.2608C50.2501 14.5929 50.2501 17.9255 50.2434 21.2587C50.2473 21.4262 50.2174 21.5927 50.1555 21.7484C50.0937 21.904 50.0012 22.0457 49.8836 22.1649C49.7659 22.2841 49.6255 22.3785 49.4707 22.4423C49.3158 22.5062 49.1497 22.5383 48.9822 22.5366C48.8152 22.531 48.6509 22.4925 48.4988 22.4233C48.3466 22.354 48.2097 22.2554 48.0958 22.1331C47.9819 22.0108 47.8932 21.8672 47.8349 21.7106C47.7766 21.5539 47.7498 21.3873 47.7561 21.2203C47.7411 19.5331 47.7561 17.8459 47.7561 16.1587V15.3802C46.7872 16.8119 45.9286 18.1031 45.0465 19.3761C44.4385 20.2531 43.4412 20.2447 42.8198 19.3761C42.7112 19.2257 42.6126 19.0654 42.5074 18.91L40.2422 15.5323C40.0367 15.6475 40.1386 15.8313 40.1386 15.9699C40.1286 17.6571 40.1386 19.3443 40.1386 21.0315C40.1386 21.9319 39.6475 22.5199 38.9041 22.535C38.1607 22.55 37.6412 21.9486 37.6412 21.0649C37.6412 17.8576 37.6412 14.6497 37.6412 11.4412C37.6412 10.7196 37.9436 10.2435 38.4932 10.0647C39.1079 9.86427 39.6475 10.0798 40.0835 10.7329C41.2445 12.4602 42.3955 14.1942 43.5514 15.9248C43.6483 16.0952 43.7719 16.2623 43.939 16.4995Z" fill="#0068E5"/>
<path d="M31.9967 35.1656H48.426C48.6348 35.1656 48.8436 35.1656 49.0508 35.1739C49.3336 35.1922 49.6007 35.3102 49.8047 35.5069C50.0087 35.7035 50.1363 35.9662 50.165 36.2481C50.2068 36.5286 50.1485 36.815 50.0004 37.0569C49.8523 37.2988 49.6237 37.4808 49.3548 37.5711C49.0549 37.66 48.7411 37.6923 48.4293 37.6663H15.5707C15.2591 37.6929 14.9452 37.6612 14.6453 37.5728C14.3763 37.4826 14.1474 37.3011 13.9985 37.0596C13.8496 36.8182 13.79 36.5322 13.8301 36.2514C13.8586 35.9696 13.986 35.707 14.1896 35.5101C14.3933 35.3132 14.66 35.1947 14.9426 35.1756C15.1497 35.1572 15.3586 35.1656 15.5674 35.1656H31.9967Z" fill="#0068E5"/>
<path d="M32.5096 17.3614C33.2813 18.3938 34.013 19.3794 34.753 20.3566C35.0437 20.7408 35.2275 21.1468 35.0771 21.6312C35.015 21.854 34.8907 22.0544 34.7188 22.2091C34.5469 22.3639 34.3346 22.4664 34.1065 22.5049C33.582 22.6118 33.1677 22.393 32.8553 21.9837C32.1504 21.0566 31.4571 20.1194 30.7589 19.1873L30.1224 18.3403C30.1224 19.4212 30.1441 20.3449 30.1224 21.2587C30.094 22.2109 29.1986 22.7972 28.3768 22.418C28.1522 22.327 27.9607 22.1697 27.8279 21.967C27.695 21.7643 27.6272 21.526 27.6334 21.2838C27.6334 17.9327 27.6217 14.5801 27.6334 11.229C27.6334 10.4974 28.1245 10.0346 28.8679 10.0129C29.7198 9.98954 30.5751 9.98787 31.4271 10.0129C32.2993 10.0183 33.142 10.3293 33.8086 10.8919C34.4751 11.4544 34.9234 12.2328 35.0754 13.0916C35.4095 14.7388 34.5091 16.4326 32.9038 17.1844C32.7885 17.2361 32.6749 17.2863 32.5096 17.3614ZM30.1241 13.8033C30.1909 14.1491 29.9136 14.7254 30.2377 14.9242C30.6319 15.1681 31.2049 15.0261 31.6994 14.9375C31.7404 14.9311 31.7807 14.9205 31.8196 14.9058C31.9808 14.8452 32.1275 14.7517 32.2505 14.6312C32.3734 14.5107 32.4699 14.3659 32.5337 14.2061C32.5975 14.0462 32.6273 13.8747 32.6212 13.7027C32.615 13.5307 32.573 13.3618 32.4979 13.2069C32.2005 12.5955 31.1731 12.218 30.3429 12.522C29.8651 12.6891 30.221 13.2119 30.1274 13.5594C30.1172 13.6403 30.1161 13.7221 30.1241 13.8033Z" fill="#0068E5"/>
<path d="M20.0793 9.99293C21.4857 9.99095 22.8512 10.4656 23.9532 11.3393C24.6982 11.9257 24.8503 12.6757 24.3608 13.2738C23.8713 13.8718 23.1731 13.8701 22.4297 13.3205C21.0933 12.3333 19.6584 12.1913 18.2201 13.0032C16.7818 13.815 16.1637 15.098 16.3591 16.725C16.5479 18.3003 17.4566 19.3444 18.9534 19.8438C20.1862 20.2565 21.3322 20.0109 22.3712 19.2425C22.6068 19.0754 22.8239 18.8733 23.1213 18.8115C23.3979 18.7475 23.6882 18.7813 23.9428 18.9071C24.1973 19.0328 24.4005 19.2428 24.5178 19.5014C24.7784 20.0543 24.6348 20.5972 24.1069 21.0566C22.2242 22.6954 19.3393 22.9944 17.1008 21.7816C15.8657 21.1093 14.8908 20.0434 14.3311 18.7534C13.7715 17.4633 13.6592 16.0232 14.0121 14.662C14.3712 13.3259 15.1597 12.1451 16.2561 11.3014C17.3525 10.4577 18.6959 9.9979 20.0793 9.99293Z" fill="#0068E5"/>
<path d="M30.124 13.8033C30.1149 13.7222 30.1149 13.6404 30.124 13.5594C30.2175 13.2119 29.8617 12.6957 30.3395 12.522C31.1747 12.218 32.1971 12.5955 32.4944 13.2069C32.5695 13.3618 32.6115 13.5307 32.6177 13.7027C32.6239 13.8747 32.5941 14.0462 32.5303 14.206C32.4665 14.3659 32.37 14.5107 32.247 14.6312C32.1241 14.7517 31.9773 14.8452 31.8162 14.9058C31.7773 14.9205 31.737 14.9311 31.6959 14.9375C31.1948 15.0261 30.6285 15.1681 30.2342 14.9242C29.9135 14.7254 30.1858 14.1491 30.124 13.8033Z" fill="#E2ECF8"/>
</g>
<defs>
<clipPath id="clip0_996_5459">
<rect width="64" height="55.1347" fill="white"/>
</clipPath>
</defs>
</svg>
