<svg width="64" height="83" viewBox="0 0 64 83" fill="none" xmlns="http://www.w3.org/2000/svg">
<g clip-path="url(#clip0_996_17115)">
<path d="M56.31 71.8278C56.2927 73.2722 56.2647 74.7166 56.2582 76.161C56.2388 79.5608 54.5788 81.68 51.2869 82.4906C51.2524 82.4906 51.2351 82.5725 51.2093 82.6156H4.74906C4.60677 82.3289 4.29851 82.3784 4.06352 82.2857C1.65546 81.3135 0.256344 79.5802 0.0321378 76.9587C0.00411211 76.6396 0.00195312 76.312 0.00195312 75.9929C0.00195312 55.376 0.00195312 34.7598 0.00195312 14.1444C0.00195312 10.9861 1.50025 8.72466 4.15408 7.83861C4.96035 7.56914 5.78818 7.55836 6.62249 7.54327C8.09707 7.5174 9.57382 7.62735 11.0462 7.48291C11.3653 7.50231 11.693 7.53895 12.0056 7.53895C21.1966 7.53895 30.3861 7.53895 39.5743 7.53895C39.9864 7.52233 40.3973 7.59503 40.7787 7.75206C41.1601 7.90909 41.503 8.14674 41.784 8.44872C46.2696 12.9673 50.7767 17.4665 55.3053 21.9463C55.6268 22.2424 55.8798 22.6052 56.0467 23.0092C56.2135 23.4132 56.2901 23.8487 56.2712 24.2854C56.2496 39.7901 56.2453 55.2941 56.2582 70.7974C56.2582 71.1337 56.2862 71.4807 56.31 71.8278ZM3.23353 45.0245C3.23353 55.3997 3.23353 65.7772 3.23353 76.1567C3.23353 78.235 4.31145 79.3905 6.28187 79.3905C20.8538 79.3905 35.4257 79.3905 49.9977 79.3905C51.8689 79.3905 53.0158 78.2587 53.0158 76.3853C53.0158 59.554 53.0216 42.7242 53.0331 25.8958C53.0331 25.3224 52.8714 25.1844 52.3152 25.1909C49.8683 25.221 47.4215 25.2059 44.9854 25.2038C41.1049 25.2038 38.5977 22.6858 38.5869 18.7967C38.5869 16.3498 38.5718 13.903 38.5869 11.4561C38.5869 10.943 38.4705 10.7684 37.9208 10.7684C27.327 10.7856 16.734 10.7856 6.14174 10.7684C5.49233 10.7469 4.85479 10.946 4.333 11.3332C3.43402 12.0231 3.21843 12.9673 3.22059 14.0474C3.24214 24.381 3.24647 34.7067 3.23353 45.0245ZM41.8228 13.2368C41.8228 15.3344 41.7905 17.3717 41.8357 19.4089C41.8659 20.6766 42.8921 21.8623 44.1403 21.9183C46.2681 22.0132 48.4045 21.9442 50.5108 21.9442L41.8228 13.2368Z" fill="#0068E5"/>
<path d="M56.3103 71.8278C56.2909 71.4807 56.2586 71.1336 56.2586 70.7865C56.2586 55.2818 56.2629 39.7778 56.2715 24.2746C56.2905 23.8379 56.2139 23.4023 56.047 22.9983C55.8802 22.5943 55.6272 22.2316 55.3057 21.9355C50.7742 17.46 46.2671 12.9608 41.7844 8.43787C41.5034 8.13589 41.1605 7.89824 40.7791 7.74121C40.3977 7.58418 39.9868 7.51148 39.5747 7.5281C30.3865 7.54966 21.197 7.54966 12.006 7.5281C11.6869 7.5281 11.3592 7.49145 11.0466 7.47205C11.1221 5.96297 10.7858 4.40648 11.2816 2.91464C11.5815 2.07853 12.1294 1.35381 12.8521 0.837247C13.5747 0.320686 14.4377 0.0368613 15.3259 0.0236741C17.9323 0.0107391 20.5387 0.0236741 23.1451 0.0236741C35.2177 0.0236741 47.2753 0.0452332 59.3414 0.00427246C61.5425 0.00427246 64.0023 1.66426 63.9937 4.65008C63.9376 25.5271 63.9376 46.4055 63.9937 67.2854C63.9937 69.7539 61.8551 72.052 59.4449 71.8364C58.4123 71.7394 57.3645 71.8235 56.3103 71.8278Z" fill="#E2ECF8"/>
<path d="M42.9051 39.6284C42.8971 43.5406 41.3397 47.2904 38.5738 50.0572C35.8078 52.8239 32.0585 54.3824 28.1463 54.3915C19.9822 54.3915 13.3163 47.7084 13.3551 39.5767C13.3774 35.665 14.9469 31.9211 17.7208 29.1629C20.4947 26.4048 24.2475 24.8566 28.1592 24.8567C32.0709 24.8687 35.8185 26.4296 38.582 29.198C41.3456 31.9664 42.9 35.7168 42.9051 39.6284ZM38.6624 44.2483C42.213 36.9703 36.2263 27.7929 28.1355 28.112C21.211 27.8404 15.4161 34.7261 16.7657 41.6182C18.0182 48.0081 23.6859 52.0503 30.1167 50.9659C34.1179 50.2911 36.9959 47.9909 38.6624 44.2483Z" fill="#0068E5"/>
<path d="M36.8325 64.304C36.8325 62.5039 36.8325 60.7038 36.8325 58.9037C36.8325 57.7805 37.4469 57.0647 38.3954 57.0432C39.344 57.0216 40.0511 57.7568 40.0554 58.908C40.064 62.4795 40.064 66.0524 40.0554 69.6267C40.0554 70.7693 39.3677 71.5088 38.389 71.4851C37.4102 71.4614 36.8368 70.765 36.8325 69.6224C36.826 67.8503 36.8325 66.0761 36.8325 64.304Z" fill="#0068E5"/>
<path d="M33.1672 65.9144C33.1672 67.1756 33.1672 68.4389 33.1672 69.7C33.1672 70.7779 32.5485 71.457 31.6129 71.4829C30.6773 71.5088 29.9551 70.7887 29.9486 69.7108C29.9299 67.1583 29.9299 64.6065 29.9486 62.0555C29.9486 60.9646 30.6492 60.2467 31.6043 60.2683C32.527 60.2899 33.1586 60.9905 33.1694 62.0447C33.178 63.3339 33.1672 64.6252 33.1672 65.9144Z" fill="#0068E5"/>
<path d="M23.1038 67.4515C23.1038 66.6711 23.0823 65.8928 23.1038 65.1146C23.1362 64.1682 23.7786 63.5171 24.6582 63.4956C24.8611 63.4834 25.0644 63.5116 25.2563 63.5788C25.4482 63.6459 25.6248 63.7505 25.7759 63.8865C25.927 64.0225 26.0495 64.1872 26.1363 64.3711C26.2231 64.5549 26.2724 64.7541 26.2815 64.9572C26.3462 66.6452 26.3505 68.3376 26.2815 70.0256C26.271 70.2354 26.2177 70.4409 26.1249 70.6294C26.0321 70.8178 25.9018 70.9854 25.7419 71.1217C25.582 71.2579 25.3959 71.3601 25.1951 71.4218C24.9943 71.4836 24.783 71.5036 24.5741 71.4808C23.7333 71.4182 23.1534 70.7844 23.0995 69.866C23.0995 69.8121 23.0995 69.7583 23.0995 69.7065V67.4515H23.1038Z" fill="#0068E5"/>
<path d="M19.4349 69.2021C19.4349 69.4435 19.4478 69.685 19.4349 69.9264C19.4258 70.333 19.2615 70.7208 18.9757 71.0102C18.6899 71.2996 18.3043 71.4687 17.8978 71.4829C17.4773 71.5006 17.0667 71.3523 16.7545 71.07C16.4424 70.7877 16.2537 70.394 16.2292 69.9738C16.1957 69.4376 16.1957 68.8997 16.2292 68.3634C16.2723 67.3912 16.96 66.7142 17.859 66.7229C18.758 66.7315 19.4133 67.417 19.4478 68.3958C19.4478 68.6631 19.4478 68.9326 19.4478 69.2021H19.4349Z" fill="#0068E5"/>
<path d="M38.6626 44.2483C37.6645 43.5003 36.4551 43.1877 35.3405 42.6875C33.12 41.6958 30.8693 40.771 28.6186 39.8504C28.1638 39.665 28.1357 39.3632 28.1357 38.9666C28.1357 35.3491 28.1357 31.7309 28.1357 28.112C36.2373 27.7929 42.2133 36.9703 38.6626 44.2483Z" fill="#E2ECF8"/>
</g>
<defs>
<clipPath id="clip0_996_17115">
<rect width="64" height="82.6156" fill="white"/>
</clipPath>
</defs>
</svg>
