<svg width="48" height="64" viewBox="0 0 48 64" fill="none" xmlns="http://www.w3.org/2000/svg">
<g clip-path="url(#clip0_96_16918)">
<path d="M46.6417 0C47.32 0.364206 47.5305 0.927219 47.5289 1.69406C47.5144 21.8991 47.5105 42.1048 47.5172 62.311C47.5172 63.6024 47.1245 64 45.8465 64H1.66062C0.419316 64 0.0100011 63.5924 0.0100011 62.3577C0.0100011 42.1304 0.0055533 21.9036 -0.00335693 1.67735C-0.00335693 0.913858 0.218833 0.364207 0.88543 0.00668411L46.6417 0ZM2.51433 32.0017C2.51433 41.6047 2.50933 51.2077 2.4993 60.8107C2.4993 61.3771 2.63963 61.5141 3.20432 61.5141C16.9116 61.4951 30.6194 61.4951 44.3279 61.5141C44.8975 61.5141 45.0312 61.372 45.0295 60.8074C45.015 41.6013 45.015 22.3959 45.0295 3.19098C45.0295 2.62295 44.8892 2.48595 44.3245 2.48762C30.6161 2.50433 16.9083 2.50433 3.20098 2.48762C2.63128 2.48762 2.49763 2.6313 2.4993 3.19432C2.52381 12.8007 2.52881 22.4031 2.51433 32.0017Z" fill="#0068E5"/>
<path d="M13.2684 34.3556C13.2684 30.8105 13.2684 27.2659 13.2684 23.7218C14.1439 23.787 14.7837 23.366 15.4253 22.8113C18.0499 20.5342 20.7146 18.3005 23.3492 16.0401C23.665 15.7678 23.8504 15.7644 24.1662 16.0401C26.8009 18.3055 29.4672 20.5342 32.0902 22.813C32.7317 23.3693 33.3699 23.7887 34.2454 23.7252C34.2454 27.2703 34.2481 30.8149 34.2537 34.359C32.3608 34.359 30.4663 34.359 28.5734 34.3907C28.1324 34.3907 28.1257 34.1986 28.1274 33.8711C28.1374 31.6642 28.1274 29.4572 28.1274 27.2519C28.1274 26.1159 27.6846 25.6748 26.5319 25.6698C24.6785 25.6698 22.8258 25.6698 20.9736 25.6698C19.8208 25.6698 19.3797 26.1159 19.3797 27.2519C19.3797 29.4572 19.3797 31.6636 19.3797 33.8711C19.3797 34.2053 19.3797 34.3974 18.9354 34.3907C17.0558 34.354 15.163 34.3623 13.2684 34.3556Z" fill="#E2ECF8"/>
<path d="M34.2538 23.7218C33.3783 23.7853 32.7401 23.366 32.0986 22.8097C29.4756 20.5309 26.8093 18.2989 24.1746 16.0368C23.8572 15.7644 23.6734 15.7678 23.3577 16.0368C20.723 18.3005 18.0583 20.5309 15.4337 22.808C14.7921 23.3627 14.1523 23.7837 13.2768 23.7185L10.283 23.6751C9.20207 23.6617 8.76937 23.2323 8.76436 22.1581C8.76436 21.3462 8.80278 20.5325 8.75266 19.7223C8.70421 18.9404 8.98154 18.3857 9.58799 17.8962C11.1217 16.6466 12.6052 15.3368 14.1239 14.0704C14.2641 13.9693 14.3765 13.8343 14.4504 13.678C14.5244 13.5217 14.5574 13.3492 14.5465 13.1766C14.5198 11.8233 14.5365 10.4684 14.5365 9.11518C14.5365 8.49537 14.7704 8.00753 15.3718 7.77865C16.1821 7.47459 16.9874 8.04094 17.0308 8.93475C17.0509 9.34908 17.0308 9.77008 17.0308 10.1827C17.0308 10.5954 17.0308 11.0064 17.0308 11.4307C17.3098 11.4491 17.4184 11.2419 17.5654 11.1183C19.2807 9.6704 20.9942 8.21414 22.7061 6.74952C23.513 6.06454 23.9992 6.05452 24.7944 6.73114C29.2217 10.4924 33.649 14.2536 38.0762 18.0148C38.3078 18.1906 38.4923 18.421 38.6133 18.6854C38.7343 18.9498 38.788 19.24 38.7696 19.5301C38.7362 20.4239 38.7696 21.3211 38.7595 22.2166C38.7595 23.219 38.3085 23.6533 37.3044 23.6717C36.3003 23.6901 35.2812 23.7068 34.2538 23.7218ZM34.9822 21.1774H35.9846C36.1099 21.1774 36.2669 21.1774 36.2485 21.0104C36.1901 20.4674 36.444 19.906 35.8643 19.4182C31.9432 16.127 28.0506 12.8007 24.1579 9.47605C23.8756 9.23547 23.7001 9.17867 23.3827 9.45099C19.4633 12.8068 15.535 16.1543 11.5978 19.4934C11.4759 19.5986 11.2904 19.7239 11.2804 19.8509C11.2436 20.2619 11.1718 20.7197 11.3171 21.0788C11.4257 21.3478 11.8835 21.1373 12.1809 21.1858C13.0931 21.3378 13.7764 20.9636 14.4597 20.3671C17.1327 18.0416 19.8359 15.7661 22.534 13.4773C23.5765 12.5902 23.9558 12.5969 25.0033 13.4873C27.7632 15.8263 30.5332 18.1652 33.2697 20.5375C33.8344 21.0137 34.3757 21.3244 34.9822 21.1774Z" fill="#0068E5"/>
<path d="M13.2685 34.3557C15.163 34.3557 17.0559 34.3557 18.9487 34.3874C19.3898 34.3874 19.3948 34.1953 19.3931 33.8678C19.3842 31.6603 19.3842 29.4539 19.3931 27.2486C19.3931 26.1126 19.8342 25.6715 20.987 25.6665C22.8392 25.6665 24.6919 25.6665 26.5453 25.6665C27.698 25.6665 28.1408 26.1126 28.1408 27.2486C28.1408 29.4539 28.1408 31.6609 28.1408 33.8678C28.1408 34.2019 28.1408 34.3941 28.5868 34.3874C30.4797 34.354 32.3743 34.3623 34.2671 34.3557C34.8485 34.3557 35.4366 34.3557 36.013 34.3774C36.8032 34.3958 37.3679 34.9254 37.3629 35.6304C37.3578 36.3354 36.7965 36.8717 36.0029 36.8717C27.8467 36.8717 19.6916 36.8717 11.5377 36.8717C10.7458 36.8717 10.1811 36.3337 10.1761 35.6287C10.171 34.9237 10.7407 34.3958 11.5276 34.3774C12.104 34.3623 12.6871 34.3623 13.2685 34.3557ZM21.8908 31.2499C21.8908 32.1671 21.9025 33.0876 21.8908 33.9981C21.8908 34.3005 21.9777 34.3874 22.2767 34.3807C23.2541 34.364 24.2347 34.359 25.2121 34.3807C25.5746 34.3807 25.6582 34.2705 25.6548 33.9263C25.6381 32.1554 25.6381 30.385 25.6548 28.6152C25.6548 28.2677 25.5679 28.1458 25.2054 28.1558C24.2475 28.1792 23.2897 28.1792 22.3319 28.1558C21.9576 28.1458 21.8824 28.2861 21.8891 28.6253C21.9042 29.5007 21.8908 30.3761 21.8908 31.2499Z" fill="#0068E5"/>
<path d="M22.5156 48.3542C22.5156 45.6911 22.5156 43.0281 22.5156 40.3634C22.5156 39.2824 23.5397 38.656 24.4018 39.1856C24.903 39.493 25.0183 39.9708 25.0166 40.5221C25.0088 44.5595 25.0088 48.597 25.0166 52.6344C25.0166 53.8407 25.0166 55.0486 25.0166 56.2548C25.0166 57.1653 24.5338 57.7333 23.7786 57.7417C23.0235 57.75 22.519 57.177 22.519 56.2782C22.5123 53.6385 22.5112 50.9972 22.5156 48.3542Z" fill="#0068E5"/>
<path d="M31.1797 39.6283C31.381 39.6241 31.581 39.6631 31.766 39.7426C31.951 39.8221 32.1168 39.9404 32.2523 40.0894C32.6365 40.4703 33.0342 40.8395 33.395 41.2421C33.6556 41.5328 33.8394 41.5947 34.1251 41.2588C34.5002 40.84 34.8967 40.4407 35.3129 40.0626C35.9127 39.4996 36.6311 39.4829 37.1507 40.0008C37.6703 40.5187 37.6435 41.2304 37.0772 41.8386C36.6929 42.2479 36.302 42.6539 35.8843 43.0298C35.6053 43.2787 35.5652 43.4457 35.8693 43.7147C36.3028 44.1048 36.7155 44.5175 37.1056 44.951C37.6419 45.5324 37.6552 46.2308 37.1641 46.7386C36.6729 47.2465 35.9294 47.2599 35.3263 46.7019C34.9003 46.3043 34.491 45.895 34.09 45.4656C33.8561 45.2083 33.6974 45.1816 33.4518 45.4556C33.0609 45.8883 32.6416 46.2909 32.2172 46.6935C31.6174 47.2565 30.8957 47.2682 30.3795 46.7487C29.8632 46.2291 29.8916 45.514 30.4597 44.9109C30.8456 44.5033 31.2365 44.0956 31.6542 43.7214C31.9349 43.4708 31.9683 43.3054 31.6676 43.0348C31.2051 42.6121 30.7645 42.166 30.3477 41.6982C30.174 41.5276 30.0591 41.3061 30.0198 41.0657C29.9804 40.8254 30.0186 40.5788 30.1289 40.3617C30.2179 40.1534 30.3636 39.9743 30.5494 39.8446C30.7351 39.715 30.9535 39.64 31.1797 39.6283Z" fill="#0068E5"/>
<path d="M13.7647 52.1249C12.1825 52.1249 10.6021 52.1249 9.02162 52.1249C8.08103 52.1249 7.49797 51.6237 7.51802 50.8452C7.53807 50.0666 8.10108 49.6289 9.02162 49.6273H18.5077C19.4266 49.6273 19.9912 50.0917 20.0113 50.8452C20.0313 51.5986 19.4466 52.1232 18.5077 52.1249C16.9256 52.1283 15.3451 52.1249 13.7647 52.1249Z" fill="#0068E5"/>
<path d="M33.7626 49.6256C35.343 49.6256 36.9235 49.6256 38.5056 49.6256C39.4462 49.6256 40.0309 50.1268 40.0092 50.902C39.9875 51.6772 39.4278 52.1232 38.5056 52.1232C35.3436 52.1232 32.1816 52.1232 29.0195 52.1232C28.0773 52.1232 27.4959 51.622 27.5159 50.8468C27.536 50.0716 28.0973 49.6289 29.0195 49.6256C30.6033 49.6222 32.1805 49.6256 33.7626 49.6256Z" fill="#0068E5"/>
<path d="M13.7613 54.6242C15.3418 54.6242 16.9222 54.6242 18.5027 54.6242C19.4449 54.6242 20.0297 55.1254 20.0063 55.9006C19.9829 56.6758 19.4232 57.1219 18.5027 57.1219C15.3406 57.1219 12.1786 57.1219 9.01662 57.1219C8.07436 57.1219 7.49297 56.6207 7.51301 55.8455C7.53306 55.0703 8.09441 54.6259 9.01662 54.6242C10.5993 54.622 12.1808 54.622 13.7613 54.6242Z" fill="#0068E5"/>
<path d="M33.7776 54.6242C35.3603 54.6242 36.9413 54.6242 38.5206 54.6242C39.4361 54.6242 40.0025 55.0954 40.0242 55.8488C40.0459 56.6023 39.4562 57.1219 38.5206 57.1219C35.3597 57.1219 32.1982 57.1219 29.0362 57.1219C28.119 57.1219 27.5543 56.6524 27.5326 55.8973C27.5109 55.1421 28.0973 54.6259 29.0362 54.6242C30.6145 54.622 32.1949 54.622 33.7776 54.6242Z" fill="#0068E5"/>
<path d="M12.9393 43.6028C13.7079 42.4534 14.4429 41.3507 15.1814 40.2498C15.4838 39.7987 15.9048 39.5564 16.4544 39.645C16.6829 39.6771 16.8974 39.7737 17.0729 39.9234C17.2483 40.0731 17.3775 40.2698 17.4451 40.4903C17.5113 40.6771 17.5306 40.8773 17.5015 41.0733C17.4723 41.2693 17.3956 41.4552 17.2781 41.6147C16.1871 43.2603 15.1062 44.9109 13.9919 46.5398C13.4455 47.3384 12.4615 47.3384 11.9002 46.5515C11.3388 45.7646 10.7742 44.9042 10.2446 44.0606C9.84694 43.424 9.99563 42.7524 10.5653 42.3565C11.135 41.9605 11.8467 42.0791 12.3162 42.699C12.5183 42.978 12.7088 43.272 12.9393 43.6028Z" fill="#0068E5"/>
<path d="M36.2669 8.74931C36.2669 8.06099 36.2769 7.37435 36.2669 6.6877C36.2669 6.37361 36.3621 6.24163 36.6946 6.2433C38.0896 6.25667 39.4846 6.255 40.8713 6.2433C41.172 6.2433 41.2672 6.36693 41.2655 6.65262C41.2566 8.04707 41.2566 9.43929 41.2655 10.8293C41.2655 11.115 41.172 11.2419 40.8713 11.2403C39.4763 11.2319 38.0812 11.2286 36.6946 11.2403C36.3605 11.2403 36.2602 11.1116 36.2669 10.7959C36.2836 10.1243 36.2669 9.43762 36.2669 8.74931Z" fill="#E2ECF8"/>
</g>
<defs>
<clipPath id="clip0_96_16918">
<rect width="47.5289" height="64" fill="white"/>
</clipPath>
</defs>
</svg>
