<svg width="64" height="57" viewBox="0 0 64 57" fill="none" xmlns="http://www.w3.org/2000/svg">
<g clip-path="url(#clip0_996_17141)">
<path d="M63.9966 12.6417C63.5808 13.3098 62.9745 13.4768 62.2095 13.4768C58.5451 13.4484 54.8791 13.4768 51.2147 13.4484C50.6201 13.4484 50.5065 13.6288 50.5115 14.1799C50.5349 17.7825 50.5232 21.3851 50.5216 24.9877C50.5216 25.2366 50.4948 25.4888 50.4815 25.7343H48.0564C48.0447 25.5072 48.0229 25.2783 48.0229 25.0495C48.0229 17.2832 48.0229 9.51733 48.0229 1.75206C48.0229 0.39921 48.4088 0.0200731 49.7783 0.0200731C53.9638 0.0200731 58.1493 0.0351071 62.3331 0.00671387C63.0981 0.00671387 63.6442 0.22551 64.0033 0.900266V1.77544C62.7574 3.302 61.7319 4.98555 60.5694 6.57056C60.4325 6.75929 60.5494 6.87954 60.6412 7.01149L63.9966 11.7665V12.6417ZM60.3423 2.51534C57.0904 2.51534 53.9705 2.51534 50.8506 2.51534C50.4197 2.51534 50.5266 2.79927 50.5165 3.02475C50.5165 5.48327 50.5299 7.94011 50.5032 10.397C50.5032 10.8847 50.6502 10.9815 51.1011 10.9782C53.6064 10.9565 56.1 10.9682 58.5986 10.9682H60.3222C60.1552 10.7143 60.0617 10.5423 59.9481 10.3803C59.3184 9.47502 58.6821 8.57479 58.0541 7.66787C57.5531 6.93633 57.5531 6.53883 58.0675 5.79559C58.794 4.73335 59.5322 3.68113 60.3473 2.51534H60.3423Z" fill="#0068E5"/>
<path d="M48.0615 25.7277H50.4866C54.318 25.7277 58.1478 25.7561 61.9792 25.7277C62.6222 25.7277 62.7675 25.8947 62.7658 26.526C62.7458 36.3534 62.7458 46.1814 62.7658 56.0099C62.7658 56.6145 62.5988 56.7648 62.0059 56.7631C41.6006 56.7475 21.1959 56.7475 0.791761 56.7631C0.157089 56.7631 -0.00658621 56.6061 0.00176474 55.9731C0.0368387 52.9751 0.0251474 49.9771 0.00176474 46.9792C0.00176474 46.5249 0.10699 46.3445 0.589675 46.3695C1.25775 46.4029 1.92583 46.3695 2.5939 46.3545C3.42799 46.4095 4.26469 46.4129 5.09919 46.3645L13.3683 46.3745L15.8602 46.3662C17.3634 46.3662 18.8666 46.3662 20.358 46.3896C20.824 46.3996 20.9042 46.2075 20.9025 45.8C20.8892 42.7803 20.9025 39.7589 20.8825 36.7392C20.8825 36.1563 21.0595 35.9626 21.6341 36.001C22.2554 36.0427 22.8817 36.001 23.5064 36.001C24.3405 36.0563 25.1775 36.0563 26.0116 36.001H34.2607C35.0949 36.0546 35.9318 36.0546 36.766 36.001C38.2692 36.001 39.7606 35.9876 41.2571 36.0194C41.7465 36.0294 41.8951 35.8891 41.8918 35.3897C41.8684 32.4786 41.8784 29.5674 41.8818 26.6563C41.8818 25.6542 41.7716 25.7444 42.767 25.7393L48.0615 25.7277Z" fill="#E2ECF8"/>
<path d="M5.09903 46.3729C4.26453 46.4212 3.42784 46.4179 2.59375 46.3628C2.59375 40.3702 2.61212 34.3759 2.59375 28.3833C2.59375 26.9335 2.8827 25.6592 4.08357 24.7322C4.38086 24.5034 4.12867 24.3314 4.04516 24.1527C2.96454 21.8511 3.41716 19.234 5.21429 17.4853C6.17548 16.5479 7.43348 15.9752 8.77157 15.8658C10.1097 15.7563 11.444 16.117 12.5447 16.8857C13.6548 17.6604 14.4554 18.8024 14.8053 20.11C15.1552 21.4176 15.0319 22.8069 14.4571 24.0324C14.2684 24.4316 14.2634 24.637 14.6241 24.9493C15.5461 25.746 15.8818 26.82 15.8801 28.0208C15.8801 34.1382 15.8801 40.2561 15.8801 46.3745L13.3882 46.3829C13.3882 44.0446 13.3715 41.7197 13.3882 39.3881C13.3882 38.9405 13.2963 38.7768 12.8086 38.7819C10.4359 38.8086 8.06251 38.8086 5.68862 38.7819C5.20593 38.7819 5.10406 38.9255 5.10907 39.3815C5.11241 41.7097 5.09903 44.0413 5.09903 46.3729ZM5.09903 31.8055C5.09903 33.1166 5.11575 34.4277 5.08902 35.7371C5.08902 36.1546 5.16919 36.3066 5.62515 36.3016C8.01686 36.2782 10.4108 36.2782 12.807 36.3016C13.2245 36.3016 13.3782 36.2164 13.3748 35.7605C13.3531 33.18 13.3748 30.6013 13.3598 28.0208C13.3642 27.7719 13.3293 27.5239 13.2562 27.2859C13.0224 26.5961 12.518 26.4124 11.8717 26.7331C10.0695 27.6233 8.26237 27.6283 6.49364 26.6696C6.01095 26.4074 5.72202 26.5561 5.41805 26.8901C5.14581 27.1891 5.10238 27.5582 5.10238 27.9373C5.10238 29.225 5.10071 30.5161 5.10071 31.8055H5.09903ZM9.19602 24.8825C10.0587 24.881 10.8866 24.542 11.5027 23.9381C12.1188 23.3342 12.4742 22.5132 12.493 21.6507C12.4997 20.788 12.1652 19.9575 11.5623 19.3403C10.9595 18.7231 10.1372 18.3691 9.27451 18.3554C8.84202 18.3452 8.41186 18.4216 8.00939 18.5803C7.60692 18.7389 7.2403 18.9766 6.93115 19.2792C6.62199 19.5818 6.37657 19.9433 6.20935 20.3423C6.04213 20.7412 5.9565 21.1697 5.95751 21.6023C5.95702 22.4655 6.29697 23.2941 6.90358 23.9082C7.5102 24.5223 8.33454 24.8724 9.19769 24.8825H9.19602Z" fill="#0068E5"/>
<path d="M26.008 36.011C25.1738 36.0663 24.3369 36.0663 23.5027 36.011C23.5027 29.9699 23.5177 23.9305 23.4927 17.8894C23.4927 16.4965 23.8267 15.2973 24.9491 14.4088C25.2698 14.1516 25.0293 13.9762 24.9341 13.7758C24.3196 12.4988 24.1963 11.0404 24.5878 9.67839C24.9793 8.31639 25.8581 7.14601 27.0569 6.3902C28.1111 5.72223 29.3539 5.41524 30.5979 5.51557C31.8419 5.6159 33.0195 6.11809 33.9531 6.94637C34.8896 7.77105 35.5315 8.87874 35.7814 10.1013C36.0313 11.3239 35.8755 12.5946 35.3377 13.7207C35.1523 14.1048 35.1556 14.2919 35.4947 14.5858C36.3966 15.3658 36.7623 16.3996 36.7623 17.5922C36.7557 23.7362 36.7557 29.8809 36.7623 36.026C35.9281 36.0796 35.0913 36.0796 34.2571 36.026C34.2571 33.6761 34.247 31.3261 34.2671 28.9778C34.2671 28.567 34.1552 28.4618 33.751 28.4651C31.3392 28.484 28.9275 28.484 26.5157 28.4651C26.1132 28.4651 25.9946 28.5636 25.998 28.9762C26.018 31.3128 26.008 33.6627 26.008 36.011ZM34.2571 21.5138C34.2571 21.1797 34.2571 20.8457 34.2571 20.5116C34.2571 19.4711 34.2788 18.4289 34.2571 17.3884C34.2287 16.4013 33.5539 16.0005 32.7021 16.413C30.9334 17.2698 29.158 17.2481 27.431 16.3278C26.9182 16.0539 26.6176 16.1959 26.3103 16.5617C26.1013 16.8253 25.9951 17.1559 26.0113 17.4919C26.0113 20.1576 26.0113 22.8237 26.0113 25.4905C26.0113 25.8245 26.0648 25.9682 26.4456 25.9648C28.9041 25.9481 31.3621 25.9481 33.8195 25.9648C34.1685 25.9648 34.2821 25.873 34.2754 25.5122C34.2454 24.1794 34.2571 22.8466 34.2571 21.5138ZM30.1684 7.99859C29.7411 7.99085 29.3165 8.06781 28.9191 8.22503C28.5217 8.38224 28.1594 8.61659 27.853 8.91457C27.5466 9.21255 27.3023 9.56824 27.1341 9.96113C26.966 10.354 26.8773 10.7763 26.8731 11.2037C26.8647 11.6309 26.9406 12.0556 27.0964 12.4534C27.2522 12.8513 27.4849 13.2145 27.7811 13.5224C28.0774 13.8303 28.4314 14.0768 28.823 14.2478C29.2146 14.4188 29.636 14.511 30.0632 14.519C30.4958 14.529 30.926 14.4526 31.3287 14.2943C31.7313 14.136 32.0984 13.899 32.4084 13.5971C32.7183 13.2953 32.965 12.9346 33.1339 12.5362C33.3027 12.1379 33.3905 11.7098 33.3919 11.2772C33.397 10.8498 33.3175 10.4257 33.1579 10.0293C32.9984 9.6328 32.762 9.27181 32.4624 8.96707C32.1628 8.66234 31.8059 8.41988 31.4122 8.25367C31.0185 8.08745 30.5958 8.00076 30.1684 7.99859Z" fill="#0068E5"/>
</g>
<defs>
<clipPath id="clip0_996_17141">
<rect width="64" height="56.7731" fill="white"/>
</clipPath>
</defs>
</svg>
