<svg width="64" height="59" viewBox="0 0 64 59" fill="none" xmlns="http://www.w3.org/2000/svg">
<g clip-path="url(#clip0_996_5516)">
<path d="M-1.25939e-05 57.0054C0.451033 56.3372 1.08416 56.2053 1.85428 56.2236C3.56992 56.2637 5.2889 56.2236 7.00454 56.2153H16.2627C17.1982 56.2153 18.137 56.2019 19.0709 56.252C19.6188 56.2804 19.7992 56.1501 19.7959 55.5538C19.7708 50.2464 19.7808 44.9375 19.7808 39.6302C19.7808 38.2052 20.1283 37.8577 21.5466 37.8577H29.9778C31.0469 37.8577 31.493 38.3038 31.493 39.3763C31.493 44.7888 31.503 50.1997 31.4813 55.6122C31.4813 56.1384 31.6216 56.2804 32.1361 56.252C33.09 56.2019 34.0489 56.2236 35.0061 56.217H44.2559C45.2966 56.2253 46.3391 56.217 47.3798 56.2454C47.6805 56.2454 47.7974 56.1551 47.7657 55.8561C47.7573 55.7109 47.7573 55.5653 47.7657 55.4201V22.1764C47.7657 20.6729 48.0864 20.3622 49.6033 20.3622H57.7889C59.0819 20.3622 59.4595 20.7447 59.4595 22.0327C59.4595 33.1786 59.455 44.3238 59.4461 55.4686C59.4461 56.075 59.5513 56.3139 60.2145 56.2587C61.0214 56.1886 61.8383 56.2337 62.6502 56.2437C63.4621 56.2537 63.9632 56.7198 63.9966 57.4214C64.0301 58.123 63.4955 58.6843 62.7036 58.7395C62.5366 58.7512 62.3695 58.7395 62.2025 58.7395C42.058 58.7395 21.9141 58.7434 1.77075 58.7512C0.997295 58.7512 0.395902 58.5624 -0.00335693 57.8808L-1.25939e-05 57.0054ZM50.2565 39.5166C50.2565 44.889 50.2565 50.2598 50.2464 55.6323C50.2464 56.1151 50.3567 56.2604 50.8562 56.2504C52.7088 56.2186 54.5631 56.2236 56.4157 56.2504C56.8568 56.2504 56.9704 56.1267 56.9687 55.6924C56.9564 44.9275 56.9564 34.1625 56.9687 23.3976C56.9687 22.9549 56.8384 22.8429 56.409 22.8479C54.5564 22.8713 52.7021 22.878 50.8495 22.8479C50.3483 22.8396 50.2431 22.9899 50.2448 23.4677C50.2632 28.8134 50.2565 34.1658 50.2565 39.5166ZM28.9855 48.317C28.9855 45.8613 28.9755 43.4039 28.9955 40.9482C28.9955 40.5122 28.932 40.3351 28.4325 40.3435C26.5599 40.3769 24.6855 40.3719 22.8129 40.3435C22.3651 40.3435 22.2666 40.4771 22.2666 40.9048C22.2811 45.8385 22.2811 50.7716 22.2666 55.7041C22.2666 56.1602 22.4169 56.2487 22.8346 56.2437C24.7072 56.2236 26.5816 56.2203 28.4543 56.2437C28.9086 56.2437 28.9989 56.1034 28.9955 55.6807C28.9771 53.23 28.9855 50.7727 28.9855 48.317Z" fill="#0068E5"/>
<path d="M1.06609e-05 15.0031C0.501172 14.0459 1.14934 13.2791 2.33876 13.2457C2.55928 13.2457 2.56596 13.0369 2.61274 12.8832C2.88575 11.967 3.25475 11.0823 3.71361 10.2437C3.78485 10.1462 3.81849 10.0263 3.80836 9.90599C3.79823 9.78568 3.74502 9.67306 3.65849 9.58886C2.85831 8.53809 2.93848 7.31191 3.85728 6.36305C4.66805 5.52444 5.49275 4.69919 6.33136 3.88731C7.26519 2.98856 8.47633 2.90336 9.50538 3.67014C9.7593 3.85891 9.93638 3.90067 10.2154 3.74197C11.0327 3.28638 11.8999 2.92651 12.7997 2.66949C12.9194 2.6479 13.0277 2.58484 13.1056 2.49137C13.1835 2.39789 13.226 2.27998 13.2257 2.1583C13.3927 0.915422 14.2881 0.075142 15.5343 0.031708C16.7806 -0.011726 17.9934 -0.0100555 19.2212 0.031708C20.4491 0.0734714 21.3194 0.866975 21.5249 2.09148C21.5316 2.2425 21.5903 2.38656 21.6911 2.49922C21.7918 2.61188 21.9285 2.68621 22.0779 2.70958C22.9181 2.94746 23.7272 3.28391 24.4884 3.7119C24.7674 3.86559 24.9612 3.90235 25.2569 3.67515C26.2726 2.89334 27.5037 2.98689 28.4309 3.88564C29.2545 4.68249 30.0614 5.49604 30.8632 6.3146C31.8171 7.2902 31.914 8.498 31.1038 9.59053C31.0204 9.67678 30.9698 9.78954 30.961 9.90919C30.9521 10.0288 30.9855 10.1478 31.0553 10.2454C31.507 11.0649 31.8672 11.9315 32.1295 12.8297C32.2013 13.0753 32.2782 13.2306 32.6123 13.2707C33.922 13.4378 34.7389 14.3683 34.7589 15.6796C34.7756 16.8479 34.7756 18.0145 34.7589 19.1794C34.7405 20.4941 33.9236 21.4363 32.6239 21.6034C32.5043 21.6045 32.389 21.6485 32.299 21.7272C32.2089 21.8059 32.15 21.9143 32.1328 22.0327C31.8741 22.9327 31.5137 23.8003 31.0587 24.6187C30.8916 24.9044 30.9534 25.0764 31.1372 25.3237C31.8806 26.326 31.8154 27.5572 30.9551 28.4593C30.1198 29.3346 29.2662 30.1883 28.3942 31.0235C27.487 31.8905 26.2676 31.9607 25.2619 31.209C25.0113 31.0219 24.8359 30.9684 24.5519 31.1305C23.7367 31.5893 22.8704 31.9509 21.9709 32.208C21.6736 32.2948 21.5984 32.4385 21.5449 32.7091C21.281 34.1023 20.3906 34.839 18.979 34.8491C17.9165 34.858 16.8541 34.858 15.7916 34.8491C14.3533 34.839 13.4529 34.079 13.2223 32.6573C13.2149 32.5458 13.1696 32.4401 13.0939 32.3578C13.0183 32.2755 12.9169 32.2215 12.8064 32.2046C11.8893 31.9342 11.0039 31.5663 10.1652 31.1071C10.0741 31.0436 9.96369 31.014 9.85303 31.0231C9.74236 31.0323 9.63833 31.0797 9.55883 31.1572C8.40282 31.9925 7.25181 31.8939 6.23947 30.8999C5.4365 30.1137 4.64187 29.3174 3.85561 28.511C2.93681 27.5622 2.85328 26.3394 3.64846 25.2836C3.83055 25.0447 3.85561 24.886 3.71194 24.6321C3.25056 23.7939 2.88091 22.9084 2.60939 21.9909C2.56262 21.8389 2.55593 21.6351 2.33542 21.6284C1.14099 21.59 0.497818 20.8232 -0.0133667 19.871L1.06609e-05 15.0031ZM8.13553 5.67145C7.96847 5.81511 7.8766 5.88862 7.79141 5.97214C7.2301 6.5301 6.69719 7.1198 6.10414 7.64268C5.70656 7.99182 5.72159 8.19897 6.10414 8.55479C6.89598 9.2915 6.92773 9.72417 6.3681 10.6296C5.67868 11.7452 5.16431 12.9599 4.8429 14.2313C4.50879 15.5677 4.33338 15.7197 2.92011 15.7348C2.53421 15.7348 2.48576 15.8851 2.49411 16.2075C2.51416 16.9576 2.53421 17.711 2.49411 18.4561C2.46237 18.979 2.57263 19.1761 3.16233 19.1443C4.20809 19.0892 4.53552 19.3933 4.79612 20.444C5.10538 21.7183 5.60251 22.9395 6.2712 24.0674C6.9745 25.2368 6.9628 25.4807 6.00224 26.4413C5.71992 26.7252 5.74333 26.8706 6.01729 27.1245C6.58194 27.6491 7.13821 28.1853 7.64939 28.7616C7.9835 29.1325 8.17229 29.1074 8.50138 28.7616C9.26649 27.9497 9.68078 27.9147 10.628 28.4927C11.6925 29.1452 12.8445 29.643 14.0492 29.9711C15.5861 30.3854 15.6396 30.4205 15.7198 31.9607C15.7382 32.3132 15.8768 32.3667 16.1758 32.36C16.8841 32.3449 17.5941 32.3165 18.2991 32.36C18.9205 32.4051 19.1778 32.2581 19.1343 31.5665C19.0742 30.6577 19.3966 30.3136 20.3037 30.088C21.5988 29.7787 22.8416 29.2812 23.9923 28.6113C25.2485 27.8662 25.4089 27.8746 26.4647 28.8936C26.7102 29.1291 26.8355 29.1141 27.0527 28.8853C27.599 28.3106 28.1452 27.7359 28.7333 27.2147C29.0958 26.8806 29.0958 26.6952 28.7333 26.3561C27.898 25.5642 27.878 25.1867 28.4844 24.1844C29.1412 23.0988 29.6374 21.9239 29.9578 20.6963C30.3286 19.2763 30.4105 19.1928 31.909 19.1494C32.2698 19.1377 32.3049 18.9957 32.2999 18.7033C32.2848 17.9315 32.2598 17.1597 32.2999 16.3913C32.3316 15.8768 32.1946 15.7231 31.6634 15.7414C30.6076 15.7849 30.2518 15.4725 30.0129 14.4485C29.7165 13.1927 29.2339 11.9883 28.5813 10.8752C27.8412 9.6039 27.8429 9.44519 28.8502 8.40111C29.1125 8.12881 29.054 7.99182 28.8168 7.76964C28.2773 7.27946 27.7632 6.76203 27.2766 6.21938C26.899 5.78337 26.6568 5.71822 26.2341 6.19432C25.586 6.92602 25.0831 6.95442 24.2546 6.43488C23.0202 5.66366 21.6648 5.1057 20.2453 4.78439C20.0504 4.7535 19.8642 4.68227 19.6985 4.57526C19.5328 4.46825 19.3913 4.32782 19.283 4.16295C19.0575 3.80044 19.0993 3.39617 19.116 3.00694C19.1327 2.6177 19.0057 2.50577 18.6148 2.51747C17.8447 2.54587 17.0729 2.55255 16.3028 2.51747C15.8501 2.49575 15.6914 2.601 15.7031 3.09046C15.7315 4.25984 15.4441 4.59395 14.3065 4.86123C13.0516 5.15954 11.8506 5.65097 10.7466 6.31794C9.61896 6.98616 9.33163 6.95943 8.40782 6.05567C8.30619 5.93565 8.21509 5.8071 8.13553 5.67145Z" fill="#0068E5"/>
<path d="M44.2493 56.2153H34.9995C34.9995 47.8626 34.9995 39.5161 34.9995 31.1756C34.9995 30.3704 34.9995 30.3688 35.808 30.3688C38.389 30.3688 40.97 30.3855 43.551 30.3571C44.1006 30.3571 44.2493 30.4974 44.2493 31.0503C44.237 39.4398 44.237 47.8281 44.2493 56.2153Z" fill="#E2ECF8"/>
<path d="M16.2627 56.2137H7.01123C7.01123 53.6578 7.03462 51.1002 7.01123 48.5442C7.01123 47.9813 7.17828 47.851 7.71452 47.856C10.3339 47.8827 12.9511 47.8827 15.5661 47.856C16.1023 47.856 16.276 47.9763 16.2694 48.5409C16.2343 51.1002 16.2627 53.6561 16.2627 56.2137Z" fill="#E2ECF8"/>
<path d="M17.4321 8.75033C18.5749 8.74897 19.7065 8.97396 20.7618 9.41231C21.8171 9.85066 22.7752 10.4937 23.5806 11.3043C24.3861 12.1149 25.023 13.077 25.4547 14.135C25.8863 15.1931 26.1041 16.3262 26.0955 17.4689C26.093 18.6166 25.863 19.7524 25.4189 20.8107C24.9748 21.869 24.3254 22.8288 23.5082 23.6347C22.691 24.4405 21.7222 25.0765 20.6578 25.5057C19.5934 25.935 18.4545 26.1491 17.3068 26.1356C12.5475 26.0905 8.69186 22.0963 8.71692 17.3436C8.74532 12.6427 12.763 8.65511 17.4321 8.75033ZM16.1408 15.5845C16.1408 16.1675 16.1291 16.7539 16.1408 17.3336C16.1625 18.1688 16.6186 18.6433 17.4555 18.6834C17.9567 18.7067 18.4578 18.6967 18.959 18.6834C19.8861 18.67 20.4491 18.2106 20.4708 17.4588C20.4892 16.7439 19.9697 16.2377 19.0759 16.1842C18.7101 16.1625 18.6249 16.0389 18.6366 15.7031C18.6583 15.0783 18.6516 14.4535 18.6366 13.8288C18.6215 13.057 18.1354 12.5257 17.4288 12.5057C16.7221 12.4857 16.1675 13.047 16.1441 13.8288C16.1224 14.4168 16.1358 15.0015 16.1358 15.5845H16.1408Z" fill="#E2ECF8"/>
<path d="M16.1357 15.5844C16.1357 15.0014 16.1224 14.4151 16.1357 13.8354C16.1591 13.0536 16.7188 12.499 17.4204 12.5123C18.122 12.5257 18.6132 13.0636 18.6282 13.8354C18.6416 14.4602 18.6482 15.085 18.6282 15.7097C18.6165 16.0438 18.7017 16.1691 19.0675 16.1908C19.963 16.2443 20.4808 16.7505 20.4624 17.4655C20.4407 18.2172 19.8777 18.6766 18.9506 18.69C18.4494 18.69 17.9483 18.7067 17.4471 18.69C16.6118 18.6499 16.1541 18.1771 16.1324 17.3402C16.124 16.7505 16.1357 16.1675 16.1357 15.5844Z" fill="#0068E5"/>
</g>
<defs>
<clipPath id="clip0_996_5516">
<rect width="64" height="58.7512" fill="white"/>
</clipPath>
</defs>
</svg>
