<svg width="55" height="65" viewBox="0 0 55 65" fill="none" xmlns="http://www.w3.org/2000/svg">
<g clip-path="url(#clip0_96_17080)">
<path d="M5.791 64.9303C5.76093 64.798 5.64235 64.8081 5.55048 64.7746C3.54609 64.051 2.57228 62.654 2.57061 60.495C2.57061 51.8466 2.57061 43.1981 2.57061 34.5497C2.57061 34.0673 2.45871 33.7993 1.99603 33.5447C1.53538 33.2771 1.13227 32.9206 0.810068 32.4956C0.487869 32.0707 0.252993 31.5858 0.119062 31.0692C-0.0148685 30.5525 -0.0452041 30.0144 0.0298372 29.4859C0.104879 28.9574 0.283804 28.4491 0.556217 27.9905C1.24606 26.818 2.02777 25.7175 2.76605 24.5802C2.87339 24.4128 3.01822 24.2727 3.18901 24.1713C3.3598 24.0698 3.55184 24.0096 3.74987 23.9957C3.95713 23.9795 4.16513 23.975 4.37289 23.9823C19.4748 23.9823 34.5767 23.9778 49.6787 23.9689C50.5372 23.9689 51.1335 24.2168 51.5761 24.9856C52.1157 25.9236 52.7637 26.7979 53.3433 27.7124C54.713 29.8715 54.0883 32.4208 51.8568 33.6703C51.4943 33.873 51.4976 34.1142 51.4976 34.4291C51.4976 42.8475 51.4542 51.2659 51.526 59.6843C51.5478 62.2755 50.7527 64.1381 48.1537 64.9387L5.791 64.9303ZM32.1821 62.4011C34.6374 62.4011 37.0945 62.4011 39.5498 62.4363C40.091 62.4463 40.1796 62.2822 40.1779 61.7814C40.1634 51.2592 40.1595 40.7359 40.1662 30.2115V29.446C39.5682 30.3589 39.0538 31.0875 38.5978 31.8513C37.6423 33.4492 36.271 34.1494 34.4002 34.1427C24.8794 34.1092 15.372 34.1326 5.85614 34.1142C5.25483 34.1142 5.05605 34.2163 5.05939 34.8813C5.08612 43.3583 5.07609 51.8354 5.07776 60.3124C5.07047 60.5417 5.07997 60.7713 5.10617 60.9992C5.22977 61.8367 5.82775 62.4078 6.67293 62.4128C8.79591 62.4279 10.9189 62.4128 13.0419 62.4028C17.1353 62.4095 21.2292 62.4156 25.3237 62.4212C27.6054 62.4212 29.8904 62.4078 32.177 62.4011H32.1821ZM42.7752 29.6135L42.6683 29.6588V32.8412C42.6683 42.5091 42.6644 52.176 42.6566 61.8417C42.6566 62.2939 42.7402 62.4463 43.2245 62.4313C44.494 62.3911 45.7651 62.4179 47.0346 62.4179C48.4176 62.4179 49.0105 61.8283 49.0105 60.4381C49.0105 51.8789 49.015 43.3187 49.0239 34.7574C49.0239 34.2264 48.8752 34.0874 48.3558 34.1142C46.5368 34.2297 45.1972 33.4442 44.2618 31.8881C43.7908 31.116 43.2696 30.3723 42.7702 29.6135H42.7752ZM38.9953 26.4813H11.2195C9.15836 26.4813 7.09552 26.4914 5.03935 26.4813C4.87744 26.4655 4.71449 26.4986 4.57157 26.5765C4.42865 26.6545 4.31231 26.7736 4.23759 26.9185C3.80498 27.632 3.33396 28.3204 2.87797 29.0172C2.70502 29.252 2.59048 29.5247 2.5439 29.8128C2.41863 30.8882 3.12682 31.6252 4.31943 31.6252C9.54642 31.6252 14.7729 31.6252 19.9988 31.6252C24.8076 31.6252 29.6181 31.6051 34.427 31.6419C35.3974 31.6419 36.0305 31.3069 36.5232 30.4895C37.2214 29.3288 37.9964 28.2166 38.7314 27.0793C38.8216 26.9068 38.997 26.7661 38.9903 26.4813H38.9953ZM43.719 26.4813C44.7729 28.0826 45.7434 29.58 46.7439 31.0573C47.0128 31.456 47.4521 31.6185 47.9399 31.6168C48.608 31.6168 49.2761 31.6319 49.9442 31.6168C51.2972 31.585 52.0088 30.3019 51.3056 29.1462C50.8195 28.3472 50.2867 27.5768 49.7839 26.7862C49.7302 26.6869 49.6493 26.6051 49.5507 26.5505C49.4522 26.4959 49.3401 26.4707 49.2277 26.478C47.4287 26.4864 45.6448 26.4813 43.714 26.4813H43.719Z" fill="#0068E5"/>
<path d="M27.0425 0.753757C28.1249 0.753757 29.2139 0.753757 30.2896 0.753757C31.3653 0.753757 31.7929 1.20432 31.7929 2.2897C31.7929 4.37672 31.8046 6.46542 31.7929 8.55243C31.7929 8.9762 31.8798 9.16882 32.3341 9.1169C32.6431 9.08172 32.9588 9.1169 33.2711 9.10685C33.8674 9.08005 34.4036 9.1906 34.6976 9.77684C34.9916 10.3631 34.8045 10.8572 34.432 11.3396C34.0261 11.8672 33.652 12.4216 33.2628 12.9626L28.3186 19.8032C27.4584 20.9941 26.6316 20.9925 25.768 19.8032C23.7436 16.9993 21.7175 14.1954 19.6897 11.3915C19.3223 10.889 19.0884 10.3865 19.3958 9.77684C19.7031 9.16715 20.2309 9.10685 20.8272 9.10685C22.2888 9.10685 22.2888 9.10685 22.2888 7.60942C22.2888 5.81385 22.2888 4.0166 22.2888 2.22103C22.2888 1.22609 22.7514 0.762125 23.7369 0.7571C24.8343 0.748725 25.9384 0.753757 27.0425 0.753757ZM31.073 11.7031C29.4027 11.3681 29.2941 11.2357 29.2941 9.49544C29.2941 7.59435 29.2774 5.69325 29.3058 3.80053C29.3058 3.34997 29.1838 3.24779 28.7529 3.25951C27.6087 3.29134 26.4612 3.29301 25.3171 3.25951C24.8728 3.24611 24.7675 3.37174 24.7725 3.80891C24.7976 5.9177 24.7876 8.02816 24.7825 10.1386C24.7825 11.1068 24.3583 11.5473 23.3979 11.6277C23.2843 11.6377 23.149 11.5758 23.0354 11.75C24.2898 13.4936 25.5576 15.2456 26.817 17.006C26.9941 17.2556 27.1093 17.2288 27.2697 16.9976C27.577 16.5504 27.8994 16.1149 28.2167 15.6744L31.073 11.7031Z" fill="#0068E5"/>
<path d="M32.177 47.1271V62.4012C29.8904 62.4012 27.6054 62.4213 25.3187 62.4213C21.2242 62.4213 17.1302 62.4151 13.0368 62.4028C13.0368 57.3165 13.0368 52.2296 13.0368 47.1422C16.1492 44.8072 19.2588 42.4712 22.3656 40.134C22.6145 39.9465 22.7598 40.0436 22.9552 40.191C23.9858 40.9682 25.0264 41.732 26.057 42.5075C28.0992 44.044 30.1393 45.5839 32.177 47.1271ZM22.6094 52.6361C21.7977 52.6361 20.9859 52.6361 20.1741 52.6361C19.2571 52.6461 18.7928 53.1067 18.7878 54.028C18.7778 55.3679 18.7878 56.7079 18.7878 58.0378C18.7878 58.9222 19.3139 59.5135 20.0606 59.4951C20.8072 59.4767 21.2782 58.9005 21.2849 58.0445C21.2849 57.2305 21.3016 56.4148 21.2849 55.6024C21.2849 55.2674 21.3534 55.115 21.7259 55.1351C22.3084 55.1644 22.8921 55.1644 23.4747 55.1351C23.8572 55.1133 23.9758 55.2323 23.9658 55.6209C23.9407 56.4969 23.9307 57.3762 23.9658 58.2522C23.9663 58.4204 24.0007 58.5867 24.067 58.7411C24.1332 58.8956 24.23 59.0349 24.3514 59.1509C24.4728 59.2669 24.6164 59.357 24.7734 59.4158C24.9305 59.4747 25.0978 59.5011 25.2653 59.4934C25.9434 59.4566 26.4345 58.9507 26.4445 58.2053C26.4623 56.785 26.4623 55.3652 26.4445 53.9459C26.4328 53.0933 25.9635 52.6495 25.1083 52.6377C24.2531 52.626 23.4429 52.6361 22.6094 52.6361Z" fill="#E2ECF8"/>
<path d="M32.1771 47.127C30.1359 45.5861 28.0954 44.0462 26.0553 42.5075C25.0247 41.7319 23.9841 40.9682 22.9536 40.191C22.7581 40.0436 22.6195 39.9464 22.3639 40.134C19.2594 42.479 16.1498 44.815 13.0352 47.1421C12.5809 47.4671 12.1299 47.797 11.6689 48.1153C11.0007 48.5742 10.2658 48.4905 9.83151 47.9193C9.39722 47.3481 9.52417 46.5977 10.1656 46.1137C14.0307 43.2216 17.8997 40.3345 21.7726 37.4524C22.4074 36.9784 22.855 37.0085 23.5833 37.5495C25.8215 39.2122 28.0569 40.8788 30.2896 42.5493L30.9243 43.0183C30.9243 42.608 30.9243 42.3048 30.9243 42.0033C30.9477 41.1357 31.4254 40.598 32.1787 40.5946C32.932 40.5913 33.4114 41.1156 33.4215 41.9949C33.4315 42.8073 33.4382 43.6213 33.4215 44.4354C33.406 44.5784 33.4319 44.7229 33.4962 44.8515C33.5605 44.9801 33.6604 45.0874 33.7839 45.1606C34.2332 45.4604 34.6658 45.7887 35.0851 46.1304C35.7181 46.643 35.8234 47.3649 35.3724 47.9444C34.9515 48.4854 34.2165 48.5658 33.5885 48.132C33.1208 47.802 32.6514 47.462 32.1771 47.127Z" fill="#0068E5"/>
<path d="M22.6094 52.6361C23.4446 52.6361 24.2798 52.6361 25.1149 52.6361C25.9501 52.6361 26.4395 53.0917 26.4512 53.9442C26.4712 55.3624 26.4712 56.7822 26.4512 58.2037C26.4412 58.949 25.9501 59.4549 25.2719 59.4917C25.1045 59.4994 24.9371 59.473 24.7801 59.4142C24.623 59.3553 24.4795 59.2652 24.3581 59.1492C24.2367 59.0333 24.1399 58.8939 24.0736 58.7394C24.0073 58.585 23.9729 58.4187 23.9724 58.2506C23.9307 57.3746 23.9407 56.4952 23.9724 55.6192C23.9841 55.2306 23.8639 55.1167 23.4814 55.1334C22.8988 55.1628 22.3151 55.1628 21.7325 55.1334C21.36 55.1133 21.2832 55.2624 21.2916 55.6008C21.3133 56.4131 21.3049 57.2288 21.2916 58.0429C21.2916 58.8988 20.7905 59.475 20.0672 59.4934C19.344 59.5118 18.7978 58.9206 18.7944 58.0362C18.7944 56.6962 18.7944 55.3562 18.7944 54.0263C18.7944 53.1051 19.2638 52.6444 20.1808 52.6344C20.9859 52.6294 21.7977 52.6361 22.6094 52.6361Z" fill="#0068E5"/>
</g>
<defs>
<clipPath id="clip0_96_17080">
<rect width="54.075" height="64.1783" fill="white" transform="translate(0 0.752075)"/>
</clipPath>
</defs>
</svg>
