<svg width="59" height="64" viewBox="0 0 59 64" fill="none" xmlns="http://www.w3.org/2000/svg">
<g clip-path="url(#clip0_96_17073)">
<path d="M17.1727 0C18.1082 0.362497 18.7079 1.04907 19.2107 1.90604C20.4084 3.94905 21.6847 5.94863 22.9058 7.97995C23.1213 8.33577 23.437 8.41261 23.7778 8.49613C26.1984 9.08081 28.6223 9.65713 31.0361 10.2468C33.1226 10.748 33.876 12.7927 32.5496 14.4715C31.285 16.0651 29.9236 17.582 28.6039 19.1322C28.2932 19.4947 27.9825 19.8588 27.6617 20.213C27.2775 20.6356 27.1606 21.0649 27.2474 21.6763C27.3961 22.7187 27.4262 23.7812 27.5214 24.8352C27.6534 26.3019 27.6784 27.7787 27.8171 29.2454C27.9841 30.9559 26.0614 32.451 24.2355 31.6626C21.8501 30.6319 19.4345 29.6763 17.0457 28.6657C16.9085 28.6001 16.7584 28.5661 16.6064 28.5661C16.4543 28.5661 16.3042 28.6001 16.167 28.6657C13.7933 29.668 11.3945 30.6101 9.03237 31.6375C7.14973 32.4544 5.28545 30.9693 5.39905 29.227C5.53937 27.0542 5.70642 24.8826 5.9002 22.712C5.95198 22.1541 5.86845 21.5878 6.02714 21.0416C6.08561 20.8361 5.93193 20.6974 5.80831 20.5521C4.43628 18.9384 3.0648 17.3236 1.69388 15.7077C1.35978 15.3118 0.998954 14.9342 0.669866 14.5383C-0.666529 12.9146 0.073512 10.7546 2.12321 10.2552C4.54042 9.66715 6.95928 9.08582 9.38317 8.51451C9.60393 8.47547 9.81316 8.38754 9.99554 8.25719C10.1779 8.12683 10.3288 7.95734 10.4373 7.76112C11.6784 5.66799 12.9714 3.60827 14.2293 1.52516C14.6469 0.828626 15.2855 0.291766 16.0434 0H17.1727ZM18.2953 17.6872C18.2953 16.5863 18.307 15.4838 18.2953 14.383C18.2852 13.6045 17.8442 13.1201 17.0842 13.0683C16.5663 13.031 16.0463 13.0338 15.5289 13.0766C15.2345 13.0901 14.9559 13.2134 14.7478 13.4221C14.5397 13.6308 14.4173 13.9098 14.4047 14.2042C14.3612 14.8641 14.7137 15.3736 15.3919 15.5039C15.7528 15.569 15.8079 15.7227 15.8046 16.0368C15.7912 17.5552 15.8046 19.072 15.8046 20.5905C15.8046 21.6145 16.2522 22.1658 17.0674 22.1574C17.8827 22.1491 18.3036 21.5962 18.3053 20.5571C18.2969 19.6066 18.2953 18.6444 18.2953 17.6872Z" fill="#E2ECF8"/>
<path d="M44.5187 44.9413C44.5187 39.0495 44.5187 33.156 44.5321 27.2624C44.5321 26.7513 44.4218 26.5642 43.8923 26.6093C43.3305 26.6438 42.7672 26.6466 42.2051 26.6176C41.1309 26.5859 40.5479 25.602 41.1042 24.6865C43.5699 20.6384 46.0505 16.5997 48.5463 12.5704C49.0875 11.6984 50.1616 11.7068 50.7045 12.5821C53.1891 16.5913 55.6598 20.6111 58.1165 24.6414C58.7112 25.617 58.1165 26.6009 56.9589 26.6193C56.3558 26.6193 55.7511 26.6377 55.1481 26.6193C54.814 26.6059 54.6954 26.7195 54.7338 27.0436C54.743 27.1888 54.743 27.3344 54.7338 27.4796V62.0254C54.7338 62.1925 54.7338 62.3595 54.7338 62.5266C54.707 63.5573 54.2594 64.0016 53.2303 64.0033C50.8916 64.0033 48.5646 64.0033 46.2326 64.0033C44.8962 64.0033 44.517 63.6358 44.517 62.3144C44.5181 56.5212 44.5187 50.7301 44.5187 44.9413ZM54.8641 24.1169L49.6204 15.5823L44.3834 24.1169C44.9046 24.1169 45.3005 24.1052 45.6964 24.1169C46.4598 24.142 46.9392 24.588 47.0127 25.3414C47.0328 25.5485 47.0211 25.759 47.0211 25.9661C47.0211 37.6073 47.0178 49.249 47.0111 60.8912C47.0111 61.374 47.123 61.521 47.6175 61.5043C48.8035 61.4658 49.9912 61.4926 51.179 61.4926C52.2314 61.4926 52.2314 61.4926 52.2314 60.4702V26.0497C52.2314 25.8208 52.2314 25.592 52.2414 25.3631C52.3049 24.588 52.7592 24.1503 53.5327 24.1236C53.9403 24.1169 54.3479 24.1169 54.8641 24.1169Z" fill="#0068E5"/>
<path d="M31.1514 48.6248V34.8782C31.1514 33.5819 31.5189 33.2178 32.8219 33.2178C35.1539 33.2178 37.4865 33.2178 39.8196 33.2178C40.9388 33.2178 41.3681 33.6438 41.3681 34.7713C41.3681 43.9769 41.3681 53.183 41.3681 62.3896C41.3681 63.5757 40.9338 63.9983 39.7394 63.9983H32.9288C31.4955 63.9983 31.1464 63.6642 31.1464 62.2476L31.1514 48.6248ZM33.6571 48.5963C33.6571 52.7008 33.6671 56.8035 33.6438 60.9062C33.6438 61.4074 33.7874 61.521 34.2618 61.5076C35.5732 61.4759 36.8879 61.4709 38.1975 61.5076C38.7271 61.5243 38.8958 61.4141 38.8908 60.8394C38.8624 56.715 38.8757 52.5905 38.8757 48.4677C38.8757 44.4268 38.8641 40.3859 38.8891 36.3466C38.8891 35.8104 38.7321 35.6901 38.2209 35.7035C36.8845 35.7391 35.552 35.7391 34.2234 35.7035C33.7557 35.6918 33.6387 35.8154 33.6404 36.2848C33.6621 40.3909 33.6538 44.497 33.6538 48.5963H33.6571Z" fill="#0068E5"/>
<path d="M17.7824 53.2019C17.7824 50.1394 17.7824 47.0768 17.7824 44.0142C17.7824 42.7814 18.1884 42.3838 19.4412 42.3821C21.7732 42.3821 24.1064 42.3821 26.4406 42.3821C27.5331 42.3821 28.0059 42.8449 28.0075 43.934C28.0075 50.1015 28.0075 56.2678 28.0075 62.4331C28.0075 63.5406 27.5481 63.995 26.4556 63.9967C24.0602 63.9967 21.6658 63.9967 19.2725 63.9967C18.2351 63.9967 17.7874 63.5506 17.7858 62.5133C17.7813 59.4117 17.7802 56.3079 17.7824 53.2019ZM20.2882 53.1234C20.2882 55.7461 20.2982 58.3704 20.2781 60.9931C20.2781 61.4024 20.3851 61.5143 20.7927 61.5076C22.2076 61.4809 23.6325 61.4893 25.0407 61.5076C25.3615 61.5076 25.5202 61.4659 25.5202 61.0783C25.5068 55.8307 25.5068 50.5837 25.5202 45.3372C25.5202 44.9814 25.4132 44.8762 25.0608 44.8812C23.6659 44.8996 22.2694 44.9163 20.8745 44.8812C20.35 44.8645 20.2765 45.0482 20.2798 45.5126C20.2949 48.0418 20.2848 50.5826 20.2848 53.1234H20.2882Z" fill="#0068E5"/>
<path d="M14.6452 57.8325C14.6452 59.3527 14.6452 60.8728 14.6452 62.3946C14.6452 63.549 14.2025 63.9966 13.0716 63.9983H5.94695C4.86447 63.9983 4.41845 63.559 4.41678 62.4949C4.41678 59.3488 4.41678 56.2032 4.41678 53.0582C4.41678 52.0459 4.84776 51.5915 5.84838 51.5865C8.30512 51.5754 10.763 51.5754 13.222 51.5865C14.1708 51.5865 14.6352 52.066 14.6435 53.0215C14.6536 54.6235 14.6452 56.2272 14.6452 57.8325ZM6.91583 57.7573C6.91583 58.8398 6.92753 59.929 6.91583 61.0031C6.91583 61.3472 6.94758 61.5176 7.37188 61.5043C8.80684 61.4742 10.2418 61.4775 11.6767 61.5043C12.0693 61.5043 12.1612 61.3923 12.1578 61.0131C12.14 58.8693 12.14 56.7267 12.1578 54.5851C12.1578 54.1541 12.0142 54.0672 11.6216 54.0739C10.2284 54.094 8.83357 54.1023 7.44539 54.0739C6.97932 54.0639 6.90581 54.2276 6.91583 54.6419C6.93421 55.6776 6.91583 56.7183 6.91583 57.7573Z" fill="#0068E5"/>
<path d="M18.2952 17.6872C18.2952 18.6444 18.2952 19.5999 18.2952 20.5571C18.2952 21.5962 17.8659 22.1474 17.0574 22.1574C16.2489 22.1675 15.7962 21.6145 15.7945 20.5905C15.7945 19.072 15.7945 17.5552 15.7945 16.0367C15.7945 15.7227 15.7427 15.569 15.3819 15.5039C14.7037 15.3786 14.3512 14.8641 14.3946 14.2042C14.4073 13.9098 14.5297 13.6307 14.7377 13.4221C14.9458 13.2134 15.2245 13.0901 15.5189 13.0766C16.0363 13.0338 16.5563 13.031 17.0741 13.0683C17.8342 13.1201 18.2752 13.6045 18.2852 14.383C18.3069 15.4838 18.2952 16.5863 18.2952 17.6872Z" fill="#0068E5"/>
</g>
<defs>
<clipPath id="clip0_96_17073">
<rect width="58.3487" height="64" fill="white"/>
</clipPath>
</defs>
</svg>
