<svg width="64" height="65" viewBox="0 0 64 65" fill="none" xmlns="http://www.w3.org/2000/svg">
<g clip-path="url(#clip0_996_5504)">
<path d="M29.4931 64.1102C28.7482 63.8413 27.9566 63.8746 27.1883 63.7594C23.0456 63.1388 19.0643 61.7136 15.4689 59.564C14.4668 58.9661 14.3516 58.1377 15.175 57.3126C19.1165 53.3544 23.0597 49.3984 27.0046 45.4446C27.4889 44.9569 28.0067 44.8684 28.648 45.0237C36.1086 46.8191 43.3203 42.3331 45.0288 34.8358C45.346 33.4934 45.4301 32.1065 45.2777 30.7356C45.1624 29.7335 45.4814 29.2776 46.4701 29.017C51.4906 27.6932 56.5116 26.3715 61.5332 25.0521C62.7858 24.7181 63.2685 25.0955 63.509 26.5402C64.6864 33.5932 63.7729 40.3707 60.4159 46.6772C55.3102 56.2655 47.3436 61.9924 36.5979 63.7644C35.8547 63.888 35.0948 63.8446 34.3666 64.0985L29.4931 64.1102ZM17.9491 58.0726C18.1645 58.1912 18.3232 58.2864 18.4868 58.3682C24.8434 61.5415 31.4923 62.4049 38.4334 60.8634C53.2376 57.5749 63.2134 43.2734 61.2459 28.1853C61.1942 27.7945 61.0789 27.7661 60.7449 27.8513C56.5896 28.9569 52.4315 30.0486 48.2706 31.1264C47.8814 31.225 47.843 31.4003 47.853 31.726C47.8817 32.8321 47.7825 33.9379 47.5574 35.0212C45.747 43.7928 37.6668 49.2275 28.8317 47.6141C28.7137 47.5838 28.5894 47.5871 28.4731 47.6237C28.3568 47.6603 28.2531 47.7287 28.1737 47.8212C24.7866 51.225 21.3996 54.6154 17.9491 58.0726Z" fill="#0068E5"/>
<path d="M29.3679 0C30.0109 0.434238 30.1712 1.04218 30.1679 1.80209C30.1412 6.91274 30.1545 12.0234 30.1528 17.134C30.1528 18.3382 29.9274 18.5987 28.77 18.9144C23.5691 20.3324 20.2522 23.6476 18.8677 28.8718C18.5837 29.944 18.2814 30.2079 17.1808 30.2079C12.0384 30.2079 6.89439 30.1963 1.75201 30.223C1.00546 30.223 0.415897 30.056 3.05176e-05 29.4263V27.9232C0.197108 27.8614 0.126961 27.6844 0.145332 27.5558C0.746585 23.4572 2.0042 19.5758 4.11193 16.005C8.89968 7.89813 15.8759 2.76355 25.0405 0.601269C26.0209 0.370789 27.0447 0.33904 27.9933 0H29.3679ZM9.6184 27.7027C11.7211 27.7027 13.8238 27.6827 15.9249 27.7178C16.4259 27.7178 16.6113 27.5641 16.7733 27.0898C18.5203 21.9624 21.9508 18.5119 27.0931 16.7917C27.519 16.6497 27.666 16.4827 27.6643 16.0251C27.6443 11.833 27.6526 7.64259 27.6526 3.45053C27.6526 2.64719 27.6526 2.64386 26.8309 2.79584C19.1605 4.23106 12.9603 8.05791 8.23049 14.2764C5.36619 18.0593 3.59083 22.3265 2.76077 26.9979C2.66056 27.5591 2.7708 27.7294 3.37539 27.7178C5.45639 27.6777 7.53739 27.7027 9.6184 27.7027Z" fill="#0068E5"/>
<path d="M34.8777 9.39126C34.8777 6.88604 34.891 4.38082 34.8777 1.8756C34.8777 1.33615 34.9979 1.23593 35.5457 1.30441C37.6259 1.55345 39.6756 2.01228 41.6635 2.67392C44.9056 3.75441 47.9426 5.37316 50.6472 7.46223C54.5049 10.433 57.6141 14.2651 59.7261 18.6522C59.99 19.1917 60.5144 19.8213 60.339 20.2973C60.1637 20.7733 59.3219 20.6831 58.7708 20.8301C54.582 21.9435 50.3911 23.0503 46.1979 24.1503C45.6969 24.2806 45.1591 24.5729 44.6948 24.4844C44.2305 24.3959 44.0885 23.7027 43.7779 23.2952C41.6317 20.4911 38.8894 18.5737 35.4489 17.722C34.9929 17.6084 34.8576 17.4196 34.861 16.9637C34.8877 14.4384 34.8777 11.9149 34.8777 9.39126Z" fill="#E2ECF8"/>
<path d="M9.45136 34.9461C11.9081 34.9461 14.3633 34.9611 16.8184 34.936C17.3361 34.936 17.585 35.0563 17.7136 35.6041C18.3098 38.1344 19.5858 40.3022 21.3328 42.2028C21.5643 42.4418 21.8145 42.6618 22.081 42.8609C22.4234 43.1314 22.4234 43.3619 22.0994 43.6676C21.4313 44.2972 20.7983 44.9586 20.152 45.6083C17.2804 48.4832 14.4128 51.3602 11.5491 54.2396C11.215 54.5853 10.9946 54.6655 10.5987 54.2797C5.72526 49.5481 2.74907 43.8179 1.52485 37.1473C1.43633 36.6596 1.4714 36.1452 1.33111 35.6692C1.13403 35.0112 1.40126 34.9394 1.95908 34.9444C4.45261 34.9594 6.94614 34.9461 9.45136 34.9461Z" fill="#E2ECF8"/>
<path d="M31.9248 36.4327C29.9908 36.4327 28.0551 36.446 26.1211 36.4327C25.0906 36.4327 24.466 35.5058 24.8852 34.649C24.9831 34.4281 25.1453 34.2419 25.3505 34.1144C25.5557 33.9869 25.7945 33.9241 26.0359 33.9341C30.0092 33.9341 33.9825 33.9341 37.9557 33.9341C38.1229 33.9303 38.289 33.9602 38.4443 34.0221C38.5996 34.084 38.7408 34.1766 38.8594 34.2943C38.9781 34.412 39.0718 34.5525 39.1349 34.7073C39.198 34.862 39.2292 35.028 39.2267 35.1951C39.2224 35.3623 39.185 35.527 39.1166 35.6796C39.0482 35.8323 38.9502 35.9698 38.8282 36.0843C38.7063 36.1988 38.5628 36.2879 38.4062 36.3466C38.2495 36.4053 38.0828 36.4323 37.9157 36.426C35.9182 36.4427 33.9223 36.4327 31.9248 36.4327Z" fill="#0068E5"/>
<path d="M31.9733 30.183C30.0593 30.183 28.1453 30.183 26.2313 30.183C25.3345 30.183 24.7566 29.6819 24.7566 28.9321C24.7566 28.1822 25.3495 27.6811 26.238 27.6794C30.066 27.6794 33.8934 27.6794 37.7203 27.6794C38.6272 27.6794 39.2067 28.1604 39.2234 28.9053C39.2401 29.6502 38.6472 30.1813 37.7102 30.183C35.7951 30.1852 33.8828 30.1852 31.9733 30.183Z" fill="#0068E5"/>
</g>
<defs>
<clipPath id="clip0_996_5504">
<rect width="64" height="64.1086" fill="white"/>
</clipPath>
</defs>
</svg>
