<svg width="64" height="59" viewBox="0 0 64 59" fill="none" xmlns="http://www.w3.org/2000/svg">
<g clip-path="url(#clip0_996_17091)">
<path d="M63.9983 58.1082C63.6241 58.7764 63.0645 59.0036 62.301 58.9919C59.8872 58.9568 57.4716 58.9819 55.0561 58.9785C53.9068 58.9785 53.4858 58.5509 53.4858 57.3865C53.4858 46.7288 53.4858 36.0705 53.4858 25.4116C53.4858 24.2422 53.8918 23.853 55.0745 23.853C57.5101 23.853 59.9456 23.8731 62.3812 23.8397C63.1329 23.8296 63.6658 24.0668 63.9983 24.7367V58.1082ZM55.9799 41.4233C55.9799 46.2343 55.9899 51.047 55.9665 55.858C55.9665 56.3959 56.1169 56.5045 56.6214 56.4912C58.058 56.4566 59.4952 56.4566 60.9329 56.4912C61.4174 56.5028 61.5076 56.3558 61.5042 55.9031C61.4825 52.9664 61.4925 50.028 61.4925 47.0913C61.4925 40.3842 61.4925 33.6772 61.5076 26.9702C61.5076 26.4323 61.3589 26.3254 60.8544 26.3387C59.4178 26.3732 57.9806 26.3732 56.5429 26.3387C56.0634 26.3254 55.9682 26.4673 55.9699 26.9234C55.9983 31.7578 55.9849 36.5905 55.9849 41.4233H55.9799Z" fill="#E2ECF8"/>
<path d="M50.6244 43.3059C50.6244 48.3057 50.6144 53.3055 50.6378 58.3036C50.6378 58.8599 50.4891 59.0002 49.9411 58.9952C46.8986 58.9684 43.8572 58.9684 40.8169 58.9952C40.289 58.9952 40.1053 58.8933 40.1069 58.3169C40.1259 48.294 40.1259 38.2749 40.1069 28.2597C40.1069 27.7352 40.2573 27.5915 40.7751 27.6016C43.8372 27.6249 46.9008 27.63 49.9629 27.6016C50.5425 27.6016 50.6394 27.792 50.6311 28.3149C50.616 33.308 50.6244 38.3078 50.6244 43.3059Z" fill="#0068E5"/>
<path d="M26.317 26.4189C18.6327 22.7438 16.3993 14.0389 19.6618 7.61247C21.2067 4.55252 23.8317 2.17437 27.0289 0.938203C30.2261 -0.297967 33.7682 -0.30428 36.9697 0.920472C43.2942 3.35438 47.7996 10.7446 44.8578 18.9117L54.3629 15.0696C54.1825 14.814 53.8885 14.7939 53.6613 14.6569C53.055 14.2944 52.8261 13.668 53.0884 13.06C53.1454 12.9135 53.231 12.7798 53.3403 12.6667C53.4495 12.5535 53.5801 12.4633 53.7245 12.4011C53.8689 12.3389 54.0242 12.3061 54.1814 12.3045C54.3386 12.3029 54.4946 12.3325 54.6402 12.3918C55.8653 12.8951 57.0792 13.4369 58.2819 14.0171C58.8816 14.3078 59.0604 14.9677 58.7831 15.6359C58.312 16.7495 57.8237 17.8509 57.3181 18.9401C56.984 19.6835 56.2924 19.9558 55.6292 19.6551C54.9927 19.3661 54.7538 18.7112 55.0144 17.9746C55.0612 17.8426 55.1815 17.7273 55.0896 17.5102C54.9226 17.572 54.7338 17.6288 54.5551 17.7006C50.7686 19.2352 46.976 20.7687 43.1773 22.3011C42.8719 22.427 42.6001 22.6227 42.3838 22.8724C39.2583 26.3153 35.3811 27.899 30.7305 27.5248C30.4437 27.508 30.1572 27.5607 29.8952 27.6785C21.8702 30.9292 13.844 34.1783 5.81669 37.4258C5.51811 37.5762 5.1848 37.6443 4.85114 37.6229C4.58172 37.583 4.33235 37.4572 4.14006 37.2643C3.94777 37.0714 3.82281 36.8217 3.78371 36.5521C3.7052 36.0009 4.00755 35.4747 4.60893 35.2258C6.241 34.5576 7.87976 33.8977 9.51684 33.2345L26.317 26.4189ZM43.2876 13.7966C43.2872 10.8065 42.1019 7.93842 39.9913 5.82033C37.8807 3.70225 35.0169 2.5068 32.0268 2.49575C30.541 2.49377 29.0695 2.78478 27.6963 3.35213C26.3232 3.91948 25.0754 4.75204 24.0243 5.80215C22.9733 6.85227 22.1396 8.09932 21.5711 9.47197C21.0025 10.8446 20.7102 12.3159 20.7108 13.8017C20.7113 15.2873 21.0045 16.7582 21.5739 18.1304C22.1432 19.5026 22.9774 20.7492 24.0289 21.7987C25.0803 22.8483 26.3283 23.6803 27.7015 24.2472C29.0747 24.8141 30.5462 25.1047 32.0318 25.1026C35.0217 25.0897 37.8848 23.8929 39.9944 21.7739C42.1039 19.655 43.288 16.7866 43.2876 13.7966Z" fill="#E2ECF8"/>
<path d="M13.3742 48.3173C13.3742 44.9864 13.3909 41.6537 13.3609 38.3228C13.3609 37.7298 13.5413 37.6028 14.0976 37.6078C17.1379 37.6334 20.1782 37.6334 23.2185 37.6078C23.7196 37.6078 23.8867 37.7281 23.8867 38.261C23.8688 44.9641 23.8688 51.6684 23.8867 58.3737C23.8867 58.8882 23.7196 58.9918 23.2452 58.9901C20.1631 58.9718 17.081 58.9668 13.999 58.9901C13.4477 58.9901 13.3592 58.7964 13.3609 58.3069C13.3842 54.9793 13.3742 51.6483 13.3742 48.3173Z" fill="#0068E5"/>
<path d="M26.7429 45.8033C26.7429 41.9311 26.7429 38.0595 26.7429 34.1884C26.7429 33.0725 27.1805 32.6231 28.2797 32.6215C30.7576 32.6215 33.235 32.6215 35.7118 32.6215C36.811 32.6215 37.2536 33.0725 37.2536 34.185C37.2536 41.9283 37.2536 49.6716 37.2536 57.4149C37.2536 58.5292 36.8143 58.9769 35.7151 58.9785C33.2383 58.9785 30.7615 58.9785 28.2847 58.9785C27.1822 58.9785 26.7429 58.5308 26.7429 57.4183C26.7407 53.5461 26.7407 49.6744 26.7429 45.8033ZM29.2486 45.7315C29.2486 49.1443 29.2486 52.5571 29.2486 55.97C29.2486 56.3692 29.3388 56.4978 29.7498 56.4895C31.2532 56.4628 32.7466 56.4661 34.2434 56.4895C34.6326 56.4895 34.7713 56.4143 34.7696 55.9883C34.7563 49.205 34.7563 42.4211 34.7696 35.6367C34.7696 35.2408 34.6828 35.1055 34.2685 35.1138C32.8118 35.1406 31.3535 35.1489 29.8984 35.1138C29.3973 35.1005 29.2302 35.2141 29.2436 35.7486C29.257 39.0729 29.2436 42.4022 29.2436 45.7315H29.2486Z" fill="#E2ECF8"/>
<path d="M10.5139 50.8515C10.5139 53.0377 10.5139 55.2243 10.5139 57.4116C10.5139 58.5341 10.0812 58.9768 8.98205 58.9785C6.50303 58.9785 4.02457 58.9785 1.54667 58.9785C0.444146 58.9785 0.00313534 58.5275 0.00146484 57.4149C0.00146484 53.0215 0.00146484 48.6275 0.00146484 44.233C0.00146484 43.1171 0.434118 42.6694 1.54166 42.6661C4.02067 42.6572 6.49913 42.6572 8.97703 42.6661C10.0946 42.6661 10.5139 43.1038 10.5139 44.228C10.5161 46.4364 10.5161 48.6443 10.5139 50.8515ZM2.4955 50.7964C2.4955 52.5237 2.50888 54.251 2.48549 55.9749C2.48549 56.3875 2.59908 56.4911 3.00334 56.4861C4.5001 56.4616 5.99798 56.4616 7.49697 56.4861C7.89956 56.4861 8.01984 56.3926 8.01817 55.9766C8.00035 52.5421 8.00035 49.1081 8.01817 45.6747C8.01817 45.2621 7.90625 45.1468 7.49697 45.1535C5.9991 45.1769 4.50066 45.1769 3.00167 45.1535C2.59073 45.1535 2.48048 45.2654 2.48549 45.6747C2.51389 47.3886 2.50052 49.0892 2.50052 50.7964H2.4955Z" fill="#E2ECF8"/>
<path d="M30.6919 17.5736C31.1279 17.5736 31.5672 17.6003 32.0015 17.5736C32.7399 17.5168 33.236 17.0106 33.251 16.3441C33.2661 15.6776 32.8184 15.1347 32.0617 15.0762C30.9825 14.9943 30.0303 14.6736 29.2719 13.8718C28.8715 13.4537 28.574 12.948 28.4033 12.3948C28.2326 11.8416 28.1933 11.2562 28.2885 10.6852C28.3837 10.1141 28.6108 9.57315 28.9517 9.10527C29.2927 8.63739 29.7381 8.2555 30.2525 7.98996C30.6601 7.78115 30.7921 7.55729 30.7537 7.13967C30.7278 6.82838 30.7278 6.51549 30.7537 6.2042C30.7751 5.88985 30.9126 5.59469 31.1395 5.37611C31.3665 5.15752 31.6665 5.03112 31.9815 5.02148C32.2968 5.02421 32.5999 5.14372 32.8322 5.35692C33.0646 5.57012 33.2096 5.86187 33.2394 6.17579C33.2878 6.60678 33.0573 7.16305 33.3329 7.43869C33.6085 7.71432 34.1681 7.47878 34.5925 7.53725C35.3074 7.63414 35.7819 8.17538 35.7468 8.85026C35.7117 9.52514 35.2139 9.99956 34.4588 10.0196C33.7322 10.0396 33.0021 10.0196 32.2738 10.0196C31.3484 10.028 30.7804 10.479 30.7453 11.224C30.7102 11.9691 31.198 12.5153 32.1468 12.5471C34.8347 12.6389 36.7173 15.6308 35.2389 18.1967C34.8879 18.8434 34.3337 19.3564 33.662 19.6567C33.3079 19.8087 33.2126 20.0158 33.241 20.3666C33.2602 20.6782 33.2602 20.9906 33.241 21.3021C33.2059 22.0455 32.6614 22.5917 31.9781 22.5817C31.2949 22.5717 30.7988 22.0371 30.7436 21.3322C30.7119 20.9246 30.9341 20.3834 30.6401 20.1428C30.3978 19.9457 29.8817 20.1027 29.4891 20.071C28.724 20.0075 28.2229 19.4779 28.2412 18.7797C28.2596 18.0814 28.7741 17.6103 29.5626 17.5819C29.9368 17.5719 30.311 17.5819 30.6868 17.5819L30.6919 17.5736Z" fill="#0068E5"/>
</g>
<defs>
<clipPath id="clip0_996_17091">
<rect width="64" height="58.9952" fill="white"/>
</clipPath>
</defs>
</svg>
