<svg width="56" height="64" viewBox="0 0 56 64" fill="none" xmlns="http://www.w3.org/2000/svg">
<g clip-path="url(#clip0_996_11150)">
<path d="M53.7966 12.2424H52.7481C52.8028 12.6863 52.83 13.1332 52.8296 13.5805C52.8294 14.1107 52.7912 14.6401 52.7156 15.1649C52.7191 15.2353 52.7136 15.3059 52.6993 15.3749C52.3665 17.3452 51.4975 19.1858 50.1878 20.6948C50.1335 20.7618 50.0755 20.8252 50.0067 20.8904C49.9379 20.9556 49.8908 21.0171 49.8256 21.0805C49.7605 21.1439 49.7061 21.2054 49.6446 21.2616C49.583 21.3177 49.5214 21.3847 49.4635 21.4426C49.4056 21.5006 49.3386 21.5621 49.2734 21.6237C49.2082 21.6853 49.1448 21.7414 49.0778 21.8048C49.0108 21.8682 48.9239 21.9406 48.8442 22.0058C48.8138 22.0319 48.7817 22.0561 48.7483 22.0782C46.8245 23.6195 44.4321 24.4576 41.9671 24.4539C40.5404 24.4539 39.1276 24.1729 37.8095 23.6269C36.4914 23.0809 35.2937 22.2806 34.2849 21.2718C33.276 20.2629 32.4757 19.0653 31.9298 17.7471C31.3838 16.429 31.1028 15.0163 31.1028 13.5895C31.1028 10.7081 32.2474 7.94475 34.2849 5.90729C36.3223 3.86983 39.0857 2.7252 41.9671 2.7252C42.4351 2.72537 42.9026 2.755 43.3668 2.81392C43.3668 2.44091 43.3668 2.06609 43.3668 1.69308C43.3668 0.543275 42.8544 0.0235974 41.7009 0.0742976C36.9532 0.28072 33.2593 2.36426 30.6193 6.32491C30.5264 6.49544 30.3863 6.63553 30.2157 6.72836C30.0452 6.82119 29.8514 6.86281 29.6578 6.84822C20.3785 6.83373 11.0991 6.8301 1.81976 6.83735C0.432742 6.83735 0.0090332 7.26287 0.0090332 8.66437V62.1567C0.0090332 63.5872 0.425503 64.0001 1.86865 64.0001H41.4909C42.9684 64.0001 43.3668 63.5981 43.3668 62.1042C43.3668 50.6568 43.3626 39.2101 43.3541 27.7639C43.3541 27.2369 43.4591 27.0577 44.0241 26.9816C50.3616 26.1396 55.4316 20.4395 55.5548 14.0531C55.5729 12.7113 55.122 12.2424 53.7966 12.2424ZM39.9192 61.3129C27.7523 61.296 15.5861 61.296 3.42043 61.3129C2.81384 61.3129 2.69614 61.1608 2.69614 60.5778C2.71425 43.8069 2.71425 27.0348 2.69614 10.2614C2.69614 9.68561 2.80478 9.52084 3.42043 9.52265C11.728 9.54559 20.035 9.54559 28.3414 9.52265C28.9987 9.52265 29.0657 9.66026 28.8846 10.256C28.5333 11.3424 28.4537 12.4651 28.4247 13.5968C28.6275 18.4785 30.7467 22.2973 34.7822 25.0532C35.3562 25.4443 35.9917 25.7431 36.5929 26.0835C37.8006 26.5181 39.0084 26.949 40.3049 27.0341C40.5565 27.0504 40.6761 27.1518 40.6525 27.4108C40.6398 27.5448 40.6525 27.6824 40.6525 27.8164C40.6525 38.7423 40.6579 49.667 40.6688 60.5905C40.6652 61.2115 40.4841 61.3039 39.9192 61.3039V61.3129Z" fill="#0068E5"/>
<path d="M28.4156 13.5912C28.6184 18.473 30.7375 22.2918 34.773 25.0477C35.347 25.4388 35.9826 25.7376 36.5838 26.078C36.5838 36.1951 36.5868 46.3116 36.5928 56.4275C36.5928 57.0921 36.4117 57.2423 35.7653 57.2405C26.3713 57.2188 16.9778 57.2188 7.58502 57.2405C6.94584 57.2405 6.75391 57.1011 6.75391 56.4311C6.77563 42.4282 6.77563 28.4253 6.75391 14.4224C6.75391 13.7252 6.93498 13.5713 7.61581 13.5731C14.5527 13.6039 21.4841 13.5931 28.4156 13.5912ZM16.3942 18.8423C15.6319 18.8423 15.0506 19.353 15.0706 20.1587C15.0832 20.7581 14.8478 21.0478 14.3843 21.3828C12.1372 23.0124 12.4794 26.5796 14.9728 27.8036C15.478 28.0517 16.0157 28.2327 16.5227 28.4736C17.1402 28.7687 17.3593 29.2902 17.1438 29.8588C16.9284 30.4273 16.3544 30.7008 15.6953 30.4943C15.4381 30.4129 15.1973 30.2807 14.9402 30.201C14.6268 30.0961 14.2858 30.1105 13.9824 30.2415C13.679 30.3725 13.4346 30.6108 13.296 30.9108C13.1495 31.2209 13.1281 31.5756 13.2363 31.901C13.3446 32.2265 13.5742 32.4977 13.8773 32.6582C14.0692 32.7778 14.2771 32.8699 14.4947 32.9316C14.9022 33.0312 15.0579 33.2358 15.0561 33.6812C15.0561 34.4055 15.4671 34.8872 16.0737 35.0139C16.999 35.2058 17.7033 34.6337 17.7468 33.6541C17.7631 33.2919 17.6907 32.9569 18.1397 32.6907C19.4435 31.9158 19.9994 30.6827 19.8889 29.1997C19.7784 27.7167 19.0578 26.6502 17.6997 26.0309C17.209 25.8064 16.6966 25.6253 16.2131 25.3845C15.961 25.2754 15.7614 25.0723 15.6566 24.8184C15.5518 24.5645 15.5501 24.2798 15.6518 24.0246C15.7478 23.7681 15.9371 23.5573 16.1819 23.4344C16.4266 23.3116 16.7088 23.2856 16.9718 23.3619C17.2326 23.4253 17.4752 23.5538 17.7305 23.6426C18.5308 23.9178 19.2153 23.6335 19.5141 22.9074C19.8128 22.1813 19.5358 21.5494 18.7898 21.1709C18.6524 21.094 18.5066 21.0333 18.3552 20.9899C17.9098 20.8776 17.7142 20.6603 17.7214 20.1479C17.7396 19.3385 17.1656 18.8369 16.3942 18.8405V18.8423ZM21.6978 38.4651C18.5852 38.4651 15.4725 38.4651 12.3599 38.4651C11.4545 38.4651 10.8751 38.9866 10.8443 39.7598C10.8135 40.533 11.3875 41.116 12.3219 41.1776C12.4577 41.1776 12.5935 41.1776 12.7275 41.1776C18.7053 41.1776 24.6807 41.1776 30.6536 41.1776C30.9239 41.1829 31.194 41.1598 31.4594 41.1088C31.6482 41.0719 31.8264 40.9935 31.9812 40.8793C32.136 40.7652 32.2636 40.6181 32.3547 40.4487C32.4458 40.2793 32.4982 40.0918 32.5081 39.8997C32.5179 39.7077 32.4851 39.5158 32.4118 39.3379C32.1348 38.5919 31.5246 38.4579 30.8275 38.4579C27.7866 38.4627 24.7434 38.4645 21.6978 38.4633V38.4651ZM21.6725 43.8828H12.742C11.4907 43.8828 10.8606 44.3246 10.8425 45.2083C10.8244 46.0919 11.4889 46.6043 12.7528 46.6043C18.7065 46.6043 24.6601 46.6043 30.6138 46.6043C30.9066 46.6115 31.1992 46.5866 31.4866 46.5301C31.6631 46.4916 31.8296 46.4168 31.9757 46.3104C32.1218 46.2041 32.2442 46.0686 32.3351 45.9125C32.426 45.7563 32.4834 45.583 32.5038 45.4035C32.5242 45.224 32.5071 45.0422 32.4535 44.8697C32.2579 44.1943 31.7908 43.8919 30.8745 43.8901C27.8072 43.8792 24.7398 43.8762 21.6725 43.881V43.8828ZM21.6725 49.3023H12.7401C11.4853 49.3023 10.857 49.7387 10.8335 50.6205C10.8099 51.5023 11.4763 52.0238 12.7365 52.0238C18.6902 52.0238 24.6439 52.0238 30.5975 52.0238C30.9124 52.031 31.227 52.0025 31.5355 51.9387C31.8226 51.8648 32.0753 51.6939 32.2508 51.455C32.4264 51.2161 32.514 50.9238 32.4988 50.6278C32.5023 50.3307 32.4023 50.0418 32.2159 49.8105C32.0296 49.5792 31.7685 49.42 31.4775 49.3603C31.1884 49.3138 30.8956 49.2944 30.6029 49.3023C27.6321 49.2987 24.6583 49.2981 21.6815 49.3005L21.6725 49.3023ZM28.1911 26.9471C27.2676 26.9471 26.3441 26.9363 25.4206 26.9471C24.4465 26.9634 23.8797 27.4469 23.8544 28.2527C23.829 29.0584 24.4084 29.6451 25.3989 29.6578C27.2676 29.6807 29.1387 29.6807 31.0122 29.6578C31.9429 29.6451 32.5314 29.0675 32.5187 28.2762C32.506 27.4849 31.9085 26.9634 30.9651 26.9489C30.0217 26.9345 29.1145 26.9453 28.1929 26.9453L28.1911 26.9471ZM28.1367 35.0429V35.061C29.1725 35.061 30.21 35.1026 31.2421 35.0465C31.4177 35.0432 31.5909 35.0043 31.7509 34.932C31.911 34.8597 32.0547 34.7556 32.1733 34.626C32.2919 34.4965 32.3828 34.3441 32.4406 34.1782C32.4985 34.0124 32.5219 33.8365 32.5096 33.6613C32.5006 33.3195 32.3575 32.9949 32.1112 32.7578C31.8649 32.5206 31.5351 32.3899 31.1932 32.3938C29.1888 32.3648 27.1861 32.3793 25.1816 32.3938C24.943 32.3864 24.7071 32.4465 24.5011 32.5673C24.2951 32.688 24.1274 32.8645 24.0173 33.0764C23.9048 33.2665 23.8425 33.4821 23.8362 33.7029C23.83 33.9237 23.88 34.1424 23.9816 34.3386C24.0832 34.5347 24.233 34.7017 24.417 34.824C24.6009 34.9463 24.813 35.0197 25.0331 35.0374C26.0634 35.1153 27.1028 35.0411 28.1385 35.0411L28.1367 35.0429Z" fill="#E2ECF8"/>
<path d="M16.3943 18.8406C17.1657 18.8406 17.7397 19.3385 17.7325 20.1407C17.7325 20.6531 17.9135 20.865 18.3662 20.9827C18.5176 21.0261 18.6634 21.0868 18.8008 21.1637C19.5414 21.5422 19.8094 22.1958 19.5251 22.9002C19.2408 23.6046 18.5419 23.9106 17.7415 23.6354C17.4862 23.5466 17.2436 23.4181 16.9828 23.3547C16.7198 23.2785 16.4376 23.3044 16.1929 23.4273C15.9481 23.5501 15.7588 23.7609 15.6628 24.0174C15.5611 24.2726 15.5628 24.5573 15.6676 24.8112C15.7724 25.0651 15.972 25.2682 16.2241 25.3773C16.7076 25.6181 17.22 25.7992 17.7107 26.0237C19.0688 26.643 19.7931 27.7367 19.8999 29.1925C20.0067 30.6483 19.4544 31.9086 18.1507 32.6836C17.7017 32.9497 17.7741 33.2811 17.7578 33.6469C17.7162 34.6265 17.01 35.1986 16.0847 35.0067C15.4781 34.88 15.0653 34.3983 15.0671 33.674C15.0671 33.2286 14.9132 33.024 14.5057 32.9244C14.2881 32.8627 14.0803 32.7706 13.8883 32.651C13.5852 32.4905 13.3556 32.2193 13.2473 31.8938C13.1391 31.5684 13.1605 31.2137 13.307 30.9036C13.4456 30.6036 13.69 30.3653 13.9934 30.2343C14.2968 30.1033 14.6378 30.0889 14.9512 30.1938C15.2083 30.2735 15.4491 30.4057 15.7063 30.4871C16.3599 30.6936 16.9267 30.4383 17.1548 29.8516C17.383 29.2649 17.1548 28.7651 16.5338 28.4664C16.0268 28.2256 15.489 28.0445 14.9838 27.7964C12.4904 26.5724 12.1482 23.0034 14.3953 21.3756C14.8588 21.0406 15.0942 20.7509 15.0816 20.1515C15.0598 19.3512 15.632 18.8442 16.3943 18.8406Z" fill="#0068E5"/>
<path d="M21.6978 38.4615C24.7411 38.4615 27.7855 38.4615 30.8311 38.4615C31.5282 38.4615 32.1385 38.5955 32.4155 39.3415C32.4887 39.5194 32.5216 39.7113 32.5117 39.9034C32.5018 40.0954 32.4494 40.2829 32.3583 40.4523C32.2672 40.6217 32.1397 40.7688 31.9849 40.883C31.83 40.9971 31.6518 41.0755 31.4631 41.1124C31.1976 41.1635 30.9275 41.1865 30.6573 41.1812C24.6795 41.1812 18.7041 41.1812 12.7311 41.1812C12.5971 41.1812 12.4613 41.1812 12.3255 41.1812C11.3984 41.1197 10.8154 40.5601 10.848 39.7634C10.8806 38.9667 11.4546 38.4724 12.3636 38.4688C15.4726 38.4561 18.5852 38.4633 21.6978 38.4615Z" fill="#0068E5"/>
<path d="M21.6726 43.881C24.74 43.881 27.8073 43.881 30.8747 43.881C31.7909 43.881 32.2581 44.1852 32.4536 44.8606C32.5072 45.0332 32.5244 45.2149 32.504 45.3945C32.4836 45.574 32.4261 45.7473 32.3352 45.9034C32.2443 46.0595 32.1219 46.1951 31.9759 46.3014C31.8298 46.4077 31.6632 46.4825 31.4867 46.5211C31.1994 46.5776 30.9067 46.6025 30.6139 46.5953C24.6603 46.5953 18.7066 46.5953 12.753 46.5953C11.4855 46.5953 10.8245 46.1064 10.8426 45.1992C10.8608 44.2921 11.4909 43.8756 12.7421 43.8738L21.6726 43.881Z" fill="#0068E5"/>
<path d="M21.6816 49.3006C24.6585 49.3006 27.6353 49.3006 30.6121 49.3006C30.9048 49.2926 31.1976 49.312 31.4867 49.3585C31.7777 49.4182 32.0388 49.5774 32.2251 49.8087C32.4115 50.04 32.5115 50.329 32.508 50.626C32.5232 50.9221 32.4356 51.2143 32.26 51.4532C32.0845 51.6921 31.8318 51.863 31.5447 51.937C31.2362 52.0007 30.9216 52.0293 30.6067 52.0221C24.653 52.0221 18.6994 52.0221 12.7457 52.0221C11.4782 52.0221 10.8191 51.5259 10.8427 50.6188C10.8662 49.7116 11.4945 49.3024 12.7493 49.3006H21.6816Z" fill="#0068E5"/>
<path d="M28.1929 26.9454C29.1145 26.9454 30.038 26.9345 30.9615 26.9454C31.8849 26.9562 32.5006 27.4795 32.5151 28.2726C32.5296 29.0657 31.9392 29.6415 31.0085 29.6542C29.1399 29.6795 27.2688 29.6795 25.3953 29.6542C24.4048 29.6415 23.8236 29.0784 23.8508 28.2491C23.8779 27.4198 24.4429 26.9598 25.417 26.9435C26.3459 26.9345 27.2694 26.9454 28.1929 26.9454Z" fill="#0068E5"/>
<path d="M28.1386 35.0411C27.1028 35.0411 26.0635 35.1063 25.0368 35.0212C24.8166 35.0035 24.6046 34.93 24.4206 34.8077C24.2367 34.6855 24.0869 34.5184 23.9853 34.3223C23.8837 34.1262 23.8336 33.9074 23.8399 33.6866C23.8461 33.4658 23.9085 33.2502 24.021 33.0602C24.1311 32.8483 24.2987 32.6718 24.5047 32.551C24.7107 32.4302 24.9466 32.3701 25.1853 32.3775C27.1898 32.3685 29.1924 32.354 31.1969 32.3775C31.5388 32.3736 31.8685 32.5043 32.1148 32.7415C32.3611 32.9787 32.5043 33.3032 32.5133 33.645C32.5256 33.8202 32.5021 33.9961 32.4443 34.162C32.3865 34.3278 32.2955 34.4802 32.177 34.6098C32.0584 34.7394 31.9147 34.8435 31.7546 34.9157C31.5945 34.988 31.4214 35.027 31.2458 35.0302C30.2137 35.0864 29.1761 35.0447 28.1404 35.0447L28.1386 35.0411Z" fill="#0068E5"/>
<path d="M33.0891 13.3541C33.1706 8.31124 37.1198 4.43267 42.0468 4.44897C43.2201 4.44291 44.3828 4.67028 45.4674 5.11786C46.552 5.56544 47.5367 6.22428 48.3643 7.05603C49.1918 7.88779 49.8457 8.87585 50.2877 9.96269C50.7298 11.0495 50.9513 12.2135 50.9392 13.3867C50.9467 14.5613 50.7203 15.7256 50.2732 16.8118C49.8261 17.898 49.1671 18.8843 48.3349 19.7132C47.5026 20.5421 46.5137 21.197 45.4257 21.6397C44.3377 22.0824 43.1724 22.3041 41.9979 22.2918C37.0039 22.2592 33.1489 18.3101 33.0891 13.3541ZM42.5049 9.37051V7.25378C42.5135 7.14747 42.4858 7.04138 42.4262 6.95289C42.3667 6.8644 42.2789 6.79875 42.1771 6.76669C42.0817 6.72951 41.9767 6.72498 41.8784 6.75381C41.7801 6.78263 41.6941 6.8432 41.6339 6.92604C41.5516 7.0477 41.515 7.19461 41.5307 7.34069C41.5307 8.70779 41.5307 10.0749 41.5307 11.442C41.5423 11.5033 41.5299 11.5667 41.4963 11.6192C41.4626 11.6717 41.4102 11.7094 41.3496 11.7245C40.9778 11.8707 40.6672 12.1397 40.4696 12.487C40.2719 12.8342 40.1991 13.2386 40.2632 13.633C40.3199 14.0071 40.495 14.3532 40.7629 14.6204C41.0308 14.8877 41.3773 15.062 41.7516 15.1177C42.1457 15.1811 42.5495 15.1079 42.8963 14.9103C43.243 14.7127 43.5119 14.4026 43.6583 14.0313C43.671 13.9738 43.7049 13.9233 43.7532 13.8897C43.8015 13.8561 43.8608 13.842 43.9191 13.8502C44.6433 13.8502 45.3676 13.8502 46.1028 13.8502C46.4794 13.8502 46.6913 13.6692 46.6876 13.3577C46.684 13.0463 46.4758 12.8797 46.1137 12.8779C45.3894 12.8779 44.6651 12.8779 43.9281 12.8779C43.868 12.887 43.8066 12.8736 43.7558 12.8401C43.7049 12.8067 43.6683 12.7557 43.6529 12.6968C43.5693 12.4766 43.4398 12.2767 43.2731 12.1103C43.1064 11.9439 42.9063 11.8149 42.686 11.7317C42.5176 11.6683 42.5049 11.5814 42.5049 11.4311C42.5121 10.7412 42.5085 10.0532 42.5085 9.36508L42.5049 9.37051Z" fill="#E2ECF8"/>
<path d="M42.5085 9.3651C42.5085 10.0532 42.5085 10.7412 42.5085 11.4293C42.5085 11.5796 42.5284 11.6665 42.6896 11.7299C42.9099 11.8131 43.11 11.9421 43.2767 12.1085C43.4434 12.2749 43.5729 12.4748 43.6565 12.695C43.6719 12.7539 43.7085 12.8049 43.7594 12.8384C43.8102 12.8718 43.8716 12.8852 43.9317 12.8761C44.656 12.867 45.3803 12.8761 46.1173 12.8761C46.4794 12.8761 46.6876 13.0572 46.6912 13.3559C46.6949 13.6547 46.483 13.8484 46.1064 13.8484C45.3821 13.8484 44.6578 13.8484 43.9227 13.8484C43.8644 13.8402 43.8051 13.8543 43.7568 13.8879C43.7084 13.9215 43.6746 13.972 43.6619 14.0295C43.5155 14.4008 43.2466 14.7109 42.8999 14.9085C42.5531 15.1061 42.1493 15.1793 41.7552 15.116C41.3809 15.0602 41.0344 14.8859 40.7665 14.6186C40.4986 14.3514 40.3235 14.0053 40.2668 13.6312C40.2027 13.2368 40.2755 12.8324 40.4732 12.4852C40.6708 12.1379 40.9814 11.8689 41.3532 11.7227C41.4138 11.7076 41.4662 11.6699 41.4999 11.6174C41.5335 11.5649 41.5459 11.5015 41.5343 11.4402C41.5343 10.0731 41.5343 8.706 41.5343 7.3389C41.5186 7.19283 41.5552 7.0459 41.6375 6.92424C41.6977 6.84141 41.7837 6.78085 41.882 6.75202C41.9803 6.72319 42.0853 6.72772 42.1807 6.7649C42.2825 6.79696 42.3703 6.86261 42.4298 6.9511C42.4894 7.03959 42.5171 7.14568 42.5085 7.25198V9.3651ZM42.025 14.1708C42.238 14.1679 42.4412 14.0814 42.591 13.93C42.7407 13.7786 42.8249 13.5743 42.8254 13.3614C42.8225 13.1487 42.7363 12.9457 42.5852 12.796C42.4342 12.6463 42.2304 12.562 42.0178 12.561C41.8048 12.5639 41.6015 12.6504 41.4518 12.8018C41.3021 12.9532 41.2179 13.1575 41.2174 13.3704C41.2203 13.583 41.3065 13.7861 41.4575 13.9357C41.6086 14.0854 41.8124 14.1698 42.025 14.1708Z" fill="#0068E5"/>
<path d="M42.0251 14.1708C41.8125 14.1698 41.6087 14.0854 41.4576 13.9358C41.3066 13.7861 41.2204 13.5831 41.2175 13.3704C41.218 13.1575 41.3022 12.9532 41.4519 12.8018C41.6016 12.6504 41.8049 12.5639 42.0179 12.561C42.2305 12.562 42.4343 12.6464 42.5853 12.796C42.7364 12.9457 42.8226 13.1487 42.8255 13.3614C42.825 13.5743 42.7408 13.7786 42.5911 13.93C42.4413 14.0814 42.238 14.1679 42.0251 14.1708Z" fill="#E2ECF8"/>
<path d="M42.0214 2.89716C44.8449 2.90051 47.5518 4.02377 49.5482 6.02048C51.5446 8.0172 52.6674 10.7243 52.6702 13.5478C52.6674 16.3712 51.5445 19.0781 49.5481 21.0745C47.5516 23.071 44.8447 24.1938 42.0214 24.1967C39.198 24.1938 36.4911 23.071 34.4947 21.0745C32.4982 19.0781 31.3754 16.3712 31.3725 13.5478C31.3754 10.7243 32.4982 8.0172 34.4946 6.02048C36.4909 4.02377 39.1978 2.90051 42.0214 2.89716ZM42.0214 0C40.2423 -1.58941e-08 38.4807 0.350438 36.8371 1.0313C35.1935 1.71217 33.7001 2.71012 32.4422 3.96817C31.1844 5.22623 30.1866 6.71975 29.506 8.36344C28.8253 10.0071 28.4751 11.7688 28.4753 13.5478C28.4753 17.1405 29.9025 20.5859 32.4429 23.1263C34.9833 25.6667 38.4287 27.0938 42.0214 27.0938C45.614 27.0938 49.0595 25.6667 51.5998 23.1263C54.1402 20.5859 55.5674 17.1405 55.5674 13.5478C55.5676 11.7688 55.2174 10.0071 54.5368 8.36344C53.8561 6.71975 52.8584 5.22623 51.6005 3.96817C50.3426 2.71012 48.8492 1.71217 47.2056 1.0313C45.562 0.350438 43.8004 -1.58941e-08 42.0214 0Z" fill="#0068E5"/>
</g>
<defs>
<clipPath id="clip0_996_11150">
<rect width="55.5675" height="64" fill="white"/>
</clipPath>
</defs>
</svg>
