<svg width="63" height="64" viewBox="0 0 63 64" fill="none" xmlns="http://www.w3.org/2000/svg">
<g clip-path="url(#clip0_996_28151)">
<path d="M14.7239 0.00830078C15.1281 0.225442 15.5908 0.188692 16.0184 0.307284C19.8601 1.37963 22.4909 3.7849 23.5448 7.64C24.5988 11.4951 23.5716 14.9076 20.7771 17.7738C20.6485 17.9075 20.5115 18.0327 20.3094 18.2282C20.8105 18.3067 21.2465 18.3384 21.6674 18.4453C24.5186 19.1702 26.1923 21.0026 26.7318 23.8855C25.8325 24.4693 24.9932 25.1407 24.2263 25.8899C24.1912 25.2218 24.3215 24.5537 24.1779 23.8972C23.7703 22.0265 22.1651 20.7821 20.119 20.7871C15.6448 20.7971 11.1705 20.8172 6.69631 20.8472C4.05887 20.8656 2.38187 22.6044 2.48376 25.2519C2.56894 27.4984 2.7293 29.7417 2.83118 31.9866C2.84789 32.3507 2.96648 32.4292 3.30389 32.4225C4.55329 32.3992 5.80937 32.4042 7.05042 32.4025L21.9731 32.3925L22.4591 34.8612C15.5674 34.8812 8.67563 34.9007 1.78389 34.9197C0.948731 34.9197 0.481038 34.5188 0.434269 33.6853C0.267237 30.6303 0.0300538 27.5736 -0.00168234 24.5169C-0.0350887 21.4101 2.71426 18.619 5.81605 18.3802C5.99978 18.3668 6.18352 18.3601 6.36892 18.3518C6.42404 18.1112 6.2236 18.0544 6.11837 17.9492C3.2187 15.0562 2.19145 11.592 3.31224 7.66338C4.4514 3.67299 7.20909 1.24434 11.2346 0.245483C11.5219 0.17366 11.8509 0.235468 12.0981 0.0116447L14.7239 0.00830078ZM13.2957 18.2966C17.7388 18.3284 21.3868 14.789 21.4352 10.3944C21.4837 6.11499 17.9359 2.54384 13.5847 2.50877C9.10992 2.46701 5.42853 6.01645 5.3851 10.4211C5.34334 14.7272 8.88943 18.2582 13.2957 18.2883V18.2966Z" fill="#0068E5"/>
<path d="M35.7432 23.7536C36.4113 20.8523 38.1802 19.0567 41.1033 18.4303C41.4223 18.3618 41.753 18.3535 42.0804 18.3167C42.1171 18.0812 41.9251 18.0211 41.8198 17.9159C38.9235 15.0162 37.9013 11.5453 39.0371 7.62335C40.1879 3.64297 42.9473 1.20931 46.9811 0.230505C47.23 0.170374 47.5223 0.230504 47.7211 0H50.4704C50.873 0.218812 51.334 0.185408 51.7616 0.305672C55.6033 1.38971 58.2307 3.79997 59.2697 7.66677C60.3019 11.5085 59.2847 14.9009 56.5069 17.7522C56.3125 17.9167 56.1059 18.0663 55.8889 18.1998C56.7241 18.3501 57.3371 18.3869 57.9301 18.574C60.7028 19.4459 62.5552 21.9146 62.4566 24.8193C62.3547 27.7941 62.1393 30.764 61.9555 33.7355C61.9121 34.4337 61.4394 34.8529 60.7278 34.9047C60.5207 34.9197 60.3119 34.9147 60.1032 34.9147H40.8043C40.5554 34.9147 40.3032 34.9281 40.0576 34.9364C40.2313 34.0823 40.4056 33.2282 40.5804 32.3742C40.8076 32.3875 41.0364 32.4109 41.2636 32.4109H51.0066C53.6713 32.4109 56.336 32.4109 59.0007 32.4109C59.3081 32.4109 59.5553 32.4326 59.577 31.9866C59.6939 29.5964 59.8793 27.2079 59.9595 24.8176C59.9874 24.2948 59.9078 23.7718 59.7256 23.281C59.5434 22.7901 59.2626 22.3419 58.9004 21.9638C58.5381 21.5858 58.1022 21.286 57.6196 21.0831C57.137 20.8801 56.6179 20.7783 56.0944 20.7838C51.4175 20.7604 46.7272 20.7922 42.0436 20.8506C40.2063 20.874 38.703 22.1635 38.2787 23.9323C38.1434 24.4886 38.2286 25.0515 38.2052 25.6027C38.1451 25.6027 38.0516 25.621 38.0282 25.591C37.4135 24.8043 36.5383 24.3282 35.7432 23.7536ZM49.0423 18.2883C53.4954 18.3034 57.1233 14.7506 57.1367 10.3593C57.1517 6.01649 53.629 2.50882 49.216 2.50047C44.803 2.49211 41.1216 6.07496 41.1083 10.4395C41.0949 14.774 44.631 18.2733 49.0423 18.2883Z" fill="#0068E5"/>
<path d="M35.7432 23.7535C36.5383 24.3281 37.4135 24.8042 38.0282 25.6043C38.0516 25.6343 38.1451 25.6043 38.2052 25.6159C38.2471 25.7337 38.3032 25.8459 38.3723 25.95C39.9942 27.7874 40.5771 29.9889 40.5804 32.3841C40.4067 33.2371 40.2325 34.0912 40.0576 34.9464C39.5565 35.9235 39.0655 36.8956 38.3355 37.7408C36.8921 39.4551 34.8647 40.5739 32.6447 40.881C32.6092 40.8852 32.5753 40.8983 32.5461 40.919C32.5169 40.9397 32.4934 40.9674 32.4777 40.9996C34.3836 40.9996 36.2894 40.9629 38.1919 41.013C39.5532 41.048 40.8059 41.4489 41.7513 42.5163C41.4891 42.7818 41.2218 43.0407 40.9663 43.3113C39.346 44.9719 38.2874 47.099 37.9397 49.393C37.6373 51.3439 37.8779 53.2347 38.4959 55.0954L23.3912 55.1238C22.3088 55.1238 21.2198 55.1021 20.1457 55.1355C19.6446 55.1522 19.4693 55.032 19.4559 54.4924C19.4041 52.4881 19.3256 50.467 19.192 48.4593C19.1185 47.3602 18.9648 46.2644 19.2104 45.1771C19.7332 42.8587 21.5488 41.3353 23.8873 41.1015C25.8582 40.9061 27.8326 41.1015 29.9906 40.9679C28.6544 40.709 27.5269 40.3599 26.508 39.7368C24.7157 38.6411 23.3761 37.1579 22.6078 35.1852C22.5627 35.07 22.5009 34.9597 22.4408 34.8511L21.9547 32.3824C21.9664 30.7004 22.257 29.0802 23.0972 27.6003C23.4313 27.0073 23.8355 26.4528 24.208 25.8799C24.9749 25.1306 25.8141 24.4592 26.7134 23.8755C27.7006 23.4562 28.6794 23.0236 29.7568 22.8532C31.6093 22.5384 33.5137 22.7844 35.2254 23.5598C35.3924 23.635 35.5711 23.6901 35.7432 23.7535Z" fill="#E2ECF8"/>
<path d="M38.5042 55.0973C37.8862 53.2383 37.6457 51.3458 37.948 49.3948C38.2957 47.1009 39.3543 44.9738 40.9746 43.3132C41.2302 43.0426 41.4974 42.7837 41.7597 42.5181C43.4042 41.2015 45.3469 40.3091 47.417 39.9191C51.9119 39.0839 56.7257 41.2086 59.2078 45.1489C60.4188 47.0596 61.019 49.2938 60.9286 51.5542C60.8382 53.8145 60.0614 55.9937 58.7017 57.8016C58.4362 58.159 58.4863 58.3277 58.7752 58.6033C59.8776 59.6501 60.9667 60.7079 62.0424 61.7769C62.632 62.3666 62.6287 63.1549 62.0791 63.6544C61.558 64.1287 60.8715 64.1054 60.2919 63.5491C59.1783 62.4835 58.077 61.4056 56.988 60.3154C56.7341 60.0615 56.5771 59.9813 56.2297 60.2285C49.9342 64.6298 41.6595 62.2797 38.6061 55.2426C38.5756 55.1918 38.5416 55.1433 38.5042 55.0973ZM40.3249 51.0885C40.3132 55.9993 44.3687 59.983 49.3747 59.978C54.3472 59.978 58.4178 56.0076 58.4378 51.1453C58.4579 46.283 54.3973 42.2826 49.4298 42.2642C44.3988 42.2392 40.3282 46.1778 40.3282 51.0835L40.3249 51.0885Z" fill="#0068E5"/>
<path d="M48.9087 51.7366C49.7004 50.8012 50.4621 49.8992 51.2287 48.9939C51.82 48.2974 52.5366 48.1688 53.1279 48.6465C53.7192 49.1242 53.7493 49.8758 53.1697 50.5724C52.1418 51.7973 51.1085 53.0222 50.0695 54.2471C49.368 55.0655 48.6397 55.0822 47.8981 54.3105C47.2651 53.6424 46.6287 52.9927 46.0107 52.3195C45.4394 51.6982 45.4377 50.9348 45.9839 50.4388C46.5301 49.9427 47.2434 50.0161 47.8213 50.5924C48.1787 50.9532 48.5312 51.334 48.9087 51.7366Z" fill="#0068E5"/>
</g>
<defs>
<clipPath id="clip0_996_28151">
<rect width="62.4817" height="64" fill="white"/>
</clipPath>
</defs>
</svg>
