<svg width="64" height="64" viewBox="0 0 64 64" fill="none" xmlns="http://www.w3.org/2000/svg">
<g clip-path="url(#clip0_996_28191)">
<path d="M0 60.3634V58.4942C0.449351 57.2297 1.30128 56.2758 2.29185 55.4005C3.39936 54.4233 4.46345 53.396 5.53588 52.377C6.34605 51.6169 7.15287 50.8519 8.0616 49.9949H4.9462C3.47955 49.9949 3.12875 49.6492 3.12875 48.2042C3.12875 32.796 3.12486 17.3866 3.11707 1.97614C3.11707 1.18602 3.21227 0.502806 3.87544 0H63.1197C63.4004 0.147261 63.6331 0.371803 63.7903 0.647093C63.9475 0.922383 64.0226 1.23692 64.0067 1.55352C63.9911 17.1945 63.9866 32.8355 63.9933 48.4765C63.9933 49.5172 63.5389 49.9933 62.5317 49.9933C53.0145 49.9933 43.4974 49.9933 33.9803 49.9933L35.9849 47.4876C36.0256 47.4958 36.0669 47.5008 36.1085 47.5026C44.4195 47.5026 52.7289 47.5076 61.0366 47.5177C61.5194 47.5177 61.506 47.3055 61.506 46.9647C61.506 34.198 61.506 21.4313 61.506 8.66463C61.506 8.22196 61.3908 8.1234 60.9581 8.1234C50.3786 8.13677 39.7991 8.13677 29.2195 8.1234C29.0679 8.11249 28.916 8.14182 28.7794 8.2084C28.6427 8.27498 28.526 8.37647 28.4411 8.5026C27.3319 9.9609 26.1776 11.3825 25.0852 12.8458C24.8856 13.1458 24.611 13.3883 24.2886 13.5492C23.9662 13.7101 23.6074 13.7838 23.2477 13.7628C17.5832 13.7345 11.9187 13.7628 6.25416 13.7344C5.72129 13.7344 5.61773 13.8764 5.6194 14.3843C5.63945 19.404 5.63108 24.422 5.63108 29.4417C5.63108 35.2515 5.63109 41.063 5.61773 46.8729C5.61773 47.4041 5.75805 47.526 6.26754 47.5093C7.43685 47.4675 8.60616 47.4442 9.76545 47.5093C10.5305 47.5544 11.0918 47.3272 11.5278 46.7242C12.0682 47.3934 12.5494 48.1082 12.966 48.8607C9.72871 51.8842 6.49305 54.9094 3.25905 57.9363C2.31358 58.8199 2.25678 60.0661 3.09201 60.908C3.92723 61.7499 5.09655 61.6714 5.99525 60.7142C9.04438 57.4702 12.0902 54.224 15.1326 50.9755L17.2374 52.3686C14.0134 55.8098 10.8195 59.2826 7.54876 62.6854C5.28864 65.039 1.32634 64.0685 0.250568 60.9698C0.180409 60.771 0.208806 60.5204 0 60.3634ZM33.5761 2.49231C24.4743 2.49231 15.3721 2.48897 6.26921 2.48229C5.78144 2.48229 5.60103 2.55245 5.60103 3.10537C5.63611 5.62441 5.62775 8.14512 5.60103 10.6658C5.60103 11.1152 5.68288 11.2555 6.16899 11.2538C11.6458 11.2338 17.1238 11.2338 22.6029 11.2538C22.775 11.2625 22.9465 11.2259 23.1001 11.1477C23.2537 11.0694 23.384 10.9522 23.4782 10.8078C24.5757 9.36789 25.7166 7.9597 26.794 6.50474C27.2751 5.85493 27.8331 5.60102 28.6432 5.60269C39.3274 5.62385 50.0128 5.62886 60.6992 5.61773C60.8444 5.60937 60.99 5.60937 61.1352 5.61773C61.4158 5.65281 61.4893 5.53086 61.4843 5.26359C61.4459 4.5564 61.4459 3.84764 61.4843 3.14045C61.5344 2.56414 61.3172 2.47227 60.8011 2.47227C51.735 2.499 42.6617 2.50791 33.5811 2.499L33.5761 2.49231Z" fill="#0068E5"/>
<path d="M11.5244 46.7293C11.1536 45.585 10.5906 44.5109 10.33 43.3232C9.29437 38.6176 10.2732 34.3913 13.4371 30.7581C16.6009 27.1249 20.6935 25.6231 25.4426 26.024C31.7102 26.5519 37.0506 31.732 37.8791 37.931C38.2867 40.9913 37.8424 43.8995 36.3757 46.6341C36.2287 46.9063 36.1118 47.197 35.9798 47.4776L33.9753 49.9833C32.9012 50.8352 31.8722 51.7507 30.6344 52.3888C28.9151 53.2847 27.0364 53.8335 25.1052 54.0041C22.3022 54.2547 19.7046 53.6032 17.219 52.367L15.1142 50.9739L12.9426 48.8591C12.5321 48.1097 12.0576 47.3971 11.5244 46.7293ZM19.7263 38.7462C19.4944 38.7548 19.2698 38.8295 19.0789 38.9615C18.888 39.0935 18.7388 39.2773 18.6489 39.4912C18.5367 39.7181 18.5011 39.9752 18.5475 40.224C18.5939 40.4728 18.7197 40.6998 18.9062 40.871C19.8383 41.8215 20.7737 42.7686 21.7309 43.6924C21.8432 43.8101 21.9782 43.9039 22.1278 43.9679C22.2774 44.032 22.4385 44.065 22.6012 44.065C22.7639 44.065 22.9249 44.032 23.0745 43.9679C23.2241 43.9039 23.3592 43.8101 23.4715 43.6924C25.3647 41.8226 27.2456 39.9389 29.1143 38.0413C29.2451 37.9124 29.3449 37.7555 29.4064 37.5825C29.4678 37.4094 29.4892 37.2247 29.4689 37.0422C29.4487 36.8597 29.3873 36.6842 29.2894 36.5288C29.1915 36.3735 29.0597 36.2423 28.9038 36.1453C28.3793 35.8112 27.7512 35.8981 27.2167 36.4293C25.7867 37.8508 24.3568 39.269 22.9436 40.714C22.683 40.9779 22.5327 41.0213 22.2638 40.714C21.791 40.1895 21.2615 39.7117 20.772 39.2106C20.6394 39.0649 20.478 38.9485 20.298 38.8685C20.118 38.7886 19.9233 38.7469 19.7263 38.7462Z" fill="#E2ECF8"/>
<path d="M55.2285 25.3977C55.0666 25.4021 54.9055 25.3733 54.7551 25.313C54.6048 25.2527 54.4684 25.1623 54.3544 25.0472C54.2405 24.9321 54.1513 24.7949 54.0925 24.644C54.0336 24.4931 54.0064 24.3317 54.0124 24.1699C54.0124 23.8057 53.8754 23.6504 53.558 23.5518C53.3397 23.4844 53.1317 23.3871 52.9399 23.2628C52.691 23.1055 52.5085 22.8623 52.4269 22.5794C52.3453 22.2964 52.3703 21.9934 52.4973 21.7277C52.6155 21.458 52.8264 21.2396 53.0918 21.1121C53.3572 20.9846 53.6595 20.9565 53.9439 21.0328C54.1828 21.0962 54.4083 21.2098 54.6421 21.2967C55.1516 21.4855 55.5442 21.3401 55.7881 20.859C56.0035 20.4314 55.8148 19.9737 55.3253 19.7315C54.9712 19.5644 54.602 19.4174 54.2395 19.2621C53.0017 18.7359 52.2768 17.7921 52.1448 16.4691C52.0128 15.1461 52.5457 14.0687 53.6699 13.3337C53.7832 13.2679 53.8751 13.1708 53.9343 13.054C53.9936 12.9372 54.0178 12.8057 54.004 12.6755C54.004 11.8085 54.5052 11.259 55.2368 11.2539C55.9685 11.2489 56.4529 11.7551 56.483 12.5903C56.4947 12.9244 56.665 13.0079 56.9023 13.0914C57.3349 13.2501 57.7642 13.4255 57.9814 13.8732C58.0921 14.0867 58.1354 14.3287 58.1056 14.5674C58.0757 14.806 57.9742 15.0299 57.8143 15.2096C57.4585 15.6489 56.9791 15.7274 56.4579 15.5938C56.219 15.532 55.9969 15.4067 55.7597 15.3315C55.2585 15.1728 54.8927 15.3616 54.6939 15.821C54.4951 16.2803 54.6672 16.6562 55.0815 16.8767C55.4439 17.0738 55.8415 17.2108 56.2224 17.3778C57.4752 17.919 58.2269 18.8662 58.3472 20.2176C58.4658 21.5539 57.9312 22.623 56.7937 23.3363C56.4596 23.5418 56.5013 23.784 56.4913 24.068C56.4679 24.8915 55.9718 25.406 55.2285 25.3977Z" fill="#0068E5"/>
<path d="M49.6191 18.4217C49.6064 18.6698 49.5163 18.9076 49.3613 19.1018C49.2064 19.296 48.9945 19.4367 48.7555 19.5041C48.5418 19.5817 48.3131 19.6085 48.0873 19.5826C46.6657 19.317 45.7052 19.9552 44.7614 20.9725C42.9089 22.9686 40.9194 24.8446 39.005 26.7739C38.6342 27.1448 38.2366 27.4087 37.682 27.2884C37.4817 27.2516 37.2937 27.1653 37.1352 27.0374C36.9767 26.9095 36.8527 26.7441 36.7743 26.556C36.696 26.368 36.6659 26.1634 36.6867 25.9608C36.7075 25.7582 36.7786 25.564 36.8936 25.3958C37.0158 25.2276 37.1546 25.072 37.3078 24.9314C39.7033 22.5327 42.1071 20.1422 44.4908 17.7318C44.9318 17.2858 45.3978 17.0536 46.0326 17.0836C46.8211 17.1204 47.6129 17.0836 48.403 17.1037C49.1246 17.1304 49.6208 17.6533 49.6191 18.4217Z" fill="#0068E5"/>
<path d="M50.3073 41.8716H56.8588C57.801 41.8716 58.3839 42.3727 58.3622 43.1461C58.3405 43.9196 57.7776 44.3689 56.8588 44.3706H43.694C42.7385 44.3706 42.1789 43.8878 42.1906 43.0927C42.2056 42.3259 42.7519 41.8733 43.6806 41.8716H50.3073Z" fill="#0068E5"/>
<path d="M53.7317 33.1218C52.6493 33.1218 51.5601 33.1218 50.4844 33.1218C49.6207 33.1218 49.0895 32.6206 49.0929 31.8672C49.0962 31.1139 49.6274 30.6278 50.4977 30.6261C52.6426 30.6194 54.7869 30.6194 56.9306 30.6261C57.7926 30.6261 58.3522 31.1139 58.3672 31.8489C58.3823 32.5839 57.811 33.1167 56.9173 33.1218C55.8549 33.1351 54.7941 33.1218 53.7317 33.1218Z" fill="#0068E5"/>
<path d="M53.7234 36.2471C54.8058 36.2471 55.895 36.2471 56.9708 36.2471C57.806 36.2471 58.3756 36.7716 58.3673 37.5083C58.3589 38.245 57.8076 38.7378 57.0025 38.7411C54.8164 38.7511 52.6304 38.7511 50.4443 38.7411C49.6241 38.7411 49.1079 38.24 49.0929 37.51C49.0845 36.7466 49.6141 36.2538 50.476 36.2471C51.5585 36.2404 52.6409 36.2471 53.7234 36.2471Z" fill="#0068E5"/>
<path d="M12.8123 17.0989C13.7261 17.0989 14.6398 17.0855 15.5536 17.0989C16.3403 17.1139 16.8515 17.6 16.8732 18.2966C16.8949 18.9931 16.3721 19.5745 15.5669 19.5845C13.7194 19.6079 11.8708 19.6079 10.021 19.5845C9.21085 19.5761 8.69636 19.0399 8.70805 18.3099C8.71974 17.5799 9.23759 17.1072 10.0711 17.0955C10.9849 17.0822 11.9019 17.0989 12.8123 17.0989Z" fill="#0068E5"/>
<path d="M10.8613 22.7249C11.1519 22.7249 11.4443 22.7082 11.7333 22.7249C12.0376 22.7306 12.3282 22.8525 12.5456 23.0656C12.763 23.2786 12.8907 23.5667 12.9026 23.8708C12.9393 24.524 12.5685 25.0619 11.9003 25.1621C11.1804 25.2693 10.4486 25.2693 9.72871 25.1621C9.06053 25.0669 8.68134 24.5323 8.71141 23.8809C8.72019 23.5772 8.84451 23.2883 9.05902 23.0732C9.27353 22.8581 9.56205 22.7329 9.8657 22.7232C10.1964 22.7065 10.5305 22.7266 10.8613 22.7249Z" fill="#0068E5"/>
<path d="M19.7264 38.7461C19.9235 38.747 20.1182 38.789 20.2982 38.8692C20.4782 38.9494 20.6396 39.0662 20.7721 39.2121C21.2732 39.7133 21.7911 40.1944 22.2638 40.7155C22.5327 41.0146 22.6831 40.9711 22.9437 40.7155C24.3569 39.2756 25.7834 37.8524 27.2167 36.4308C27.7512 35.8996 28.386 35.8061 28.9038 36.1469C29.0597 36.2439 29.1916 36.3751 29.2894 36.5304C29.3873 36.6858 29.4487 36.8613 29.469 37.0438C29.4892 37.2263 29.4678 37.411 29.4064 37.584C29.345 37.7571 29.2451 37.9139 29.1143 38.0428C27.2523 39.9449 25.3714 41.8286 23.4715 43.694C23.3592 43.8117 23.2242 43.9054 23.0746 43.9695C22.925 44.0335 22.764 44.0666 22.6012 44.0666C22.4385 44.0666 22.2775 44.0335 22.1279 43.9695C21.9783 43.9054 21.8432 43.8117 21.7309 43.694C20.7737 42.7702 19.8383 41.8231 18.9062 40.8726C18.7198 40.7014 18.5939 40.4744 18.5475 40.2256C18.5011 39.9768 18.5367 39.7196 18.6489 39.4928C18.7386 39.2785 18.8877 39.0944 19.0786 38.9621C19.2695 38.8298 19.4943 38.7548 19.7264 38.7461Z" fill="#0068E5"/>
<path d="M11.2488 6.90891C11.2445 7.07468 11.2074 7.23796 11.1396 7.3893C11.0718 7.54063 10.9746 7.67703 10.8538 7.79058C10.7329 7.90414 10.5907 7.9926 10.4355 8.05086C10.2802 8.10912 10.1149 8.13602 9.94923 8.13001C9.62544 8.11118 9.32121 7.96884 9.0993 7.73231C8.87738 7.49578 8.75469 7.18312 8.75652 6.85879C8.76801 6.53486 8.9033 6.22767 9.13451 6.0005C9.36572 5.77333 9.67524 5.64348 9.99933 5.6377C10.1651 5.63812 10.3292 5.67145 10.482 5.73575C10.6349 5.80006 10.7734 5.89406 10.8896 6.0123C11.0058 6.13055 11.0974 6.27068 11.1591 6.42459C11.2208 6.5785 11.2513 6.74312 11.2488 6.90891Z" fill="#0068E5"/>
<path d="M15.6388 8.12171C15.4729 8.12127 15.3087 8.08811 15.1556 8.02411C15.0025 7.96012 14.8636 7.86655 14.7468 7.74877C14.6299 7.631 14.5374 7.49132 14.4747 7.33775C14.4119 7.18418 14.38 7.01974 14.3809 6.85384C14.3907 6.5299 14.5247 6.22213 14.7551 5.99421C14.9855 5.76629 15.2947 5.63568 15.6187 5.62939C15.9432 5.62915 16.2552 5.75465 16.4891 5.97954C16.723 6.20443 16.8607 6.51121 16.8732 6.83546C16.8777 7.00124 16.8491 7.16625 16.7893 7.32093C16.7295 7.4756 16.6396 7.61685 16.5247 7.7365C16.4099 7.85615 16.2724 7.95182 16.1204 8.01794C15.9683 8.08406 15.8046 8.11934 15.6388 8.12171Z" fill="#0068E5"/>
<path d="M22.4976 6.86052C22.499 7.02651 22.4672 7.19112 22.4043 7.34474C22.3414 7.49835 22.2486 7.63791 22.1312 7.75529C22.0138 7.87267 21.8743 7.96552 21.7206 8.02843C21.567 8.09134 21.4024 8.12305 21.2364 8.12171C20.9125 8.11367 20.604 7.98138 20.3748 7.75222C20.1456 7.52306 20.0134 7.21457 20.0053 6.89059C20.0053 6.72469 20.038 6.56042 20.1016 6.40718C20.1652 6.25395 20.2584 6.11476 20.3759 5.99761C20.4933 5.88045 20.6328 5.78763 20.7862 5.72444C20.9396 5.66126 21.1039 5.62896 21.2698 5.6294C21.5939 5.63625 21.9027 5.76826 22.1316 5.99776C22.3605 6.22727 22.4917 6.53645 22.4976 6.86052Z" fill="#0068E5"/>
</g>
<defs>
<clipPath id="clip0_996_28191">
<rect width="64.0067" height="64" fill="white"/>
</clipPath>
</defs>
</svg>
