<svg width="64" height="59" viewBox="0 0 64 59" fill="none" xmlns="http://www.w3.org/2000/svg">
<g clip-path="url(#clip0_996_5527)">
<path d="M0 11.3168C0.22881 10.9694 0.166997 10.5569 0.232132 10.1794C1.14403 5.12889 5.44967 0.955209 10.5085 0.176921C14.8225 -0.491137 18.5369 0.716341 21.5966 3.77104C23.7211 5.88878 24.9002 8.49759 25.1407 11.5339C25.4747 15.7794 23.9432 19.24 20.8818 22.0993C20.8305 22.1359 20.7743 22.1652 20.7148 22.1861C20.6898 21.9806 20.6563 21.7752 20.643 21.5698C20.5532 19.9558 19.8732 18.4311 18.7323 17.2859C18.3599 16.9018 17.6618 16.6462 17.5632 16.227C17.4647 15.8078 17.9457 15.2249 18.086 14.6988C18.4668 13.2692 18.3749 11.8061 18.268 10.3565C18.1583 9.05044 17.5989 7.82292 16.6851 6.88332C15.7714 5.94371 14.56 5.35021 13.2576 5.20404C10.4885 4.9151 7.77953 6.61367 7.16993 9.28089C6.66888 11.4938 6.54026 13.7752 7.65091 15.9114C7.77617 16.1519 7.74945 16.2621 7.53401 16.4124C5.51146 17.807 4.60458 19.7911 4.49936 22.1944C1.99414 20.06 0.49102 17.3811 0.121917 14.0925C0.0970917 13.9956 0.0582397 13.9028 0.00664633 13.817L0 11.3168Z" fill="#E2ECF8"/>
<path d="M43.2635 53.8122C42.4134 53.4214 41.9274 52.6431 41.3913 51.9533C39.9199 50.0811 39.0375 47.8141 38.856 45.4398C38.4919 40.7817 40.2038 37.0423 43.8664 34.198C46.2948 32.3141 49.1107 31.5258 52.1537 31.7128C55.0645 31.8681 57.8256 33.0518 59.9449 35.0531C62.3249 37.2661 63.671 40.0051 63.9532 43.1917C64.2613 46.3542 63.3296 49.5128 61.3545 52.0018C60.806 52.7077 60.1834 53.3527 59.4973 53.9258C59.4238 51.935 58.866 50.0945 57.2894 48.8185C56.4142 48.1103 56.1386 47.5375 56.7883 46.6089C56.8347 46.5161 56.8652 46.4161 56.8785 46.3132C57.2459 44.9621 57.1474 43.5776 57.0672 42.2147C56.9002 39.2853 54.6405 37.0991 51.6877 36.8853C48.9319 36.6865 46.3649 38.6322 45.8004 41.4264C45.5432 42.6957 45.6451 43.9984 45.7069 45.2878C45.7386 46.0609 45.9625 46.814 46.3583 47.479C46.572 47.8364 46.4852 47.9801 46.1695 48.2055C44.8821 49.1139 43.9528 50.4438 43.5424 51.965C43.3654 52.5746 43.3954 53.2043 43.2635 53.8122Z" fill="#E2ECF8"/>
<path d="M14.7841 38.1128L8.8751 44.0218C8.73982 44.1554 8.59285 44.254 8.80329 44.4627C10.7607 46.4101 12.7098 48.3642 14.7841 50.4385C14.7841 49.4815 14.7841 48.6832 14.7841 47.8849C14.7841 46.7158 15.2066 46.2915 16.3574 46.2915C22.106 46.2915 27.8541 46.2915 33.6016 46.2915C34.2096 46.2915 34.7173 46.4185 34.9995 47.0114C35.0828 47.186 35.1241 47.3776 35.12 47.5711C35.1159 47.7645 35.0666 47.9542 34.976 48.1252C34.8854 48.2961 34.7561 48.4435 34.5983 48.5554C34.4406 48.6674 34.2588 48.7409 34.0676 48.77C33.8406 48.7999 33.6114 48.8088 33.3828 48.7967C28.2171 48.7967 23.053 48.7968 17.8872 48.7867C17.3862 48.7867 17.2592 48.9153 17.2726 49.4064C17.3077 50.6757 17.2726 51.9467 17.2893 53.216C17.2976 53.8556 17.1323 54.3851 16.501 54.6323C15.9098 54.8594 15.4221 54.6322 14.9828 54.1997C12.0456 51.2491 9.10223 48.3024 6.15275 45.3596C5.38782 44.593 5.39283 43.9784 6.15275 43.2101C9.09555 40.2618 12.0395 37.3156 14.9845 34.3717C15.4137 33.9408 15.8847 33.6903 16.4876 33.9375C17.0906 34.1846 17.2793 34.674 17.2743 35.292C17.2626 36.583 17.2977 37.8757 17.2576 39.165C17.2409 39.7045 17.4246 39.8064 17.9256 39.8047C23.0496 39.7863 28.1736 39.793 33.291 39.793C33.5198 39.793 33.7503 39.793 33.9774 39.8064C34.2601 39.8274 34.5267 39.9463 34.7312 40.1426C34.9357 40.3389 35.0654 40.6003 35.0981 40.8819C35.1322 41.1726 35.0626 41.4661 34.9016 41.7105C34.7406 41.9549 34.4985 42.1347 34.2179 42.218C33.9552 42.2856 33.6832 42.3087 33.4129 42.2865H16.4809C15.1799 42.2865 14.769 41.874 14.7674 40.5679L14.7841 38.1128Z" fill="#0068E5"/>
<path d="M49.2041 18.7607L51.1933 16.7682L55.0346 12.9269C55.2016 12.7599 55.4321 12.6413 55.1331 12.3473C53.2058 10.4467 51.2918 8.5277 49.3778 6.61705C49.3561 6.59534 49.3077 6.60036 49.2008 6.57697C49.2008 7.392 49.2008 8.19367 49.2008 8.99534C49.2008 10.1528 48.7699 10.577 47.6158 10.5786C41.8672 10.5786 36.1185 10.5786 30.3699 10.5786C29.7302 10.5786 29.2175 10.4216 28.9553 9.78866C28.885 9.61438 28.8553 9.42639 28.8684 9.23893C28.8814 9.05147 28.937 8.86944 29.0308 8.70661C29.1246 8.54378 29.2542 8.40442 29.4098 8.29907C29.5654 8.19371 29.743 8.12513 29.929 8.09849C30.1567 8.07089 30.3863 8.06248 30.6154 8.07342H45.7987C46.7006 8.07342 46.7006 8.07345 46.7006 7.1415C46.7006 5.95403 46.7106 4.76654 46.7006 3.57907C46.7006 2.98283 46.8676 2.50017 47.4438 2.258C48.02 2.01583 48.5277 2.19454 48.9686 2.63712C51.9393 5.61444 54.9127 8.59063 57.8889 11.5657C58.5903 12.2705 58.577 12.9118 57.8622 13.6283C54.906 16.5934 51.9471 19.5546 48.9853 22.5119C48.5544 22.9444 48.0718 23.1799 47.4705 22.9277C46.8693 22.6755 46.6939 22.1778 46.7006 21.5615C46.7139 20.2705 46.6805 18.9778 46.7156 17.6868C46.7307 17.1857 46.587 17.0672 46.0943 17.0688C40.9286 17.0872 35.7645 17.0805 30.5987 17.0789C29.4296 17.0789 28.8734 16.6814 28.8684 15.8446C28.8634 15.0079 29.4546 14.5787 30.582 14.5787H47.5156C48.7782 14.5787 49.2025 15.0012 49.2058 16.2588C49.2058 17.0421 49.2041 17.8237 49.2041 18.7607Z" fill="#0068E5"/>
<path d="M43.2634 53.8122C43.3954 53.2043 43.3653 52.5746 43.5423 51.975C43.9527 50.4538 44.8821 49.1239 46.1695 48.2155C46.4851 47.9951 46.572 47.8465 46.3582 47.489C45.9625 46.8241 45.7386 46.071 45.7069 45.2978C45.6451 44.0085 45.5398 42.7057 45.8004 41.4364C46.3649 38.6423 48.9319 36.6965 51.6876 36.8953C54.6405 37.1091 56.8952 39.2953 57.0672 42.2247C57.1474 43.5876 57.2459 44.9721 56.8785 46.3233C56.8652 46.4262 56.8347 46.5261 56.7883 46.6189C56.1336 47.5475 56.4091 48.122 57.2893 48.8285C58.8659 50.1045 59.4238 51.945 59.4972 53.9358C59.711 55.3654 58.8977 56.0619 57.7186 56.6197C53.0421 58.8344 48.4943 58.6473 44.0384 56.0285C43.816 55.9137 43.6306 55.7383 43.5038 55.5225C43.377 55.3067 43.3139 55.0594 43.3219 54.8093C43.3152 54.4803 43.2835 54.1462 43.2634 53.8122ZM51.7411 55.6494C53.0137 55.6611 54.8793 55.2669 56.633 54.3584C56.7469 54.3141 56.8422 54.232 56.903 54.126C56.9638 54.0199 56.9864 53.8962 56.967 53.7755C56.8935 52.1053 56.177 50.836 54.7407 49.9742C54.615 49.8867 54.4671 49.8363 54.3141 49.8289C54.1611 49.8215 54.0091 49.8574 53.8755 49.9325C53.1044 50.326 52.2511 50.5312 51.3853 50.5312C50.5196 50.5312 49.6663 50.326 48.8952 49.9325C48.7619 49.8568 48.6099 49.8204 48.4568 49.8275C48.3037 49.8346 48.1557 49.8849 48.03 49.9725C46.6739 50.8076 45.924 51.9767 45.8238 53.5851C45.797 54.0126 45.9073 54.2531 46.3148 54.4552C47.8162 55.165 49.3862 55.5742 51.7411 55.6494ZM48.192 43.6794C48.192 44.1588 48.1536 44.6398 48.192 45.1141C48.2596 45.8893 48.6084 46.613 49.1725 47.1489C49.7367 47.6848 50.4774 47.9958 51.2551 48.0235C52.022 48.0523 52.7734 47.8021 53.3701 47.3194C53.9667 46.8367 54.3682 46.1541 54.5002 45.398C54.6634 44.3475 54.6769 43.2791 54.5403 42.2247C54.4637 41.4268 54.085 40.6883 53.4817 40.1605C52.8784 39.6327 52.0962 39.3554 51.2952 39.3855C49.625 39.4289 48.3256 40.6648 48.182 42.37C48.1603 42.7976 48.192 43.2369 48.192 43.6744V43.6794Z" fill="#0068E5"/>
<path d="M4.49268 22.1928C4.59789 19.7894 5.50477 17.8053 7.52732 16.4108C7.74277 16.2621 7.76952 16.1519 7.64426 15.9097C6.53361 13.7736 6.65718 11.4922 7.16324 9.27925C7.77284 6.60701 10.4818 4.91346 13.2509 5.20239C14.5534 5.34857 15.7647 5.94207 16.6785 6.88167C17.5922 7.82127 18.1516 9.04879 18.2614 10.3548C18.3683 11.8045 18.4601 13.2675 18.0793 14.6972C17.939 15.2266 17.4547 15.7828 17.5566 16.2254C17.6584 16.6679 18.3515 16.8934 18.7257 17.2842C19.8696 18.4282 20.5526 19.953 20.6447 21.5682C20.658 21.7736 20.6914 21.979 20.7165 22.1844C20.7048 22.2228 20.6764 22.2663 20.6831 22.303C20.9319 23.711 20.0852 24.3573 18.9695 24.8934C14.4417 27.0747 9.99582 26.9477 5.58997 24.5343C4.79832 24.1018 4.42084 23.5239 4.51771 22.6254C4.52248 22.4807 4.51412 22.3359 4.49268 22.1928ZM12.648 23.9398C14.4337 23.9248 16.1916 23.496 17.7837 22.6871C18.0192 22.5686 18.1779 22.4483 18.1728 22.1344C18.1461 20.379 17.3645 19.0847 15.853 18.2062C15.5791 18.0492 15.3653 18.1009 15.1031 18.2262C14.3318 18.6201 13.4781 18.8255 12.6121 18.8255C11.746 18.8255 10.8923 18.6201 10.1211 18.2262C9.98936 18.1508 9.83899 18.1142 9.68736 18.1207C9.53572 18.1272 9.38905 18.1765 9.26429 18.2629C7.83966 19.098 7.12819 20.359 7.01963 21.9924C6.99625 22.3615 7.13485 22.5419 7.45886 22.7039C9.07049 23.5095 10.8462 23.9324 12.648 23.9398ZM9.39288 11.8078C9.39288 12.3773 9.37451 12.7932 9.39288 13.2074C9.42346 14.0254 9.76379 14.8012 10.3449 15.3777C10.926 15.9542 11.7045 16.2882 12.5227 16.3122C13.3413 16.3358 14.1372 16.042 14.7442 15.4923C15.3512 14.9426 15.7221 14.1796 15.7795 13.3627C15.8666 12.4103 15.8627 11.4518 15.7678 10.5001C15.689 9.76076 15.3515 9.07309 14.8149 8.55846C14.2782 8.04384 13.577 7.73539 12.835 7.68759C11.1766 7.60575 9.81377 8.64123 9.46805 10.2229C9.34613 10.8024 9.41626 11.3903 9.39288 11.8078Z" fill="#0068E5"/>
</g>
<defs>
<clipPath id="clip0_996_5527">
<rect width="64" height="58.1428" fill="white"/>
</clipPath>
</defs>
</svg>
