<svg width="64" height="67" viewBox="0 0 64 67" fill="none" xmlns="http://www.w3.org/2000/svg">
<g clip-path="url(#clip0_996_5447)">
<path d="M33.8135 45.2285C29.7496 45.2285 25.6839 45.2407 21.62 45.2285C21.1536 45.2285 20.9559 45.3117 20.9265 45.8353C20.6681 49.5439 20.3734 53.2506 20.0891 56.9557C19.8793 59.6933 19.673 62.4309 19.4528 65.1668C19.3886 65.9626 18.8945 66.422 18.0866 66.4237C14.1729 66.433 10.2598 66.433 6.34728 66.4237C5.54976 66.4237 5.07123 65.9834 5.00015 65.1477C4.77996 62.5471 4.59098 59.9343 4.3916 57.3267C4.09108 53.4257 3.79461 49.5248 3.50218 45.6238C3.47791 45.31 3.37389 45.2441 3.07742 45.2303C1.62106 45.1713 1.35926 44.9112 1.2535 43.4792C0.84202 37.8965 0.43286 32.3138 0.0260048 26.731C-0.208053 23.5063 2.05277 20.8692 5.50815 20.3248C5.52202 20.1168 5.33478 20.0405 5.22902 19.9226C0.18898 14.4751 2.77748 5.86352 9.99165 4.11069C11.9136 3.62242 13.9419 3.769 15.7737 4.52853C16.3043 4.74525 16.3736 4.60655 16.3511 4.11069C16.3164 3.33397 16.3788 2.55031 16.332 1.77705C16.2852 1.00379 16.5539 0.402183 17.2353 0.00341797H42.1408C45.4696 2.7416 48.799 5.47921 52.1289 8.21624C52.3136 8.36494 52.4598 8.55574 52.5554 8.77264C52.6511 8.98954 52.6933 9.22622 52.6785 9.46281C52.6704 16.2245 52.6664 22.9861 52.6664 29.7478L50.0658 29.0543C50.0658 23.0884 50.0658 17.1226 50.0848 11.1584C50.0848 10.6383 49.9115 10.5672 49.4607 10.5724C46.997 10.5932 44.5333 10.5846 42.0697 10.5811C40.856 10.5811 40.4209 10.1528 40.4191 8.95135C40.4191 7.00607 40.4191 5.0608 40.4191 3.11552C40.4191 2.7549 40.381 2.58152 39.9406 2.58325C33.0899 2.59828 26.2393 2.59828 19.3886 2.58325C19.0211 2.58325 18.9066 2.67861 18.917 3.05137C18.943 4.02401 18.9413 4.99664 18.917 5.96928C18.9075 6.14831 18.9364 6.32731 19.0019 6.4942C19.0674 6.66109 19.168 6.812 19.2967 6.93672C20.9163 8.67771 21.8203 10.965 21.8287 13.3428C21.837 15.7206 20.9491 18.0142 19.3418 19.7665C19.191 19.9399 18.9482 20.0405 18.9326 20.3161C21.3876 20.6629 23.1283 21.9303 24.0559 24.2414C24.5639 25.5105 24.4027 26.842 24.3125 28.1493C23.9831 32.7403 23.6571 37.3295 23.3035 41.9188C23.2601 42.4823 23.3676 42.6504 23.9675 42.6435C26.9496 42.6106 29.9333 42.6262 32.9154 42.6314C33.1703 42.6314 33.4355 42.5672 33.6731 42.725C33.5673 43.5745 33.7355 44.3998 33.8135 45.2285ZM12.2334 42.6383H19.236C20.6577 42.6383 20.6577 42.6383 20.7496 41.2513C20.7496 41.1438 20.767 41.0363 20.7756 40.9288C21.1224 36.1211 21.4847 31.3168 21.8159 26.5091C21.9459 24.5812 20.5225 22.9723 18.5911 22.9497C14.3561 22.9012 10.12 22.9012 5.88265 22.9497C3.87842 22.9723 2.46886 24.6835 2.61797 26.6808C3.00517 31.8092 3.37621 36.9388 3.73105 42.0696C3.76052 42.5117 3.87494 42.6522 4.32745 42.6487C6.95756 42.6279 9.59463 42.6383 12.2334 42.6383ZM17.6653 54.5128C17.8837 51.6278 18.0814 48.7411 18.3345 45.8579C18.383 45.3048 18.2339 45.2233 17.7398 45.2251C14.0885 45.2441 10.4372 45.2493 6.78767 45.2251C6.18952 45.2251 6.04388 45.3586 6.09416 45.9636C6.33169 48.6302 6.5172 51.3019 6.72178 53.9719C6.96104 57.0718 7.21416 60.1718 7.42568 63.2752C7.45862 63.7832 7.64935 63.8439 8.08799 63.8422C10.8528 63.8225 13.6181 63.8225 16.384 63.8422C16.8036 63.8422 16.9631 63.7745 16.996 63.303C17.1989 60.3694 17.4399 57.4429 17.6653 54.5128ZM19.236 13.2788C19.2188 12.3586 19.0193 11.4509 18.649 10.6082C18.2787 9.7656 17.745 9.00473 17.0788 8.36965C16.4126 7.73457 15.6271 7.23788 14.7677 6.9083C13.9084 6.57872 12.9922 6.42279 12.0722 6.44953C8.17987 6.55009 5.08165 9.72461 5.18915 13.5042C5.29664 17.3358 8.54916 20.4392 12.3288 20.3213C16.2471 20.1965 19.3314 17.0463 19.236 13.2788ZM47.5397 7.98564L47.5986 7.84521L43.0111 4.06561C43.0111 5.33646 43.0111 6.4582 43.0111 7.57821C43.0111 7.81921 43.0319 7.99258 43.3475 7.99085C44.7449 7.98045 46.1423 7.98564 47.5397 7.98564Z" fill="#0068E5"/>
<path d="M33.8135 45.2285C33.7355 44.3998 33.5673 43.5745 33.6766 42.7354C33.6055 40.0151 34.4498 37.5653 35.868 35.2802C35.9737 35.1443 36.0343 34.9789 36.0414 34.8069C36.1857 34.7692 36.3099 34.6773 36.3882 34.5503C37.0382 33.7017 37.7712 32.92 38.5762 32.2167C38.6802 32.1404 38.7877 32.0693 38.89 31.9896C41.3523 30.0211 44.4064 28.9405 47.5588 28.9225C48.4031 28.9121 49.2336 29.0283 50.071 29.0595L52.6716 29.753C53.8957 30.339 55.1266 30.9025 56.2137 31.7434C59.1958 34.0475 61.0682 37.0123 61.6109 40.7589C62.1692 44.6339 61.3023 48.1603 58.9149 51.2898C58.7988 51.4441 58.7121 51.6192 58.6098 51.7839C58.263 52.1306 57.8989 52.4566 57.5695 52.8241C57.3112 53.1171 56.876 53.2541 56.7928 53.7032C56.1131 53.8072 55.7127 54.3776 55.1596 54.6966C53.2282 55.8149 51.1997 56.5361 48.9545 56.7234C44.8038 57.0701 41.2358 55.8183 38.1583 53.0565C35.9743 51.1296 34.4913 48.5326 33.9418 45.6724C33.9054 45.5181 33.8551 45.3742 33.8135 45.2285ZM51.8966 42.8654C51.9096 42.5822 51.8239 42.3033 51.6541 42.0762C51.4843 41.8492 51.241 41.6882 50.9656 41.6206C50.7567 41.5702 50.5425 41.5457 50.3276 41.5478C49.0221 41.5287 49.0221 41.5322 49.0065 40.192C49.0103 40.0624 49.0062 39.9327 48.9943 39.8036C48.9565 39.4787 48.7972 39.18 48.5482 38.9678C48.2993 38.7555 47.9792 38.6453 47.6524 38.6593C47.3361 38.6682 47.0345 38.7949 46.8068 39.0146C46.5791 39.2343 46.4416 39.5312 46.4214 39.847C46.3816 40.3827 46.5948 41.0901 46.3191 41.4073C46.0053 41.7853 45.2702 41.4819 44.7223 41.5495C43.9734 41.6397 43.4931 42.1806 43.5191 42.9001C43.5434 43.5936 44.0392 44.0808 44.7692 44.1259C45.2893 44.1571 45.9551 43.9664 46.2741 44.223C46.652 44.5281 46.3694 45.2303 46.411 45.7591C46.4682 46.4872 47.0074 47.0403 47.6923 47.0507C48.0307 47.0472 48.355 46.9145 48.5989 46.68C48.8428 46.4454 48.988 46.1265 49.0047 45.7885C49.0516 45.258 48.7707 44.5662 49.1209 44.2282C49.4711 43.8901 50.1507 44.1709 50.6813 44.1189C51.406 44.0635 51.8897 43.5572 51.8966 42.8654Z" fill="#E2ECF8"/>
<path d="M56.7806 53.6963C56.8604 53.2472 57.3008 53.1102 57.5574 52.8172C57.8798 52.4531 58.2509 52.1237 58.5976 51.777C60.2464 53.4188 61.9022 55.0538 63.5388 56.7078C64.3502 57.5261 64.059 58.7432 62.9979 58.9859C62.4292 59.116 62.0062 58.842 61.6213 58.4572C60.1569 56.9962 58.6878 55.5387 57.2141 54.0846C57.0754 53.9528 56.928 53.828 56.7806 53.6963Z" fill="#0068E5"/>
<path d="M51.8966 42.8654C51.8966 43.5589 51.4042 44.0635 50.6829 44.1311C50.1489 44.1831 49.4693 43.9161 49.1225 44.2403C48.7758 44.5645 49.0532 45.2632 49.0064 45.8007C48.9896 46.1387 48.8445 46.4575 48.6005 46.6921C48.3566 46.9267 48.0323 47.0593 47.6939 47.0629C47.0091 47.0525 46.4699 46.4994 46.4127 45.7712C46.3711 45.2424 46.6537 44.5403 46.2757 44.2351C45.9567 43.9785 45.284 44.1692 44.7708 44.138C44.034 44.0929 43.5451 43.6023 43.5208 42.9123C43.4948 42.1927 43.975 41.6518 44.724 41.5617C45.2719 41.494 46.007 41.7974 46.3208 41.4195C46.5913 41.097 46.3832 40.3896 46.4231 39.8591C46.4433 39.5433 46.5807 39.2465 46.8084 39.0268C47.0362 38.8071 47.3378 38.6803 47.6541 38.6715C47.9809 38.6575 48.3009 38.7677 48.5499 38.9799C48.7988 39.1922 48.9582 39.4908 48.996 39.8158C49.0079 39.9448 49.0119 40.0745 49.0081 40.2041C49.0237 41.5443 49.0237 41.5409 50.3293 41.5599C50.5441 41.5578 50.7584 41.5823 50.9673 41.6327C51.2402 41.7002 51.4815 41.8596 51.6508 42.0841C51.82 42.3086 51.9068 42.5845 51.8966 42.8654Z" fill="#0068E5"/>
<path d="M36.0431 34.8173C33.9279 34.8173 31.8145 34.8087 29.6993 34.7948C28.9572 34.7948 28.5047 34.4723 28.3123 33.8603C28.0539 33.0073 28.6902 32.2202 29.6993 32.208C31.2597 32.1872 32.8079 32.1994 34.3613 32.208C35.7639 32.208 37.1666 32.2184 38.5692 32.2236C37.7674 32.9302 37.0379 33.7148 36.3916 34.5659C36.312 34.6913 36.1872 34.7813 36.0431 34.8173Z" fill="#0068E5"/>
<path d="M34.5139 17.2873C32.9379 17.2873 31.3619 17.2873 29.7877 17.2873C28.8463 17.2873 28.2585 16.7672 28.2637 15.9887C28.2689 15.2102 28.874 14.697 29.8068 14.6953C32.9587 14.6953 36.1101 14.6953 39.2609 14.6953C40.0654 14.6953 40.5855 15.0802 40.7104 15.7165C40.775 16.0034 40.7398 16.3038 40.6105 16.568C40.4813 16.8322 40.2657 17.0443 39.9995 17.1694C39.7378 17.272 39.4559 17.3123 39.176 17.2873C37.6202 17.2896 36.0662 17.2896 34.5139 17.2873Z" fill="#0068E5"/>
<path d="M34.4775 23.4647C36.076 23.4647 37.6728 23.4647 39.2696 23.4647C40.1833 23.4647 40.7295 23.9519 40.7364 24.7373C40.7433 25.5226 40.192 26.0514 39.2974 26.0549C36.1038 26.0653 32.909 26.0653 29.7132 26.0549C28.8463 26.0549 28.2516 25.4828 28.2637 24.7321C28.2759 23.9813 28.8584 23.4681 29.7513 23.4647C31.3273 23.4612 32.9015 23.4647 34.4775 23.4647Z" fill="#0068E5"/>
</g>
<defs>
<clipPath id="clip0_996_5447">
<rect width="64" height="66.4273" fill="white"/>
</clipPath>
</defs>
</svg>
