<svg width="64" height="59" viewBox="0 0 64 59" fill="none" xmlns="http://www.w3.org/2000/svg">
<g clip-path="url(#clip0_996_5494)">
<path d="M0 26.1044C0.391039 25.461 0.954201 25.2287 1.71288 25.2387C4.1293 25.2721 6.54572 25.2487 8.96381 25.2521C10.1169 25.2521 10.5514 25.6816 10.553 26.8346C10.553 32.9386 10.553 39.0432 10.553 45.1483C10.553 46.2963 10.1135 46.7208 8.95712 46.7208C6.53903 46.7208 4.12261 46.699 1.70619 46.7341C0.945839 46.7458 0.381012 46.5186 0 45.8618V26.1044ZM2.50666 35.9839C2.50666 38.5675 2.50666 41.151 2.50666 43.7345C2.50666 44.1038 2.58018 44.2358 2.98292 44.2358C4.5014 44.2102 6.02211 44.2102 7.54505 44.2358C7.94945 44.2358 8.07312 44.1372 8.07145 43.7178C8.05808 38.573 8.05808 33.4271 8.07145 28.2801C8.07145 27.874 7.96784 27.7454 7.55006 27.7521C6.04941 27.7777 4.54931 27.7777 3.04977 27.7521C2.60525 27.7521 2.49997 27.8774 2.50499 28.3069C2.51167 30.8603 2.50164 33.4221 2.50164 35.9839H2.50666Z" fill="#0068E5"/>
<path d="M36.39 22.0302C37.5618 21.4855 38.7742 21.0329 40.0163 20.6765C50.6161 17.7822 61.6621 24.7089 63.6674 35.5143C65.5859 45.8618 59.0285 55.6612 48.7395 57.8269C40.2352 59.615 31.4101 55.1899 27.6718 47.2455C27.5047 46.8928 27.351 46.7124 26.9215 46.6856C26.2865 46.6489 25.9005 46.1626 25.852 45.5159C25.8353 45.2869 25.842 45.058 25.842 44.829C25.842 34.7021 25.847 24.5758 25.857 14.45C25.857 13.8467 25.7166 13.6312 25.1084 13.708C24.6928 13.7345 24.2761 13.7384 23.86 13.7197C23.2969 13.7314 22.8306 13.5526 22.5499 13.0396C22.2691 12.5266 22.4145 12.047 22.717 11.5824C24.9864 8.19229 27.2501 4.79994 29.5084 1.40537C29.6471 1.19648 29.7824 0.987592 29.9228 0.780375C30.6197 -0.242342 31.5839 -0.252378 32.2623 0.770338C33.9335 3.25917 35.5979 5.75081 37.2556 8.24521C37.9942 9.35315 38.7295 10.4628 39.4765 11.5657C39.789 12.0286 39.9277 12.5065 39.6603 13.0279C39.3762 13.581 38.8766 13.7298 38.2967 13.7197C37.7954 13.7197 37.2941 13.7348 36.7927 13.7197C36.4819 13.7064 36.3582 13.7782 36.3599 14.1258C36.3967 16.7144 36.39 19.318 36.39 22.0302ZM28.3586 39.0754C28.3511 43.4788 30.0927 47.705 33.2004 50.8246C36.3081 53.9443 40.5276 55.702 44.931 55.7113C54.0385 55.7196 61.5 48.2698 61.5201 39.1456C61.5401 30.0214 54.0502 22.4947 44.9327 22.5181C40.5412 22.526 36.3316 24.2734 33.2254 27.3778C30.1192 30.4821 28.3692 34.6906 28.3586 39.0821V39.0754ZM25.984 11.2014H26.4586C28.0612 11.2148 28.3453 11.5022 28.3453 13.1081V28.7965C28.3453 29.0104 28.3637 29.2259 28.3804 29.5952C28.5475 29.3396 28.6143 29.2243 28.6862 29.1073C29.9202 27.0975 31.5237 25.3397 33.4121 23.9269C33.5734 23.824 33.7039 23.6795 33.7898 23.5086C33.8757 23.3377 33.9138 23.1467 33.9 22.9559C33.8783 19.5385 33.8867 16.1228 33.89 12.7054C33.89 11.6609 34.3312 11.2181 35.3623 11.2014H36.2479L31.111 3.5143L25.984 11.2014Z" fill="#0068E5"/>
<path d="M23.4857 31.8312C23.4857 36.2262 23.4857 40.6207 23.4857 45.0146C23.4857 46.308 23.0679 46.7208 21.7595 46.7208H14.5169C13.3755 46.7208 12.9093 46.2696 12.9093 45.1449C12.9093 36.2535 12.9093 27.3616 12.9093 18.4691C12.9093 17.3444 13.3755 16.8848 14.5102 16.8832C16.9667 16.8832 19.4238 16.8832 21.8815 16.8832C23.0395 16.8832 23.4891 17.3461 23.4891 18.5242C23.4891 22.9615 23.488 27.3972 23.4857 31.8312ZM20.9791 31.7944C20.9791 27.8557 20.9791 23.9169 20.9891 19.9781C20.9891 19.5319 20.9106 19.3598 20.4159 19.3715C18.9119 19.4066 17.4079 19.3982 15.9156 19.3715C15.4978 19.3715 15.3942 19.4951 15.3942 19.9012C15.4054 27.8401 15.4054 35.78 15.3942 43.7211C15.3942 44.159 15.5613 44.2225 15.9373 44.2225C17.4163 44.2024 18.8969 44.1924 20.3758 44.2225C20.8771 44.2358 20.9941 44.0888 20.9924 43.6008C20.9757 39.6704 20.9841 35.7249 20.9841 31.7944H20.9791Z" fill="#0068E5"/>
<path d="M31.858 39.0888C31.8663 35.6239 33.2469 32.3034 35.6976 29.854C38.1483 27.4046 41.4695 26.0257 44.9344 26.0191C52.1301 26.0024 58.0375 31.9248 58.0224 39.1389C58.0074 46.3531 52.1201 52.217 44.9344 52.2086C41.4608 52.202 38.132 50.8162 35.6799 48.356C33.2278 45.8957 31.8531 42.5624 31.858 39.0888ZM43.9384 36.4067C43.9384 37.2606 43.9284 38.1145 43.9384 38.9685C43.9501 39.7188 44.3261 40.0948 45.0614 40.0998C45.8668 40.0998 46.6723 40.1115 47.4761 40.0998C47.6078 40.1056 47.7393 40.0851 47.8629 40.0395C47.9866 39.9939 48.0998 39.924 48.1962 39.8341C48.2925 39.7442 48.3699 39.6359 48.4239 39.5157C48.4779 39.3955 48.5073 39.2657 48.5105 39.1339C48.5239 38.5741 48.0827 38.1463 47.4627 38.1312C47.135 38.1112 46.8062 38.1112 46.4785 38.1312C46.0507 38.173 45.8869 38.0627 45.9019 37.5848C45.942 36.3716 45.9203 35.155 45.9136 33.9401C45.9136 33.2082 45.5426 32.7854 44.931 32.7871C44.3194 32.7887 43.9451 33.2282 43.9384 33.9434C43.9284 34.764 43.9384 35.5861 43.9384 36.4067Z" fill="#E2ECF8"/>
<path d="M43.6693 35.6831C43.6693 34.642 43.6693 33.6009 43.6693 32.5615C43.6693 31.654 44.1706 31.0942 44.9277 31.0942C45.6847 31.0942 46.1676 31.6273 46.1726 32.5565C46.1726 34.0972 46.2077 35.638 46.1576 37.177C46.1392 37.782 46.3464 37.9207 46.8879 37.8689C47.3035 37.8421 47.7205 37.8421 48.1362 37.8689C48.9216 37.8923 49.4731 38.4337 49.4731 39.1439C49.4731 39.8542 48.9166 40.3572 48.1612 40.3689C47.1419 40.3839 46.1225 40.3806 45.1015 40.3689C44.169 40.3689 43.691 39.8859 43.6777 38.9351C43.6576 37.8472 43.6693 36.7643 43.6693 35.6831Z" fill="#0068E5"/>
</g>
<defs>
<clipPath id="clip0_996_5494">
<rect width="64" height="58.2213" fill="white"/>
</clipPath>
</defs>
</svg>
