<svg width="64" height="64" viewBox="0 0 64 64" fill="none" xmlns="http://www.w3.org/2000/svg">
<g clip-path="url(#clip0_996_11289)">
<path d="M16.2704 38.8877C16.2838 39.5307 16.3089 40.1754 16.3105 40.8184C16.3105 43.3386 16.3239 45.8589 16.3105 48.3775C16.3105 48.8401 16.4241 48.9771 16.8984 48.9737C20.0016 48.952 23.103 48.957 26.2062 48.9737C26.5402 48.9737 26.7172 48.8952 26.8742 48.5729C27.8997 46.3867 29.645 45.2042 32.0517 45.2142C34.4283 45.2226 36.1586 46.4017 37.164 48.5679C37.331 48.932 37.5531 48.9737 37.8888 48.972C40.9702 48.9637 44.0517 48.957 47.1331 48.972C47.5957 48.972 47.7327 48.8601 47.7293 48.3841C47.7082 45.4079 47.7082 42.4306 47.7293 39.4522C47.7293 38.9512 47.5623 38.8844 47.1197 38.886C43.2884 38.9027 39.4571 38.896 35.6258 38.896C34.2897 38.896 33.9039 38.5203 33.9039 37.2042V1.72528C33.9039 0.402524 34.2913 0.0150497 35.6124 0.0150497C42.4422 0.0150497 49.2714 0.0117098 56.1001 0.00502919C56.3889 -0.00655805 56.6768 0.0444608 56.944 0.154584C57.2113 0.264708 57.4515 0.431332 57.6483 0.643026C59.5356 2.55534 61.4446 4.44428 63.3402 6.34824C63.5824 6.59208 63.7895 6.87434 64.0082 7.13822V38.0142C63.6742 38.724 63.0963 38.9228 62.3381 38.9178C58.5302 38.891 54.7206 38.9178 50.9126 38.891C50.3264 38.891 50.2011 39.0581 50.2045 39.6125C50.2295 43.0263 50.2045 46.4384 50.2212 49.8522C50.2212 50.4952 50.1009 51.0631 49.4496 51.3553C49.1541 51.4598 48.84 51.5008 48.5277 51.4756C45.0938 51.4756 41.66 51.4756 38.2262 51.4756C37.9623 51.4756 37.6316 51.3553 37.6483 51.8614C37.6784 52.8635 37.6717 53.8656 37.6483 54.8576C37.6483 55.2184 37.8153 55.2418 38.0993 55.2601C39.8185 55.349 41.4546 56.0274 42.7322 57.1812C44.0098 58.335 44.8509 59.8937 45.1139 61.595C45.2609 62.4969 45.3611 63.4188 44.4024 64.01H19.7828C19.0613 63.6877 18.8341 63.1299 18.8709 62.3516C19.0496 58.5937 22.131 55.4522 25.8855 55.2685C26.2863 55.2484 26.4183 55.1482 26.4032 54.7374C26.3732 53.8422 26.3682 52.9453 26.4032 52.0518C26.4233 51.5892 26.3014 51.4572 25.8237 51.4606C22.4099 51.4823 18.9945 51.4739 15.579 51.4722C14.2429 51.4722 13.8304 51.0664 13.832 49.7236C13.832 46.1217 13.8376 42.5192 13.8487 38.9161L16.2704 38.8877ZM36.389 19.4489C36.389 24.8835 36.389 30.3165 36.3773 35.7512C36.3773 36.2522 36.4625 36.4192 37.007 36.4109C44.9803 36.3908 52.9547 36.3908 60.9302 36.4109C61.3894 36.4109 61.5114 36.3107 61.5114 35.838C61.4947 26.7391 61.4947 17.6401 61.5114 8.54115C61.5188 8.38912 61.4927 8.23732 61.435 8.09648C61.3773 7.95564 61.2893 7.8292 61.1773 7.72611C59.5495 6.11609 57.9306 4.49661 56.3206 2.86766C56.211 2.7479 56.0763 2.65378 55.9262 2.592C55.7761 2.53022 55.6142 2.50231 55.4521 2.51025C49.3093 2.52027 43.167 2.52027 37.0254 2.51025C36.5059 2.51025 36.3807 2.63384 36.3824 3.15326C36.3957 8.57956 36.389 14.0142 36.389 19.4489ZM42.4851 61.4814C41.9606 59.3904 40.1068 57.7837 38.0441 57.7604C34.0091 57.7147 29.9729 57.7147 25.9356 57.7604C23.8763 57.7871 21.9105 59.5207 21.5465 61.4781L42.4851 61.4814ZM31.9999 55.2368C32.8951 55.2368 33.7903 55.2217 34.6838 55.2368C35.0329 55.2468 35.1498 55.1516 35.1448 54.7892C35.1231 53.4363 35.1548 52.0835 35.1281 50.7307C35.1062 49.9132 34.7635 49.1371 34.1741 48.5702C33.5847 48.0033 32.7959 47.6911 31.9782 47.7011C31.1679 47.7048 30.3909 48.0244 29.8127 48.5921C29.2344 49.1598 28.9004 49.9306 28.8817 50.7407C28.855 52.0919 28.8817 53.4464 28.865 54.7992C28.865 55.1533 28.9652 55.2618 29.3193 55.2518C30.2145 55.2167 31.1097 55.2368 31.9999 55.2368Z" fill="#0068E5"/>
<path d="M16.2706 38.8877L13.8288 38.906L0.835073 38.8843C0.0167014 38.8843 0.0150256 38.8843 0.0150256 38.0877C0.0150256 25.6551 0.0100209 13.2231 0 0.791633C0 0.156977 0.158662 -0.00168761 0.791648 -1.74676e-05C8.01781 0.0233646 15.244 0.0233646 22.4701 -1.74676e-05C22.6638 -0.00865038 22.8571 0.0249719 23.0365 0.0985154C23.2158 0.172059 23.3771 0.283763 23.509 0.42587C25.5733 2.51355 27.6493 4.58954 29.7369 6.65384C29.8719 6.77901 29.9778 6.93228 30.0471 7.10283C30.1163 7.27339 30.1473 7.45707 30.1378 7.6409C30.13 17.8255 30.13 28.0089 30.1378 38.1912C30.1378 38.7374 30.0042 38.8927 29.4463 38.891C25.0572 38.8743 20.663 38.886 16.2706 38.8877ZM15.0797 33.8772H18.7658C20.4526 33.8772 22.1378 33.8872 23.8246 33.8772C23.9917 33.8806 24.1578 33.8505 24.3131 33.7887C24.4684 33.727 24.6098 33.6348 24.729 33.5177C24.8482 33.4005 24.9427 33.2607 25.0071 33.1065C25.0715 32.9523 25.1044 32.7867 25.104 32.6196C25.0925 32.2934 24.9564 31.9839 24.7237 31.755C24.491 31.526 24.1794 31.3949 23.853 31.3887C23.6042 31.3653 23.3537 31.3653 23.1048 31.3887C22.6822 31.4422 22.5921 31.2651 22.5937 30.8676C22.6104 28.2856 22.5937 25.7035 22.5937 23.1215C22.5937 22.1444 22.6121 21.1641 22.5937 20.187C22.5704 19.3102 22.0042 18.7925 21.2075 18.8626C20.5177 18.9227 20.1052 19.4321 20.1035 20.2672C20.1035 23.7862 20.0935 27.3052 20.1035 30.8225C20.1035 31.2367 20.0334 31.4305 19.5674 31.3921C19.0481 31.3561 18.5269 31.3561 18.0075 31.3921C17.6384 31.4121 17.5599 31.2651 17.5633 30.9261C17.5783 29.3645 17.5633 27.8029 17.5633 26.2413C17.5633 25.4497 17.585 24.658 17.5465 23.868C17.5081 23.033 16.9219 22.5453 16.152 22.6271C15.4639 22.7006 15.0597 23.2334 15.0564 24.1186C15.048 26.3666 15.0447 28.6146 15.0564 30.8643C15.0564 31.2534 14.9779 31.4305 14.5553 31.3921C14.1192 31.3528 13.6804 31.3528 13.2442 31.3921C12.7014 31.4438 12.506 31.3019 12.5144 30.6989C12.5511 27.9098 12.5311 25.119 12.5294 22.3298C12.5294 21.5599 12.5495 20.7883 12.5161 20.02C12.4827 19.2518 11.8681 18.7774 11.1115 18.8693C10.42 18.9528 10.0326 19.4789 10.0309 20.3724C10.0309 23.4338 10.0309 26.4935 10.0309 29.5582C10.0309 30.1511 10.2998 30.9445 9.91064 31.2835C9.57661 31.5774 8.8 31.3386 8.22547 31.3954C7.65094 31.4522 7.50229 31.2801 7.50563 30.6956C7.53235 26.0108 7.52065 21.3277 7.52232 16.643C7.52232 16.2655 7.52234 15.8931 7.26848 15.5758C7.11196 15.3643 6.89139 15.209 6.63954 15.1328C6.3877 15.0567 6.11802 15.0639 5.87057 15.1532C5.32443 15.3202 5.02379 15.8096 5.02212 16.5344C5.02212 21.8221 5.02212 27.1109 5.02212 32.4008C5.02212 33.4213 5.49644 33.8856 6.52525 33.8872C9.37675 33.8872 12.2282 33.8856 15.0797 33.8822V33.8772ZM13.139 7.51731C15.387 7.51731 17.6362 7.51731 19.8864 7.51731C20.7532 7.51731 21.3144 7.03965 21.3344 6.30813C21.3545 5.5766 20.7716 5.02211 19.8847 5.02044C15.431 5.02044 10.974 5.02044 6.51357 5.02044C5.62338 5.02044 5.03048 5.53819 5.03215 6.27806C5.03382 7.01794 5.60835 7.51564 6.51524 7.51731C8.72317 7.52399 10.9311 7.52566 13.139 7.52232V7.51731ZM10.0509 12.5378C11.2356 12.5378 12.4198 12.5378 13.6033 12.5378C13.916 12.5647 14.2293 12.4941 14.5002 12.3357C14.724 12.1805 14.893 11.9584 14.983 11.7013C15.073 11.4443 15.0794 11.1653 15.0012 10.9044C14.8342 10.3632 14.3516 10.0426 13.6301 10.0409C11.2618 10.0331 8.89352 10.0331 6.52525 10.0409C5.62671 10.0409 5.04385 10.5419 5.03549 11.2868C5.02714 12.0317 5.59832 12.5311 6.50354 12.5378C7.68266 12.5478 8.86679 12.5428 10.0509 12.5428V12.5378Z" fill="#E2ECF8"/>
<path d="M15.0798 33.8823C12.2283 33.8823 9.37625 33.8823 6.52364 33.8823C5.50151 33.8823 5.02051 33.4163 5.02051 32.3958C5.02051 27.107 5.02051 21.8183 5.02051 16.5295C5.02051 15.8046 5.32282 15.3069 5.86896 15.1482C6.11641 15.0589 6.38609 15.0517 6.63793 15.1279C6.88978 15.204 7.11034 15.3593 7.26687 15.5708C7.5224 15.8881 7.52073 16.2606 7.52073 16.638C7.52073 21.3144 7.53074 26.0059 7.50401 30.6906C7.50401 31.2752 7.67104 31.4439 8.22386 31.3904C8.77668 31.337 9.575 31.5725 9.90903 31.2785C10.2982 30.9445 10.0259 30.1462 10.0293 29.5533C10.0426 26.4919 10.0293 23.4322 10.0293 20.3674C10.0293 19.4723 10.4184 18.9462 11.1099 18.8643C11.8665 18.7725 12.4794 19.2501 12.5145 20.0151C12.5495 20.78 12.5278 21.5549 12.5278 22.3249C12.5278 25.114 12.5495 27.9048 12.5128 30.694C12.5044 31.2969 12.6998 31.4389 13.2426 31.3871C13.6788 31.3478 14.1176 31.3478 14.5537 31.3871C14.9829 31.4255 15.0648 31.2485 15.0548 30.8593C15.0381 28.6096 15.0414 26.3616 15.0548 24.1136C15.0548 23.2284 15.4623 22.6956 16.1504 22.6221C16.9203 22.5403 17.5065 23.033 17.5449 23.8631C17.5833 24.653 17.56 25.4447 17.5616 26.2363C17.5616 27.7979 17.5616 29.3595 17.5616 30.9211C17.5616 31.2551 17.6368 31.4071 18.0059 31.3871C18.5252 31.3512 19.0465 31.3512 19.5658 31.3871C20.0318 31.4255 20.1053 31.2318 20.1019 30.8176C20.0869 27.3002 20.0919 23.7812 20.1019 20.2622C20.1019 19.4272 20.5161 18.9178 21.2059 18.8576C22.0026 18.7875 22.5687 19.3052 22.5921 20.1821C22.6172 21.1591 22.5921 22.1395 22.5921 23.1165C22.5921 25.6986 22.5921 28.2806 22.5921 30.8626C22.5921 31.2601 22.6806 31.4372 23.1032 31.3837C23.352 31.3603 23.6025 31.3603 23.8514 31.3837C24.1778 31.3899 24.4894 31.521 24.7221 31.75C24.9548 31.9789 25.0909 32.2884 25.1023 32.6146C25.1028 32.7818 25.0699 32.9473 25.0055 33.1015C24.9411 33.2557 24.8465 33.3955 24.7274 33.5127C24.6082 33.6298 24.4668 33.722 24.3115 33.7838C24.1562 33.8455 23.9901 33.8756 23.823 33.8723C22.1362 33.889 20.451 33.8723 18.7641 33.8723L15.0798 33.8823Z" fill="#0068E5"/>
<path d="M13.1391 7.52238C10.9312 7.52238 8.72325 7.52238 6.51532 7.52238C5.60843 7.52238 5.03223 7.0347 5.03223 6.28313C5.03223 5.53157 5.62346 5.02718 6.51365 5.02551C10.9674 5.02551 15.4244 5.02551 19.8848 5.02551C20.7717 5.02551 21.3562 5.5633 21.3345 6.3132C21.3128 7.06309 20.7533 7.52071 19.8865 7.52238C17.6374 7.52572 15.3882 7.52572 13.1391 7.52238Z" fill="#0068E5"/>
<path d="M10.051 12.5428C8.86689 12.5428 7.68277 12.5428 6.49864 12.5428C5.59342 12.5428 5.0239 12.0417 5.03058 11.2918C5.03726 10.5419 5.62179 10.0492 6.52033 10.0459C8.8886 10.0392 11.2569 10.0392 13.6251 10.0459C14.3466 10.0459 14.8293 10.3682 14.9963 10.9094C15.0745 11.1703 15.0681 11.4493 14.9781 11.7063C14.8881 11.9634 14.7191 12.1855 14.4953 12.3407C14.2244 12.4991 13.9111 12.5697 13.5984 12.5428C12.4182 12.5405 11.2357 12.5405 10.051 12.5428Z" fill="#0068E5"/>
<path d="M48.9254 33.8823C46.432 33.8708 44.0445 32.8729 42.2845 31.1067C40.5245 29.3404 39.5351 26.9494 39.5325 24.456C39.5475 21.963 40.5479 19.5771 42.3154 17.819C44.0829 16.0608 46.4741 15.0731 48.9671 15.0714C51.461 15.0824 53.849 16.0804 55.6091 17.8471C57.3692 19.6138 58.3583 22.0055 58.36 24.4994C58.3463 26.9926 57.3463 29.3791 55.5785 31.1372C53.8106 32.8954 51.4187 33.8823 48.9254 33.8823ZM47.6995 21.3127C47.6995 20.3107 47.6661 19.3086 47.7112 18.3165C47.7379 17.7036 47.5141 17.6969 47.0281 17.8422C45.4451 18.2999 44.0784 19.3097 43.1761 20.6885C42.2737 22.0674 41.8953 23.7239 42.1095 25.3578C42.3132 26.9281 43.0499 28.3809 44.1963 29.4732C45.3427 30.5654 46.8293 31.231 48.4076 31.3587C51.7095 31.5992 54.8076 29.4146 55.6093 26.2881C55.7078 25.9023 55.6995 25.7102 55.1901 25.7186C53.1859 25.7487 51.1934 25.7353 49.1959 25.7286C48.1655 25.7286 47.7128 25.2743 47.6928 24.2455C47.6995 23.2735 47.6995 22.2948 47.6995 21.3127ZM55.7396 23.2334C55.6527 22.9077 55.5959 22.6238 55.5024 22.3532C54.6991 20.0234 53.1024 18.5119 50.7458 17.8155C50.5204 17.747 50.1947 17.5566 50.1963 18.0693C50.2053 19.6715 50.2053 21.2738 50.1963 22.876C50.1963 23.1432 50.2932 23.2384 50.5621 23.2368C52.2707 23.2317 53.9759 23.2368 55.7429 23.2368L55.7396 23.2334Z" fill="#0068E5"/>
<path d="M47.0646 7.52397C44.8378 7.52397 42.6109 7.52397 40.384 7.52397C39.4855 7.52397 38.906 7.02292 38.9043 6.28472C38.9026 5.54651 39.4955 5.02877 40.384 5.0271C44.8378 5.0271 49.2876 5.0271 53.7335 5.0271C54.6237 5.0271 55.2133 5.5415 55.2133 6.28305C55.2133 7.02459 54.6321 7.5223 53.7335 7.52397C51.5122 7.52619 49.2893 7.52619 47.0646 7.52397Z" fill="#0068E5"/>
<path d="M43.9416 12.5428C42.7357 12.5428 41.5316 12.5428 40.3257 12.5428C39.4689 12.5428 38.9078 12.0317 38.9094 11.3035C38.9111 10.5753 39.4773 10.0526 40.3257 10.0492C42.7352 10.037 45.1458 10.037 47.5574 10.0492C48.4076 10.0492 48.9503 10.587 48.932 11.3319C48.9136 12.0768 48.3875 12.5311 47.5574 12.5394C46.3516 12.5511 45.1474 12.5428 43.9416 12.5428Z" fill="#0068E5"/>
</g>
<defs>
<clipPath id="clip0_996_11289">
<rect width="63.9983" height="64" fill="white"/>
</clipPath>
</defs>
</svg>
