<svg width="32" height="32" viewBox="0 0 32 32" fill="none" xmlns="http://www.w3.org/2000/svg">
<rect width="32" height="32" rx="16" fill="#0068E5"/>
<path d="M16 9C14.5418 9.00172 13.1439 9.58174 12.1128 10.6128C11.0817 11.6439 10.5017 13.0418 10.5 14.5C10.4987 15.6915 10.8879 16.8507 11.608 17.8C11.608 17.8 11.758 17.9975 11.7825 18.026L16 23L20.2195 18.0235C20.2415 17.997 20.392 17.8 20.392 17.8L20.3925 17.7985C21.1122 16.8495 21.5012 15.691 21.5 14.5C21.4983 13.0418 20.9183 11.6439 19.8872 10.6128C18.8561 9.58174 17.4582 9.00172 16 9ZM16 16.5C15.6044 16.5 15.2178 16.3827 14.8889 16.1629C14.56 15.9432 14.3036 15.6308 14.1522 15.2654C14.0009 14.8999 13.9613 14.4978 14.0384 14.1098C14.1156 13.7219 14.3061 13.3655 14.5858 13.0858C14.8655 12.8061 15.2219 12.6156 15.6098 12.5384C15.9978 12.4613 16.3999 12.5009 16.7654 12.6522C17.1308 12.8036 17.4432 13.06 17.6629 13.3889C17.8827 13.7178 18 14.1044 18 14.5C17.9993 15.0302 17.7884 15.5386 17.4135 15.9135C17.0386 16.2884 16.5302 16.4993 16 16.5Z" fill="white"/>
</svg>
