<svg width="63" height="64" viewBox="0 0 63 64" fill="none" xmlns="http://www.w3.org/2000/svg">
<g clip-path="url(#clip0_96_11277)">
<path d="M32.3695 64C31.6846 63.6024 31.4574 62.9977 31.5008 62.2276C31.5493 61.3924 31.5008 60.5571 31.5192 59.7219C31.5192 59.4078 31.4474 59.2508 31.1333 59.1389C29.1755 58.4473 28.0312 57.0474 27.6771 55.0161C27.656 54.8658 27.6029 54.7218 27.5213 54.5938C27.4398 54.4659 27.3317 54.3569 27.2043 54.2744C26.1118 53.4809 25.0327 52.6757 23.9385 51.8705C22.1611 50.5525 21.5664 48.4627 22.4351 46.5734C23.3037 44.6841 25.2749 43.7336 27.4115 44.2063C27.4876 44.2125 27.5642 44.2125 27.6403 44.2063C27.6403 42.7262 27.6403 41.249 27.6403 39.7745C27.6403 38.0672 27.6203 36.36 27.6587 34.6527C27.6652 33.7707 27.9731 32.9173 28.5313 32.2343C29.0894 31.5513 29.8643 31.0796 30.7274 30.8975C31.5607 30.7289 32.4264 30.8407 33.1896 31.2153C33.9528 31.59 34.5707 32.2065 34.9471 32.9689C35.2288 33.575 35.3655 34.2385 35.3463 34.9067C35.3463 36.5103 35.3463 38.1123 35.3263 39.716C35.3263 40.1236 35.3263 40.3591 35.8742 40.2673C36.5837 40.1631 37.3064 40.3327 37.8955 40.7417C38.1661 40.9171 38.3448 40.9522 38.6522 40.7617C40.0621 39.8914 41.7092 40.1102 42.8568 41.3197C43.1058 41.5836 43.2828 41.5886 43.5952 41.4867C45.7669 40.7584 47.9819 42.2819 48.0086 44.5788C48.0454 47.8263 48.0738 51.077 47.9953 54.3228C47.9402 56.593 46.7458 58.195 44.6543 59.0687C44.2835 59.224 44.1415 59.371 44.1532 59.7703C44.1832 60.6055 44.1264 61.4408 44.1732 62.276C44.2166 63.0628 43.9794 63.6492 43.2544 64H32.3695ZM45.5163 49.5352V47.5991C45.5163 46.6402 45.5163 45.6819 45.5163 44.7242C45.5163 44.2113 45.264 43.8755 44.7579 43.8204C44.2517 43.7653 43.9326 44.0376 43.8074 44.5304C43.7823 44.6323 43.7723 44.7359 43.7422 44.8361C43.668 45.0986 43.5096 45.3296 43.2914 45.4935C43.0732 45.6573 42.8073 45.745 42.5344 45.7432C42.2496 45.7446 41.9736 45.6445 41.756 45.4608C41.5383 45.2771 41.3932 45.0219 41.3467 44.7409C41.2749 44.3333 41.3016 43.9056 41.2582 43.498C41.2448 43.3079 41.1635 43.129 41.0292 42.9938C40.8949 42.8585 40.7165 42.7761 40.5265 42.7613C40.3393 42.726 40.1457 42.7584 39.9802 42.8527C39.8147 42.9469 39.688 43.0969 39.6228 43.2758C39.5686 43.4324 39.5256 43.5926 39.4941 43.7553C39.4236 44.0414 39.2533 44.293 39.0138 44.4648C38.7744 44.6366 38.4815 44.7173 38.1878 44.6924C37.5196 44.6156 37.1387 44.2163 37.0285 43.5698C36.9466 43.0971 36.6944 42.7981 36.22 42.758C35.7055 42.7146 35.4165 43.0253 35.2761 43.4947C35.2645 43.5348 35.2611 43.5765 35.2461 43.615C35.0155 44.218 34.4643 44.5655 33.8846 44.4736C33.305 44.3817 32.8823 43.9206 32.8255 43.2625C32.8088 43.0353 32.8155 42.8048 32.8155 42.5759C32.8244 40.0969 32.8322 37.6184 32.8389 35.1405C32.8468 34.9326 32.8395 34.7243 32.8172 34.5174C32.7865 34.1927 32.634 33.8917 32.3904 33.6748C32.1469 33.4579 31.8302 33.3411 31.5042 33.3481C31.1766 33.3385 30.8574 33.4523 30.6098 33.6671C30.3623 33.8818 30.2045 34.1818 30.1678 34.5074C30.1399 34.7346 30.1304 34.9636 30.1394 35.1923C30.1316 38.9008 30.1266 42.6088 30.1243 46.3161C30.1243 46.8641 29.9473 47.3001 29.4561 47.5673C28.94 47.853 28.4538 47.7344 28.0045 47.3903C27.7465 47.1797 27.4735 46.9882 27.1876 46.8173C26.9013 46.6405 26.5685 46.5536 26.2323 46.5679C25.8961 46.5822 25.5719 46.697 25.3016 46.8975C24.6802 47.3318 24.4547 47.9482 24.5866 48.6999C24.6819 49.2328 25.0226 49.5786 25.4353 49.8826C26.76 50.8549 28.0797 51.8354 29.4077 52.8043C29.817 53.1034 30.0759 53.4625 30.106 53.9904C30.2062 55.8931 30.9011 56.6415 32.8038 56.9204C33.5873 57.0357 33.9848 57.4684 33.9949 58.2568C34.0082 59.194 34.0116 60.1328 33.9949 61.0683C33.9949 61.3907 34.0734 61.5009 34.4092 61.4976C36.6788 61.4809 38.9496 61.4775 41.2214 61.4876C41.5555 61.4876 41.6508 61.3923 41.6441 61.0649C41.6251 60.1495 41.6251 59.2335 41.6441 58.317C41.6591 57.4516 42.0784 56.9906 42.9003 56.8904C44.5708 56.6849 45.4929 55.6509 45.5046 53.9637C45.5246 52.4936 45.5163 51.0152 45.5163 49.5402V49.5352Z" fill="white"/>
<path d="M57.9933 25.5068C58.9087 25.5185 59.8308 25.5218 60.7379 25.5452C61.3059 25.5602 61.7569 25.8108 61.9507 26.3604C62.0473 26.5941 62.067 26.8526 62.0069 27.0982C61.9469 27.3439 61.8102 27.5641 61.6166 27.7269C61.4365 27.9023 61.1994 28.0073 60.9484 28.0226C60.6778 28.0326 60.4072 28.0443 60.1366 28.0443H2.86028C2.63142 28.0443 2.40257 28.0443 2.17371 28.0343C1.46375 27.9808 0.992678 27.5131 0.969291 26.8499C0.956005 26.6873 0.976242 26.5238 1.02875 26.3694C1.08126 26.215 1.16492 26.073 1.27456 25.9522C1.38419 25.8315 1.51746 25.7345 1.6661 25.6674C1.81473 25.6002 1.97556 25.5644 2.13864 25.5619C2.92711 25.5135 3.72059 25.5469 4.51073 25.5402C4.67778 25.5402 4.84483 25.5185 5.01188 25.5068C10.3575 25.5168 15.703 25.5291 21.0486 25.5435C21.3727 25.5435 21.4195 25.3965 21.4178 25.1259C21.4028 23.0061 21.3978 20.8845 21.3894 18.7647C21.4061 17.4366 21.5999 16.157 22.3917 15.0328C23.2272 13.8243 24.494 12.982 25.9315 12.6791C24.2794 10.7496 23.5928 8.57298 24.0622 6.11067C24.39 4.33008 25.3697 2.73563 26.8102 1.63876C28.2682 0.484211 30.0992 -0.0950411 31.956 0.0108831C33.8127 0.116807 35.566 0.90054 36.8833 2.21341C39.4825 4.80602 40.1023 9.161 37.1706 12.6106C37.2107 12.8194 37.3994 12.7425 37.5197 12.7776C39.9386 13.5026 41.5055 15.5289 41.6108 18.0798L41.6408 18.7647C41.6408 20.8227 41.6408 22.8808 41.6041 24.9455C41.5941 25.4467 41.7561 25.5569 42.2322 25.5552C47.2036 25.5385 52.175 25.5452 57.1464 25.5435C57.412 25.5369 57.7026 25.5168 57.9933 25.5068ZM31.5043 25.5402C33.8346 25.5402 36.165 25.5302 38.497 25.5502C38.9396 25.5502 39.1084 25.4734 39.1017 24.9789C39.0733 22.7722 39.1017 20.5671 39.0867 18.3604C39.075 16.3842 37.8204 15.1113 35.8542 15.1013C32.9409 15.0868 30.0275 15.0868 27.1142 15.1013C25.1814 15.1113 23.9152 16.3859 23.9035 18.317C23.8885 20.5438 23.9035 22.7705 23.8901 24.999C23.8901 25.44 24.0188 25.5552 24.4498 25.5519C26.7985 25.5302 29.1522 25.5402 31.5043 25.5402ZM36.5959 7.54062C36.5959 4.78931 34.3007 2.5141 31.521 2.50407C28.7095 2.49238 26.3892 4.77762 26.3925 7.54897C26.3959 10.3203 28.6845 12.5688 31.4675 12.5939C34.2505 12.6189 36.5993 10.307 36.5959 7.54062Z" fill="white"/>
<path d="M57.9932 25.5068C57.7026 25.5168 57.4119 25.5369 57.1229 25.5369C52.1515 25.5369 47.1801 25.5369 42.2087 25.5486C41.7327 25.5486 41.5706 25.445 41.5806 24.9388C41.6191 22.8808 41.609 20.8227 41.6174 18.758C42.6335 17.9075 43.9433 17.4906 45.2641 17.597C46.2495 17.6406 47.2364 17.6317 48.2209 17.5703C46.4468 17.1777 44.9617 16.3408 43.9193 14.8256C42.8536 13.2754 42.5829 11.5565 43.0223 9.76237C43.7356 6.79558 46.5771 4.78931 49.6458 5.00146C52.641 5.20861 55.1801 7.6375 55.4808 10.636C55.7564 13.3857 54.1728 16.6983 50.152 17.6104C51.3564 17.6104 52.5608 17.6104 53.7652 17.6104C54.8905 17.6165 55.9673 18.0686 56.7598 18.8674C57.5524 19.6661 57.9959 20.7466 57.9932 21.8718C57.9966 23.0896 57.9932 24.299 57.9932 25.5068Z" fill="#00BF37"/>
<path d="M21.3709 18.7647C21.3709 20.8845 21.3843 23.0061 21.3994 25.1259C21.3994 25.3965 21.3542 25.5452 21.0302 25.5435C15.6846 25.5246 10.339 25.5124 4.99341 25.5068C4.99341 24.3185 4.99341 23.1313 4.99341 21.9453C4.99341 19.5014 6.84767 17.6354 9.28492 17.6187C10.4726 17.6104 11.6587 17.6187 12.8648 17.5803C11.1007 17.1861 9.62737 16.3441 8.59668 14.8373C8.09027 14.1215 7.7436 13.3052 7.58019 12.4438C7.41677 11.5823 7.44041 10.6958 7.6495 9.84423C8.3177 6.9075 11.1191 4.84945 14.2179 4.9998C17.1195 5.1468 19.774 7.54229 20.103 10.3704C20.4539 13.3957 18.9638 16.6047 14.7691 17.6087C15.7714 17.6087 16.7838 17.6621 17.776 17.597C19.0808 17.5021 20.371 17.9212 21.3709 18.7647Z" fill="#00BF37"/>
</g>
<defs>
<clipPath id="clip0_96_11277">
<rect width="61.0716" height="64" fill="white" transform="translate(0.964233)"/>
</clipPath>
</defs>
</svg>
