<svg width="152" height="20" viewBox="0 0 152 20" fill="none" xmlns="http://www.w3.org/2000/svg">
<path d="M10.0001 0.0415039C4.47724 0.0415039 0 4.51874 0 10.0416C0 14.9949 3.60522 19.0971 8.3322 19.8914V12.1278H5.91994V9.334H8.3322V7.274C8.3322 4.88377 9.7921 3.58123 11.9247 3.58123C12.9461 3.58123 13.8238 3.65733 14.0786 3.69086V6.18929L12.5995 6.19001C11.44 6.19001 11.2165 6.74089 11.2165 7.54957V9.3326H13.9832L13.6223 12.1264H11.2165V19.9582C16.1642 19.3561 20 15.1494 20 10.0387C20 4.51874 15.5228 0.0415039 10.0001 0.0415039Z" fill="#141414"/>
<path d="M64 20V12.675C64 9.075 63.225 6.325 59.025 6.325C57 6.325 55.65 7.425 55.1 8.475H55.05V6.65H51.075V20H55.225V13.375C55.225 11.625 55.55 9.95 57.7 9.95C59.825 9.95 59.85 11.925 59.85 13.475V19.975H64V20ZM44.325 6.65H48.475V20H44.325V6.65ZM46.4 0C45.075 0 44 1.075 44 2.4C44 3.725 45.075 4.825 46.4 4.825C47.725 4.825 48.8 3.725 48.8 2.4C48.8 1.075 47.725 0 46.4 0Z" fill="#141414"/>
<path d="M107.945 5.88008C107.898 4.81737 107.727 4.08683 107.48 3.45373C107.226 2.78177 106.836 2.18016 106.324 1.68002C105.824 1.17211 105.218 0.77742 104.554 0.52745C103.917 0.28131 103.19 0.1094 102.128 0.0625899C101.057 0.0117199 100.717 0 98.002 0C95.287 0 94.947 0.0117199 93.88 0.05861C92.817 0.10549 92.087 0.27748 91.454 0.52346C90.782 0.77742 90.18 1.16812 89.68 1.68002C89.172 2.18012 88.778 2.78571 88.527 3.44991C88.281 4.08683 88.109 4.81346 88.062 5.87609C88.012 6.94673 88 7.28661 88 10.002C88 12.7174 88.012 13.0573 88.059 14.1239C88.105 15.1866 88.277 15.9172 88.524 16.5502C88.778 17.2222 89.172 17.8238 89.68 18.324C90.18 18.8319 90.786 19.2266 91.45 19.4765C92.087 19.7227 92.813 19.8946 93.876 19.9414C94.943 19.9884 95.283 20 97.998 20C100.713 20 101.053 19.9884 102.12 19.9414C103.183 19.8945 103.913 19.7227 104.546 19.4765C105.211 19.2195 105.815 18.8265 106.319 18.3225C106.822 17.8186 107.216 17.215 107.473 16.5502C107.719 15.9134 107.891 15.1866 107.938 14.1239C107.984 13.0573 107.996 12.7174 107.996 10.002C107.996 7.28661 107.992 6.9467 107.945 5.88008ZM106.144 14.0458C106.101 15.0225 105.937 15.55 105.8 15.9016C105.464 16.7729 104.773 17.4644 103.902 17.8005C103.55 17.9372 103.019 18.1013 102.046 18.1442C100.991 18.1912 100.674 18.2028 98.006 18.2028C95.337 18.2028 95.017 18.1912 93.966 18.1442C92.989 18.1013 92.462 17.9372 92.11 17.8005C91.677 17.6402 91.282 17.3863 90.961 17.0542C90.629 16.7299 90.375 16.3392 90.215 15.9056C90.078 15.554 89.914 15.0225 89.871 14.0498C89.824 12.9949 89.813 12.6783 89.813 10.0098C89.813 7.34123 89.824 7.02089 89.871 5.96998C89.914 4.99322 90.078 4.46577 90.215 4.11414C90.375 3.68038 90.629 3.28581 90.965 2.96536C91.29 2.63326 91.68 2.3793 92.114 2.21923C92.466 2.08248 92.997 1.91839 93.97 1.87537C95.025 1.82849 95.341 1.81677 98.01 1.81677C100.682 1.81677 100.999 1.82849 102.05 1.87537C103.026 1.91843 103.554 2.08245 103.905 2.21919C104.339 2.3793 104.734 2.63326 105.054 2.96536C105.386 3.28968 105.64 3.68038 105.8 4.11414C105.937 4.46577 106.101 4.99701 106.144 5.96998C106.191 7.02488 106.203 7.34123 106.203 10.0098C106.203 12.6783 106.191 12.9909 106.144 14.0458Z" fill="#141414"/>
<path d="M98.002 4.86446C95.166 4.86446 92.864 7.16562 92.864 10.0022C92.864 12.8387 95.166 15.1399 98.002 15.1399C100.838 15.1399 103.14 12.8387 103.14 10.0022C103.14 7.16562 100.838 4.86446 98.002 4.86446ZM98.002 13.3349C96.162 13.3349 94.669 11.8424 94.669 10.0022C94.669 8.16194 96.162 6.6695 98.002 6.6695C99.842 6.6695 101.335 8.16194 101.335 10.0022C101.335 11.8424 99.842 13.3349 98.002 13.3349ZM104.542 4.66129C104.542 5.32369 104.005 5.86075 103.343 5.86075C102.68 5.86075 102.143 5.32369 102.143 4.66129C102.143 3.99881 102.68 3.46191 103.343 3.46191C104.005 3.46191 104.542 3.99877 104.542 4.66129Z" fill="#141414"/>
<path d="M151.996 3.79875C151.252 4.125 150.46 4.34125 149.634 4.44625C150.484 3.93875 151.132 3.14125 151.437 2.18C150.645 2.6525 149.77 2.98625 148.837 3.1725C148.085 2.37125 147.012 1.875 145.842 1.875C143.572 1.875 141.745 3.7175 141.745 5.97625C141.745 6.30125 141.772 6.61375 141.84 6.91125C138.431 6.745 135.415 5.11125 133.389 2.6225C133.035 3.23625 132.827 3.93875 132.827 4.695C132.827 6.115 133.559 7.37375 134.649 8.1025C133.99 8.09 133.344 7.8988 132.796 7.5975V7.6425C132.796 9.635 134.217 11.29 136.081 11.6712C135.747 11.7625 135.384 11.8062 135.006 11.8062C134.744 11.8062 134.479 11.7913 134.23 11.7362C134.761 13.36 136.269 14.5538 138.061 14.5925C136.666 15.6838 134.895 16.3412 132.977 16.3412C132.641 16.3412 132.319 16.3263 131.996 16.285C133.812 17.4563 135.965 18.125 138.286 18.125C145.831 18.125 149.956 11.875 149.956 6.4575C149.956 6.27625 149.95 6.10125 149.941 5.9275C150.755 5.35 151.439 4.62875 151.996 3.79875Z" fill="#141414"/>
</svg>
